G04 #@! TF.GenerationSoftware,KiCad,Pcbnew,(5.1.4)-1*
G04 #@! TF.CreationDate,2020-07-10T19:03:40+02:00*
G04 #@! TF.ProjectId,receiver,72656365-6976-4657-922e-6b696361645f,rev?*
G04 #@! TF.SameCoordinates,Original*
G04 #@! TF.FileFunction,Legend,Top*
G04 #@! TF.FilePolarity,Positive*
%FSLAX46Y46*%
G04 Gerber Fmt 4.6, Leading zero omitted, Abs format (unit mm)*
G04 Created by KiCad (PCBNEW (5.1.4)-1) date 2020-07-10 19:03:40*
%MOMM*%
%LPD*%
G04 APERTURE LIST*
%ADD10C,0.150000*%
%ADD11C,0.120000*%
G04 APERTURE END LIST*
D10*
X119110952Y-55808571D02*
X119253809Y-55856190D01*
X119301428Y-55903809D01*
X119349047Y-55999047D01*
X119349047Y-56141904D01*
X119301428Y-56237142D01*
X119253809Y-56284761D01*
X119158571Y-56332380D01*
X118777619Y-56332380D01*
X118777619Y-55332380D01*
X119110952Y-55332380D01*
X119206190Y-55380000D01*
X119253809Y-55427619D01*
X119301428Y-55522857D01*
X119301428Y-55618095D01*
X119253809Y-55713333D01*
X119206190Y-55760952D01*
X119110952Y-55808571D01*
X118777619Y-55808571D01*
X119730000Y-56046666D02*
X120206190Y-56046666D01*
X119634761Y-56332380D02*
X119968095Y-55332380D01*
X120301428Y-56332380D01*
X121206190Y-56237142D02*
X121158571Y-56284761D01*
X121015714Y-56332380D01*
X120920476Y-56332380D01*
X120777619Y-56284761D01*
X120682380Y-56189523D01*
X120634761Y-56094285D01*
X120587142Y-55903809D01*
X120587142Y-55760952D01*
X120634761Y-55570476D01*
X120682380Y-55475238D01*
X120777619Y-55380000D01*
X120920476Y-55332380D01*
X121015714Y-55332380D01*
X121158571Y-55380000D01*
X121206190Y-55427619D01*
X121634761Y-56332380D02*
X121634761Y-55332380D01*
X122206190Y-56332380D02*
X121777619Y-55760952D01*
X122206190Y-55332380D02*
X121634761Y-55903809D01*
X123110952Y-56332380D02*
X122634761Y-56332380D01*
X122634761Y-55332380D01*
X123444285Y-56332380D02*
X123444285Y-55332380D01*
X124444285Y-55380000D02*
X124349047Y-55332380D01*
X124206190Y-55332380D01*
X124063333Y-55380000D01*
X123968095Y-55475238D01*
X123920476Y-55570476D01*
X123872857Y-55760952D01*
X123872857Y-55903809D01*
X123920476Y-56094285D01*
X123968095Y-56189523D01*
X124063333Y-56284761D01*
X124206190Y-56332380D01*
X124301428Y-56332380D01*
X124444285Y-56284761D01*
X124491904Y-56237142D01*
X124491904Y-55903809D01*
X124301428Y-55903809D01*
X124920476Y-56332380D02*
X124920476Y-55332380D01*
X124920476Y-55808571D02*
X125491904Y-55808571D01*
X125491904Y-56332380D02*
X125491904Y-55332380D01*
X125825238Y-55332380D02*
X126396666Y-55332380D01*
X126110952Y-56332380D02*
X126110952Y-55332380D01*
X127825238Y-55808571D02*
X127968095Y-55856190D01*
X128015714Y-55903809D01*
X128063333Y-55999047D01*
X128063333Y-56141904D01*
X128015714Y-56237142D01*
X127968095Y-56284761D01*
X127872857Y-56332380D01*
X127491904Y-56332380D01*
X127491904Y-55332380D01*
X127825238Y-55332380D01*
X127920476Y-55380000D01*
X127968095Y-55427619D01*
X128015714Y-55522857D01*
X128015714Y-55618095D01*
X127968095Y-55713333D01*
X127920476Y-55760952D01*
X127825238Y-55808571D01*
X127491904Y-55808571D01*
X128491904Y-55332380D02*
X128491904Y-56141904D01*
X128539523Y-56237142D01*
X128587142Y-56284761D01*
X128682380Y-56332380D01*
X128872857Y-56332380D01*
X128968095Y-56284761D01*
X129015714Y-56237142D01*
X129063333Y-56141904D01*
X129063333Y-55332380D01*
X129396666Y-55332380D02*
X129968095Y-55332380D01*
X129682380Y-56332380D02*
X129682380Y-55332380D01*
X130158571Y-55332380D02*
X130730000Y-55332380D01*
X130444285Y-56332380D02*
X130444285Y-55332380D01*
X131253809Y-55332380D02*
X131444285Y-55332380D01*
X131539523Y-55380000D01*
X131634761Y-55475238D01*
X131682380Y-55665714D01*
X131682380Y-55999047D01*
X131634761Y-56189523D01*
X131539523Y-56284761D01*
X131444285Y-56332380D01*
X131253809Y-56332380D01*
X131158571Y-56284761D01*
X131063333Y-56189523D01*
X131015714Y-55999047D01*
X131015714Y-55665714D01*
X131063333Y-55475238D01*
X131158571Y-55380000D01*
X131253809Y-55332380D01*
X132110952Y-56332380D02*
X132110952Y-55332380D01*
X132682380Y-56332380D01*
X132682380Y-55332380D01*
X108458095Y-55380000D02*
X108362857Y-55332380D01*
X108220000Y-55332380D01*
X108077142Y-55380000D01*
X107981904Y-55475238D01*
X107934285Y-55570476D01*
X107886666Y-55760952D01*
X107886666Y-55903809D01*
X107934285Y-56094285D01*
X107981904Y-56189523D01*
X108077142Y-56284761D01*
X108220000Y-56332380D01*
X108315238Y-56332380D01*
X108458095Y-56284761D01*
X108505714Y-56237142D01*
X108505714Y-55903809D01*
X108315238Y-55903809D01*
X108934285Y-56332380D02*
X108934285Y-55332380D01*
X109505714Y-56332380D01*
X109505714Y-55332380D01*
X109981904Y-56332380D02*
X109981904Y-55332380D01*
X110220000Y-55332380D01*
X110362857Y-55380000D01*
X110458095Y-55475238D01*
X110505714Y-55570476D01*
X110553333Y-55760952D01*
X110553333Y-55903809D01*
X110505714Y-56094285D01*
X110458095Y-56189523D01*
X110362857Y-56284761D01*
X110220000Y-56332380D01*
X109981904Y-56332380D01*
X125865714Y-101100000D02*
X125770476Y-101052380D01*
X125627619Y-101052380D01*
X125484761Y-101100000D01*
X125389523Y-101195238D01*
X125341904Y-101290476D01*
X125294285Y-101480952D01*
X125294285Y-101623809D01*
X125341904Y-101814285D01*
X125389523Y-101909523D01*
X125484761Y-102004761D01*
X125627619Y-102052380D01*
X125722857Y-102052380D01*
X125865714Y-102004761D01*
X125913333Y-101957142D01*
X125913333Y-101623809D01*
X125722857Y-101623809D01*
X126341904Y-102052380D02*
X126341904Y-101052380D01*
X126913333Y-102052380D01*
X126913333Y-101052380D01*
X127389523Y-102052380D02*
X127389523Y-101052380D01*
X127627619Y-101052380D01*
X127770476Y-101100000D01*
X127865714Y-101195238D01*
X127913333Y-101290476D01*
X127960952Y-101480952D01*
X127960952Y-101623809D01*
X127913333Y-101814285D01*
X127865714Y-101909523D01*
X127770476Y-102004761D01*
X127627619Y-102052380D01*
X127389523Y-102052380D01*
X129151428Y-101671428D02*
X129913333Y-101671428D01*
X129532380Y-102052380D02*
X129532380Y-101290476D01*
X130865714Y-101052380D02*
X130389523Y-101052380D01*
X130341904Y-101528571D01*
X130389523Y-101480952D01*
X130484761Y-101433333D01*
X130722857Y-101433333D01*
X130818095Y-101480952D01*
X130865714Y-101528571D01*
X130913333Y-101623809D01*
X130913333Y-101861904D01*
X130865714Y-101957142D01*
X130818095Y-102004761D01*
X130722857Y-102052380D01*
X130484761Y-102052380D01*
X130389523Y-102004761D01*
X130341904Y-101957142D01*
X131199047Y-101052380D02*
X131532380Y-102052380D01*
X131865714Y-101052380D01*
X132913333Y-102004761D02*
X133056190Y-102052380D01*
X133294285Y-102052380D01*
X133389523Y-102004761D01*
X133437142Y-101957142D01*
X133484761Y-101861904D01*
X133484761Y-101766666D01*
X133437142Y-101671428D01*
X133389523Y-101623809D01*
X133294285Y-101576190D01*
X133103809Y-101528571D01*
X133008571Y-101480952D01*
X132960952Y-101433333D01*
X132913333Y-101338095D01*
X132913333Y-101242857D01*
X132960952Y-101147619D01*
X133008571Y-101100000D01*
X133103809Y-101052380D01*
X133341904Y-101052380D01*
X133484761Y-101100000D01*
X133913333Y-102052380D02*
X133913333Y-101052380D01*
X134151428Y-101052380D01*
X134294285Y-101100000D01*
X134389523Y-101195238D01*
X134437142Y-101290476D01*
X134484761Y-101480952D01*
X134484761Y-101623809D01*
X134437142Y-101814285D01*
X134389523Y-101909523D01*
X134294285Y-102004761D01*
X134151428Y-102052380D01*
X133913333Y-102052380D01*
X134865714Y-101766666D02*
X135341904Y-101766666D01*
X134770476Y-102052380D02*
X135103809Y-101052380D01*
X135437142Y-102052380D01*
X136484761Y-102004761D02*
X136627619Y-102052380D01*
X136865714Y-102052380D01*
X136960952Y-102004761D01*
X137008571Y-101957142D01*
X137056190Y-101861904D01*
X137056190Y-101766666D01*
X137008571Y-101671428D01*
X136960952Y-101623809D01*
X136865714Y-101576190D01*
X136675238Y-101528571D01*
X136580000Y-101480952D01*
X136532380Y-101433333D01*
X136484761Y-101338095D01*
X136484761Y-101242857D01*
X136532380Y-101147619D01*
X136580000Y-101100000D01*
X136675238Y-101052380D01*
X136913333Y-101052380D01*
X137056190Y-101100000D01*
X138056190Y-101957142D02*
X138008571Y-102004761D01*
X137865714Y-102052380D01*
X137770476Y-102052380D01*
X137627619Y-102004761D01*
X137532380Y-101909523D01*
X137484761Y-101814285D01*
X137437142Y-101623809D01*
X137437142Y-101480952D01*
X137484761Y-101290476D01*
X137532380Y-101195238D01*
X137627619Y-101100000D01*
X137770476Y-101052380D01*
X137865714Y-101052380D01*
X138008571Y-101100000D01*
X138056190Y-101147619D01*
X138960952Y-102052380D02*
X138484761Y-102052380D01*
X138484761Y-101052380D01*
X95758095Y-56650000D02*
X95662857Y-56602380D01*
X95520000Y-56602380D01*
X95377142Y-56650000D01*
X95281904Y-56745238D01*
X95234285Y-56840476D01*
X95186666Y-57030952D01*
X95186666Y-57173809D01*
X95234285Y-57364285D01*
X95281904Y-57459523D01*
X95377142Y-57554761D01*
X95520000Y-57602380D01*
X95615238Y-57602380D01*
X95758095Y-57554761D01*
X95805714Y-57507142D01*
X95805714Y-57173809D01*
X95615238Y-57173809D01*
X96234285Y-57602380D02*
X96234285Y-56602380D01*
X96805714Y-57602380D01*
X96805714Y-56602380D01*
X97281904Y-57602380D02*
X97281904Y-56602380D01*
X97520000Y-56602380D01*
X97662857Y-56650000D01*
X97758095Y-56745238D01*
X97805714Y-56840476D01*
X97853333Y-57030952D01*
X97853333Y-57173809D01*
X97805714Y-57364285D01*
X97758095Y-57459523D01*
X97662857Y-57554761D01*
X97520000Y-57602380D01*
X97281904Y-57602380D01*
X95234285Y-59761428D02*
X95996190Y-59761428D01*
X95615238Y-60142380D02*
X95615238Y-59380476D01*
X96948571Y-59142380D02*
X96472380Y-59142380D01*
X96424761Y-59618571D01*
X96472380Y-59570952D01*
X96567619Y-59523333D01*
X96805714Y-59523333D01*
X96900952Y-59570952D01*
X96948571Y-59618571D01*
X96996190Y-59713809D01*
X96996190Y-59951904D01*
X96948571Y-60047142D01*
X96900952Y-60094761D01*
X96805714Y-60142380D01*
X96567619Y-60142380D01*
X96472380Y-60094761D01*
X96424761Y-60047142D01*
X97281904Y-59142380D02*
X97615238Y-60142380D01*
X97948571Y-59142380D01*
X82383333Y-60142380D02*
X82050000Y-59666190D01*
X81811904Y-60142380D02*
X81811904Y-59142380D01*
X82192857Y-59142380D01*
X82288095Y-59190000D01*
X82335714Y-59237619D01*
X82383333Y-59332857D01*
X82383333Y-59475714D01*
X82335714Y-59570952D01*
X82288095Y-59618571D01*
X82192857Y-59666190D01*
X81811904Y-59666190D01*
X82716666Y-59142380D02*
X83383333Y-60142380D01*
X83383333Y-59142380D02*
X82716666Y-60142380D01*
X81788095Y-61682380D02*
X82359523Y-61682380D01*
X82073809Y-62682380D02*
X82073809Y-61682380D01*
X82597619Y-61682380D02*
X83264285Y-62682380D01*
X83264285Y-61682380D02*
X82597619Y-62682380D01*
X81788095Y-56650000D02*
X81692857Y-56602380D01*
X81550000Y-56602380D01*
X81407142Y-56650000D01*
X81311904Y-56745238D01*
X81264285Y-56840476D01*
X81216666Y-57030952D01*
X81216666Y-57173809D01*
X81264285Y-57364285D01*
X81311904Y-57459523D01*
X81407142Y-57554761D01*
X81550000Y-57602380D01*
X81645238Y-57602380D01*
X81788095Y-57554761D01*
X81835714Y-57507142D01*
X81835714Y-57173809D01*
X81645238Y-57173809D01*
X82264285Y-57602380D02*
X82264285Y-56602380D01*
X82835714Y-57602380D01*
X82835714Y-56602380D01*
X83311904Y-57602380D02*
X83311904Y-56602380D01*
X83550000Y-56602380D01*
X83692857Y-56650000D01*
X83788095Y-56745238D01*
X83835714Y-56840476D01*
X83883333Y-57030952D01*
X83883333Y-57173809D01*
X83835714Y-57364285D01*
X83788095Y-57459523D01*
X83692857Y-57554761D01*
X83550000Y-57602380D01*
X83311904Y-57602380D01*
D11*
X147380000Y-88920000D02*
X147380000Y-78380000D01*
X99060000Y-88920000D02*
X147380000Y-88920000D01*
X99060000Y-65950000D02*
X99060000Y-88920000D01*
X147380000Y-65840000D02*
X99060000Y-65840000D01*
X147380000Y-76380000D02*
X147380000Y-65840000D01*
X147380000Y-78380000D02*
G75*
G02X147380000Y-76380000I0J1000000D01*
G01*
X116900000Y-54550000D02*
X116900000Y-55880000D01*
X115570000Y-54550000D02*
X116900000Y-54550000D01*
X114300000Y-54550000D02*
X114300000Y-57210000D01*
X114300000Y-57210000D02*
X111700000Y-57210000D01*
X114300000Y-54550000D02*
X111700000Y-54550000D01*
X111700000Y-54550000D02*
X111700000Y-57210000D01*
X71060000Y-75220000D02*
X71060000Y-76470000D01*
X91500000Y-75220000D02*
X71060000Y-75220000D01*
X91500000Y-79720000D02*
X91500000Y-75220000D01*
X71060000Y-79720000D02*
X91500000Y-79720000D01*
X71060000Y-78470000D02*
X71060000Y-79720000D01*
X71060000Y-76470000D02*
G75*
G02X71060000Y-78470000I0J-1000000D01*
G01*
X137220000Y-97730000D02*
X137220000Y-99060000D01*
X135890000Y-97730000D02*
X137220000Y-97730000D01*
X134620000Y-97730000D02*
X134620000Y-100390000D01*
X134620000Y-100390000D02*
X126940000Y-100390000D01*
X134620000Y-97730000D02*
X126940000Y-97730000D01*
X126940000Y-97730000D02*
X126940000Y-100390000D01*
X94040000Y-61020000D02*
X92710000Y-61020000D01*
X94040000Y-59690000D02*
X94040000Y-61020000D01*
X94040000Y-58420000D02*
X91380000Y-58420000D01*
X91380000Y-58420000D02*
X91380000Y-55820000D01*
X94040000Y-58420000D02*
X94040000Y-55820000D01*
X94040000Y-55820000D02*
X91380000Y-55820000D01*
X147380000Y-59630000D02*
X147380000Y-60960000D01*
X146050000Y-59630000D02*
X147380000Y-59630000D01*
X144780000Y-59630000D02*
X144780000Y-62290000D01*
X144780000Y-62290000D02*
X99000000Y-62290000D01*
X144780000Y-59630000D02*
X99000000Y-59630000D01*
X99000000Y-59630000D02*
X99000000Y-62290000D01*
X87690000Y-63560000D02*
X86360000Y-63560000D01*
X87690000Y-62230000D02*
X87690000Y-63560000D01*
X87690000Y-60960000D02*
X85030000Y-60960000D01*
X85030000Y-60960000D02*
X85030000Y-55820000D01*
X87690000Y-60960000D02*
X87690000Y-55820000D01*
X87690000Y-55820000D02*
X85030000Y-55820000D01*
X78510000Y-83970000D02*
X78510000Y-86210000D01*
X71270000Y-83970000D02*
X71270000Y-86210000D01*
X71270000Y-86210000D02*
X78510000Y-86210000D01*
X71270000Y-83970000D02*
X78510000Y-83970000D01*
X78510000Y-66190000D02*
X78510000Y-68430000D01*
X71270000Y-66190000D02*
X71270000Y-68430000D01*
X71270000Y-68430000D02*
X78510000Y-68430000D01*
X71270000Y-66190000D02*
X78510000Y-66190000D01*
X78890000Y-88750000D02*
X78890000Y-86510000D01*
X86130000Y-88750000D02*
X86130000Y-86510000D01*
X86130000Y-86510000D02*
X78890000Y-86510000D01*
X86130000Y-88750000D02*
X78890000Y-88750000D01*
X71270000Y-88750000D02*
X71270000Y-86510000D01*
X78510000Y-88750000D02*
X78510000Y-86510000D01*
X78510000Y-86510000D02*
X71270000Y-86510000D01*
X78510000Y-88750000D02*
X71270000Y-88750000D01*
X86130000Y-83970000D02*
X86130000Y-86210000D01*
X78890000Y-83970000D02*
X78890000Y-86210000D01*
X78890000Y-86210000D02*
X86130000Y-86210000D01*
X78890000Y-83970000D02*
X86130000Y-83970000D01*
X147380000Y-92650000D02*
X147380000Y-93980000D01*
X146050000Y-92650000D02*
X147380000Y-92650000D01*
X144780000Y-92650000D02*
X144780000Y-95310000D01*
X144780000Y-95310000D02*
X99000000Y-95310000D01*
X144780000Y-92650000D02*
X99000000Y-92650000D01*
X99000000Y-92650000D02*
X99000000Y-95310000D01*
D10*
X149312380Y-78141904D02*
X150121904Y-78141904D01*
X150217142Y-78094285D01*
X150264761Y-78046666D01*
X150312380Y-77951428D01*
X150312380Y-77760952D01*
X150264761Y-77665714D01*
X150217142Y-77618095D01*
X150121904Y-77570476D01*
X149312380Y-77570476D01*
X149407619Y-77141904D02*
X149360000Y-77094285D01*
X149312380Y-76999047D01*
X149312380Y-76760952D01*
X149360000Y-76665714D01*
X149407619Y-76618095D01*
X149502857Y-76570476D01*
X149598095Y-76570476D01*
X149740952Y-76618095D01*
X150312380Y-77189523D01*
X150312380Y-76570476D01*
X113966666Y-52792380D02*
X113966666Y-53506666D01*
X113919047Y-53649523D01*
X113823809Y-53744761D01*
X113680952Y-53792380D01*
X113585714Y-53792380D01*
X114871428Y-53125714D02*
X114871428Y-53792380D01*
X114633333Y-52744761D02*
X114395238Y-53459047D01*
X115014285Y-53459047D01*
X93432380Y-78231904D02*
X94241904Y-78231904D01*
X94337142Y-78184285D01*
X94384761Y-78136666D01*
X94432380Y-78041428D01*
X94432380Y-77850952D01*
X94384761Y-77755714D01*
X94337142Y-77708095D01*
X94241904Y-77660476D01*
X93432380Y-77660476D01*
X94432380Y-76660476D02*
X94432380Y-77231904D01*
X94432380Y-76946190D02*
X93432380Y-76946190D01*
X93575238Y-77041428D01*
X93670476Y-77136666D01*
X93718095Y-77231904D01*
X139152380Y-99393333D02*
X139866666Y-99393333D01*
X140009523Y-99440952D01*
X140104761Y-99536190D01*
X140152380Y-99679047D01*
X140152380Y-99774285D01*
X139152380Y-98488571D02*
X139152380Y-98679047D01*
X139200000Y-98774285D01*
X139247619Y-98821904D01*
X139390476Y-98917142D01*
X139580952Y-98964761D01*
X139961904Y-98964761D01*
X140057142Y-98917142D01*
X140104761Y-98869523D01*
X140152380Y-98774285D01*
X140152380Y-98583809D01*
X140104761Y-98488571D01*
X140057142Y-98440952D01*
X139961904Y-98393333D01*
X139723809Y-98393333D01*
X139628571Y-98440952D01*
X139580952Y-98488571D01*
X139533333Y-98583809D01*
X139533333Y-98774285D01*
X139580952Y-98869523D01*
X139628571Y-98917142D01*
X139723809Y-98964761D01*
X92376666Y-52792380D02*
X92376666Y-53506666D01*
X92329047Y-53649523D01*
X92233809Y-53744761D01*
X92090952Y-53792380D01*
X91995714Y-53792380D01*
X92805238Y-52887619D02*
X92852857Y-52840000D01*
X92948095Y-52792380D01*
X93186190Y-52792380D01*
X93281428Y-52840000D01*
X93329047Y-52887619D01*
X93376666Y-52982857D01*
X93376666Y-53078095D01*
X93329047Y-53220952D01*
X92757619Y-53792380D01*
X93376666Y-53792380D01*
X149312380Y-61293333D02*
X150026666Y-61293333D01*
X150169523Y-61340952D01*
X150264761Y-61436190D01*
X150312380Y-61579047D01*
X150312380Y-61674285D01*
X149312380Y-60912380D02*
X149312380Y-60293333D01*
X149693333Y-60626666D01*
X149693333Y-60483809D01*
X149740952Y-60388571D01*
X149788571Y-60340952D01*
X149883809Y-60293333D01*
X150121904Y-60293333D01*
X150217142Y-60340952D01*
X150264761Y-60388571D01*
X150312380Y-60483809D01*
X150312380Y-60769523D01*
X150264761Y-60864761D01*
X150217142Y-60912380D01*
X86026666Y-52792380D02*
X86026666Y-53506666D01*
X85979047Y-53649523D01*
X85883809Y-53744761D01*
X85740952Y-53792380D01*
X85645714Y-53792380D01*
X87026666Y-53792380D02*
X86455238Y-53792380D01*
X86740952Y-53792380D02*
X86740952Y-52792380D01*
X86645714Y-52935238D01*
X86550476Y-53030476D01*
X86455238Y-53078095D01*
X69683333Y-85447142D02*
X69635714Y-85494761D01*
X69492857Y-85542380D01*
X69397619Y-85542380D01*
X69254761Y-85494761D01*
X69159523Y-85399523D01*
X69111904Y-85304285D01*
X69064285Y-85113809D01*
X69064285Y-84970952D01*
X69111904Y-84780476D01*
X69159523Y-84685238D01*
X69254761Y-84590000D01*
X69397619Y-84542380D01*
X69492857Y-84542380D01*
X69635714Y-84590000D01*
X69683333Y-84637619D01*
X70588095Y-84542380D02*
X70111904Y-84542380D01*
X70064285Y-85018571D01*
X70111904Y-84970952D01*
X70207142Y-84923333D01*
X70445238Y-84923333D01*
X70540476Y-84970952D01*
X70588095Y-85018571D01*
X70635714Y-85113809D01*
X70635714Y-85351904D01*
X70588095Y-85447142D01*
X70540476Y-85494761D01*
X70445238Y-85542380D01*
X70207142Y-85542380D01*
X70111904Y-85494761D01*
X70064285Y-85447142D01*
X74723333Y-65417142D02*
X74675714Y-65464761D01*
X74532857Y-65512380D01*
X74437619Y-65512380D01*
X74294761Y-65464761D01*
X74199523Y-65369523D01*
X74151904Y-65274285D01*
X74104285Y-65083809D01*
X74104285Y-64940952D01*
X74151904Y-64750476D01*
X74199523Y-64655238D01*
X74294761Y-64560000D01*
X74437619Y-64512380D01*
X74532857Y-64512380D01*
X74675714Y-64560000D01*
X74723333Y-64607619D01*
X75580476Y-64845714D02*
X75580476Y-65512380D01*
X75342380Y-64464761D02*
X75104285Y-65179047D01*
X75723333Y-65179047D01*
X82343333Y-90237142D02*
X82295714Y-90284761D01*
X82152857Y-90332380D01*
X82057619Y-90332380D01*
X81914761Y-90284761D01*
X81819523Y-90189523D01*
X81771904Y-90094285D01*
X81724285Y-89903809D01*
X81724285Y-89760952D01*
X81771904Y-89570476D01*
X81819523Y-89475238D01*
X81914761Y-89380000D01*
X82057619Y-89332380D01*
X82152857Y-89332380D01*
X82295714Y-89380000D01*
X82343333Y-89427619D01*
X82676666Y-89332380D02*
X83295714Y-89332380D01*
X82962380Y-89713333D01*
X83105238Y-89713333D01*
X83200476Y-89760952D01*
X83248095Y-89808571D01*
X83295714Y-89903809D01*
X83295714Y-90141904D01*
X83248095Y-90237142D01*
X83200476Y-90284761D01*
X83105238Y-90332380D01*
X82819523Y-90332380D01*
X82724285Y-90284761D01*
X82676666Y-90237142D01*
X74763333Y-90527142D02*
X74715714Y-90574761D01*
X74572857Y-90622380D01*
X74477619Y-90622380D01*
X74334761Y-90574761D01*
X74239523Y-90479523D01*
X74191904Y-90384285D01*
X74144285Y-90193809D01*
X74144285Y-90050952D01*
X74191904Y-89860476D01*
X74239523Y-89765238D01*
X74334761Y-89670000D01*
X74477619Y-89622380D01*
X74572857Y-89622380D01*
X74715714Y-89670000D01*
X74763333Y-89717619D01*
X75144285Y-89717619D02*
X75191904Y-89670000D01*
X75287142Y-89622380D01*
X75525238Y-89622380D01*
X75620476Y-89670000D01*
X75668095Y-89717619D01*
X75715714Y-89812857D01*
X75715714Y-89908095D01*
X75668095Y-90050952D01*
X75096666Y-90622380D01*
X75715714Y-90622380D01*
X87463333Y-85447142D02*
X87415714Y-85494761D01*
X87272857Y-85542380D01*
X87177619Y-85542380D01*
X87034761Y-85494761D01*
X86939523Y-85399523D01*
X86891904Y-85304285D01*
X86844285Y-85113809D01*
X86844285Y-84970952D01*
X86891904Y-84780476D01*
X86939523Y-84685238D01*
X87034761Y-84590000D01*
X87177619Y-84542380D01*
X87272857Y-84542380D01*
X87415714Y-84590000D01*
X87463333Y-84637619D01*
X88415714Y-85542380D02*
X87844285Y-85542380D01*
X88130000Y-85542380D02*
X88130000Y-84542380D01*
X88034761Y-84685238D01*
X87939523Y-84780476D01*
X87844285Y-84828095D01*
X149312380Y-94313333D02*
X150026666Y-94313333D01*
X150169523Y-94360952D01*
X150264761Y-94456190D01*
X150312380Y-94599047D01*
X150312380Y-94694285D01*
X149312380Y-93360952D02*
X149312380Y-93837142D01*
X149788571Y-93884761D01*
X149740952Y-93837142D01*
X149693333Y-93741904D01*
X149693333Y-93503809D01*
X149740952Y-93408571D01*
X149788571Y-93360952D01*
X149883809Y-93313333D01*
X150121904Y-93313333D01*
X150217142Y-93360952D01*
X150264761Y-93408571D01*
X150312380Y-93503809D01*
X150312380Y-93741904D01*
X150264761Y-93837142D01*
X150217142Y-93884761D01*
M02*
