M48
; DRILL file {KiCad (5.1.4)-1} date 10/07/2020 19:03:48
; FORMAT={-:-/ absolute / inch / decimal}
; #@! TF.CreationDate,2020-07-10T19:03:48+02:00
; #@! TF.GenerationSoftware,Kicad,Pcbnew,(5.1.4)-1
; #@! TF.FileFunction,Plated,1,2,PTH
FMAT,2
INCH
T1C0.0315
T2C0.0394
%
G90
G05
T1
X3.8Y-2.75
X3.8Y-3.15
X3.15Y-3.45
X3.3469Y-3.45
X3.15Y-3.35
X3.3469Y-3.35
X2.85Y-3.35
X3.0469Y-3.35
X2.85Y-2.9
X2.85Y-3.2
X2.95Y-2.9
X2.95Y-3.2
X3.05Y-2.9
X3.05Y-3.2
X3.15Y-2.9
X3.15Y-3.2
X3.25Y-2.9
X3.25Y-3.2
X3.35Y-2.9
X3.35Y-3.2
X3.45Y-2.9
X3.45Y-3.2
X3.55Y-2.9
X3.55Y-3.2
X2.85Y-3.45
X3.0469Y-3.45
X2.85Y-2.65
X3.0469Y-2.65
T2
X3.65Y-2.25
X3.65Y-2.35
X3.95Y-3.7
X4.05Y-3.7
X4.15Y-3.7
X4.25Y-3.7
X4.35Y-3.7
X4.45Y-3.7
X4.55Y-3.7
X4.65Y-3.7
X4.75Y-3.7
X4.85Y-3.7
X4.95Y-3.7
X5.05Y-3.7
X5.15Y-3.7
X5.25Y-3.7
X5.35Y-3.7
X5.45Y-3.7
X5.55Y-3.7
X5.65Y-3.7
X5.75Y-3.7
X3.95Y-2.5465
X3.95Y-3.5465
X4.05Y-2.5465
X4.05Y-3.5465
X4.15Y-2.5465
X4.15Y-3.5465
X4.25Y-2.5465
X4.25Y-3.5465
X4.35Y-2.5465
X4.35Y-3.5465
X4.45Y-2.5465
X4.45Y-3.5465
X4.55Y-2.5465
X4.55Y-3.5465
X4.65Y-2.5465
X4.65Y-3.5465
X4.75Y-2.5465
X4.75Y-3.5465
X4.85Y-2.5465
X4.85Y-3.5465
X4.95Y-2.5465
X4.95Y-3.5465
X5.05Y-2.5465
X5.05Y-3.5465
X5.15Y-2.5465
X5.15Y-3.5465
X5.25Y-2.5465
X5.25Y-3.5465
X5.35Y-2.5465
X5.35Y-3.5465
X5.45Y-2.5465
X5.45Y-3.5465
X5.55Y-2.5465
X5.55Y-3.5465
X5.65Y-2.5465
X5.65Y-3.5465
X5.75Y-2.5465
X5.75Y-3.5465
X3.4Y-2.25
X3.4Y-2.35
X3.4Y-2.45
X4.45Y-2.2
X4.55Y-2.2
X3.95Y-2.4
X4.05Y-2.4
X4.15Y-2.4
X4.25Y-2.4
X4.35Y-2.4
X4.45Y-2.4
X4.55Y-2.4
X4.65Y-2.4
X4.75Y-2.4
X4.85Y-2.4
X4.95Y-2.4
X5.05Y-2.4
X5.15Y-2.4
X5.25Y-2.4
X5.35Y-2.4
X5.45Y-2.4
X5.55Y-2.4
X5.65Y-2.4
X5.75Y-2.4
X5.05Y-3.9
X5.15Y-3.9
X5.25Y-3.9
X5.35Y-3.9
T0
M30
