G04 #@! TF.GenerationSoftware,KiCad,Pcbnew,(5.1.4)-1*
G04 #@! TF.CreationDate,2020-03-07T10:46:46+01:00*
G04 #@! TF.ProjectId,transmitter,7472616e-736d-4697-9474-65722e6b6963,rev?*
G04 #@! TF.SameCoordinates,Original*
G04 #@! TF.FileFunction,Legend,Top*
G04 #@! TF.FilePolarity,Positive*
%FSLAX46Y46*%
G04 Gerber Fmt 4.6, Leading zero omitted, Abs format (unit mm)*
G04 Created by KiCad (PCBNEW (5.1.4)-1) date 2020-03-07 10:46:46*
%MOMM*%
%LPD*%
G04 APERTURE LIST*
%ADD10C,0.150000*%
%ADD11C,0.120000*%
G04 APERTURE END LIST*
D10*
X122967714Y-69159380D02*
X122396285Y-69159380D01*
X122682000Y-69159380D02*
X122682000Y-68159380D01*
X122586761Y-68302238D01*
X122491523Y-68397476D01*
X122396285Y-68445095D01*
X134366000Y-69977000D02*
X136906000Y-69977000D01*
X134366000Y-105537000D02*
X134366000Y-69977000D01*
X136906000Y-105537000D02*
X134366000Y-105537000D01*
X136906000Y-69977000D02*
X136906000Y-105537000D01*
X134366000Y-67437000D02*
X134366000Y-69977000D01*
X136906000Y-67437000D02*
X134366000Y-67437000D01*
X136906000Y-69977000D02*
X136906000Y-67437000D01*
X119126000Y-69977000D02*
X121666000Y-69977000D01*
X119126000Y-105537000D02*
X119126000Y-69977000D01*
X121666000Y-105537000D02*
X119126000Y-105537000D01*
X121666000Y-69977000D02*
X121666000Y-105537000D01*
X119126000Y-67437000D02*
X119126000Y-69977000D01*
X121666000Y-67437000D02*
X119126000Y-67437000D01*
X121666000Y-69977000D02*
X121666000Y-67437000D01*
D11*
X97790000Y-102870000D02*
X97790000Y-104140000D01*
X95250000Y-102870000D02*
X95250000Y-104140000D01*
X92710000Y-102870000D02*
X92710000Y-104140000D01*
X90170000Y-102870000D02*
X90170000Y-104140000D01*
X80010000Y-102870000D02*
X80010000Y-105410000D01*
X82550000Y-102870000D02*
X80010000Y-102870000D01*
X82550000Y-105410000D02*
X82550000Y-102870000D01*
X88900000Y-105410000D02*
X82550000Y-105410000D01*
X73660000Y-106680000D02*
X73660000Y-105410000D01*
X90170000Y-106680000D02*
X73660000Y-106680000D01*
X90170000Y-114300000D02*
X90170000Y-106680000D01*
X97790000Y-114300000D02*
X90170000Y-114300000D01*
X97790000Y-106680000D02*
X97790000Y-114300000D01*
X114300000Y-106680000D02*
X97790000Y-106680000D01*
X114300000Y-105410000D02*
X114300000Y-106680000D01*
X113030000Y-105410000D02*
X114300000Y-105410000D01*
X113030000Y-95250000D02*
X113030000Y-105410000D01*
X105410000Y-95250000D02*
X113030000Y-95250000D01*
X105410000Y-105410000D02*
X105410000Y-95250000D01*
X99060000Y-105410000D02*
X105410000Y-105410000D01*
X99060000Y-104140000D02*
X99060000Y-105410000D01*
X88900000Y-104140000D02*
X99060000Y-104140000D01*
X88900000Y-105410000D02*
X88900000Y-104140000D01*
X73660000Y-105410000D02*
X80010000Y-105410000D01*
X93690000Y-74870000D02*
X92440000Y-74870000D01*
X93690000Y-95310000D02*
X93690000Y-74870000D01*
X89190000Y-95310000D02*
X93690000Y-95310000D01*
X89190000Y-74870000D02*
X89190000Y-95310000D01*
X90440000Y-74870000D02*
X89190000Y-74870000D01*
X92440000Y-74870000D02*
G75*
G02X90440000Y-74870000I-1000000J0D01*
G01*
X139131522Y-70418478D02*
G75*
G03X143570000Y-68580000I1838478J1838478D01*
G01*
X139131522Y-66741522D02*
G75*
G02X143570000Y-68580000I1838478J-1838478D01*
G01*
X139120000Y-66780000D02*
X139120000Y-70380000D01*
X100210000Y-60960000D02*
X97670000Y-60960000D01*
X100210000Y-58420000D02*
X97670000Y-58420000D01*
X100210000Y-55880000D02*
X97670000Y-55880000D01*
X116100000Y-63540000D02*
X100210000Y-63540000D01*
X116100000Y-53300000D02*
X100210000Y-53300000D01*
X116100000Y-53300000D02*
X116100000Y-63540000D01*
X100210000Y-53300000D02*
X100210000Y-63540000D01*
X65550000Y-69550000D02*
X65550000Y-71550000D01*
X67790000Y-69550000D02*
X65550000Y-69550000D01*
X68874000Y-91530000D02*
X68781000Y-91436000D01*
X71125000Y-93780000D02*
X71066000Y-93721000D01*
X68634000Y-91700000D02*
X68576000Y-91641000D01*
X70919000Y-93985000D02*
X70826000Y-93891000D01*
X68874000Y-86450000D02*
X68781000Y-86356000D01*
X71125000Y-88700000D02*
X71066000Y-88641000D01*
X68634000Y-86620000D02*
X68576000Y-86561000D01*
X70919000Y-88905000D02*
X70826000Y-88811000D01*
X68874000Y-81370000D02*
X68781000Y-81276000D01*
X71125000Y-83620000D02*
X71066000Y-83561000D01*
X68634000Y-81540000D02*
X68576000Y-81481000D01*
X70919000Y-83825000D02*
X70826000Y-83731000D01*
X68874000Y-76290000D02*
X68781000Y-76196000D01*
X71125000Y-78540000D02*
X71066000Y-78481000D01*
X68634000Y-76460000D02*
X68576000Y-76401000D01*
X70919000Y-78745000D02*
X70826000Y-78651000D01*
X73910000Y-95310000D02*
X65790000Y-95310000D01*
X73910000Y-69790000D02*
X65790000Y-69790000D01*
X65790000Y-69790000D02*
X65790000Y-95310000D01*
X73910000Y-69790000D02*
X73910000Y-95310000D01*
X71850000Y-69790000D02*
X71850000Y-95310000D01*
X67850000Y-69790000D02*
X67850000Y-95310000D01*
X71530000Y-92710000D02*
G75*
G03X71530000Y-92710000I-1680000J0D01*
G01*
X71530000Y-87630000D02*
G75*
G03X71530000Y-87630000I-1680000J0D01*
G01*
X71530000Y-82550000D02*
G75*
G03X71530000Y-82550000I-1680000J0D01*
G01*
X71530000Y-77470000D02*
G75*
G03X71530000Y-77470000I-1680000J0D01*
G01*
X68169550Y-72419383D02*
G75*
G02X68366000Y-71601000I1680450J29383D01*
G01*
X69060912Y-70906047D02*
G75*
G02X70639000Y-70906000I789088J-1483953D01*
G01*
X71333953Y-71600912D02*
G75*
G02X71334000Y-73179000I-1483953J-789088D01*
G01*
X70639088Y-73873953D02*
G75*
G02X69061000Y-73874000I-789088J1483953D01*
G01*
X68366648Y-73178712D02*
G75*
G02X68170000Y-72390000I1483352J788712D01*
G01*
X104290000Y-81530000D02*
X106530000Y-81530000D01*
X104290000Y-81290000D02*
X106530000Y-81290000D01*
X104290000Y-81410000D02*
X106530000Y-81410000D01*
X105410000Y-77240000D02*
X105410000Y-77890000D01*
X105410000Y-82780000D02*
X105410000Y-82130000D01*
X104290000Y-77890000D02*
X104290000Y-82130000D01*
X106530000Y-77890000D02*
X104290000Y-77890000D01*
X106530000Y-82130000D02*
X106530000Y-77890000D01*
X104290000Y-82130000D02*
X106530000Y-82130000D01*
X78940000Y-57750000D02*
X76000000Y-57750000D01*
X78940000Y-57990000D02*
X76000000Y-57990000D01*
X78940000Y-57870000D02*
X76000000Y-57870000D01*
X77470000Y-63430000D02*
X77470000Y-62410000D01*
X77470000Y-55950000D02*
X77470000Y-56970000D01*
X78940000Y-62410000D02*
X78940000Y-56970000D01*
X76000000Y-62410000D02*
X78940000Y-62410000D01*
X76000000Y-56970000D02*
X76000000Y-62410000D01*
X78940000Y-56970000D02*
X76000000Y-56970000D01*
X77620000Y-82700000D02*
X79860000Y-82700000D01*
X77620000Y-89940000D02*
X79860000Y-89940000D01*
X79860000Y-89940000D02*
X79860000Y-82700000D01*
X77620000Y-89940000D02*
X77620000Y-82700000D01*
X77620000Y-75080000D02*
X79860000Y-75080000D01*
X77620000Y-82320000D02*
X79860000Y-82320000D01*
X79860000Y-82320000D02*
X79860000Y-75080000D01*
X77620000Y-82320000D02*
X77620000Y-75080000D01*
X82400000Y-82320000D02*
X80160000Y-82320000D01*
X82400000Y-75080000D02*
X80160000Y-75080000D01*
X80160000Y-75080000D02*
X80160000Y-82320000D01*
X82400000Y-75080000D02*
X82400000Y-82320000D01*
X82400000Y-89940000D02*
X80160000Y-89940000D01*
X82400000Y-82700000D02*
X80160000Y-82700000D01*
X80160000Y-82700000D02*
X80160000Y-89940000D01*
X82400000Y-82700000D02*
X82400000Y-89940000D01*
X102720000Y-82320000D02*
X100480000Y-82320000D01*
X102720000Y-75080000D02*
X100480000Y-75080000D01*
X100480000Y-75080000D02*
X100480000Y-82320000D01*
X102720000Y-75080000D02*
X102720000Y-82320000D01*
X139850000Y-72620000D02*
X142090000Y-72620000D01*
X139850000Y-79860000D02*
X142090000Y-79860000D01*
X142090000Y-79860000D02*
X142090000Y-72620000D01*
X139850000Y-79860000D02*
X139850000Y-72620000D01*
X82375000Y-71359698D02*
X83175000Y-71359698D01*
X82775000Y-71759698D02*
X82775000Y-70959698D01*
X84557000Y-63269000D02*
X85623000Y-63269000D01*
X84322000Y-63309000D02*
X85858000Y-63309000D01*
X84142000Y-63349000D02*
X86038000Y-63349000D01*
X83992000Y-63389000D02*
X86188000Y-63389000D01*
X83861000Y-63429000D02*
X86319000Y-63429000D01*
X83744000Y-63469000D02*
X86436000Y-63469000D01*
X83637000Y-63509000D02*
X86543000Y-63509000D01*
X83538000Y-63549000D02*
X86642000Y-63549000D01*
X83445000Y-63589000D02*
X86735000Y-63589000D01*
X83359000Y-63629000D02*
X86821000Y-63629000D01*
X83277000Y-63669000D02*
X86903000Y-63669000D01*
X83200000Y-63709000D02*
X86980000Y-63709000D01*
X83126000Y-63749000D02*
X87054000Y-63749000D01*
X83056000Y-63789000D02*
X87124000Y-63789000D01*
X86130000Y-63829000D02*
X87192000Y-63829000D01*
X82988000Y-63829000D02*
X84050000Y-63829000D01*
X86130000Y-63869000D02*
X87256000Y-63869000D01*
X82924000Y-63869000D02*
X84050000Y-63869000D01*
X86130000Y-63909000D02*
X87318000Y-63909000D01*
X82862000Y-63909000D02*
X84050000Y-63909000D01*
X86130000Y-63949000D02*
X87377000Y-63949000D01*
X82803000Y-63949000D02*
X84050000Y-63949000D01*
X86130000Y-63989000D02*
X87435000Y-63989000D01*
X82745000Y-63989000D02*
X84050000Y-63989000D01*
X86130000Y-64029000D02*
X87490000Y-64029000D01*
X82690000Y-64029000D02*
X84050000Y-64029000D01*
X86130000Y-64069000D02*
X87544000Y-64069000D01*
X82636000Y-64069000D02*
X84050000Y-64069000D01*
X86130000Y-64109000D02*
X87595000Y-64109000D01*
X82585000Y-64109000D02*
X84050000Y-64109000D01*
X86130000Y-64149000D02*
X87646000Y-64149000D01*
X82534000Y-64149000D02*
X84050000Y-64149000D01*
X86130000Y-64189000D02*
X87694000Y-64189000D01*
X82486000Y-64189000D02*
X84050000Y-64189000D01*
X86130000Y-64229000D02*
X87741000Y-64229000D01*
X82439000Y-64229000D02*
X84050000Y-64229000D01*
X86130000Y-64269000D02*
X87787000Y-64269000D01*
X82393000Y-64269000D02*
X84050000Y-64269000D01*
X86130000Y-64309000D02*
X87831000Y-64309000D01*
X82349000Y-64309000D02*
X84050000Y-64309000D01*
X86130000Y-64349000D02*
X87874000Y-64349000D01*
X82306000Y-64349000D02*
X84050000Y-64349000D01*
X86130000Y-64389000D02*
X87916000Y-64389000D01*
X82264000Y-64389000D02*
X84050000Y-64389000D01*
X86130000Y-64429000D02*
X87957000Y-64429000D01*
X82223000Y-64429000D02*
X84050000Y-64429000D01*
X86130000Y-64469000D02*
X87997000Y-64469000D01*
X82183000Y-64469000D02*
X84050000Y-64469000D01*
X86130000Y-64509000D02*
X88035000Y-64509000D01*
X82145000Y-64509000D02*
X84050000Y-64509000D01*
X86130000Y-64549000D02*
X88073000Y-64549000D01*
X82107000Y-64549000D02*
X84050000Y-64549000D01*
X86130000Y-64589000D02*
X88109000Y-64589000D01*
X82071000Y-64589000D02*
X84050000Y-64589000D01*
X86130000Y-64629000D02*
X88145000Y-64629000D01*
X82035000Y-64629000D02*
X84050000Y-64629000D01*
X86130000Y-64669000D02*
X88180000Y-64669000D01*
X82000000Y-64669000D02*
X84050000Y-64669000D01*
X86130000Y-64709000D02*
X88214000Y-64709000D01*
X81966000Y-64709000D02*
X84050000Y-64709000D01*
X86130000Y-64749000D02*
X88246000Y-64749000D01*
X81934000Y-64749000D02*
X84050000Y-64749000D01*
X86130000Y-64789000D02*
X88279000Y-64789000D01*
X81901000Y-64789000D02*
X84050000Y-64789000D01*
X86130000Y-64829000D02*
X88310000Y-64829000D01*
X81870000Y-64829000D02*
X84050000Y-64829000D01*
X86130000Y-64869000D02*
X88340000Y-64869000D01*
X81840000Y-64869000D02*
X84050000Y-64869000D01*
X86130000Y-64909000D02*
X88370000Y-64909000D01*
X81810000Y-64909000D02*
X84050000Y-64909000D01*
X86130000Y-64949000D02*
X88399000Y-64949000D01*
X81781000Y-64949000D02*
X84050000Y-64949000D01*
X86130000Y-64989000D02*
X88428000Y-64989000D01*
X81752000Y-64989000D02*
X84050000Y-64989000D01*
X86130000Y-65029000D02*
X88455000Y-65029000D01*
X81725000Y-65029000D02*
X84050000Y-65029000D01*
X86130000Y-65069000D02*
X88482000Y-65069000D01*
X81698000Y-65069000D02*
X84050000Y-65069000D01*
X86130000Y-65109000D02*
X88508000Y-65109000D01*
X81672000Y-65109000D02*
X84050000Y-65109000D01*
X86130000Y-65149000D02*
X88534000Y-65149000D01*
X81646000Y-65149000D02*
X84050000Y-65149000D01*
X86130000Y-65189000D02*
X88559000Y-65189000D01*
X81621000Y-65189000D02*
X84050000Y-65189000D01*
X86130000Y-65229000D02*
X88583000Y-65229000D01*
X81597000Y-65229000D02*
X84050000Y-65229000D01*
X86130000Y-65269000D02*
X88607000Y-65269000D01*
X81573000Y-65269000D02*
X84050000Y-65269000D01*
X86130000Y-65309000D02*
X88630000Y-65309000D01*
X81550000Y-65309000D02*
X84050000Y-65309000D01*
X86130000Y-65349000D02*
X88652000Y-65349000D01*
X81528000Y-65349000D02*
X84050000Y-65349000D01*
X86130000Y-65389000D02*
X88674000Y-65389000D01*
X81506000Y-65389000D02*
X84050000Y-65389000D01*
X86130000Y-65429000D02*
X88696000Y-65429000D01*
X81484000Y-65429000D02*
X84050000Y-65429000D01*
X86130000Y-65469000D02*
X88717000Y-65469000D01*
X81463000Y-65469000D02*
X84050000Y-65469000D01*
X86130000Y-65509000D02*
X88737000Y-65509000D01*
X81443000Y-65509000D02*
X84050000Y-65509000D01*
X86130000Y-65549000D02*
X88756000Y-65549000D01*
X81424000Y-65549000D02*
X84050000Y-65549000D01*
X86130000Y-65589000D02*
X88776000Y-65589000D01*
X81404000Y-65589000D02*
X84050000Y-65589000D01*
X86130000Y-65629000D02*
X88794000Y-65629000D01*
X81386000Y-65629000D02*
X84050000Y-65629000D01*
X86130000Y-65669000D02*
X88812000Y-65669000D01*
X81368000Y-65669000D02*
X84050000Y-65669000D01*
X86130000Y-65709000D02*
X88830000Y-65709000D01*
X81350000Y-65709000D02*
X84050000Y-65709000D01*
X86130000Y-65749000D02*
X88847000Y-65749000D01*
X81333000Y-65749000D02*
X84050000Y-65749000D01*
X86130000Y-65789000D02*
X88864000Y-65789000D01*
X81316000Y-65789000D02*
X84050000Y-65789000D01*
X86130000Y-65829000D02*
X88880000Y-65829000D01*
X81300000Y-65829000D02*
X84050000Y-65829000D01*
X86130000Y-65869000D02*
X88895000Y-65869000D01*
X81285000Y-65869000D02*
X84050000Y-65869000D01*
X81269000Y-65909000D02*
X88911000Y-65909000D01*
X81255000Y-65949000D02*
X88925000Y-65949000D01*
X81240000Y-65989000D02*
X88940000Y-65989000D01*
X81227000Y-66029000D02*
X88953000Y-66029000D01*
X81213000Y-66069000D02*
X88967000Y-66069000D01*
X81201000Y-66109000D02*
X88979000Y-66109000D01*
X81188000Y-66149000D02*
X88992000Y-66149000D01*
X81176000Y-66189000D02*
X89004000Y-66189000D01*
X81165000Y-66229000D02*
X89015000Y-66229000D01*
X81154000Y-66269000D02*
X89026000Y-66269000D01*
X81143000Y-66309000D02*
X89037000Y-66309000D01*
X81133000Y-66349000D02*
X89047000Y-66349000D01*
X81123000Y-66389000D02*
X89057000Y-66389000D01*
X81114000Y-66429000D02*
X89066000Y-66429000D01*
X81105000Y-66469000D02*
X89075000Y-66469000D01*
X81096000Y-66509000D02*
X89084000Y-66509000D01*
X81088000Y-66549000D02*
X89092000Y-66549000D01*
X81080000Y-66589000D02*
X89100000Y-66589000D01*
X81073000Y-66629000D02*
X89107000Y-66629000D01*
X81066000Y-66670000D02*
X89114000Y-66670000D01*
X81060000Y-66710000D02*
X89120000Y-66710000D01*
X81053000Y-66750000D02*
X89127000Y-66750000D01*
X81048000Y-66790000D02*
X89132000Y-66790000D01*
X81042000Y-66830000D02*
X89138000Y-66830000D01*
X81038000Y-66870000D02*
X89142000Y-66870000D01*
X81033000Y-66910000D02*
X89147000Y-66910000D01*
X81029000Y-66950000D02*
X89151000Y-66950000D01*
X81025000Y-66990000D02*
X89155000Y-66990000D01*
X81022000Y-67030000D02*
X89158000Y-67030000D01*
X81019000Y-67070000D02*
X89161000Y-67070000D01*
X81016000Y-67110000D02*
X89164000Y-67110000D01*
X81014000Y-67150000D02*
X89166000Y-67150000D01*
X81013000Y-67190000D02*
X89167000Y-67190000D01*
X81011000Y-67230000D02*
X89169000Y-67230000D01*
X81010000Y-67270000D02*
X89170000Y-67270000D01*
X81010000Y-67310000D02*
X89170000Y-67310000D01*
X81010000Y-67350000D02*
X89170000Y-67350000D01*
X89210000Y-67350000D02*
G75*
G03X89210000Y-67350000I-4120000J0D01*
G01*
X90320000Y-63730000D02*
X92560000Y-63730000D01*
X90320000Y-70970000D02*
X92560000Y-70970000D01*
X92560000Y-70970000D02*
X92560000Y-63730000D01*
X90320000Y-70970000D02*
X90320000Y-63730000D01*
X92560000Y-60730000D02*
X90320000Y-60730000D01*
X92560000Y-53490000D02*
X90320000Y-53490000D01*
X90320000Y-53490000D02*
X90320000Y-60730000D01*
X92560000Y-53490000D02*
X92560000Y-60730000D01*
X87805000Y-53100302D02*
X87005000Y-53100302D01*
X87405000Y-52700302D02*
X87405000Y-53500302D01*
X85623000Y-61191000D02*
X84557000Y-61191000D01*
X85858000Y-61151000D02*
X84322000Y-61151000D01*
X86038000Y-61111000D02*
X84142000Y-61111000D01*
X86188000Y-61071000D02*
X83992000Y-61071000D01*
X86319000Y-61031000D02*
X83861000Y-61031000D01*
X86436000Y-60991000D02*
X83744000Y-60991000D01*
X86543000Y-60951000D02*
X83637000Y-60951000D01*
X86642000Y-60911000D02*
X83538000Y-60911000D01*
X86735000Y-60871000D02*
X83445000Y-60871000D01*
X86821000Y-60831000D02*
X83359000Y-60831000D01*
X86903000Y-60791000D02*
X83277000Y-60791000D01*
X86980000Y-60751000D02*
X83200000Y-60751000D01*
X87054000Y-60711000D02*
X83126000Y-60711000D01*
X87124000Y-60671000D02*
X83056000Y-60671000D01*
X84050000Y-60631000D02*
X82988000Y-60631000D01*
X87192000Y-60631000D02*
X86130000Y-60631000D01*
X84050000Y-60591000D02*
X82924000Y-60591000D01*
X87256000Y-60591000D02*
X86130000Y-60591000D01*
X84050000Y-60551000D02*
X82862000Y-60551000D01*
X87318000Y-60551000D02*
X86130000Y-60551000D01*
X84050000Y-60511000D02*
X82803000Y-60511000D01*
X87377000Y-60511000D02*
X86130000Y-60511000D01*
X84050000Y-60471000D02*
X82745000Y-60471000D01*
X87435000Y-60471000D02*
X86130000Y-60471000D01*
X84050000Y-60431000D02*
X82690000Y-60431000D01*
X87490000Y-60431000D02*
X86130000Y-60431000D01*
X84050000Y-60391000D02*
X82636000Y-60391000D01*
X87544000Y-60391000D02*
X86130000Y-60391000D01*
X84050000Y-60351000D02*
X82585000Y-60351000D01*
X87595000Y-60351000D02*
X86130000Y-60351000D01*
X84050000Y-60311000D02*
X82534000Y-60311000D01*
X87646000Y-60311000D02*
X86130000Y-60311000D01*
X84050000Y-60271000D02*
X82486000Y-60271000D01*
X87694000Y-60271000D02*
X86130000Y-60271000D01*
X84050000Y-60231000D02*
X82439000Y-60231000D01*
X87741000Y-60231000D02*
X86130000Y-60231000D01*
X84050000Y-60191000D02*
X82393000Y-60191000D01*
X87787000Y-60191000D02*
X86130000Y-60191000D01*
X84050000Y-60151000D02*
X82349000Y-60151000D01*
X87831000Y-60151000D02*
X86130000Y-60151000D01*
X84050000Y-60111000D02*
X82306000Y-60111000D01*
X87874000Y-60111000D02*
X86130000Y-60111000D01*
X84050000Y-60071000D02*
X82264000Y-60071000D01*
X87916000Y-60071000D02*
X86130000Y-60071000D01*
X84050000Y-60031000D02*
X82223000Y-60031000D01*
X87957000Y-60031000D02*
X86130000Y-60031000D01*
X84050000Y-59991000D02*
X82183000Y-59991000D01*
X87997000Y-59991000D02*
X86130000Y-59991000D01*
X84050000Y-59951000D02*
X82145000Y-59951000D01*
X88035000Y-59951000D02*
X86130000Y-59951000D01*
X84050000Y-59911000D02*
X82107000Y-59911000D01*
X88073000Y-59911000D02*
X86130000Y-59911000D01*
X84050000Y-59871000D02*
X82071000Y-59871000D01*
X88109000Y-59871000D02*
X86130000Y-59871000D01*
X84050000Y-59831000D02*
X82035000Y-59831000D01*
X88145000Y-59831000D02*
X86130000Y-59831000D01*
X84050000Y-59791000D02*
X82000000Y-59791000D01*
X88180000Y-59791000D02*
X86130000Y-59791000D01*
X84050000Y-59751000D02*
X81966000Y-59751000D01*
X88214000Y-59751000D02*
X86130000Y-59751000D01*
X84050000Y-59711000D02*
X81934000Y-59711000D01*
X88246000Y-59711000D02*
X86130000Y-59711000D01*
X84050000Y-59671000D02*
X81901000Y-59671000D01*
X88279000Y-59671000D02*
X86130000Y-59671000D01*
X84050000Y-59631000D02*
X81870000Y-59631000D01*
X88310000Y-59631000D02*
X86130000Y-59631000D01*
X84050000Y-59591000D02*
X81840000Y-59591000D01*
X88340000Y-59591000D02*
X86130000Y-59591000D01*
X84050000Y-59551000D02*
X81810000Y-59551000D01*
X88370000Y-59551000D02*
X86130000Y-59551000D01*
X84050000Y-59511000D02*
X81781000Y-59511000D01*
X88399000Y-59511000D02*
X86130000Y-59511000D01*
X84050000Y-59471000D02*
X81752000Y-59471000D01*
X88428000Y-59471000D02*
X86130000Y-59471000D01*
X84050000Y-59431000D02*
X81725000Y-59431000D01*
X88455000Y-59431000D02*
X86130000Y-59431000D01*
X84050000Y-59391000D02*
X81698000Y-59391000D01*
X88482000Y-59391000D02*
X86130000Y-59391000D01*
X84050000Y-59351000D02*
X81672000Y-59351000D01*
X88508000Y-59351000D02*
X86130000Y-59351000D01*
X84050000Y-59311000D02*
X81646000Y-59311000D01*
X88534000Y-59311000D02*
X86130000Y-59311000D01*
X84050000Y-59271000D02*
X81621000Y-59271000D01*
X88559000Y-59271000D02*
X86130000Y-59271000D01*
X84050000Y-59231000D02*
X81597000Y-59231000D01*
X88583000Y-59231000D02*
X86130000Y-59231000D01*
X84050000Y-59191000D02*
X81573000Y-59191000D01*
X88607000Y-59191000D02*
X86130000Y-59191000D01*
X84050000Y-59151000D02*
X81550000Y-59151000D01*
X88630000Y-59151000D02*
X86130000Y-59151000D01*
X84050000Y-59111000D02*
X81528000Y-59111000D01*
X88652000Y-59111000D02*
X86130000Y-59111000D01*
X84050000Y-59071000D02*
X81506000Y-59071000D01*
X88674000Y-59071000D02*
X86130000Y-59071000D01*
X84050000Y-59031000D02*
X81484000Y-59031000D01*
X88696000Y-59031000D02*
X86130000Y-59031000D01*
X84050000Y-58991000D02*
X81463000Y-58991000D01*
X88717000Y-58991000D02*
X86130000Y-58991000D01*
X84050000Y-58951000D02*
X81443000Y-58951000D01*
X88737000Y-58951000D02*
X86130000Y-58951000D01*
X84050000Y-58911000D02*
X81424000Y-58911000D01*
X88756000Y-58911000D02*
X86130000Y-58911000D01*
X84050000Y-58871000D02*
X81404000Y-58871000D01*
X88776000Y-58871000D02*
X86130000Y-58871000D01*
X84050000Y-58831000D02*
X81386000Y-58831000D01*
X88794000Y-58831000D02*
X86130000Y-58831000D01*
X84050000Y-58791000D02*
X81368000Y-58791000D01*
X88812000Y-58791000D02*
X86130000Y-58791000D01*
X84050000Y-58751000D02*
X81350000Y-58751000D01*
X88830000Y-58751000D02*
X86130000Y-58751000D01*
X84050000Y-58711000D02*
X81333000Y-58711000D01*
X88847000Y-58711000D02*
X86130000Y-58711000D01*
X84050000Y-58671000D02*
X81316000Y-58671000D01*
X88864000Y-58671000D02*
X86130000Y-58671000D01*
X84050000Y-58631000D02*
X81300000Y-58631000D01*
X88880000Y-58631000D02*
X86130000Y-58631000D01*
X84050000Y-58591000D02*
X81285000Y-58591000D01*
X88895000Y-58591000D02*
X86130000Y-58591000D01*
X88911000Y-58551000D02*
X81269000Y-58551000D01*
X88925000Y-58511000D02*
X81255000Y-58511000D01*
X88940000Y-58471000D02*
X81240000Y-58471000D01*
X88953000Y-58431000D02*
X81227000Y-58431000D01*
X88967000Y-58391000D02*
X81213000Y-58391000D01*
X88979000Y-58351000D02*
X81201000Y-58351000D01*
X88992000Y-58311000D02*
X81188000Y-58311000D01*
X89004000Y-58271000D02*
X81176000Y-58271000D01*
X89015000Y-58231000D02*
X81165000Y-58231000D01*
X89026000Y-58191000D02*
X81154000Y-58191000D01*
X89037000Y-58151000D02*
X81143000Y-58151000D01*
X89047000Y-58111000D02*
X81133000Y-58111000D01*
X89057000Y-58071000D02*
X81123000Y-58071000D01*
X89066000Y-58031000D02*
X81114000Y-58031000D01*
X89075000Y-57991000D02*
X81105000Y-57991000D01*
X89084000Y-57951000D02*
X81096000Y-57951000D01*
X89092000Y-57911000D02*
X81088000Y-57911000D01*
X89100000Y-57871000D02*
X81080000Y-57871000D01*
X89107000Y-57831000D02*
X81073000Y-57831000D01*
X89114000Y-57790000D02*
X81066000Y-57790000D01*
X89120000Y-57750000D02*
X81060000Y-57750000D01*
X89127000Y-57710000D02*
X81053000Y-57710000D01*
X89132000Y-57670000D02*
X81048000Y-57670000D01*
X89138000Y-57630000D02*
X81042000Y-57630000D01*
X89142000Y-57590000D02*
X81038000Y-57590000D01*
X89147000Y-57550000D02*
X81033000Y-57550000D01*
X89151000Y-57510000D02*
X81029000Y-57510000D01*
X89155000Y-57470000D02*
X81025000Y-57470000D01*
X89158000Y-57430000D02*
X81022000Y-57430000D01*
X89161000Y-57390000D02*
X81019000Y-57390000D01*
X89164000Y-57350000D02*
X81016000Y-57350000D01*
X89166000Y-57310000D02*
X81014000Y-57310000D01*
X89167000Y-57270000D02*
X81013000Y-57270000D01*
X89169000Y-57230000D02*
X81011000Y-57230000D01*
X89170000Y-57190000D02*
X81010000Y-57190000D01*
X89170000Y-57150000D02*
X81010000Y-57150000D01*
X89170000Y-57110000D02*
X81010000Y-57110000D01*
X89210000Y-57110000D02*
G75*
G03X89210000Y-57110000I-4120000J0D01*
G01*
D10*
X141188380Y-69445095D02*
X140188380Y-69445095D01*
X140188380Y-69064142D01*
X140236000Y-68968904D01*
X140283619Y-68921285D01*
X140378857Y-68873666D01*
X140521714Y-68873666D01*
X140616952Y-68921285D01*
X140664571Y-68968904D01*
X140712190Y-69064142D01*
X140712190Y-69445095D01*
X140188380Y-68016523D02*
X140188380Y-68207000D01*
X140236000Y-68302238D01*
X140283619Y-68349857D01*
X140426476Y-68445095D01*
X140616952Y-68492714D01*
X140997904Y-68492714D01*
X141093142Y-68445095D01*
X141140761Y-68397476D01*
X141188380Y-68302238D01*
X141188380Y-68111761D01*
X141140761Y-68016523D01*
X141093142Y-67968904D01*
X140997904Y-67921285D01*
X140759809Y-67921285D01*
X140664571Y-67968904D01*
X140616952Y-68016523D01*
X140569333Y-68111761D01*
X140569333Y-68302238D01*
X140616952Y-68397476D01*
X140664571Y-68445095D01*
X140759809Y-68492714D01*
X125948380Y-69445095D02*
X124948380Y-69445095D01*
X124948380Y-69064142D01*
X124996000Y-68968904D01*
X125043619Y-68921285D01*
X125138857Y-68873666D01*
X125281714Y-68873666D01*
X125376952Y-68921285D01*
X125424571Y-68968904D01*
X125472190Y-69064142D01*
X125472190Y-69445095D01*
X124948380Y-67968904D02*
X124948380Y-68445095D01*
X125424571Y-68492714D01*
X125376952Y-68445095D01*
X125329333Y-68349857D01*
X125329333Y-68111761D01*
X125376952Y-68016523D01*
X125424571Y-67968904D01*
X125519809Y-67921285D01*
X125757904Y-67921285D01*
X125853142Y-67968904D01*
X125900761Y-68016523D01*
X125948380Y-68111761D01*
X125948380Y-68349857D01*
X125900761Y-68445095D01*
X125853142Y-68492714D01*
X93218095Y-99012380D02*
X93218095Y-99821904D01*
X93265714Y-99917142D01*
X93313333Y-99964761D01*
X93408571Y-100012380D01*
X93599047Y-100012380D01*
X93694285Y-99964761D01*
X93741904Y-99917142D01*
X93789523Y-99821904D01*
X93789523Y-99012380D01*
X94170476Y-99012380D02*
X94789523Y-99012380D01*
X94456190Y-99393333D01*
X94599047Y-99393333D01*
X94694285Y-99440952D01*
X94741904Y-99488571D01*
X94789523Y-99583809D01*
X94789523Y-99821904D01*
X94741904Y-99917142D01*
X94694285Y-99964761D01*
X94599047Y-100012380D01*
X94313333Y-100012380D01*
X94218095Y-99964761D01*
X94170476Y-99917142D01*
X142748095Y-105472380D02*
X142748095Y-104472380D01*
X142748095Y-104948571D02*
X143319523Y-104948571D01*
X143319523Y-105472380D02*
X143319523Y-104472380D01*
X144224285Y-104805714D02*
X144224285Y-105472380D01*
X143986190Y-104424761D02*
X143748095Y-105139047D01*
X144367142Y-105139047D01*
X142748095Y-52132380D02*
X142748095Y-51132380D01*
X142748095Y-51608571D02*
X143319523Y-51608571D01*
X143319523Y-52132380D02*
X143319523Y-51132380D01*
X143700476Y-51132380D02*
X144319523Y-51132380D01*
X143986190Y-51513333D01*
X144129047Y-51513333D01*
X144224285Y-51560952D01*
X144271904Y-51608571D01*
X144319523Y-51703809D01*
X144319523Y-51941904D01*
X144271904Y-52037142D01*
X144224285Y-52084761D01*
X144129047Y-52132380D01*
X143843333Y-52132380D01*
X143748095Y-52084761D01*
X143700476Y-52037142D01*
X67818095Y-105472380D02*
X67818095Y-104472380D01*
X67818095Y-104948571D02*
X68389523Y-104948571D01*
X68389523Y-105472380D02*
X68389523Y-104472380D01*
X68818095Y-104567619D02*
X68865714Y-104520000D01*
X68960952Y-104472380D01*
X69199047Y-104472380D01*
X69294285Y-104520000D01*
X69341904Y-104567619D01*
X69389523Y-104662857D01*
X69389523Y-104758095D01*
X69341904Y-104900952D01*
X68770476Y-105472380D01*
X69389523Y-105472380D01*
X67818095Y-52132380D02*
X67818095Y-51132380D01*
X67818095Y-51608571D02*
X68389523Y-51608571D01*
X68389523Y-52132380D02*
X68389523Y-51132380D01*
X69389523Y-52132380D02*
X68818095Y-52132380D01*
X69103809Y-52132380D02*
X69103809Y-51132380D01*
X69008571Y-51275238D01*
X68913333Y-51370476D01*
X68818095Y-51418095D01*
X90678095Y-73322380D02*
X90678095Y-74131904D01*
X90725714Y-74227142D01*
X90773333Y-74274761D01*
X90868571Y-74322380D01*
X91059047Y-74322380D01*
X91154285Y-74274761D01*
X91201904Y-74227142D01*
X91249523Y-74131904D01*
X91249523Y-73322380D01*
X92154285Y-73655714D02*
X92154285Y-74322380D01*
X91916190Y-73274761D02*
X91678095Y-73989047D01*
X92297142Y-73989047D01*
X143982380Y-69341904D02*
X144791904Y-69341904D01*
X144887142Y-69294285D01*
X144934761Y-69246666D01*
X144982380Y-69151428D01*
X144982380Y-68960952D01*
X144934761Y-68865714D01*
X144887142Y-68818095D01*
X144791904Y-68770476D01*
X143982380Y-68770476D01*
X144077619Y-68341904D02*
X144030000Y-68294285D01*
X143982380Y-68199047D01*
X143982380Y-67960952D01*
X144030000Y-67865714D01*
X144077619Y-67818095D01*
X144172857Y-67770476D01*
X144268095Y-67770476D01*
X144410952Y-67818095D01*
X144982380Y-68389523D01*
X144982380Y-67770476D01*
X116552380Y-59181904D02*
X117361904Y-59181904D01*
X117457142Y-59134285D01*
X117504761Y-59086666D01*
X117552380Y-58991428D01*
X117552380Y-58800952D01*
X117504761Y-58705714D01*
X117457142Y-58658095D01*
X117361904Y-58610476D01*
X116552380Y-58610476D01*
X117552380Y-57610476D02*
X117552380Y-58181904D01*
X117552380Y-57896190D02*
X116552380Y-57896190D01*
X116695238Y-57991428D01*
X116790476Y-58086666D01*
X116838095Y-58181904D01*
X74362380Y-82883333D02*
X75076666Y-82883333D01*
X75219523Y-82930952D01*
X75314761Y-83026190D01*
X75362380Y-83169047D01*
X75362380Y-83264285D01*
X75362380Y-81883333D02*
X75362380Y-82454761D01*
X75362380Y-82169047D02*
X74362380Y-82169047D01*
X74505238Y-82264285D01*
X74600476Y-82359523D01*
X74648095Y-82454761D01*
X103742380Y-80748095D02*
X102742380Y-80748095D01*
X102742380Y-80510000D01*
X102790000Y-80367142D01*
X102885238Y-80271904D01*
X102980476Y-80224285D01*
X103170952Y-80176666D01*
X103313809Y-80176666D01*
X103504285Y-80224285D01*
X103599523Y-80271904D01*
X103694761Y-80367142D01*
X103742380Y-80510000D01*
X103742380Y-80748095D01*
X102837619Y-79795714D02*
X102790000Y-79748095D01*
X102742380Y-79652857D01*
X102742380Y-79414761D01*
X102790000Y-79319523D01*
X102837619Y-79271904D01*
X102932857Y-79224285D01*
X103028095Y-79224285D01*
X103170952Y-79271904D01*
X103742380Y-79843333D01*
X103742380Y-79224285D01*
X104062380Y-84081904D02*
X103062380Y-84081904D01*
X104062380Y-83510476D02*
X103490952Y-83939047D01*
X103062380Y-83510476D02*
X103633809Y-84081904D01*
X80392380Y-60428095D02*
X79392380Y-60428095D01*
X79392380Y-60190000D01*
X79440000Y-60047142D01*
X79535238Y-59951904D01*
X79630476Y-59904285D01*
X79820952Y-59856666D01*
X79963809Y-59856666D01*
X80154285Y-59904285D01*
X80249523Y-59951904D01*
X80344761Y-60047142D01*
X80392380Y-60190000D01*
X80392380Y-60428095D01*
X80392380Y-58904285D02*
X80392380Y-59475714D01*
X80392380Y-59190000D02*
X79392380Y-59190000D01*
X79535238Y-59285238D01*
X79630476Y-59380476D01*
X79678095Y-59475714D01*
X80022380Y-54871904D02*
X79022380Y-54871904D01*
X80022380Y-54300476D02*
X79450952Y-54729047D01*
X79022380Y-54300476D02*
X79593809Y-54871904D01*
X76557142Y-87002857D02*
X76604761Y-87050476D01*
X76652380Y-87193333D01*
X76652380Y-87288571D01*
X76604761Y-87431428D01*
X76509523Y-87526666D01*
X76414285Y-87574285D01*
X76223809Y-87621904D01*
X76080952Y-87621904D01*
X75890476Y-87574285D01*
X75795238Y-87526666D01*
X75700000Y-87431428D01*
X75652380Y-87288571D01*
X75652380Y-87193333D01*
X75700000Y-87050476D01*
X75747619Y-87002857D01*
X76652380Y-86050476D02*
X76652380Y-86621904D01*
X76652380Y-86336190D02*
X75652380Y-86336190D01*
X75795238Y-86431428D01*
X75890476Y-86526666D01*
X75938095Y-86621904D01*
X75652380Y-85431428D02*
X75652380Y-85336190D01*
X75700000Y-85240952D01*
X75747619Y-85193333D01*
X75842857Y-85145714D01*
X76033333Y-85098095D01*
X76271428Y-85098095D01*
X76461904Y-85145714D01*
X76557142Y-85193333D01*
X76604761Y-85240952D01*
X76652380Y-85336190D01*
X76652380Y-85431428D01*
X76604761Y-85526666D01*
X76557142Y-85574285D01*
X76461904Y-85621904D01*
X76271428Y-85669523D01*
X76033333Y-85669523D01*
X75842857Y-85621904D01*
X75747619Y-85574285D01*
X75700000Y-85526666D01*
X75652380Y-85431428D01*
X76847142Y-78866666D02*
X76894761Y-78914285D01*
X76942380Y-79057142D01*
X76942380Y-79152380D01*
X76894761Y-79295238D01*
X76799523Y-79390476D01*
X76704285Y-79438095D01*
X76513809Y-79485714D01*
X76370952Y-79485714D01*
X76180476Y-79438095D01*
X76085238Y-79390476D01*
X75990000Y-79295238D01*
X75942380Y-79152380D01*
X75942380Y-79057142D01*
X75990000Y-78914285D01*
X76037619Y-78866666D01*
X76942380Y-78390476D02*
X76942380Y-78200000D01*
X76894761Y-78104761D01*
X76847142Y-78057142D01*
X76704285Y-77961904D01*
X76513809Y-77914285D01*
X76132857Y-77914285D01*
X76037619Y-77961904D01*
X75990000Y-78009523D01*
X75942380Y-78104761D01*
X75942380Y-78295238D01*
X75990000Y-78390476D01*
X76037619Y-78438095D01*
X76132857Y-78485714D01*
X76370952Y-78485714D01*
X76466190Y-78438095D01*
X76513809Y-78390476D01*
X76561428Y-78295238D01*
X76561428Y-78104761D01*
X76513809Y-78009523D01*
X76466190Y-77961904D01*
X76370952Y-77914285D01*
X83887142Y-78866666D02*
X83934761Y-78914285D01*
X83982380Y-79057142D01*
X83982380Y-79152380D01*
X83934761Y-79295238D01*
X83839523Y-79390476D01*
X83744285Y-79438095D01*
X83553809Y-79485714D01*
X83410952Y-79485714D01*
X83220476Y-79438095D01*
X83125238Y-79390476D01*
X83030000Y-79295238D01*
X82982380Y-79152380D01*
X82982380Y-79057142D01*
X83030000Y-78914285D01*
X83077619Y-78866666D01*
X83410952Y-78295238D02*
X83363333Y-78390476D01*
X83315714Y-78438095D01*
X83220476Y-78485714D01*
X83172857Y-78485714D01*
X83077619Y-78438095D01*
X83030000Y-78390476D01*
X82982380Y-78295238D01*
X82982380Y-78104761D01*
X83030000Y-78009523D01*
X83077619Y-77961904D01*
X83172857Y-77914285D01*
X83220476Y-77914285D01*
X83315714Y-77961904D01*
X83363333Y-78009523D01*
X83410952Y-78104761D01*
X83410952Y-78295238D01*
X83458571Y-78390476D01*
X83506190Y-78438095D01*
X83601428Y-78485714D01*
X83791904Y-78485714D01*
X83887142Y-78438095D01*
X83934761Y-78390476D01*
X83982380Y-78295238D01*
X83982380Y-78104761D01*
X83934761Y-78009523D01*
X83887142Y-77961904D01*
X83791904Y-77914285D01*
X83601428Y-77914285D01*
X83506190Y-77961904D01*
X83458571Y-78009523D01*
X83410952Y-78104761D01*
X84177142Y-86486666D02*
X84224761Y-86534285D01*
X84272380Y-86677142D01*
X84272380Y-86772380D01*
X84224761Y-86915238D01*
X84129523Y-87010476D01*
X84034285Y-87058095D01*
X83843809Y-87105714D01*
X83700952Y-87105714D01*
X83510476Y-87058095D01*
X83415238Y-87010476D01*
X83320000Y-86915238D01*
X83272380Y-86772380D01*
X83272380Y-86677142D01*
X83320000Y-86534285D01*
X83367619Y-86486666D01*
X83272380Y-86153333D02*
X83272380Y-85486666D01*
X84272380Y-85915238D01*
X104207142Y-78866666D02*
X104254761Y-78914285D01*
X104302380Y-79057142D01*
X104302380Y-79152380D01*
X104254761Y-79295238D01*
X104159523Y-79390476D01*
X104064285Y-79438095D01*
X103873809Y-79485714D01*
X103730952Y-79485714D01*
X103540476Y-79438095D01*
X103445238Y-79390476D01*
X103350000Y-79295238D01*
X103302380Y-79152380D01*
X103302380Y-79057142D01*
X103350000Y-78914285D01*
X103397619Y-78866666D01*
X103302380Y-78009523D02*
X103302380Y-78200000D01*
X103350000Y-78295238D01*
X103397619Y-78342857D01*
X103540476Y-78438095D01*
X103730952Y-78485714D01*
X104111904Y-78485714D01*
X104207142Y-78438095D01*
X104254761Y-78390476D01*
X104302380Y-78295238D01*
X104302380Y-78104761D01*
X104254761Y-78009523D01*
X104207142Y-77961904D01*
X104111904Y-77914285D01*
X103873809Y-77914285D01*
X103778571Y-77961904D01*
X103730952Y-78009523D01*
X103683333Y-78104761D01*
X103683333Y-78295238D01*
X103730952Y-78390476D01*
X103778571Y-78438095D01*
X103873809Y-78485714D01*
X139077142Y-76406666D02*
X139124761Y-76454285D01*
X139172380Y-76597142D01*
X139172380Y-76692380D01*
X139124761Y-76835238D01*
X139029523Y-76930476D01*
X138934285Y-76978095D01*
X138743809Y-77025714D01*
X138600952Y-77025714D01*
X138410476Y-76978095D01*
X138315238Y-76930476D01*
X138220000Y-76835238D01*
X138172380Y-76692380D01*
X138172380Y-76597142D01*
X138220000Y-76454285D01*
X138267619Y-76406666D01*
X138172380Y-75501904D02*
X138172380Y-75978095D01*
X138648571Y-76025714D01*
X138600952Y-75978095D01*
X138553333Y-75882857D01*
X138553333Y-75644761D01*
X138600952Y-75549523D01*
X138648571Y-75501904D01*
X138743809Y-75454285D01*
X138981904Y-75454285D01*
X139077142Y-75501904D01*
X139124761Y-75549523D01*
X139172380Y-75644761D01*
X139172380Y-75882857D01*
X139124761Y-75978095D01*
X139077142Y-76025714D01*
X80197142Y-67516666D02*
X80244761Y-67564285D01*
X80292380Y-67707142D01*
X80292380Y-67802380D01*
X80244761Y-67945238D01*
X80149523Y-68040476D01*
X80054285Y-68088095D01*
X79863809Y-68135714D01*
X79720952Y-68135714D01*
X79530476Y-68088095D01*
X79435238Y-68040476D01*
X79340000Y-67945238D01*
X79292380Y-67802380D01*
X79292380Y-67707142D01*
X79340000Y-67564285D01*
X79387619Y-67516666D01*
X79625714Y-66659523D02*
X80292380Y-66659523D01*
X79244761Y-66897619D02*
X79959047Y-67135714D01*
X79959047Y-66516666D01*
X89547142Y-67516666D02*
X89594761Y-67564285D01*
X89642380Y-67707142D01*
X89642380Y-67802380D01*
X89594761Y-67945238D01*
X89499523Y-68040476D01*
X89404285Y-68088095D01*
X89213809Y-68135714D01*
X89070952Y-68135714D01*
X88880476Y-68088095D01*
X88785238Y-68040476D01*
X88690000Y-67945238D01*
X88642380Y-67802380D01*
X88642380Y-67707142D01*
X88690000Y-67564285D01*
X88737619Y-67516666D01*
X88642380Y-67183333D02*
X88642380Y-66564285D01*
X89023333Y-66897619D01*
X89023333Y-66754761D01*
X89070952Y-66659523D01*
X89118571Y-66611904D01*
X89213809Y-66564285D01*
X89451904Y-66564285D01*
X89547142Y-66611904D01*
X89594761Y-66659523D01*
X89642380Y-66754761D01*
X89642380Y-67040476D01*
X89594761Y-67135714D01*
X89547142Y-67183333D01*
X94047142Y-57276666D02*
X94094761Y-57324285D01*
X94142380Y-57467142D01*
X94142380Y-57562380D01*
X94094761Y-57705238D01*
X93999523Y-57800476D01*
X93904285Y-57848095D01*
X93713809Y-57895714D01*
X93570952Y-57895714D01*
X93380476Y-57848095D01*
X93285238Y-57800476D01*
X93190000Y-57705238D01*
X93142380Y-57562380D01*
X93142380Y-57467142D01*
X93190000Y-57324285D01*
X93237619Y-57276666D01*
X93237619Y-56895714D02*
X93190000Y-56848095D01*
X93142380Y-56752857D01*
X93142380Y-56514761D01*
X93190000Y-56419523D01*
X93237619Y-56371904D01*
X93332857Y-56324285D01*
X93428095Y-56324285D01*
X93570952Y-56371904D01*
X94142380Y-56943333D01*
X94142380Y-56324285D01*
X90697142Y-57276666D02*
X90744761Y-57324285D01*
X90792380Y-57467142D01*
X90792380Y-57562380D01*
X90744761Y-57705238D01*
X90649523Y-57800476D01*
X90554285Y-57848095D01*
X90363809Y-57895714D01*
X90220952Y-57895714D01*
X90030476Y-57848095D01*
X89935238Y-57800476D01*
X89840000Y-57705238D01*
X89792380Y-57562380D01*
X89792380Y-57467142D01*
X89840000Y-57324285D01*
X89887619Y-57276666D01*
X90792380Y-56324285D02*
X90792380Y-56895714D01*
X90792380Y-56610000D02*
X89792380Y-56610000D01*
X89935238Y-56705238D01*
X90030476Y-56800476D01*
X90078095Y-56895714D01*
M02*
