G04 #@! TF.GenerationSoftware,KiCad,Pcbnew,(5.1.4)-1*
G04 #@! TF.CreationDate,2020-05-24T19:30:54+02:00*
G04 #@! TF.ProjectId,transmitter,7472616e-736d-4697-9474-65722e6b6963,rev?*
G04 #@! TF.SameCoordinates,Original*
G04 #@! TF.FileFunction,Copper,L1,Top*
G04 #@! TF.FilePolarity,Positive*
%FSLAX46Y46*%
G04 Gerber Fmt 4.6, Leading zero omitted, Abs format (unit mm)*
G04 Created by KiCad (PCBNEW (5.1.4)-1) date 2020-05-24 19:30:54*
%MOMM*%
%LPD*%
G04 APERTURE LIST*
%ADD10R,1.500000X1.500000*%
%ADD11C,1.500000*%
%ADD12O,2.400000X1.600000*%
%ADD13O,1.600000X2.400000*%
%ADD14C,2.500000*%
%ADD15R,2.500000X2.500000*%
%ADD16R,2.400000X1.600000*%
%ADD17O,2.000000X1.905000*%
%ADD18R,2.000000X1.905000*%
%ADD19O,1.600000X1.600000*%
%ADD20R,1.600000X1.600000*%
%ADD21O,2.200000X2.200000*%
%ADD22R,2.200000X2.200000*%
%ADD23C,1.600000*%
%ADD24C,1.950000*%
G04 APERTURE END LIST*
D10*
X147320000Y-68580000D03*
D11*
X147320000Y-63500000D03*
X147320000Y-66040000D03*
D12*
X142240000Y-96520000D03*
X142240000Y-93980000D03*
X142240000Y-91440000D03*
X142240000Y-88900000D03*
X142240000Y-86360000D03*
X142240000Y-83820000D03*
X142240000Y-81280000D03*
X142240000Y-78740000D03*
X142240000Y-76200000D03*
X142240000Y-73660000D03*
X142240000Y-71120000D03*
X142240000Y-68580000D03*
X142240000Y-66040000D03*
X142240000Y-63500000D03*
X142240000Y-60960000D03*
X127000000Y-96520000D03*
X127000000Y-93980000D03*
X127000000Y-91440000D03*
X127000000Y-88900000D03*
X127000000Y-86360000D03*
X127000000Y-83820000D03*
X127000000Y-81280000D03*
X127000000Y-78740000D03*
X127000000Y-76200000D03*
X127000000Y-73660000D03*
X127000000Y-71120000D03*
X127000000Y-68580000D03*
X127000000Y-66040000D03*
X127000000Y-63500000D03*
X127000000Y-60960000D03*
D13*
X106680000Y-96520000D03*
X104140000Y-96520000D03*
X101600000Y-96520000D03*
X99060000Y-96520000D03*
D14*
X74930000Y-87630000D03*
X74930000Y-82550000D03*
X74930000Y-77470000D03*
X74930000Y-72390000D03*
D15*
X74930000Y-67310000D03*
D12*
X96520000Y-74930000D03*
X88900000Y-92710000D03*
X96520000Y-77470000D03*
X88900000Y-90170000D03*
X96520000Y-80010000D03*
X88900000Y-87630000D03*
X96520000Y-82550000D03*
X88900000Y-85090000D03*
X96520000Y-85090000D03*
X88900000Y-82550000D03*
X96520000Y-87630000D03*
X88900000Y-80010000D03*
X96520000Y-90170000D03*
X88900000Y-77470000D03*
X96520000Y-92710000D03*
D16*
X88900000Y-74930000D03*
D17*
X101600000Y-60960000D03*
X101600000Y-58420000D03*
D18*
X101600000Y-55880000D03*
D19*
X105410000Y-74930000D03*
D20*
X105410000Y-82550000D03*
D21*
X82550000Y-64770000D03*
D22*
X82550000Y-54610000D03*
D23*
X82550000Y-82550000D03*
X82550000Y-87550000D03*
X82550000Y-74930000D03*
X82550000Y-79930000D03*
X85090000Y-79930000D03*
X85090000Y-74930000D03*
X85090000Y-87550000D03*
X85090000Y-82550000D03*
X101600000Y-79930000D03*
X101600000Y-74930000D03*
X151130000Y-63580000D03*
X151130000Y-68580000D03*
X90170000Y-64850000D03*
D20*
X90170000Y-69850000D03*
D23*
X96520000Y-64850000D03*
X96520000Y-69850000D03*
X96520000Y-59610000D03*
X96520000Y-54610000D03*
X90170000Y-59610000D03*
D20*
X90170000Y-54610000D03*
D23*
X109220000Y-82550000D03*
X109220000Y-72390000D03*
D24*
X109220000Y-82550000D02*
X109220000Y-72390000D01*
M02*
