G04 #@! TF.GenerationSoftware,KiCad,Pcbnew,(5.1.4)-1*
G04 #@! TF.CreationDate,2020-03-07T10:46:46+01:00*
G04 #@! TF.ProjectId,transmitter,7472616e-736d-4697-9474-65722e6b6963,rev?*
G04 #@! TF.SameCoordinates,Original*
G04 #@! TF.FileFunction,Copper,L2,Bot*
G04 #@! TF.FilePolarity,Positive*
%FSLAX46Y46*%
G04 Gerber Fmt 4.6, Leading zero omitted, Abs format (unit mm)*
G04 Created by KiCad (PCBNEW (5.1.4)-1) date 2020-03-07 10:46:46*
%MOMM*%
%LPD*%
G04 APERTURE LIST*
%ADD10O,2.400000X1.600000*%
%ADD11O,1.600000X2.400000*%
%ADD12R,2.400000X1.600000*%
%ADD13R,1.300000X1.300000*%
%ADD14C,1.300000*%
%ADD15O,2.000000X1.905000*%
%ADD16R,2.000000X1.905000*%
%ADD17C,2.500000*%
%ADD18R,2.500000X2.500000*%
%ADD19O,1.600000X1.600000*%
%ADD20R,1.600000X1.600000*%
%ADD21O,2.200000X2.200000*%
%ADD22R,2.200000X2.200000*%
%ADD23C,1.600000*%
%ADD24C,1.950000*%
%ADD25C,0.254000*%
G04 APERTURE END LIST*
D10*
X135636000Y-104267000D03*
X135636000Y-101727000D03*
X135636000Y-99187000D03*
X135636000Y-96647000D03*
X135636000Y-94107000D03*
X135636000Y-91567000D03*
X135636000Y-89027000D03*
X135636000Y-86487000D03*
X135636000Y-83947000D03*
X135636000Y-81407000D03*
X135636000Y-78867000D03*
X135636000Y-76327000D03*
X135636000Y-73787000D03*
X135636000Y-71247000D03*
X135636000Y-68707000D03*
X120396000Y-104267000D03*
X120396000Y-101727000D03*
X120396000Y-99187000D03*
X120396000Y-96647000D03*
X120396000Y-94107000D03*
X120396000Y-91567000D03*
X120396000Y-89027000D03*
X120396000Y-86487000D03*
X120396000Y-83947000D03*
X120396000Y-81407000D03*
X120396000Y-78867000D03*
X120396000Y-76327000D03*
X120396000Y-73787000D03*
X120396000Y-71247000D03*
X120396000Y-68707000D03*
D11*
X97790000Y-102870000D03*
X95250000Y-102870000D03*
X92710000Y-102870000D03*
X90170000Y-102870000D03*
D10*
X95250000Y-76200000D03*
X87630000Y-93980000D03*
X95250000Y-78740000D03*
X87630000Y-91440000D03*
X95250000Y-81280000D03*
X87630000Y-88900000D03*
X95250000Y-83820000D03*
X87630000Y-86360000D03*
X95250000Y-86360000D03*
X87630000Y-83820000D03*
X95250000Y-88900000D03*
X87630000Y-81280000D03*
X95250000Y-91440000D03*
X87630000Y-78740000D03*
X95250000Y-93980000D03*
D12*
X87630000Y-76200000D03*
D13*
X140970000Y-67310000D03*
D14*
X140970000Y-69850000D03*
X142240000Y-68580000D03*
D15*
X96520000Y-60960000D03*
X96520000Y-58420000D03*
D16*
X96520000Y-55880000D03*
D17*
X69850000Y-92710000D03*
X69850000Y-87630000D03*
X69850000Y-82550000D03*
X69850000Y-77470000D03*
D18*
X69850000Y-72390000D03*
D19*
X105410000Y-76200000D03*
D20*
X105410000Y-83820000D03*
D21*
X77470000Y-64770000D03*
D22*
X77470000Y-54610000D03*
D23*
X78740000Y-83820000D03*
X78740000Y-88820000D03*
X78740000Y-76200000D03*
X78740000Y-81200000D03*
X81280000Y-81200000D03*
X81280000Y-76200000D03*
X81280000Y-88820000D03*
X81280000Y-83820000D03*
X101600000Y-81200000D03*
X101600000Y-76200000D03*
X140970000Y-73740000D03*
X140970000Y-78740000D03*
X85090000Y-64850000D03*
D20*
X85090000Y-69850000D03*
D23*
X91440000Y-64850000D03*
X91440000Y-69850000D03*
X91440000Y-59610000D03*
X91440000Y-54610000D03*
X85090000Y-59610000D03*
D20*
X85090000Y-54610000D03*
D23*
X109220000Y-83820000D03*
X109220000Y-72390000D03*
X143510000Y-78740000D03*
X143510000Y-73660000D03*
D24*
X120396000Y-68707000D02*
X116713000Y-68707000D01*
X116713000Y-68707000D02*
X115570000Y-69850000D01*
X115570000Y-69850000D02*
X113030000Y-72390000D01*
X113030000Y-72390000D02*
X111760000Y-72390000D01*
X111760000Y-72390000D02*
X109220000Y-72390000D01*
X95250000Y-88900000D02*
X105410000Y-88900000D01*
X105410000Y-88900000D02*
X109220000Y-85090000D01*
X109220000Y-85090000D02*
X109220000Y-83820000D01*
X120313990Y-71329010D02*
X120396000Y-71247000D01*
X113030000Y-76200000D02*
X105410000Y-76200000D01*
X120396000Y-71247000D02*
X117983000Y-71247000D01*
X117983000Y-71247000D02*
X113030000Y-76200000D01*
X92630000Y-58420000D02*
X91440000Y-59610000D01*
X96520000Y-58420000D02*
X92630000Y-58420000D01*
X83740000Y-64850000D02*
X85090000Y-64850000D01*
X81280000Y-67310000D02*
X83740000Y-64850000D01*
X81280000Y-72390000D02*
X81280000Y-67310000D01*
X95250000Y-78740000D02*
X92710000Y-78740000D01*
X92710000Y-78740000D02*
X91440000Y-77470000D01*
X78740000Y-76200000D02*
X76200000Y-78740000D01*
X76200000Y-78740000D02*
X76200000Y-82550000D01*
X76200000Y-82550000D02*
X77470000Y-83820000D01*
X77470000Y-83820000D02*
X78740000Y-83820000D01*
X95250000Y-78740000D02*
X96600000Y-78740000D01*
X120891429Y-76327000D02*
X121018429Y-76200000D01*
X120396000Y-76327000D02*
X120891429Y-76327000D01*
X130683000Y-71247000D02*
X135636000Y-71247000D01*
X125730000Y-76200000D02*
X130683000Y-71247000D01*
X67310000Y-77470000D02*
X69850000Y-77470000D01*
X76280000Y-59610000D02*
X73660000Y-62230000D01*
X85090000Y-59610000D02*
X76280000Y-59610000D01*
X73660000Y-62230000D02*
X67310000Y-62230000D01*
X67310000Y-62230000D02*
X66040000Y-63500000D01*
X66040000Y-63500000D02*
X66040000Y-76200000D01*
X66040000Y-76200000D02*
X67310000Y-77470000D01*
X78740000Y-76200000D02*
X78740000Y-74930000D01*
X78740000Y-74930000D02*
X81280000Y-72390000D01*
X88900000Y-72390000D02*
X91440000Y-74930000D01*
X91440000Y-74930000D02*
X91440000Y-77470000D01*
X99140000Y-78740000D02*
X96600000Y-78740000D01*
X102790000Y-80010000D02*
X101600000Y-81200000D01*
X113030000Y-80010000D02*
X102790000Y-80010000D01*
X120396000Y-76327000D02*
X116713000Y-76327000D01*
X116713000Y-76327000D02*
X113030000Y-80010000D01*
X140970000Y-70011002D02*
X140889499Y-69930501D01*
X140843000Y-71247000D02*
X140970000Y-71120000D01*
X135636000Y-71247000D02*
X140843000Y-71247000D01*
X140970000Y-73740000D02*
X140970000Y-71120000D01*
X140970000Y-71120000D02*
X140970000Y-70011002D01*
X97790000Y-102870000D02*
X97790000Y-105410000D01*
X124460000Y-76200000D02*
X125730000Y-76200000D01*
X97790000Y-105410000D02*
X100330000Y-107950000D01*
X100330000Y-107950000D02*
X121920000Y-107950000D01*
X121920000Y-107950000D02*
X124460000Y-105410000D01*
X125730000Y-76200000D02*
X124460000Y-77470000D01*
X124460000Y-105410000D02*
X124460000Y-77470000D01*
X124460000Y-77470000D02*
X124460000Y-76200000D01*
X124460000Y-77470000D02*
X123190000Y-76200000D01*
X121018429Y-76200000D02*
X123190000Y-76200000D01*
X123190000Y-76200000D02*
X124460000Y-76200000D01*
X100410000Y-80010000D02*
X100370000Y-79970000D01*
X102790000Y-80010000D02*
X100410000Y-80010000D01*
X99140000Y-78740000D02*
X100370000Y-79970000D01*
X100370000Y-79970000D02*
X101600000Y-81200000D01*
X81280000Y-69850000D02*
X83820000Y-72390000D01*
X81280000Y-67310000D02*
X81280000Y-69850000D01*
X81280000Y-72390000D02*
X83820000Y-72390000D01*
X83820000Y-72390000D02*
X88900000Y-72390000D01*
X90090000Y-59610000D02*
X91440000Y-60960000D01*
X88980000Y-59610000D02*
X90090000Y-59610000D01*
X91440000Y-59610000D02*
X91440000Y-60960000D01*
X88980000Y-59610000D02*
X85090000Y-59610000D01*
X91440000Y-59610000D02*
X88980000Y-59610000D01*
X91440000Y-63500000D02*
X90090000Y-64850000D01*
X90090000Y-64850000D02*
X85090000Y-64850000D01*
X91440000Y-64850000D02*
X90090000Y-64850000D01*
X91440000Y-63500000D02*
X91440000Y-64850000D01*
X91440000Y-60960000D02*
X91440000Y-63500000D01*
X92710000Y-100330000D02*
X92710000Y-102870000D01*
X95250000Y-97790000D02*
X92710000Y-100330000D01*
X107950000Y-97790000D02*
X95250000Y-97790000D01*
X120396000Y-91567000D02*
X114173000Y-91567000D01*
X114173000Y-91567000D02*
X107950000Y-97790000D01*
X95250000Y-102870000D02*
X95250000Y-101600000D01*
X95250000Y-101600000D02*
X96520000Y-100330000D01*
X96987665Y-100170990D02*
X109060990Y-100170990D01*
X96520000Y-100330000D02*
X96828655Y-100330000D01*
X96828655Y-100330000D02*
X96987665Y-100170990D01*
X119900571Y-94107000D02*
X119773571Y-93980000D01*
X120396000Y-94107000D02*
X119900571Y-94107000D01*
X115251980Y-93980000D02*
X109060990Y-100170990D01*
X119773571Y-93980000D02*
X115251980Y-93980000D01*
X91440000Y-69850000D02*
X85090000Y-69850000D01*
X97790000Y-76200000D02*
X101600000Y-76200000D01*
X96520000Y-60960000D02*
X95250000Y-60960000D01*
X95250000Y-60960000D02*
X93980000Y-62230000D01*
X93980000Y-62230000D02*
X93980000Y-67310000D01*
X93980000Y-67310000D02*
X91440000Y-69850000D01*
X91440000Y-69850000D02*
X95250000Y-73660000D01*
X95250000Y-73660000D02*
X95250000Y-76200000D01*
X97790000Y-76200000D02*
X95250000Y-76200000D01*
X140889499Y-67229499D02*
X140970000Y-67148998D01*
X138430000Y-64770000D02*
X140889499Y-67229499D01*
X102870000Y-64770000D02*
X138430000Y-64770000D01*
X96520000Y-60960000D02*
X99060000Y-60960000D01*
X99060000Y-60960000D02*
X102870000Y-64770000D01*
X135636000Y-76327000D02*
X130683000Y-76327000D01*
X90170000Y-107950000D02*
X90170000Y-102870000D01*
X127000000Y-80010000D02*
X127000000Y-106680000D01*
X130683000Y-76327000D02*
X127000000Y-80010000D01*
X127000000Y-106680000D02*
X123190000Y-110490000D01*
X123190000Y-110490000D02*
X92710000Y-110490000D01*
X92710000Y-110490000D02*
X90170000Y-107950000D01*
X135636000Y-76327000D02*
X144653000Y-76327000D01*
X144653000Y-76327000D02*
X146050000Y-74930000D01*
X146050000Y-74930000D02*
X146050000Y-67310000D01*
X146050000Y-67310000D02*
X144780000Y-66040000D01*
X144780000Y-66040000D02*
X142240000Y-66040000D01*
X141363999Y-66754999D02*
X140889499Y-67229499D01*
X142240000Y-66040000D02*
X141525001Y-66754999D01*
X141525001Y-66754999D02*
X141363999Y-66754999D01*
X139700000Y-66040000D02*
X138430000Y-64770000D01*
X142240000Y-66040000D02*
X139700000Y-66040000D01*
X140970000Y-78740000D02*
X143510000Y-78740000D01*
X143120010Y-69120439D02*
X142795001Y-68795430D01*
X143510000Y-73660000D02*
X143510000Y-69510429D01*
X143510000Y-69510429D02*
X143120010Y-69120439D01*
X140843000Y-78867000D02*
X140970000Y-78740000D01*
X135636000Y-78867000D02*
X140843000Y-78867000D01*
X77470000Y-54610000D02*
X85090000Y-54610000D01*
X85090000Y-54610000D02*
X91440000Y-54610000D01*
X95250000Y-54610000D02*
X96520000Y-55880000D01*
X91440000Y-54610000D02*
X95250000Y-54610000D01*
X81280000Y-88820000D02*
X83740000Y-86360000D01*
X83740000Y-86360000D02*
X87630000Y-86360000D01*
X81280000Y-83820000D02*
X87630000Y-83820000D01*
X87550000Y-81200000D02*
X87630000Y-81280000D01*
X81280000Y-81200000D02*
X87550000Y-81200000D01*
X81280000Y-76200000D02*
X87630000Y-76200000D01*
X87630000Y-78740000D02*
X80010000Y-78740000D01*
X80010000Y-78740000D02*
X78740000Y-80010000D01*
X78740000Y-80010000D02*
X78740000Y-81200000D01*
X78740000Y-88820000D02*
X78740000Y-90170000D01*
X78740000Y-90170000D02*
X80010000Y-91440000D01*
X80010000Y-91440000D02*
X82550000Y-91440000D01*
X82550000Y-91440000D02*
X85090000Y-88900000D01*
X85090000Y-88900000D02*
X87630000Y-88900000D01*
X69850000Y-72390000D02*
X77470000Y-64770000D01*
X97790000Y-86360000D02*
X104140000Y-86360000D01*
X104140000Y-86360000D02*
X105410000Y-85090000D01*
X105410000Y-85090000D02*
X105410000Y-83820000D01*
X97790000Y-86360000D02*
X95250000Y-86360000D01*
X93980000Y-83820000D02*
X92710000Y-85090000D01*
X95250000Y-83820000D02*
X93980000Y-83820000D01*
X92710000Y-85090000D02*
X92710000Y-96520000D01*
X92710000Y-96520000D02*
X90170000Y-99060000D01*
X69850000Y-92710000D02*
X76200000Y-99060000D01*
X76200000Y-99060000D02*
X90170000Y-99060000D01*
X92710000Y-81280000D02*
X95250000Y-81280000D01*
X90170000Y-83820000D02*
X92710000Y-81280000D01*
X90170000Y-95250000D02*
X90170000Y-83820000D01*
X88900000Y-96520000D02*
X90170000Y-95250000D01*
X69850000Y-87630000D02*
X78740000Y-96520000D01*
X78740000Y-96520000D02*
X88900000Y-96520000D01*
D25*
G36*
X147905001Y-113615000D02*
G01*
X64185000Y-113615000D01*
X64185000Y-108999872D01*
X66345000Y-108999872D01*
X66345000Y-109440128D01*
X66430890Y-109871925D01*
X66599369Y-110278669D01*
X66843962Y-110644729D01*
X67155271Y-110956038D01*
X67521331Y-111200631D01*
X67928075Y-111369110D01*
X68359872Y-111455000D01*
X68800128Y-111455000D01*
X69231925Y-111369110D01*
X69638669Y-111200631D01*
X70004729Y-110956038D01*
X70316038Y-110644729D01*
X70560631Y-110278669D01*
X70729110Y-109871925D01*
X70815000Y-109440128D01*
X70815000Y-108999872D01*
X70729110Y-108568075D01*
X70560631Y-108161331D01*
X70316038Y-107795271D01*
X70004729Y-107483962D01*
X69638669Y-107239369D01*
X69231925Y-107070890D01*
X68800128Y-106985000D01*
X68359872Y-106985000D01*
X67928075Y-107070890D01*
X67521331Y-107239369D01*
X67155271Y-107483962D01*
X66843962Y-107795271D01*
X66599369Y-108161331D01*
X66430890Y-108568075D01*
X66345000Y-108999872D01*
X64185000Y-108999872D01*
X64185000Y-87444344D01*
X67965000Y-87444344D01*
X67965000Y-87815656D01*
X68037439Y-88179834D01*
X68179534Y-88522882D01*
X68385825Y-88831618D01*
X68648382Y-89094175D01*
X68957118Y-89300466D01*
X69300166Y-89442561D01*
X69406911Y-89463794D01*
X77393116Y-97450000D01*
X76866884Y-97450000D01*
X71683794Y-92266911D01*
X71662561Y-92160166D01*
X71520466Y-91817118D01*
X71314175Y-91508382D01*
X71051618Y-91245825D01*
X70742882Y-91039534D01*
X70399834Y-90897439D01*
X70035656Y-90825000D01*
X69664344Y-90825000D01*
X69300166Y-90897439D01*
X68957118Y-91039534D01*
X68648382Y-91245825D01*
X68385825Y-91508382D01*
X68179534Y-91817118D01*
X68037439Y-92160166D01*
X67965000Y-92524344D01*
X67965000Y-92895656D01*
X68037439Y-93259834D01*
X68179534Y-93602882D01*
X68385825Y-93911618D01*
X68648382Y-94174175D01*
X68957118Y-94380466D01*
X69300166Y-94522561D01*
X69406911Y-94543794D01*
X75005634Y-100142518D01*
X75056050Y-100203950D01*
X75117482Y-100254366D01*
X75117485Y-100254369D01*
X75301203Y-100405143D01*
X75396444Y-100456050D01*
X75580899Y-100554643D01*
X75884385Y-100646705D01*
X76120906Y-100670000D01*
X76120915Y-100670000D01*
X76199999Y-100677789D01*
X76279083Y-100670000D01*
X90090916Y-100670000D01*
X90170000Y-100677789D01*
X90249084Y-100670000D01*
X90249094Y-100670000D01*
X90485615Y-100646705D01*
X90789101Y-100554643D01*
X91068796Y-100405143D01*
X91097307Y-100381744D01*
X91100000Y-100409084D01*
X91100000Y-101376854D01*
X90971100Y-101271068D01*
X90721807Y-101137818D01*
X90451308Y-101055764D01*
X90170000Y-101028057D01*
X89888691Y-101055764D01*
X89618192Y-101137818D01*
X89368899Y-101271068D01*
X89150392Y-101450393D01*
X88971068Y-101668900D01*
X88837818Y-101918193D01*
X88817643Y-101984703D01*
X88675358Y-102250899D01*
X88583296Y-102554385D01*
X88560001Y-102790906D01*
X88560000Y-107870916D01*
X88552211Y-107950000D01*
X88560000Y-108029084D01*
X88560000Y-108029093D01*
X88583295Y-108265614D01*
X88675357Y-108569100D01*
X88675358Y-108569101D01*
X88824857Y-108848796D01*
X88945137Y-108995357D01*
X89026050Y-109093950D01*
X89087487Y-109144370D01*
X91515634Y-111572518D01*
X91566050Y-111633950D01*
X91627482Y-111684366D01*
X91627485Y-111684369D01*
X91811203Y-111835143D01*
X92090897Y-111984642D01*
X92090899Y-111984643D01*
X92394385Y-112076705D01*
X92630906Y-112100000D01*
X92630915Y-112100000D01*
X92709999Y-112107789D01*
X92789083Y-112100000D01*
X123110916Y-112100000D01*
X123190000Y-112107789D01*
X123269084Y-112100000D01*
X123269094Y-112100000D01*
X123505615Y-112076705D01*
X123809101Y-111984643D01*
X124088796Y-111835143D01*
X124333950Y-111633950D01*
X124384371Y-111572512D01*
X126957011Y-108999872D01*
X141275000Y-108999872D01*
X141275000Y-109440128D01*
X141360890Y-109871925D01*
X141529369Y-110278669D01*
X141773962Y-110644729D01*
X142085271Y-110956038D01*
X142451331Y-111200631D01*
X142858075Y-111369110D01*
X143289872Y-111455000D01*
X143730128Y-111455000D01*
X144161925Y-111369110D01*
X144568669Y-111200631D01*
X144934729Y-110956038D01*
X145246038Y-110644729D01*
X145490631Y-110278669D01*
X145659110Y-109871925D01*
X145745000Y-109440128D01*
X145745000Y-108999872D01*
X145659110Y-108568075D01*
X145490631Y-108161331D01*
X145246038Y-107795271D01*
X144934729Y-107483962D01*
X144568669Y-107239369D01*
X144161925Y-107070890D01*
X143730128Y-106985000D01*
X143289872Y-106985000D01*
X142858075Y-107070890D01*
X142451331Y-107239369D01*
X142085271Y-107483962D01*
X141773962Y-107795271D01*
X141529369Y-108161331D01*
X141360890Y-108568075D01*
X141275000Y-108999872D01*
X126957011Y-108999872D01*
X128082518Y-107874366D01*
X128143950Y-107823950D01*
X128194366Y-107762518D01*
X128194370Y-107762514D01*
X128345143Y-107578797D01*
X128425052Y-107429297D01*
X128494643Y-107299101D01*
X128586705Y-106995615D01*
X128610000Y-106759094D01*
X128610000Y-106759084D01*
X128617789Y-106680000D01*
X128610000Y-106600916D01*
X128610000Y-80676883D01*
X131349884Y-77937000D01*
X134142853Y-77937000D01*
X134037068Y-78065899D01*
X133903818Y-78315192D01*
X133821764Y-78585691D01*
X133794057Y-78867000D01*
X133821764Y-79148309D01*
X133903818Y-79418808D01*
X134037068Y-79668101D01*
X134216392Y-79886608D01*
X134434899Y-80065932D01*
X134567858Y-80137000D01*
X134434899Y-80208068D01*
X134216392Y-80387392D01*
X134037068Y-80605899D01*
X133903818Y-80855192D01*
X133821764Y-81125691D01*
X133794057Y-81407000D01*
X133821764Y-81688309D01*
X133903818Y-81958808D01*
X134037068Y-82208101D01*
X134216392Y-82426608D01*
X134434899Y-82605932D01*
X134567858Y-82677000D01*
X134434899Y-82748068D01*
X134216392Y-82927392D01*
X134037068Y-83145899D01*
X133903818Y-83395192D01*
X133821764Y-83665691D01*
X133794057Y-83947000D01*
X133821764Y-84228309D01*
X133903818Y-84498808D01*
X134037068Y-84748101D01*
X134216392Y-84966608D01*
X134434899Y-85145932D01*
X134567858Y-85217000D01*
X134434899Y-85288068D01*
X134216392Y-85467392D01*
X134037068Y-85685899D01*
X133903818Y-85935192D01*
X133821764Y-86205691D01*
X133794057Y-86487000D01*
X133821764Y-86768309D01*
X133903818Y-87038808D01*
X134037068Y-87288101D01*
X134216392Y-87506608D01*
X134434899Y-87685932D01*
X134567858Y-87757000D01*
X134434899Y-87828068D01*
X134216392Y-88007392D01*
X134037068Y-88225899D01*
X133903818Y-88475192D01*
X133821764Y-88745691D01*
X133794057Y-89027000D01*
X133821764Y-89308309D01*
X133903818Y-89578808D01*
X134037068Y-89828101D01*
X134216392Y-90046608D01*
X134434899Y-90225932D01*
X134567858Y-90297000D01*
X134434899Y-90368068D01*
X134216392Y-90547392D01*
X134037068Y-90765899D01*
X133903818Y-91015192D01*
X133821764Y-91285691D01*
X133794057Y-91567000D01*
X133821764Y-91848309D01*
X133903818Y-92118808D01*
X134037068Y-92368101D01*
X134216392Y-92586608D01*
X134434899Y-92765932D01*
X134567858Y-92837000D01*
X134434899Y-92908068D01*
X134216392Y-93087392D01*
X134037068Y-93305899D01*
X133903818Y-93555192D01*
X133821764Y-93825691D01*
X133794057Y-94107000D01*
X133821764Y-94388309D01*
X133903818Y-94658808D01*
X134037068Y-94908101D01*
X134216392Y-95126608D01*
X134434899Y-95305932D01*
X134567858Y-95377000D01*
X134434899Y-95448068D01*
X134216392Y-95627392D01*
X134037068Y-95845899D01*
X133903818Y-96095192D01*
X133821764Y-96365691D01*
X133794057Y-96647000D01*
X133821764Y-96928309D01*
X133903818Y-97198808D01*
X134037068Y-97448101D01*
X134216392Y-97666608D01*
X134434899Y-97845932D01*
X134567858Y-97917000D01*
X134434899Y-97988068D01*
X134216392Y-98167392D01*
X134037068Y-98385899D01*
X133903818Y-98635192D01*
X133821764Y-98905691D01*
X133794057Y-99187000D01*
X133821764Y-99468309D01*
X133903818Y-99738808D01*
X134037068Y-99988101D01*
X134216392Y-100206608D01*
X134434899Y-100385932D01*
X134567858Y-100457000D01*
X134434899Y-100528068D01*
X134216392Y-100707392D01*
X134037068Y-100925899D01*
X133903818Y-101175192D01*
X133821764Y-101445691D01*
X133794057Y-101727000D01*
X133821764Y-102008309D01*
X133903818Y-102278808D01*
X134037068Y-102528101D01*
X134216392Y-102746608D01*
X134434899Y-102925932D01*
X134567858Y-102997000D01*
X134434899Y-103068068D01*
X134216392Y-103247392D01*
X134037068Y-103465899D01*
X133903818Y-103715192D01*
X133821764Y-103985691D01*
X133794057Y-104267000D01*
X133821764Y-104548309D01*
X133903818Y-104818808D01*
X134037068Y-105068101D01*
X134216392Y-105286608D01*
X134434899Y-105465932D01*
X134684192Y-105599182D01*
X134954691Y-105681236D01*
X135165508Y-105702000D01*
X136106492Y-105702000D01*
X136317309Y-105681236D01*
X136587808Y-105599182D01*
X136837101Y-105465932D01*
X137055608Y-105286608D01*
X137234932Y-105068101D01*
X137368182Y-104818808D01*
X137450236Y-104548309D01*
X137477943Y-104267000D01*
X137450236Y-103985691D01*
X137368182Y-103715192D01*
X137234932Y-103465899D01*
X137055608Y-103247392D01*
X136837101Y-103068068D01*
X136704142Y-102997000D01*
X136837101Y-102925932D01*
X137055608Y-102746608D01*
X137234932Y-102528101D01*
X137368182Y-102278808D01*
X137450236Y-102008309D01*
X137477943Y-101727000D01*
X137450236Y-101445691D01*
X137368182Y-101175192D01*
X137234932Y-100925899D01*
X137055608Y-100707392D01*
X136837101Y-100528068D01*
X136704142Y-100457000D01*
X136837101Y-100385932D01*
X137055608Y-100206608D01*
X137234932Y-99988101D01*
X137368182Y-99738808D01*
X137450236Y-99468309D01*
X137477943Y-99187000D01*
X137450236Y-98905691D01*
X137368182Y-98635192D01*
X137234932Y-98385899D01*
X137055608Y-98167392D01*
X136837101Y-97988068D01*
X136704142Y-97917000D01*
X136837101Y-97845932D01*
X137055608Y-97666608D01*
X137234932Y-97448101D01*
X137368182Y-97198808D01*
X137450236Y-96928309D01*
X137477943Y-96647000D01*
X137450236Y-96365691D01*
X137368182Y-96095192D01*
X137234932Y-95845899D01*
X137055608Y-95627392D01*
X136837101Y-95448068D01*
X136704142Y-95377000D01*
X136837101Y-95305932D01*
X137055608Y-95126608D01*
X137234932Y-94908101D01*
X137368182Y-94658808D01*
X137450236Y-94388309D01*
X137477943Y-94107000D01*
X137450236Y-93825691D01*
X137368182Y-93555192D01*
X137234932Y-93305899D01*
X137055608Y-93087392D01*
X136837101Y-92908068D01*
X136704142Y-92837000D01*
X136837101Y-92765932D01*
X137055608Y-92586608D01*
X137234932Y-92368101D01*
X137368182Y-92118808D01*
X137450236Y-91848309D01*
X137477943Y-91567000D01*
X137450236Y-91285691D01*
X137368182Y-91015192D01*
X137234932Y-90765899D01*
X137055608Y-90547392D01*
X136837101Y-90368068D01*
X136704142Y-90297000D01*
X136837101Y-90225932D01*
X137055608Y-90046608D01*
X137234932Y-89828101D01*
X137368182Y-89578808D01*
X137450236Y-89308309D01*
X137477943Y-89027000D01*
X137450236Y-88745691D01*
X137368182Y-88475192D01*
X137234932Y-88225899D01*
X137055608Y-88007392D01*
X136837101Y-87828068D01*
X136704142Y-87757000D01*
X136837101Y-87685932D01*
X137055608Y-87506608D01*
X137234932Y-87288101D01*
X137368182Y-87038808D01*
X137450236Y-86768309D01*
X137477943Y-86487000D01*
X137450236Y-86205691D01*
X137368182Y-85935192D01*
X137234932Y-85685899D01*
X137055608Y-85467392D01*
X136837101Y-85288068D01*
X136704142Y-85217000D01*
X136837101Y-85145932D01*
X137055608Y-84966608D01*
X137234932Y-84748101D01*
X137368182Y-84498808D01*
X137450236Y-84228309D01*
X137477943Y-83947000D01*
X137450236Y-83665691D01*
X137368182Y-83395192D01*
X137234932Y-83145899D01*
X137055608Y-82927392D01*
X136837101Y-82748068D01*
X136704142Y-82677000D01*
X136837101Y-82605932D01*
X137055608Y-82426608D01*
X137234932Y-82208101D01*
X137368182Y-81958808D01*
X137450236Y-81688309D01*
X137477943Y-81407000D01*
X137450236Y-81125691D01*
X137368182Y-80855192D01*
X137234932Y-80605899D01*
X137129147Y-80477000D01*
X140763916Y-80477000D01*
X140843000Y-80484789D01*
X140922084Y-80477000D01*
X140922094Y-80477000D01*
X141158615Y-80453705D01*
X141462101Y-80361643D01*
X141483884Y-80350000D01*
X143589094Y-80350000D01*
X143825615Y-80326705D01*
X144129101Y-80234643D01*
X144408796Y-80085143D01*
X144653950Y-79883950D01*
X144855143Y-79638796D01*
X145004643Y-79359101D01*
X145096705Y-79055615D01*
X145127790Y-78740000D01*
X145096705Y-78424385D01*
X145004643Y-78120899D01*
X144897632Y-77920696D01*
X144968615Y-77913705D01*
X145272101Y-77821643D01*
X145551796Y-77672143D01*
X145796950Y-77470950D01*
X145847370Y-77409513D01*
X147132519Y-76124365D01*
X147193950Y-76073950D01*
X147244366Y-76012518D01*
X147244369Y-76012515D01*
X147395143Y-75828797D01*
X147526145Y-75583708D01*
X147544643Y-75549101D01*
X147636705Y-75245615D01*
X147660000Y-75009094D01*
X147660000Y-75009085D01*
X147667789Y-74930001D01*
X147660000Y-74850917D01*
X147660000Y-67389083D01*
X147667789Y-67309999D01*
X147660000Y-67230915D01*
X147660000Y-67230906D01*
X147636705Y-66994385D01*
X147544643Y-66690899D01*
X147410206Y-66439384D01*
X147395143Y-66411203D01*
X147244369Y-66227485D01*
X147244366Y-66227482D01*
X147193950Y-66166050D01*
X147132517Y-66115634D01*
X145974368Y-64957485D01*
X145923950Y-64896050D01*
X145678796Y-64694857D01*
X145399101Y-64545357D01*
X145095615Y-64453295D01*
X144859094Y-64430000D01*
X144859084Y-64430000D01*
X144780000Y-64422211D01*
X144700916Y-64430000D01*
X142319083Y-64430000D01*
X142239999Y-64422211D01*
X142160915Y-64430000D01*
X140366884Y-64430000D01*
X139624369Y-63687486D01*
X139573950Y-63626050D01*
X139328796Y-63424857D01*
X139049101Y-63275357D01*
X138745615Y-63183295D01*
X138509094Y-63160000D01*
X138509084Y-63160000D01*
X138430000Y-63152211D01*
X138350916Y-63160000D01*
X103536884Y-63160000D01*
X100254371Y-59877488D01*
X100203950Y-59816050D01*
X99958796Y-59614857D01*
X99679101Y-59465357D01*
X99375615Y-59373295D01*
X99139094Y-59350000D01*
X99139084Y-59350000D01*
X99060000Y-59342211D01*
X98980916Y-59350000D01*
X97845340Y-59350000D01*
X97895969Y-59286923D01*
X98039571Y-59011094D01*
X98110563Y-58792980D01*
X97990594Y-58547000D01*
X96647000Y-58547000D01*
X96647000Y-58567000D01*
X96393000Y-58567000D01*
X96393000Y-58547000D01*
X95049406Y-58547000D01*
X94929437Y-58792980D01*
X95000429Y-59011094D01*
X95144031Y-59286923D01*
X95192920Y-59347833D01*
X95170915Y-59350000D01*
X95170906Y-59350000D01*
X94934385Y-59373295D01*
X94630899Y-59465357D01*
X94511014Y-59529437D01*
X94351203Y-59614857D01*
X94167485Y-59765631D01*
X94167482Y-59765634D01*
X94106050Y-59816050D01*
X94055634Y-59877483D01*
X92897487Y-61035630D01*
X92836050Y-61086050D01*
X92785631Y-61147486D01*
X92634857Y-61331204D01*
X92554948Y-61480704D01*
X92485357Y-61610900D01*
X92393295Y-61914386D01*
X92370000Y-62150907D01*
X92370000Y-62150916D01*
X92362211Y-62230000D01*
X92370000Y-62309084D01*
X92370000Y-63741653D01*
X92369370Y-63741023D01*
X92253097Y-63857296D01*
X92181514Y-63613329D01*
X91926004Y-63492429D01*
X91651816Y-63423700D01*
X91369488Y-63409783D01*
X91089870Y-63451213D01*
X90823708Y-63546397D01*
X90698486Y-63613329D01*
X90626903Y-63857298D01*
X91440000Y-64670395D01*
X91454143Y-64656253D01*
X91633748Y-64835858D01*
X91619605Y-64850000D01*
X91633748Y-64864143D01*
X91454143Y-65043748D01*
X91440000Y-65029605D01*
X90626903Y-65842702D01*
X90698486Y-66086671D01*
X90953996Y-66207571D01*
X91228184Y-66276300D01*
X91510512Y-66290217D01*
X91790130Y-66248787D01*
X92056292Y-66153603D01*
X92181514Y-66086671D01*
X92253097Y-65842704D01*
X92369370Y-65958977D01*
X92370001Y-65958346D01*
X92370001Y-66643115D01*
X90773117Y-68240000D01*
X85010906Y-68240000D01*
X84774385Y-68263295D01*
X84470899Y-68355357D01*
X84365062Y-68411928D01*
X84290000Y-68411928D01*
X84165518Y-68424188D01*
X84045820Y-68460498D01*
X83935506Y-68519463D01*
X83838815Y-68598815D01*
X83759463Y-68695506D01*
X83700498Y-68805820D01*
X83664188Y-68925518D01*
X83651928Y-69050000D01*
X83651928Y-69125062D01*
X83595357Y-69230899D01*
X83503295Y-69534385D01*
X83472210Y-69850000D01*
X83503295Y-70165615D01*
X83595357Y-70469101D01*
X83651928Y-70574938D01*
X83651928Y-70650000D01*
X83664188Y-70774482D01*
X83700498Y-70894180D01*
X83759463Y-71004494D01*
X83838815Y-71101185D01*
X83935506Y-71180537D01*
X84045820Y-71239502D01*
X84165518Y-71275812D01*
X84290000Y-71288072D01*
X84365062Y-71288072D01*
X84470899Y-71344643D01*
X84774385Y-71436705D01*
X85010906Y-71460000D01*
X90773117Y-71460000D01*
X93640000Y-74326884D01*
X93640001Y-75419604D01*
X93517818Y-75648192D01*
X93435764Y-75918691D01*
X93408057Y-76200000D01*
X93435764Y-76481309D01*
X93517818Y-76751808D01*
X93651068Y-77001101D01*
X93830392Y-77219608D01*
X94048899Y-77398932D01*
X94176741Y-77467265D01*
X93947161Y-77617399D01*
X93745500Y-77815105D01*
X93586285Y-78048354D01*
X93475633Y-78308182D01*
X93458096Y-78390961D01*
X93580085Y-78613000D01*
X95123000Y-78613000D01*
X95123000Y-78593000D01*
X95377000Y-78593000D01*
X95377000Y-78613000D01*
X96919915Y-78613000D01*
X97041904Y-78390961D01*
X97024367Y-78308182D01*
X96913715Y-78048354D01*
X96754500Y-77815105D01*
X96749293Y-77810000D01*
X101679094Y-77810000D01*
X101915615Y-77786705D01*
X102219101Y-77694643D01*
X102498796Y-77545143D01*
X102743950Y-77343950D01*
X102945143Y-77098796D01*
X103094643Y-76819101D01*
X103186705Y-76515615D01*
X103217790Y-76200000D01*
X103792210Y-76200000D01*
X103823295Y-76515615D01*
X103915357Y-76819101D01*
X104064857Y-77098796D01*
X104266050Y-77343950D01*
X104511204Y-77545143D01*
X104790899Y-77694643D01*
X105094385Y-77786705D01*
X105330906Y-77810000D01*
X112950916Y-77810000D01*
X113030000Y-77817789D01*
X113109084Y-77810000D01*
X113109094Y-77810000D01*
X113345615Y-77786705D01*
X113649101Y-77694643D01*
X113928796Y-77545143D01*
X114173950Y-77343950D01*
X114224371Y-77282512D01*
X118649883Y-72857000D01*
X118902853Y-72857000D01*
X118797068Y-72985899D01*
X118663818Y-73235192D01*
X118581764Y-73505691D01*
X118554057Y-73787000D01*
X118581764Y-74068309D01*
X118663818Y-74338808D01*
X118797068Y-74588101D01*
X118976392Y-74806608D01*
X119194899Y-74985932D01*
X119322741Y-75054265D01*
X119093161Y-75204399D01*
X118891500Y-75402105D01*
X118732285Y-75635354D01*
X118621633Y-75895182D01*
X118604096Y-75977961D01*
X118726085Y-76200000D01*
X120269000Y-76200000D01*
X120269000Y-76180000D01*
X120523000Y-76180000D01*
X120523000Y-76200000D01*
X122065915Y-76200000D01*
X122187904Y-75977961D01*
X122170367Y-75895182D01*
X122059715Y-75635354D01*
X121900500Y-75402105D01*
X121698839Y-75204399D01*
X121469259Y-75054265D01*
X121597101Y-74985932D01*
X121815608Y-74806608D01*
X121994932Y-74588101D01*
X122128182Y-74338808D01*
X122210236Y-74068309D01*
X122237943Y-73787000D01*
X122210236Y-73505691D01*
X122128182Y-73235192D01*
X121994932Y-72985899D01*
X121815608Y-72767392D01*
X121597101Y-72588068D01*
X121464142Y-72517000D01*
X121597101Y-72445932D01*
X121815608Y-72266608D01*
X121994932Y-72048101D01*
X122128182Y-71798808D01*
X122210236Y-71528309D01*
X122237943Y-71247000D01*
X122210236Y-70965691D01*
X122128182Y-70695192D01*
X121994932Y-70445899D01*
X121815608Y-70227392D01*
X121597101Y-70048068D01*
X121464142Y-69977000D01*
X121597101Y-69905932D01*
X121815608Y-69726608D01*
X121994932Y-69508101D01*
X122128182Y-69258808D01*
X122210236Y-68988309D01*
X122237943Y-68707000D01*
X133794057Y-68707000D01*
X133821764Y-68988309D01*
X133903818Y-69258808D01*
X134037068Y-69508101D01*
X134216392Y-69726608D01*
X134434899Y-69905932D01*
X134562741Y-69974265D01*
X134333161Y-70124399D01*
X134131500Y-70322105D01*
X133972285Y-70555354D01*
X133861633Y-70815182D01*
X133844096Y-70897961D01*
X133966085Y-71120000D01*
X135509000Y-71120000D01*
X135509000Y-71100000D01*
X135763000Y-71100000D01*
X135763000Y-71120000D01*
X137305915Y-71120000D01*
X137427904Y-70897961D01*
X137410367Y-70815182D01*
X137376445Y-70735527D01*
X140264078Y-70735527D01*
X140317466Y-70964201D01*
X140547374Y-71070095D01*
X140793524Y-71129102D01*
X141046455Y-71138952D01*
X141296449Y-71099270D01*
X141533896Y-71011578D01*
X141622534Y-70964201D01*
X141675922Y-70735527D01*
X140970000Y-70029605D01*
X140264078Y-70735527D01*
X137376445Y-70735527D01*
X137299715Y-70555354D01*
X137140500Y-70322105D01*
X136938839Y-70124399D01*
X136709259Y-69974265D01*
X136798705Y-69926455D01*
X139681048Y-69926455D01*
X139720730Y-70176449D01*
X139808422Y-70413896D01*
X139855799Y-70502534D01*
X140084473Y-70555922D01*
X140790395Y-69850000D01*
X140084473Y-69144078D01*
X139855799Y-69197466D01*
X139749905Y-69427374D01*
X139690898Y-69673524D01*
X139681048Y-69926455D01*
X136798705Y-69926455D01*
X136837101Y-69905932D01*
X137055608Y-69726608D01*
X137234932Y-69508101D01*
X137368182Y-69258808D01*
X137450236Y-68988309D01*
X137477943Y-68707000D01*
X137450236Y-68425691D01*
X137368182Y-68155192D01*
X137234932Y-67905899D01*
X137055608Y-67687392D01*
X136837101Y-67508068D01*
X136587808Y-67374818D01*
X136317309Y-67292764D01*
X136106492Y-67272000D01*
X135165508Y-67272000D01*
X134954691Y-67292764D01*
X134684192Y-67374818D01*
X134434899Y-67508068D01*
X134216392Y-67687392D01*
X134037068Y-67905899D01*
X133903818Y-68155192D01*
X133821764Y-68425691D01*
X133794057Y-68707000D01*
X122237943Y-68707000D01*
X122210236Y-68425691D01*
X122128182Y-68155192D01*
X121994932Y-67905899D01*
X121815608Y-67687392D01*
X121597101Y-67508068D01*
X121347808Y-67374818D01*
X121281300Y-67354643D01*
X121015101Y-67212357D01*
X120711615Y-67120295D01*
X120475094Y-67097000D01*
X116792083Y-67097000D01*
X116712999Y-67089211D01*
X116633915Y-67097000D01*
X116633906Y-67097000D01*
X116397385Y-67120295D01*
X116093899Y-67212357D01*
X115982315Y-67272000D01*
X115814203Y-67361857D01*
X115630485Y-67512631D01*
X115630482Y-67512634D01*
X115569050Y-67563050D01*
X115518633Y-67624483D01*
X114487490Y-68655627D01*
X114487485Y-68655631D01*
X112363117Y-70780000D01*
X109140906Y-70780000D01*
X108904385Y-70803295D01*
X108600899Y-70895357D01*
X108321204Y-71044857D01*
X108076050Y-71246050D01*
X107874857Y-71491204D01*
X107725357Y-71770899D01*
X107633295Y-72074385D01*
X107602210Y-72390000D01*
X107633295Y-72705615D01*
X107725357Y-73009101D01*
X107874857Y-73288796D01*
X108076050Y-73533950D01*
X108321204Y-73735143D01*
X108600899Y-73884643D01*
X108904385Y-73976705D01*
X109140906Y-74000000D01*
X112950916Y-74000000D01*
X112952920Y-74000197D01*
X112363117Y-74590000D01*
X105330906Y-74590000D01*
X105094385Y-74613295D01*
X104790899Y-74705357D01*
X104511204Y-74854857D01*
X104266050Y-75056050D01*
X104064857Y-75301204D01*
X103915357Y-75580899D01*
X103823295Y-75884385D01*
X103792210Y-76200000D01*
X103217790Y-76200000D01*
X103186705Y-75884385D01*
X103094643Y-75580899D01*
X102945143Y-75301204D01*
X102743950Y-75056050D01*
X102498796Y-74854857D01*
X102219101Y-74705357D01*
X101915615Y-74613295D01*
X101679094Y-74590000D01*
X96860000Y-74590000D01*
X96860000Y-73739084D01*
X96867789Y-73660000D01*
X96860000Y-73580916D01*
X96860000Y-73580906D01*
X96836705Y-73344385D01*
X96744643Y-73040899D01*
X96595144Y-72761205D01*
X96595143Y-72761203D01*
X96444370Y-72577486D01*
X96444366Y-72577482D01*
X96393950Y-72516050D01*
X96332519Y-72465635D01*
X93716883Y-69850000D01*
X95062518Y-68504366D01*
X95123950Y-68453950D01*
X95174366Y-68392518D01*
X95174369Y-68392515D01*
X95325143Y-68208797D01*
X95474642Y-67929103D01*
X95481681Y-67905899D01*
X95566705Y-67625615D01*
X95590000Y-67389094D01*
X95590000Y-67389085D01*
X95597789Y-67310001D01*
X95590000Y-67230917D01*
X95590000Y-62896883D01*
X95916884Y-62570000D01*
X98393117Y-62570000D01*
X101675634Y-65852518D01*
X101726050Y-65913950D01*
X101787482Y-65964366D01*
X101787486Y-65964370D01*
X101971203Y-66115143D01*
X102066444Y-66166050D01*
X102250899Y-66264643D01*
X102554385Y-66356705D01*
X102790906Y-66380000D01*
X102790916Y-66380000D01*
X102870000Y-66387789D01*
X102949084Y-66380000D01*
X137763117Y-66380000D01*
X138505634Y-67122517D01*
X138556050Y-67183950D01*
X138617482Y-67234366D01*
X138617485Y-67234369D01*
X138617491Y-67234374D01*
X139695128Y-68312011D01*
X139745549Y-68373449D01*
X139806985Y-68423868D01*
X139990702Y-68574642D01*
X140270397Y-68724141D01*
X140316895Y-68738246D01*
X140264078Y-68964473D01*
X140970000Y-69670395D01*
X140984143Y-69656253D01*
X141163748Y-69835858D01*
X141149605Y-69850000D01*
X141855527Y-70555922D01*
X141900001Y-70545539D01*
X141900000Y-72631653D01*
X141899370Y-72631023D01*
X141783097Y-72747296D01*
X141711514Y-72503329D01*
X141456004Y-72382429D01*
X141181816Y-72313700D01*
X140899488Y-72299783D01*
X140619870Y-72341213D01*
X140353708Y-72436397D01*
X140228486Y-72503329D01*
X140156903Y-72747298D01*
X140970000Y-73560395D01*
X140984143Y-73546253D01*
X141163748Y-73725858D01*
X141149605Y-73740000D01*
X141163748Y-73754143D01*
X140984143Y-73933748D01*
X140970000Y-73919605D01*
X140955858Y-73933748D01*
X140776253Y-73754143D01*
X140790395Y-73740000D01*
X139977298Y-72926903D01*
X139733329Y-72998486D01*
X139612429Y-73253996D01*
X139543700Y-73528184D01*
X139529783Y-73810512D01*
X139571213Y-74090130D01*
X139666397Y-74356292D01*
X139733329Y-74481514D01*
X139977296Y-74553097D01*
X139861023Y-74669370D01*
X139908653Y-74717000D01*
X137129147Y-74717000D01*
X137234932Y-74588101D01*
X137368182Y-74338808D01*
X137450236Y-74068309D01*
X137477943Y-73787000D01*
X137450236Y-73505691D01*
X137368182Y-73235192D01*
X137234932Y-72985899D01*
X137055608Y-72767392D01*
X136837101Y-72588068D01*
X136709259Y-72519735D01*
X136938839Y-72369601D01*
X137140500Y-72171895D01*
X137299715Y-71938646D01*
X137410367Y-71678818D01*
X137427904Y-71596039D01*
X137305915Y-71374000D01*
X135763000Y-71374000D01*
X135763000Y-71394000D01*
X135509000Y-71394000D01*
X135509000Y-71374000D01*
X133966085Y-71374000D01*
X133844096Y-71596039D01*
X133861633Y-71678818D01*
X133972285Y-71938646D01*
X134131500Y-72171895D01*
X134333161Y-72369601D01*
X134562741Y-72519735D01*
X134434899Y-72588068D01*
X134216392Y-72767392D01*
X134037068Y-72985899D01*
X133903818Y-73235192D01*
X133821764Y-73505691D01*
X133794057Y-73787000D01*
X133821764Y-74068309D01*
X133903818Y-74338808D01*
X134037068Y-74588101D01*
X134142853Y-74717000D01*
X130762084Y-74717000D01*
X130683000Y-74709211D01*
X130603916Y-74717000D01*
X130603906Y-74717000D01*
X130367385Y-74740295D01*
X130157544Y-74803950D01*
X130063898Y-74832357D01*
X129784203Y-74981857D01*
X129600486Y-75132630D01*
X129600482Y-75132634D01*
X129539050Y-75183050D01*
X129488634Y-75244482D01*
X125917488Y-78815629D01*
X125856050Y-78866050D01*
X125805631Y-78927486D01*
X125654857Y-79111204D01*
X125607879Y-79199094D01*
X125505357Y-79390900D01*
X125413295Y-79694386D01*
X125390000Y-79930907D01*
X125390000Y-79930916D01*
X125382211Y-80010000D01*
X125390000Y-80089084D01*
X125390001Y-106013115D01*
X122523117Y-108880000D01*
X93376884Y-108880000D01*
X91780000Y-107283117D01*
X91780000Y-104363147D01*
X91908900Y-104468932D01*
X92158193Y-104602182D01*
X92428692Y-104684236D01*
X92710000Y-104711943D01*
X92991309Y-104684236D01*
X93261808Y-104602182D01*
X93511101Y-104468932D01*
X93729608Y-104289608D01*
X93908932Y-104071101D01*
X93980000Y-103938142D01*
X94051068Y-104071101D01*
X94230393Y-104289608D01*
X94448900Y-104468932D01*
X94698193Y-104602182D01*
X94968692Y-104684236D01*
X95250000Y-104711943D01*
X95531309Y-104684236D01*
X95801808Y-104602182D01*
X96051101Y-104468932D01*
X96269608Y-104289608D01*
X96448932Y-104071101D01*
X96517265Y-103943259D01*
X96667399Y-104172839D01*
X96865105Y-104374500D01*
X97098354Y-104533715D01*
X97358182Y-104644367D01*
X97440961Y-104661904D01*
X97663000Y-104539915D01*
X97663000Y-102997000D01*
X97917000Y-102997000D01*
X97917000Y-104539915D01*
X98139039Y-104661904D01*
X98221818Y-104644367D01*
X98481646Y-104533715D01*
X98714895Y-104374500D01*
X98912601Y-104172839D01*
X99067166Y-103936483D01*
X99172650Y-103674514D01*
X99225000Y-103397000D01*
X99225000Y-102997000D01*
X97917000Y-102997000D01*
X97663000Y-102997000D01*
X97643000Y-102997000D01*
X97643000Y-102743000D01*
X97663000Y-102743000D01*
X97663000Y-102723000D01*
X97917000Y-102723000D01*
X97917000Y-102743000D01*
X99225000Y-102743000D01*
X99225000Y-102343000D01*
X99172650Y-102065486D01*
X99067166Y-101803517D01*
X99052434Y-101780990D01*
X108981906Y-101780990D01*
X109060990Y-101788779D01*
X109140074Y-101780990D01*
X109140084Y-101780990D01*
X109376605Y-101757695D01*
X109680091Y-101665633D01*
X109959786Y-101516133D01*
X110204940Y-101314940D01*
X110255361Y-101253502D01*
X115918864Y-95590000D01*
X119021954Y-95590000D01*
X118976392Y-95627392D01*
X118797068Y-95845899D01*
X118663818Y-96095192D01*
X118581764Y-96365691D01*
X118554057Y-96647000D01*
X118581764Y-96928309D01*
X118663818Y-97198808D01*
X118797068Y-97448101D01*
X118976392Y-97666608D01*
X119194899Y-97845932D01*
X119327858Y-97917000D01*
X119194899Y-97988068D01*
X118976392Y-98167392D01*
X118797068Y-98385899D01*
X118663818Y-98635192D01*
X118581764Y-98905691D01*
X118554057Y-99187000D01*
X118581764Y-99468309D01*
X118663818Y-99738808D01*
X118797068Y-99988101D01*
X118976392Y-100206608D01*
X119194899Y-100385932D01*
X119327858Y-100457000D01*
X119194899Y-100528068D01*
X118976392Y-100707392D01*
X118797068Y-100925899D01*
X118663818Y-101175192D01*
X118581764Y-101445691D01*
X118554057Y-101727000D01*
X118581764Y-102008309D01*
X118663818Y-102278808D01*
X118797068Y-102528101D01*
X118976392Y-102746608D01*
X119194899Y-102925932D01*
X119327858Y-102997000D01*
X119194899Y-103068068D01*
X118976392Y-103247392D01*
X118797068Y-103465899D01*
X118663818Y-103715192D01*
X118581764Y-103985691D01*
X118554057Y-104267000D01*
X118581764Y-104548309D01*
X118663818Y-104818808D01*
X118797068Y-105068101D01*
X118976392Y-105286608D01*
X119194899Y-105465932D01*
X119444192Y-105599182D01*
X119714691Y-105681236D01*
X119925508Y-105702000D01*
X120866492Y-105702000D01*
X121077309Y-105681236D01*
X121347808Y-105599182D01*
X121597101Y-105465932D01*
X121815608Y-105286608D01*
X121994932Y-105068101D01*
X122128182Y-104818808D01*
X122210236Y-104548309D01*
X122237943Y-104267000D01*
X122210236Y-103985691D01*
X122128182Y-103715192D01*
X121994932Y-103465899D01*
X121815608Y-103247392D01*
X121597101Y-103068068D01*
X121464142Y-102997000D01*
X121597101Y-102925932D01*
X121815608Y-102746608D01*
X121994932Y-102528101D01*
X122128182Y-102278808D01*
X122210236Y-102008309D01*
X122237943Y-101727000D01*
X122210236Y-101445691D01*
X122128182Y-101175192D01*
X121994932Y-100925899D01*
X121815608Y-100707392D01*
X121597101Y-100528068D01*
X121464142Y-100457000D01*
X121597101Y-100385932D01*
X121815608Y-100206608D01*
X121994932Y-99988101D01*
X122128182Y-99738808D01*
X122210236Y-99468309D01*
X122237943Y-99187000D01*
X122210236Y-98905691D01*
X122128182Y-98635192D01*
X121994932Y-98385899D01*
X121815608Y-98167392D01*
X121597101Y-97988068D01*
X121464142Y-97917000D01*
X121597101Y-97845932D01*
X121815608Y-97666608D01*
X121994932Y-97448101D01*
X122128182Y-97198808D01*
X122210236Y-96928309D01*
X122237943Y-96647000D01*
X122210236Y-96365691D01*
X122128182Y-96095192D01*
X121994932Y-95845899D01*
X121815608Y-95627392D01*
X121597101Y-95448068D01*
X121464142Y-95377000D01*
X121597101Y-95305932D01*
X121815608Y-95126608D01*
X121994932Y-94908101D01*
X122128182Y-94658808D01*
X122210236Y-94388309D01*
X122237943Y-94107000D01*
X122210236Y-93825691D01*
X122128182Y-93555192D01*
X121994932Y-93305899D01*
X121815608Y-93087392D01*
X121597101Y-92908068D01*
X121464142Y-92837000D01*
X121597101Y-92765932D01*
X121815608Y-92586608D01*
X121994932Y-92368101D01*
X122128182Y-92118808D01*
X122210236Y-91848309D01*
X122237943Y-91567000D01*
X122210236Y-91285691D01*
X122128182Y-91015192D01*
X121994932Y-90765899D01*
X121815608Y-90547392D01*
X121597101Y-90368068D01*
X121464142Y-90297000D01*
X121597101Y-90225932D01*
X121815608Y-90046608D01*
X121994932Y-89828101D01*
X122128182Y-89578808D01*
X122210236Y-89308309D01*
X122237943Y-89027000D01*
X122210236Y-88745691D01*
X122128182Y-88475192D01*
X121994932Y-88225899D01*
X121815608Y-88007392D01*
X121597101Y-87828068D01*
X121464142Y-87757000D01*
X121597101Y-87685932D01*
X121815608Y-87506608D01*
X121994932Y-87288101D01*
X122128182Y-87038808D01*
X122210236Y-86768309D01*
X122237943Y-86487000D01*
X122210236Y-86205691D01*
X122128182Y-85935192D01*
X121994932Y-85685899D01*
X121815608Y-85467392D01*
X121597101Y-85288068D01*
X121464142Y-85217000D01*
X121597101Y-85145932D01*
X121815608Y-84966608D01*
X121994932Y-84748101D01*
X122128182Y-84498808D01*
X122210236Y-84228309D01*
X122237943Y-83947000D01*
X122210236Y-83665691D01*
X122128182Y-83395192D01*
X121994932Y-83145899D01*
X121815608Y-82927392D01*
X121597101Y-82748068D01*
X121464142Y-82677000D01*
X121597101Y-82605932D01*
X121815608Y-82426608D01*
X121994932Y-82208101D01*
X122128182Y-81958808D01*
X122210236Y-81688309D01*
X122237943Y-81407000D01*
X122210236Y-81125691D01*
X122128182Y-80855192D01*
X121994932Y-80605899D01*
X121815608Y-80387392D01*
X121597101Y-80208068D01*
X121464142Y-80137000D01*
X121597101Y-80065932D01*
X121815608Y-79886608D01*
X121994932Y-79668101D01*
X122128182Y-79418808D01*
X122210236Y-79148309D01*
X122237943Y-78867000D01*
X122210236Y-78585691D01*
X122128182Y-78315192D01*
X121994932Y-78065899D01*
X121815608Y-77847392D01*
X121597101Y-77668068D01*
X121469259Y-77599735D01*
X121698839Y-77449601D01*
X121900500Y-77251895D01*
X122059715Y-77018646D01*
X122170367Y-76758818D01*
X122187904Y-76676039D01*
X122065915Y-76454000D01*
X120523000Y-76454000D01*
X120523000Y-76474000D01*
X120269000Y-76474000D01*
X120269000Y-76454000D01*
X118726085Y-76454000D01*
X118604096Y-76676039D01*
X118621633Y-76758818D01*
X118732285Y-77018646D01*
X118891500Y-77251895D01*
X119093161Y-77449601D01*
X119322741Y-77599735D01*
X119194899Y-77668068D01*
X118976392Y-77847392D01*
X118797068Y-78065899D01*
X118663818Y-78315192D01*
X118581764Y-78585691D01*
X118554057Y-78867000D01*
X118581764Y-79148309D01*
X118663818Y-79418808D01*
X118797068Y-79668101D01*
X118976392Y-79886608D01*
X119194899Y-80065932D01*
X119327858Y-80137000D01*
X119194899Y-80208068D01*
X118976392Y-80387392D01*
X118797068Y-80605899D01*
X118663818Y-80855192D01*
X118581764Y-81125691D01*
X118554057Y-81407000D01*
X118581764Y-81688309D01*
X118663818Y-81958808D01*
X118797068Y-82208101D01*
X118976392Y-82426608D01*
X119194899Y-82605932D01*
X119327858Y-82677000D01*
X119194899Y-82748068D01*
X118976392Y-82927392D01*
X118797068Y-83145899D01*
X118663818Y-83395192D01*
X118581764Y-83665691D01*
X118554057Y-83947000D01*
X118581764Y-84228309D01*
X118663818Y-84498808D01*
X118797068Y-84748101D01*
X118976392Y-84966608D01*
X119194899Y-85145932D01*
X119327858Y-85217000D01*
X119194899Y-85288068D01*
X118976392Y-85467392D01*
X118797068Y-85685899D01*
X118663818Y-85935192D01*
X118581764Y-86205691D01*
X118554057Y-86487000D01*
X118581764Y-86768309D01*
X118663818Y-87038808D01*
X118797068Y-87288101D01*
X118976392Y-87506608D01*
X119194899Y-87685932D01*
X119327858Y-87757000D01*
X119194899Y-87828068D01*
X118976392Y-88007392D01*
X118797068Y-88225899D01*
X118663818Y-88475192D01*
X118581764Y-88745691D01*
X118554057Y-89027000D01*
X118581764Y-89308309D01*
X118663818Y-89578808D01*
X118797068Y-89828101D01*
X118902853Y-89957000D01*
X114252084Y-89957000D01*
X114173000Y-89949211D01*
X114093916Y-89957000D01*
X114093906Y-89957000D01*
X113857385Y-89980295D01*
X113553899Y-90072357D01*
X113442315Y-90132000D01*
X113274203Y-90221857D01*
X113090485Y-90372631D01*
X113090482Y-90372634D01*
X113029050Y-90423050D01*
X112978634Y-90484482D01*
X107283117Y-96180000D01*
X95329083Y-96180000D01*
X95249999Y-96172211D01*
X95170915Y-96180000D01*
X95170906Y-96180000D01*
X94934385Y-96203295D01*
X94630899Y-96295357D01*
X94630897Y-96295358D01*
X94351203Y-96444857D01*
X94322693Y-96468255D01*
X94320000Y-96440917D01*
X94320000Y-95318797D01*
X94568691Y-95394236D01*
X94779508Y-95415000D01*
X95720492Y-95415000D01*
X95931309Y-95394236D01*
X96201808Y-95312182D01*
X96451101Y-95178932D01*
X96669608Y-94999608D01*
X96848932Y-94781101D01*
X96982182Y-94531808D01*
X97064236Y-94261309D01*
X97091943Y-93980000D01*
X97064236Y-93698691D01*
X96982182Y-93428192D01*
X96848932Y-93178899D01*
X96669608Y-92960392D01*
X96451101Y-92781068D01*
X96318142Y-92710000D01*
X96451101Y-92638932D01*
X96669608Y-92459608D01*
X96848932Y-92241101D01*
X96982182Y-91991808D01*
X97064236Y-91721309D01*
X97091943Y-91440000D01*
X97064236Y-91158691D01*
X96982182Y-90888192D01*
X96848932Y-90638899D01*
X96743147Y-90510000D01*
X105330916Y-90510000D01*
X105410000Y-90517789D01*
X105489084Y-90510000D01*
X105489094Y-90510000D01*
X105725615Y-90486705D01*
X106029101Y-90394643D01*
X106308796Y-90245143D01*
X106553950Y-90043950D01*
X106604371Y-89982512D01*
X110302519Y-86284365D01*
X110363950Y-86233950D01*
X110414366Y-86172518D01*
X110414370Y-86172514D01*
X110565143Y-85988797D01*
X110661678Y-85808192D01*
X110714643Y-85709101D01*
X110806705Y-85405615D01*
X110830000Y-85169094D01*
X110830000Y-85169084D01*
X110837789Y-85090000D01*
X110830000Y-85010916D01*
X110830000Y-83740906D01*
X110806705Y-83504385D01*
X110714643Y-83200899D01*
X110565143Y-82921204D01*
X110363950Y-82676050D01*
X110118796Y-82474857D01*
X109839101Y-82325357D01*
X109535615Y-82233295D01*
X109220000Y-82202210D01*
X108904386Y-82233295D01*
X108600900Y-82325357D01*
X108321205Y-82474857D01*
X108076051Y-82676050D01*
X107874858Y-82921204D01*
X107725357Y-83200899D01*
X107633295Y-83504385D01*
X107610000Y-83740906D01*
X107610000Y-84423116D01*
X107020197Y-85012919D01*
X107020000Y-85010917D01*
X107020000Y-83740906D01*
X106996705Y-83504385D01*
X106904643Y-83200899D01*
X106848072Y-83095062D01*
X106848072Y-83020000D01*
X106835812Y-82895518D01*
X106799502Y-82775820D01*
X106740537Y-82665506D01*
X106661185Y-82568815D01*
X106564494Y-82489463D01*
X106454180Y-82430498D01*
X106334482Y-82394188D01*
X106210000Y-82381928D01*
X106134938Y-82381928D01*
X106029101Y-82325357D01*
X105725615Y-82233295D01*
X105410000Y-82202210D01*
X105094386Y-82233295D01*
X104790900Y-82325357D01*
X104685063Y-82381928D01*
X104610000Y-82381928D01*
X104485518Y-82394188D01*
X104365820Y-82430498D01*
X104255506Y-82489463D01*
X104158815Y-82568815D01*
X104079463Y-82665506D01*
X104020498Y-82775820D01*
X103984188Y-82895518D01*
X103971928Y-83020000D01*
X103971928Y-83095063D01*
X103915357Y-83200899D01*
X103823295Y-83504385D01*
X103800000Y-83740906D01*
X103800000Y-84423116D01*
X103473117Y-84750000D01*
X96743147Y-84750000D01*
X96848932Y-84621101D01*
X96982182Y-84371808D01*
X97064236Y-84101309D01*
X97091943Y-83820000D01*
X97064236Y-83538691D01*
X96982182Y-83268192D01*
X96848932Y-83018899D01*
X96669608Y-82800392D01*
X96451101Y-82621068D01*
X96318142Y-82550000D01*
X96451101Y-82478932D01*
X96669608Y-82299608D01*
X96757343Y-82192702D01*
X100786903Y-82192702D01*
X100858486Y-82436671D01*
X101113996Y-82557571D01*
X101388184Y-82626300D01*
X101670512Y-82640217D01*
X101950130Y-82598787D01*
X102216292Y-82503603D01*
X102341514Y-82436671D01*
X102413097Y-82192702D01*
X101600000Y-81379605D01*
X100786903Y-82192702D01*
X96757343Y-82192702D01*
X96848932Y-82081101D01*
X96982182Y-81831808D01*
X97064236Y-81561309D01*
X97091943Y-81280000D01*
X97091009Y-81270512D01*
X100159783Y-81270512D01*
X100201213Y-81550130D01*
X100296397Y-81816292D01*
X100363329Y-81941514D01*
X100607298Y-82013097D01*
X101420395Y-81200000D01*
X101779605Y-81200000D01*
X102592702Y-82013097D01*
X102836671Y-81941514D01*
X102957571Y-81686004D01*
X103026300Y-81411816D01*
X103040217Y-81129488D01*
X102998787Y-80849870D01*
X102903603Y-80583708D01*
X102836671Y-80458486D01*
X102592702Y-80386903D01*
X101779605Y-81200000D01*
X101420395Y-81200000D01*
X100607298Y-80386903D01*
X100363329Y-80458486D01*
X100242429Y-80713996D01*
X100173700Y-80988184D01*
X100159783Y-81270512D01*
X97091009Y-81270512D01*
X97064236Y-80998691D01*
X96982182Y-80728192D01*
X96848932Y-80478899D01*
X96669608Y-80260392D01*
X96604913Y-80207298D01*
X100786903Y-80207298D01*
X101600000Y-81020395D01*
X102413097Y-80207298D01*
X102341514Y-79963329D01*
X102086004Y-79842429D01*
X101811816Y-79773700D01*
X101529488Y-79759783D01*
X101249870Y-79801213D01*
X100983708Y-79896397D01*
X100858486Y-79963329D01*
X100786903Y-80207298D01*
X96604913Y-80207298D01*
X96451101Y-80081068D01*
X96323259Y-80012735D01*
X96552839Y-79862601D01*
X96754500Y-79664895D01*
X96913715Y-79431646D01*
X97024367Y-79171818D01*
X97041904Y-79089039D01*
X96919915Y-78867000D01*
X95377000Y-78867000D01*
X95377000Y-78887000D01*
X95123000Y-78887000D01*
X95123000Y-78867000D01*
X93580085Y-78867000D01*
X93458096Y-79089039D01*
X93475633Y-79171818D01*
X93586285Y-79431646D01*
X93745500Y-79664895D01*
X93750707Y-79670000D01*
X92789083Y-79670000D01*
X92709999Y-79662211D01*
X92630915Y-79670000D01*
X92630906Y-79670000D01*
X92394385Y-79693295D01*
X92090899Y-79785357D01*
X92090897Y-79785358D01*
X91811203Y-79934857D01*
X91627485Y-80085631D01*
X91627482Y-80085634D01*
X91566050Y-80136050D01*
X91515634Y-80197482D01*
X89087483Y-82625634D01*
X89026051Y-82676050D01*
X88975635Y-82737482D01*
X88975631Y-82737486D01*
X88974555Y-82738797D01*
X88831101Y-82621068D01*
X88698142Y-82550000D01*
X88831101Y-82478932D01*
X89049608Y-82299608D01*
X89228932Y-82081101D01*
X89362182Y-81831808D01*
X89444236Y-81561309D01*
X89471943Y-81280000D01*
X89444236Y-80998691D01*
X89362182Y-80728192D01*
X89228932Y-80478899D01*
X89049608Y-80260392D01*
X88831101Y-80081068D01*
X88698142Y-80010000D01*
X88831101Y-79938932D01*
X89049608Y-79759608D01*
X89228932Y-79541101D01*
X89362182Y-79291808D01*
X89444236Y-79021309D01*
X89471943Y-78740000D01*
X89444236Y-78458691D01*
X89362182Y-78188192D01*
X89228932Y-77938899D01*
X89049608Y-77720392D01*
X88936518Y-77627581D01*
X88954482Y-77625812D01*
X89074180Y-77589502D01*
X89184494Y-77530537D01*
X89281185Y-77451185D01*
X89360537Y-77354494D01*
X89419502Y-77244180D01*
X89455812Y-77124482D01*
X89468072Y-77000000D01*
X89468072Y-75400000D01*
X89455812Y-75275518D01*
X89419502Y-75155820D01*
X89360537Y-75045506D01*
X89281185Y-74948815D01*
X89184494Y-74869463D01*
X89074180Y-74810498D01*
X88954482Y-74774188D01*
X88830000Y-74761928D01*
X88354938Y-74761928D01*
X88249101Y-74705357D01*
X87945615Y-74613295D01*
X87709094Y-74590000D01*
X81200906Y-74590000D01*
X80964385Y-74613295D01*
X80660899Y-74705357D01*
X80381204Y-74854857D01*
X80136050Y-75056050D01*
X79934857Y-75301204D01*
X79867854Y-75426558D01*
X79732702Y-75386903D01*
X78919605Y-76200000D01*
X78933748Y-76214143D01*
X78754143Y-76393748D01*
X78740000Y-76379605D01*
X77926903Y-77192702D01*
X77998486Y-77436671D01*
X78253996Y-77557571D01*
X78528184Y-77626300D01*
X78810512Y-77640217D01*
X78832473Y-77636963D01*
X78815634Y-77657483D01*
X77657487Y-78815630D01*
X77596050Y-78866050D01*
X77545631Y-78927486D01*
X77394857Y-79111204D01*
X77347879Y-79199094D01*
X77245357Y-79390900D01*
X77153295Y-79694386D01*
X77130000Y-79930907D01*
X77130000Y-79930916D01*
X77122211Y-80010000D01*
X77130000Y-80089084D01*
X77130000Y-81279094D01*
X77153295Y-81515615D01*
X77245357Y-81819101D01*
X77394858Y-82098796D01*
X77596051Y-82343950D01*
X77841205Y-82545143D01*
X77986849Y-82622991D01*
X77926903Y-82827298D01*
X78740000Y-83640395D01*
X79553097Y-82827298D01*
X79493151Y-82622992D01*
X79638796Y-82545143D01*
X79883950Y-82343950D01*
X80010000Y-82190358D01*
X80136050Y-82343950D01*
X80338382Y-82510000D01*
X80136050Y-82676050D01*
X79934857Y-82921204D01*
X79867854Y-83046558D01*
X79732702Y-83006903D01*
X78919605Y-83820000D01*
X79732702Y-84633097D01*
X79867854Y-84593442D01*
X79934857Y-84718796D01*
X80136050Y-84963950D01*
X80381204Y-85165143D01*
X80660899Y-85314643D01*
X80964385Y-85406705D01*
X81200906Y-85430000D01*
X82393116Y-85430000D01*
X80085631Y-87737486D01*
X80010000Y-87829642D01*
X79883950Y-87676050D01*
X79638795Y-87474857D01*
X79359100Y-87325357D01*
X79055614Y-87233295D01*
X78740000Y-87202210D01*
X78424385Y-87233295D01*
X78120899Y-87325357D01*
X77841204Y-87474857D01*
X77596050Y-87676050D01*
X77394857Y-87921205D01*
X77245357Y-88200900D01*
X77153295Y-88504386D01*
X77130000Y-88740907D01*
X77130000Y-90090916D01*
X77122211Y-90170000D01*
X77130000Y-90249084D01*
X77130000Y-90249094D01*
X77153295Y-90485615D01*
X77208684Y-90668204D01*
X77245358Y-90789101D01*
X77394857Y-91068796D01*
X77545631Y-91252514D01*
X77545635Y-91252518D01*
X77596051Y-91313950D01*
X77657483Y-91364366D01*
X78815634Y-92522517D01*
X78866050Y-92583950D01*
X78927482Y-92634366D01*
X78927485Y-92634369D01*
X79111203Y-92785143D01*
X79206444Y-92836050D01*
X79390899Y-92934643D01*
X79694385Y-93026705D01*
X79930906Y-93050000D01*
X79930915Y-93050000D01*
X80009999Y-93057789D01*
X80089083Y-93050000D01*
X82470916Y-93050000D01*
X82550000Y-93057789D01*
X82629084Y-93050000D01*
X82629094Y-93050000D01*
X82865615Y-93026705D01*
X83169101Y-92934643D01*
X83448796Y-92785143D01*
X83693950Y-92583950D01*
X83744370Y-92522513D01*
X85756884Y-90510000D01*
X86136853Y-90510000D01*
X86031068Y-90638899D01*
X85897818Y-90888192D01*
X85815764Y-91158691D01*
X85788057Y-91440000D01*
X85815764Y-91721309D01*
X85897818Y-91991808D01*
X86031068Y-92241101D01*
X86210392Y-92459608D01*
X86428899Y-92638932D01*
X86561858Y-92710000D01*
X86428899Y-92781068D01*
X86210392Y-92960392D01*
X86031068Y-93178899D01*
X85897818Y-93428192D01*
X85815764Y-93698691D01*
X85788057Y-93980000D01*
X85815764Y-94261309D01*
X85897818Y-94531808D01*
X86031068Y-94781101D01*
X86136853Y-94910000D01*
X79406884Y-94910000D01*
X71683794Y-87186911D01*
X71662561Y-87080166D01*
X71520466Y-86737118D01*
X71314175Y-86428382D01*
X71051618Y-86165825D01*
X70742882Y-85959534D01*
X70399834Y-85817439D01*
X70035656Y-85745000D01*
X69664344Y-85745000D01*
X69300166Y-85817439D01*
X68957118Y-85959534D01*
X68648382Y-86165825D01*
X68385825Y-86428382D01*
X68179534Y-86737118D01*
X68037439Y-87080166D01*
X67965000Y-87444344D01*
X64185000Y-87444344D01*
X64185000Y-84812702D01*
X77926903Y-84812702D01*
X77998486Y-85056671D01*
X78253996Y-85177571D01*
X78528184Y-85246300D01*
X78810512Y-85260217D01*
X79090130Y-85218787D01*
X79356292Y-85123603D01*
X79481514Y-85056671D01*
X79553097Y-84812702D01*
X78740000Y-83999605D01*
X77926903Y-84812702D01*
X64185000Y-84812702D01*
X64185000Y-82364344D01*
X67965000Y-82364344D01*
X67965000Y-82735656D01*
X68037439Y-83099834D01*
X68179534Y-83442882D01*
X68385825Y-83751618D01*
X68648382Y-84014175D01*
X68957118Y-84220466D01*
X69300166Y-84362561D01*
X69664344Y-84435000D01*
X70035656Y-84435000D01*
X70399834Y-84362561D01*
X70742882Y-84220466D01*
X71051618Y-84014175D01*
X71175281Y-83890512D01*
X77299783Y-83890512D01*
X77341213Y-84170130D01*
X77436397Y-84436292D01*
X77503329Y-84561514D01*
X77747298Y-84633097D01*
X78560395Y-83820000D01*
X77747298Y-83006903D01*
X77503329Y-83078486D01*
X77382429Y-83333996D01*
X77313700Y-83608184D01*
X77299783Y-83890512D01*
X71175281Y-83890512D01*
X71314175Y-83751618D01*
X71520466Y-83442882D01*
X71662561Y-83099834D01*
X71735000Y-82735656D01*
X71735000Y-82364344D01*
X71662561Y-82000166D01*
X71520466Y-81657118D01*
X71314175Y-81348382D01*
X71051618Y-81085825D01*
X70742882Y-80879534D01*
X70399834Y-80737439D01*
X70035656Y-80665000D01*
X69664344Y-80665000D01*
X69300166Y-80737439D01*
X68957118Y-80879534D01*
X68648382Y-81085825D01*
X68385825Y-81348382D01*
X68179534Y-81657118D01*
X68037439Y-82000166D01*
X67965000Y-82364344D01*
X64185000Y-82364344D01*
X64185000Y-78783605D01*
X68716000Y-78783605D01*
X68841914Y-79073577D01*
X69174126Y-79239433D01*
X69532312Y-79337290D01*
X69902706Y-79363389D01*
X70271075Y-79316725D01*
X70623262Y-79199094D01*
X70858086Y-79073577D01*
X70984000Y-78783605D01*
X69850000Y-77649605D01*
X68716000Y-78783605D01*
X64185000Y-78783605D01*
X64185000Y-77522706D01*
X67956611Y-77522706D01*
X68003275Y-77891075D01*
X68120906Y-78243262D01*
X68246423Y-78478086D01*
X68536395Y-78604000D01*
X69670395Y-77470000D01*
X70029605Y-77470000D01*
X71163605Y-78604000D01*
X71453577Y-78478086D01*
X71619433Y-78145874D01*
X71717290Y-77787688D01*
X71743389Y-77417294D01*
X71696725Y-77048925D01*
X71579094Y-76696738D01*
X71453577Y-76461914D01*
X71163605Y-76336000D01*
X70029605Y-77470000D01*
X69670395Y-77470000D01*
X68536395Y-76336000D01*
X68246423Y-76461914D01*
X68080567Y-76794126D01*
X67982710Y-77152312D01*
X67956611Y-77522706D01*
X64185000Y-77522706D01*
X64185000Y-76156395D01*
X68716000Y-76156395D01*
X69850000Y-77290395D01*
X70869883Y-76270512D01*
X77299783Y-76270512D01*
X77341213Y-76550130D01*
X77436397Y-76816292D01*
X77503329Y-76941514D01*
X77747298Y-77013097D01*
X78560395Y-76200000D01*
X77747298Y-75386903D01*
X77503329Y-75458486D01*
X77382429Y-75713996D01*
X77313700Y-75988184D01*
X77299783Y-76270512D01*
X70869883Y-76270512D01*
X70984000Y-76156395D01*
X70858086Y-75866423D01*
X70525874Y-75700567D01*
X70167688Y-75602710D01*
X69797294Y-75576611D01*
X69428925Y-75623275D01*
X69076738Y-75740906D01*
X68841914Y-75866423D01*
X68716000Y-76156395D01*
X64185000Y-76156395D01*
X64185000Y-75207298D01*
X77926903Y-75207298D01*
X78740000Y-76020395D01*
X79553097Y-75207298D01*
X79481514Y-74963329D01*
X79226004Y-74842429D01*
X78951816Y-74773700D01*
X78669488Y-74759783D01*
X78389870Y-74801213D01*
X78123708Y-74896397D01*
X77998486Y-74963329D01*
X77926903Y-75207298D01*
X64185000Y-75207298D01*
X64185000Y-71140000D01*
X67961928Y-71140000D01*
X67961928Y-73640000D01*
X67974188Y-73764482D01*
X68010498Y-73884180D01*
X68069463Y-73994494D01*
X68148815Y-74091185D01*
X68245506Y-74170537D01*
X68355820Y-74229502D01*
X68475518Y-74265812D01*
X68600000Y-74278072D01*
X71100000Y-74278072D01*
X71224482Y-74265812D01*
X71344180Y-74229502D01*
X71454494Y-74170537D01*
X71551185Y-74091185D01*
X71630537Y-73994494D01*
X71689502Y-73884180D01*
X71725812Y-73764482D01*
X71738072Y-73640000D01*
X71738072Y-72778811D01*
X78135776Y-66381108D01*
X78137168Y-66380686D01*
X78438578Y-66219579D01*
X78702766Y-66002766D01*
X78834126Y-65842702D01*
X84276903Y-65842702D01*
X84348486Y-66086671D01*
X84603996Y-66207571D01*
X84878184Y-66276300D01*
X85160512Y-66290217D01*
X85440130Y-66248787D01*
X85706292Y-66153603D01*
X85831514Y-66086671D01*
X85903097Y-65842702D01*
X85090000Y-65029605D01*
X84276903Y-65842702D01*
X78834126Y-65842702D01*
X78919579Y-65738578D01*
X79080686Y-65437168D01*
X79179895Y-65110119D01*
X79198569Y-64920512D01*
X83649783Y-64920512D01*
X83691213Y-65200130D01*
X83786397Y-65466292D01*
X83853329Y-65591514D01*
X84097298Y-65663097D01*
X84910395Y-64850000D01*
X85269605Y-64850000D01*
X86082702Y-65663097D01*
X86326671Y-65591514D01*
X86447571Y-65336004D01*
X86516300Y-65061816D01*
X86523265Y-64920512D01*
X89999783Y-64920512D01*
X90041213Y-65200130D01*
X90136397Y-65466292D01*
X90203329Y-65591514D01*
X90447298Y-65663097D01*
X91260395Y-64850000D01*
X90447298Y-64036903D01*
X90203329Y-64108486D01*
X90082429Y-64363996D01*
X90013700Y-64638184D01*
X89999783Y-64920512D01*
X86523265Y-64920512D01*
X86530217Y-64779488D01*
X86488787Y-64499870D01*
X86393603Y-64233708D01*
X86326671Y-64108486D01*
X86082702Y-64036903D01*
X85269605Y-64850000D01*
X84910395Y-64850000D01*
X84097298Y-64036903D01*
X83853329Y-64108486D01*
X83732429Y-64363996D01*
X83663700Y-64638184D01*
X83649783Y-64920512D01*
X79198569Y-64920512D01*
X79213394Y-64770000D01*
X79179895Y-64429881D01*
X79080686Y-64102832D01*
X78949446Y-63857298D01*
X84276903Y-63857298D01*
X85090000Y-64670395D01*
X85903097Y-63857298D01*
X85831514Y-63613329D01*
X85576004Y-63492429D01*
X85301816Y-63423700D01*
X85019488Y-63409783D01*
X84739870Y-63451213D01*
X84473708Y-63546397D01*
X84348486Y-63613329D01*
X84276903Y-63857298D01*
X78949446Y-63857298D01*
X78919579Y-63801422D01*
X78702766Y-63537234D01*
X78438578Y-63320421D01*
X78137168Y-63159314D01*
X77810119Y-63060105D01*
X77555225Y-63035000D01*
X77384775Y-63035000D01*
X77129881Y-63060105D01*
X76802832Y-63159314D01*
X76501422Y-63320421D01*
X76237234Y-63537234D01*
X76020421Y-63801422D01*
X75859314Y-64102832D01*
X75858892Y-64104224D01*
X69461189Y-70501928D01*
X68600000Y-70501928D01*
X68475518Y-70514188D01*
X68355820Y-70550498D01*
X68245506Y-70609463D01*
X68148815Y-70688815D01*
X68069463Y-70785506D01*
X68010498Y-70895820D01*
X67974188Y-71015518D01*
X67961928Y-71140000D01*
X64185000Y-71140000D01*
X64185000Y-60602702D01*
X84276903Y-60602702D01*
X84348486Y-60846671D01*
X84603996Y-60967571D01*
X84878184Y-61036300D01*
X85160512Y-61050217D01*
X85440130Y-61008787D01*
X85706292Y-60913603D01*
X85831514Y-60846671D01*
X85903097Y-60602702D01*
X90626903Y-60602702D01*
X90698486Y-60846671D01*
X90953996Y-60967571D01*
X91228184Y-61036300D01*
X91510512Y-61050217D01*
X91790130Y-61008787D01*
X92056292Y-60913603D01*
X92181514Y-60846671D01*
X92253097Y-60602702D01*
X91440000Y-59789605D01*
X90626903Y-60602702D01*
X85903097Y-60602702D01*
X85090000Y-59789605D01*
X84276903Y-60602702D01*
X64185000Y-60602702D01*
X64185000Y-59680512D01*
X83649783Y-59680512D01*
X83691213Y-59960130D01*
X83786397Y-60226292D01*
X83853329Y-60351514D01*
X84097298Y-60423097D01*
X84910395Y-59610000D01*
X85269605Y-59610000D01*
X86082702Y-60423097D01*
X86326671Y-60351514D01*
X86447571Y-60096004D01*
X86516300Y-59821816D01*
X86523265Y-59680512D01*
X89999783Y-59680512D01*
X90041213Y-59960130D01*
X90136397Y-60226292D01*
X90203329Y-60351514D01*
X90447298Y-60423097D01*
X91260395Y-59610000D01*
X91619605Y-59610000D01*
X92432702Y-60423097D01*
X92676671Y-60351514D01*
X92797571Y-60096004D01*
X92866300Y-59821816D01*
X92880217Y-59539488D01*
X92838787Y-59259870D01*
X92743603Y-58993708D01*
X92676671Y-58868486D01*
X92432702Y-58796903D01*
X91619605Y-59610000D01*
X91260395Y-59610000D01*
X90447298Y-58796903D01*
X90203329Y-58868486D01*
X90082429Y-59123996D01*
X90013700Y-59398184D01*
X89999783Y-59680512D01*
X86523265Y-59680512D01*
X86530217Y-59539488D01*
X86488787Y-59259870D01*
X86393603Y-58993708D01*
X86326671Y-58868486D01*
X86082702Y-58796903D01*
X85269605Y-59610000D01*
X84910395Y-59610000D01*
X84097298Y-58796903D01*
X83853329Y-58868486D01*
X83732429Y-59123996D01*
X83663700Y-59398184D01*
X83649783Y-59680512D01*
X64185000Y-59680512D01*
X64185000Y-58617298D01*
X84276903Y-58617298D01*
X85090000Y-59430395D01*
X85903097Y-58617298D01*
X90626903Y-58617298D01*
X91440000Y-59430395D01*
X92253097Y-58617298D01*
X92195208Y-58420000D01*
X110783461Y-58420000D01*
X110829510Y-58887542D01*
X110965887Y-59337116D01*
X111187351Y-59751446D01*
X111485391Y-60114609D01*
X111848554Y-60412649D01*
X112262884Y-60634113D01*
X112712458Y-60770490D01*
X113062843Y-60805000D01*
X113297157Y-60805000D01*
X113647542Y-60770490D01*
X114097116Y-60634113D01*
X114511446Y-60412649D01*
X114874609Y-60114609D01*
X115172649Y-59751446D01*
X115394113Y-59337116D01*
X115530490Y-58887542D01*
X115576539Y-58420000D01*
X115530490Y-57952458D01*
X115394113Y-57502884D01*
X115172649Y-57088554D01*
X114874609Y-56725391D01*
X114511446Y-56427351D01*
X114097116Y-56205887D01*
X113647542Y-56069510D01*
X113297157Y-56035000D01*
X113062843Y-56035000D01*
X112712458Y-56069510D01*
X112262884Y-56205887D01*
X111848554Y-56427351D01*
X111485391Y-56725391D01*
X111187351Y-57088554D01*
X110965887Y-57502884D01*
X110829510Y-57952458D01*
X110783461Y-58420000D01*
X92195208Y-58420000D01*
X92181514Y-58373329D01*
X91926004Y-58252429D01*
X91651816Y-58183700D01*
X91369488Y-58169783D01*
X91089870Y-58211213D01*
X90823708Y-58306397D01*
X90698486Y-58373329D01*
X90626903Y-58617298D01*
X85903097Y-58617298D01*
X85831514Y-58373329D01*
X85576004Y-58252429D01*
X85301816Y-58183700D01*
X85019488Y-58169783D01*
X84739870Y-58211213D01*
X84473708Y-58306397D01*
X84348486Y-58373329D01*
X84276903Y-58617298D01*
X64185000Y-58617298D01*
X64185000Y-55659872D01*
X66345000Y-55659872D01*
X66345000Y-56100128D01*
X66430890Y-56531925D01*
X66599369Y-56938669D01*
X66843962Y-57304729D01*
X67155271Y-57616038D01*
X67521331Y-57860631D01*
X67928075Y-58029110D01*
X68359872Y-58115000D01*
X68800128Y-58115000D01*
X69231925Y-58029110D01*
X69638669Y-57860631D01*
X70004729Y-57616038D01*
X70316038Y-57304729D01*
X70560631Y-56938669D01*
X70729110Y-56531925D01*
X70815000Y-56100128D01*
X70815000Y-55659872D01*
X70729110Y-55228075D01*
X70560631Y-54821331D01*
X70316038Y-54455271D01*
X70004729Y-54143962D01*
X69638669Y-53899369D01*
X69231925Y-53730890D01*
X68800128Y-53645000D01*
X68359872Y-53645000D01*
X67928075Y-53730890D01*
X67521331Y-53899369D01*
X67155271Y-54143962D01*
X66843962Y-54455271D01*
X66599369Y-54821331D01*
X66430890Y-55228075D01*
X66345000Y-55659872D01*
X64185000Y-55659872D01*
X64185000Y-53510000D01*
X75731928Y-53510000D01*
X75731928Y-55710000D01*
X75744188Y-55834482D01*
X75780498Y-55954180D01*
X75839463Y-56064494D01*
X75918815Y-56161185D01*
X76015506Y-56240537D01*
X76125820Y-56299502D01*
X76245518Y-56335812D01*
X76370000Y-56348072D01*
X78570000Y-56348072D01*
X78694482Y-56335812D01*
X78814180Y-56299502D01*
X78924494Y-56240537D01*
X78949518Y-56220000D01*
X94583117Y-56220000D01*
X94881928Y-56518812D01*
X94881928Y-56832500D01*
X94894188Y-56956982D01*
X94930498Y-57076680D01*
X94989463Y-57186994D01*
X95068815Y-57283685D01*
X95165506Y-57363037D01*
X95257219Y-57412059D01*
X95144031Y-57553077D01*
X95000429Y-57828906D01*
X94929437Y-58047020D01*
X95049406Y-58293000D01*
X96393000Y-58293000D01*
X96393000Y-58273000D01*
X96647000Y-58273000D01*
X96647000Y-58293000D01*
X97990594Y-58293000D01*
X98110563Y-58047020D01*
X98039571Y-57828906D01*
X97895969Y-57553077D01*
X97782781Y-57412059D01*
X97874494Y-57363037D01*
X97971185Y-57283685D01*
X98050537Y-57186994D01*
X98109502Y-57076680D01*
X98145812Y-56956982D01*
X98158072Y-56832500D01*
X98158072Y-55659872D01*
X141275000Y-55659872D01*
X141275000Y-56100128D01*
X141360890Y-56531925D01*
X141529369Y-56938669D01*
X141773962Y-57304729D01*
X142085271Y-57616038D01*
X142451331Y-57860631D01*
X142858075Y-58029110D01*
X143289872Y-58115000D01*
X143730128Y-58115000D01*
X144161925Y-58029110D01*
X144568669Y-57860631D01*
X144934729Y-57616038D01*
X145246038Y-57304729D01*
X145490631Y-56938669D01*
X145659110Y-56531925D01*
X145745000Y-56100128D01*
X145745000Y-55659872D01*
X145659110Y-55228075D01*
X145490631Y-54821331D01*
X145246038Y-54455271D01*
X144934729Y-54143962D01*
X144568669Y-53899369D01*
X144161925Y-53730890D01*
X143730128Y-53645000D01*
X143289872Y-53645000D01*
X142858075Y-53730890D01*
X142451331Y-53899369D01*
X142085271Y-54143962D01*
X141773962Y-54455271D01*
X141529369Y-54821331D01*
X141360890Y-55228075D01*
X141275000Y-55659872D01*
X98158072Y-55659872D01*
X98158072Y-54927500D01*
X98145812Y-54803018D01*
X98109502Y-54683320D01*
X98050537Y-54573006D01*
X97971185Y-54476315D01*
X97874494Y-54396963D01*
X97764180Y-54337998D01*
X97644482Y-54301688D01*
X97520000Y-54289428D01*
X97206312Y-54289428D01*
X96444370Y-53527487D01*
X96393950Y-53466050D01*
X96148796Y-53264857D01*
X95869101Y-53115357D01*
X95565615Y-53023295D01*
X95329094Y-53000000D01*
X95329084Y-53000000D01*
X95250000Y-52992211D01*
X95170916Y-53000000D01*
X78949518Y-53000000D01*
X78924494Y-52979463D01*
X78814180Y-52920498D01*
X78694482Y-52884188D01*
X78570000Y-52871928D01*
X76370000Y-52871928D01*
X76245518Y-52884188D01*
X76125820Y-52920498D01*
X76015506Y-52979463D01*
X75918815Y-53058815D01*
X75839463Y-53155506D01*
X75780498Y-53265820D01*
X75744188Y-53385518D01*
X75731928Y-53510000D01*
X64185000Y-53510000D01*
X64185000Y-51485000D01*
X147905000Y-51485000D01*
X147905001Y-113615000D01*
X147905001Y-113615000D01*
G37*
X147905001Y-113615000D02*
X64185000Y-113615000D01*
X64185000Y-108999872D01*
X66345000Y-108999872D01*
X66345000Y-109440128D01*
X66430890Y-109871925D01*
X66599369Y-110278669D01*
X66843962Y-110644729D01*
X67155271Y-110956038D01*
X67521331Y-111200631D01*
X67928075Y-111369110D01*
X68359872Y-111455000D01*
X68800128Y-111455000D01*
X69231925Y-111369110D01*
X69638669Y-111200631D01*
X70004729Y-110956038D01*
X70316038Y-110644729D01*
X70560631Y-110278669D01*
X70729110Y-109871925D01*
X70815000Y-109440128D01*
X70815000Y-108999872D01*
X70729110Y-108568075D01*
X70560631Y-108161331D01*
X70316038Y-107795271D01*
X70004729Y-107483962D01*
X69638669Y-107239369D01*
X69231925Y-107070890D01*
X68800128Y-106985000D01*
X68359872Y-106985000D01*
X67928075Y-107070890D01*
X67521331Y-107239369D01*
X67155271Y-107483962D01*
X66843962Y-107795271D01*
X66599369Y-108161331D01*
X66430890Y-108568075D01*
X66345000Y-108999872D01*
X64185000Y-108999872D01*
X64185000Y-87444344D01*
X67965000Y-87444344D01*
X67965000Y-87815656D01*
X68037439Y-88179834D01*
X68179534Y-88522882D01*
X68385825Y-88831618D01*
X68648382Y-89094175D01*
X68957118Y-89300466D01*
X69300166Y-89442561D01*
X69406911Y-89463794D01*
X77393116Y-97450000D01*
X76866884Y-97450000D01*
X71683794Y-92266911D01*
X71662561Y-92160166D01*
X71520466Y-91817118D01*
X71314175Y-91508382D01*
X71051618Y-91245825D01*
X70742882Y-91039534D01*
X70399834Y-90897439D01*
X70035656Y-90825000D01*
X69664344Y-90825000D01*
X69300166Y-90897439D01*
X68957118Y-91039534D01*
X68648382Y-91245825D01*
X68385825Y-91508382D01*
X68179534Y-91817118D01*
X68037439Y-92160166D01*
X67965000Y-92524344D01*
X67965000Y-92895656D01*
X68037439Y-93259834D01*
X68179534Y-93602882D01*
X68385825Y-93911618D01*
X68648382Y-94174175D01*
X68957118Y-94380466D01*
X69300166Y-94522561D01*
X69406911Y-94543794D01*
X75005634Y-100142518D01*
X75056050Y-100203950D01*
X75117482Y-100254366D01*
X75117485Y-100254369D01*
X75301203Y-100405143D01*
X75396444Y-100456050D01*
X75580899Y-100554643D01*
X75884385Y-100646705D01*
X76120906Y-100670000D01*
X76120915Y-100670000D01*
X76199999Y-100677789D01*
X76279083Y-100670000D01*
X90090916Y-100670000D01*
X90170000Y-100677789D01*
X90249084Y-100670000D01*
X90249094Y-100670000D01*
X90485615Y-100646705D01*
X90789101Y-100554643D01*
X91068796Y-100405143D01*
X91097307Y-100381744D01*
X91100000Y-100409084D01*
X91100000Y-101376854D01*
X90971100Y-101271068D01*
X90721807Y-101137818D01*
X90451308Y-101055764D01*
X90170000Y-101028057D01*
X89888691Y-101055764D01*
X89618192Y-101137818D01*
X89368899Y-101271068D01*
X89150392Y-101450393D01*
X88971068Y-101668900D01*
X88837818Y-101918193D01*
X88817643Y-101984703D01*
X88675358Y-102250899D01*
X88583296Y-102554385D01*
X88560001Y-102790906D01*
X88560000Y-107870916D01*
X88552211Y-107950000D01*
X88560000Y-108029084D01*
X88560000Y-108029093D01*
X88583295Y-108265614D01*
X88675357Y-108569100D01*
X88675358Y-108569101D01*
X88824857Y-108848796D01*
X88945137Y-108995357D01*
X89026050Y-109093950D01*
X89087487Y-109144370D01*
X91515634Y-111572518D01*
X91566050Y-111633950D01*
X91627482Y-111684366D01*
X91627485Y-111684369D01*
X91811203Y-111835143D01*
X92090897Y-111984642D01*
X92090899Y-111984643D01*
X92394385Y-112076705D01*
X92630906Y-112100000D01*
X92630915Y-112100000D01*
X92709999Y-112107789D01*
X92789083Y-112100000D01*
X123110916Y-112100000D01*
X123190000Y-112107789D01*
X123269084Y-112100000D01*
X123269094Y-112100000D01*
X123505615Y-112076705D01*
X123809101Y-111984643D01*
X124088796Y-111835143D01*
X124333950Y-111633950D01*
X124384371Y-111572512D01*
X126957011Y-108999872D01*
X141275000Y-108999872D01*
X141275000Y-109440128D01*
X141360890Y-109871925D01*
X141529369Y-110278669D01*
X141773962Y-110644729D01*
X142085271Y-110956038D01*
X142451331Y-111200631D01*
X142858075Y-111369110D01*
X143289872Y-111455000D01*
X143730128Y-111455000D01*
X144161925Y-111369110D01*
X144568669Y-111200631D01*
X144934729Y-110956038D01*
X145246038Y-110644729D01*
X145490631Y-110278669D01*
X145659110Y-109871925D01*
X145745000Y-109440128D01*
X145745000Y-108999872D01*
X145659110Y-108568075D01*
X145490631Y-108161331D01*
X145246038Y-107795271D01*
X144934729Y-107483962D01*
X144568669Y-107239369D01*
X144161925Y-107070890D01*
X143730128Y-106985000D01*
X143289872Y-106985000D01*
X142858075Y-107070890D01*
X142451331Y-107239369D01*
X142085271Y-107483962D01*
X141773962Y-107795271D01*
X141529369Y-108161331D01*
X141360890Y-108568075D01*
X141275000Y-108999872D01*
X126957011Y-108999872D01*
X128082518Y-107874366D01*
X128143950Y-107823950D01*
X128194366Y-107762518D01*
X128194370Y-107762514D01*
X128345143Y-107578797D01*
X128425052Y-107429297D01*
X128494643Y-107299101D01*
X128586705Y-106995615D01*
X128610000Y-106759094D01*
X128610000Y-106759084D01*
X128617789Y-106680000D01*
X128610000Y-106600916D01*
X128610000Y-80676883D01*
X131349884Y-77937000D01*
X134142853Y-77937000D01*
X134037068Y-78065899D01*
X133903818Y-78315192D01*
X133821764Y-78585691D01*
X133794057Y-78867000D01*
X133821764Y-79148309D01*
X133903818Y-79418808D01*
X134037068Y-79668101D01*
X134216392Y-79886608D01*
X134434899Y-80065932D01*
X134567858Y-80137000D01*
X134434899Y-80208068D01*
X134216392Y-80387392D01*
X134037068Y-80605899D01*
X133903818Y-80855192D01*
X133821764Y-81125691D01*
X133794057Y-81407000D01*
X133821764Y-81688309D01*
X133903818Y-81958808D01*
X134037068Y-82208101D01*
X134216392Y-82426608D01*
X134434899Y-82605932D01*
X134567858Y-82677000D01*
X134434899Y-82748068D01*
X134216392Y-82927392D01*
X134037068Y-83145899D01*
X133903818Y-83395192D01*
X133821764Y-83665691D01*
X133794057Y-83947000D01*
X133821764Y-84228309D01*
X133903818Y-84498808D01*
X134037068Y-84748101D01*
X134216392Y-84966608D01*
X134434899Y-85145932D01*
X134567858Y-85217000D01*
X134434899Y-85288068D01*
X134216392Y-85467392D01*
X134037068Y-85685899D01*
X133903818Y-85935192D01*
X133821764Y-86205691D01*
X133794057Y-86487000D01*
X133821764Y-86768309D01*
X133903818Y-87038808D01*
X134037068Y-87288101D01*
X134216392Y-87506608D01*
X134434899Y-87685932D01*
X134567858Y-87757000D01*
X134434899Y-87828068D01*
X134216392Y-88007392D01*
X134037068Y-88225899D01*
X133903818Y-88475192D01*
X133821764Y-88745691D01*
X133794057Y-89027000D01*
X133821764Y-89308309D01*
X133903818Y-89578808D01*
X134037068Y-89828101D01*
X134216392Y-90046608D01*
X134434899Y-90225932D01*
X134567858Y-90297000D01*
X134434899Y-90368068D01*
X134216392Y-90547392D01*
X134037068Y-90765899D01*
X133903818Y-91015192D01*
X133821764Y-91285691D01*
X133794057Y-91567000D01*
X133821764Y-91848309D01*
X133903818Y-92118808D01*
X134037068Y-92368101D01*
X134216392Y-92586608D01*
X134434899Y-92765932D01*
X134567858Y-92837000D01*
X134434899Y-92908068D01*
X134216392Y-93087392D01*
X134037068Y-93305899D01*
X133903818Y-93555192D01*
X133821764Y-93825691D01*
X133794057Y-94107000D01*
X133821764Y-94388309D01*
X133903818Y-94658808D01*
X134037068Y-94908101D01*
X134216392Y-95126608D01*
X134434899Y-95305932D01*
X134567858Y-95377000D01*
X134434899Y-95448068D01*
X134216392Y-95627392D01*
X134037068Y-95845899D01*
X133903818Y-96095192D01*
X133821764Y-96365691D01*
X133794057Y-96647000D01*
X133821764Y-96928309D01*
X133903818Y-97198808D01*
X134037068Y-97448101D01*
X134216392Y-97666608D01*
X134434899Y-97845932D01*
X134567858Y-97917000D01*
X134434899Y-97988068D01*
X134216392Y-98167392D01*
X134037068Y-98385899D01*
X133903818Y-98635192D01*
X133821764Y-98905691D01*
X133794057Y-99187000D01*
X133821764Y-99468309D01*
X133903818Y-99738808D01*
X134037068Y-99988101D01*
X134216392Y-100206608D01*
X134434899Y-100385932D01*
X134567858Y-100457000D01*
X134434899Y-100528068D01*
X134216392Y-100707392D01*
X134037068Y-100925899D01*
X133903818Y-101175192D01*
X133821764Y-101445691D01*
X133794057Y-101727000D01*
X133821764Y-102008309D01*
X133903818Y-102278808D01*
X134037068Y-102528101D01*
X134216392Y-102746608D01*
X134434899Y-102925932D01*
X134567858Y-102997000D01*
X134434899Y-103068068D01*
X134216392Y-103247392D01*
X134037068Y-103465899D01*
X133903818Y-103715192D01*
X133821764Y-103985691D01*
X133794057Y-104267000D01*
X133821764Y-104548309D01*
X133903818Y-104818808D01*
X134037068Y-105068101D01*
X134216392Y-105286608D01*
X134434899Y-105465932D01*
X134684192Y-105599182D01*
X134954691Y-105681236D01*
X135165508Y-105702000D01*
X136106492Y-105702000D01*
X136317309Y-105681236D01*
X136587808Y-105599182D01*
X136837101Y-105465932D01*
X137055608Y-105286608D01*
X137234932Y-105068101D01*
X137368182Y-104818808D01*
X137450236Y-104548309D01*
X137477943Y-104267000D01*
X137450236Y-103985691D01*
X137368182Y-103715192D01*
X137234932Y-103465899D01*
X137055608Y-103247392D01*
X136837101Y-103068068D01*
X136704142Y-102997000D01*
X136837101Y-102925932D01*
X137055608Y-102746608D01*
X137234932Y-102528101D01*
X137368182Y-102278808D01*
X137450236Y-102008309D01*
X137477943Y-101727000D01*
X137450236Y-101445691D01*
X137368182Y-101175192D01*
X137234932Y-100925899D01*
X137055608Y-100707392D01*
X136837101Y-100528068D01*
X136704142Y-100457000D01*
X136837101Y-100385932D01*
X137055608Y-100206608D01*
X137234932Y-99988101D01*
X137368182Y-99738808D01*
X137450236Y-99468309D01*
X137477943Y-99187000D01*
X137450236Y-98905691D01*
X137368182Y-98635192D01*
X137234932Y-98385899D01*
X137055608Y-98167392D01*
X136837101Y-97988068D01*
X136704142Y-97917000D01*
X136837101Y-97845932D01*
X137055608Y-97666608D01*
X137234932Y-97448101D01*
X137368182Y-97198808D01*
X137450236Y-96928309D01*
X137477943Y-96647000D01*
X137450236Y-96365691D01*
X137368182Y-96095192D01*
X137234932Y-95845899D01*
X137055608Y-95627392D01*
X136837101Y-95448068D01*
X136704142Y-95377000D01*
X136837101Y-95305932D01*
X137055608Y-95126608D01*
X137234932Y-94908101D01*
X137368182Y-94658808D01*
X137450236Y-94388309D01*
X137477943Y-94107000D01*
X137450236Y-93825691D01*
X137368182Y-93555192D01*
X137234932Y-93305899D01*
X137055608Y-93087392D01*
X136837101Y-92908068D01*
X136704142Y-92837000D01*
X136837101Y-92765932D01*
X137055608Y-92586608D01*
X137234932Y-92368101D01*
X137368182Y-92118808D01*
X137450236Y-91848309D01*
X137477943Y-91567000D01*
X137450236Y-91285691D01*
X137368182Y-91015192D01*
X137234932Y-90765899D01*
X137055608Y-90547392D01*
X136837101Y-90368068D01*
X136704142Y-90297000D01*
X136837101Y-90225932D01*
X137055608Y-90046608D01*
X137234932Y-89828101D01*
X137368182Y-89578808D01*
X137450236Y-89308309D01*
X137477943Y-89027000D01*
X137450236Y-88745691D01*
X137368182Y-88475192D01*
X137234932Y-88225899D01*
X137055608Y-88007392D01*
X136837101Y-87828068D01*
X136704142Y-87757000D01*
X136837101Y-87685932D01*
X137055608Y-87506608D01*
X137234932Y-87288101D01*
X137368182Y-87038808D01*
X137450236Y-86768309D01*
X137477943Y-86487000D01*
X137450236Y-86205691D01*
X137368182Y-85935192D01*
X137234932Y-85685899D01*
X137055608Y-85467392D01*
X136837101Y-85288068D01*
X136704142Y-85217000D01*
X136837101Y-85145932D01*
X137055608Y-84966608D01*
X137234932Y-84748101D01*
X137368182Y-84498808D01*
X137450236Y-84228309D01*
X137477943Y-83947000D01*
X137450236Y-83665691D01*
X137368182Y-83395192D01*
X137234932Y-83145899D01*
X137055608Y-82927392D01*
X136837101Y-82748068D01*
X136704142Y-82677000D01*
X136837101Y-82605932D01*
X137055608Y-82426608D01*
X137234932Y-82208101D01*
X137368182Y-81958808D01*
X137450236Y-81688309D01*
X137477943Y-81407000D01*
X137450236Y-81125691D01*
X137368182Y-80855192D01*
X137234932Y-80605899D01*
X137129147Y-80477000D01*
X140763916Y-80477000D01*
X140843000Y-80484789D01*
X140922084Y-80477000D01*
X140922094Y-80477000D01*
X141158615Y-80453705D01*
X141462101Y-80361643D01*
X141483884Y-80350000D01*
X143589094Y-80350000D01*
X143825615Y-80326705D01*
X144129101Y-80234643D01*
X144408796Y-80085143D01*
X144653950Y-79883950D01*
X144855143Y-79638796D01*
X145004643Y-79359101D01*
X145096705Y-79055615D01*
X145127790Y-78740000D01*
X145096705Y-78424385D01*
X145004643Y-78120899D01*
X144897632Y-77920696D01*
X144968615Y-77913705D01*
X145272101Y-77821643D01*
X145551796Y-77672143D01*
X145796950Y-77470950D01*
X145847370Y-77409513D01*
X147132519Y-76124365D01*
X147193950Y-76073950D01*
X147244366Y-76012518D01*
X147244369Y-76012515D01*
X147395143Y-75828797D01*
X147526145Y-75583708D01*
X147544643Y-75549101D01*
X147636705Y-75245615D01*
X147660000Y-75009094D01*
X147660000Y-75009085D01*
X147667789Y-74930001D01*
X147660000Y-74850917D01*
X147660000Y-67389083D01*
X147667789Y-67309999D01*
X147660000Y-67230915D01*
X147660000Y-67230906D01*
X147636705Y-66994385D01*
X147544643Y-66690899D01*
X147410206Y-66439384D01*
X147395143Y-66411203D01*
X147244369Y-66227485D01*
X147244366Y-66227482D01*
X147193950Y-66166050D01*
X147132517Y-66115634D01*
X145974368Y-64957485D01*
X145923950Y-64896050D01*
X145678796Y-64694857D01*
X145399101Y-64545357D01*
X145095615Y-64453295D01*
X144859094Y-64430000D01*
X144859084Y-64430000D01*
X144780000Y-64422211D01*
X144700916Y-64430000D01*
X142319083Y-64430000D01*
X142239999Y-64422211D01*
X142160915Y-64430000D01*
X140366884Y-64430000D01*
X139624369Y-63687486D01*
X139573950Y-63626050D01*
X139328796Y-63424857D01*
X139049101Y-63275357D01*
X138745615Y-63183295D01*
X138509094Y-63160000D01*
X138509084Y-63160000D01*
X138430000Y-63152211D01*
X138350916Y-63160000D01*
X103536884Y-63160000D01*
X100254371Y-59877488D01*
X100203950Y-59816050D01*
X99958796Y-59614857D01*
X99679101Y-59465357D01*
X99375615Y-59373295D01*
X99139094Y-59350000D01*
X99139084Y-59350000D01*
X99060000Y-59342211D01*
X98980916Y-59350000D01*
X97845340Y-59350000D01*
X97895969Y-59286923D01*
X98039571Y-59011094D01*
X98110563Y-58792980D01*
X97990594Y-58547000D01*
X96647000Y-58547000D01*
X96647000Y-58567000D01*
X96393000Y-58567000D01*
X96393000Y-58547000D01*
X95049406Y-58547000D01*
X94929437Y-58792980D01*
X95000429Y-59011094D01*
X95144031Y-59286923D01*
X95192920Y-59347833D01*
X95170915Y-59350000D01*
X95170906Y-59350000D01*
X94934385Y-59373295D01*
X94630899Y-59465357D01*
X94511014Y-59529437D01*
X94351203Y-59614857D01*
X94167485Y-59765631D01*
X94167482Y-59765634D01*
X94106050Y-59816050D01*
X94055634Y-59877483D01*
X92897487Y-61035630D01*
X92836050Y-61086050D01*
X92785631Y-61147486D01*
X92634857Y-61331204D01*
X92554948Y-61480704D01*
X92485357Y-61610900D01*
X92393295Y-61914386D01*
X92370000Y-62150907D01*
X92370000Y-62150916D01*
X92362211Y-62230000D01*
X92370000Y-62309084D01*
X92370000Y-63741653D01*
X92369370Y-63741023D01*
X92253097Y-63857296D01*
X92181514Y-63613329D01*
X91926004Y-63492429D01*
X91651816Y-63423700D01*
X91369488Y-63409783D01*
X91089870Y-63451213D01*
X90823708Y-63546397D01*
X90698486Y-63613329D01*
X90626903Y-63857298D01*
X91440000Y-64670395D01*
X91454143Y-64656253D01*
X91633748Y-64835858D01*
X91619605Y-64850000D01*
X91633748Y-64864143D01*
X91454143Y-65043748D01*
X91440000Y-65029605D01*
X90626903Y-65842702D01*
X90698486Y-66086671D01*
X90953996Y-66207571D01*
X91228184Y-66276300D01*
X91510512Y-66290217D01*
X91790130Y-66248787D01*
X92056292Y-66153603D01*
X92181514Y-66086671D01*
X92253097Y-65842704D01*
X92369370Y-65958977D01*
X92370001Y-65958346D01*
X92370001Y-66643115D01*
X90773117Y-68240000D01*
X85010906Y-68240000D01*
X84774385Y-68263295D01*
X84470899Y-68355357D01*
X84365062Y-68411928D01*
X84290000Y-68411928D01*
X84165518Y-68424188D01*
X84045820Y-68460498D01*
X83935506Y-68519463D01*
X83838815Y-68598815D01*
X83759463Y-68695506D01*
X83700498Y-68805820D01*
X83664188Y-68925518D01*
X83651928Y-69050000D01*
X83651928Y-69125062D01*
X83595357Y-69230899D01*
X83503295Y-69534385D01*
X83472210Y-69850000D01*
X83503295Y-70165615D01*
X83595357Y-70469101D01*
X83651928Y-70574938D01*
X83651928Y-70650000D01*
X83664188Y-70774482D01*
X83700498Y-70894180D01*
X83759463Y-71004494D01*
X83838815Y-71101185D01*
X83935506Y-71180537D01*
X84045820Y-71239502D01*
X84165518Y-71275812D01*
X84290000Y-71288072D01*
X84365062Y-71288072D01*
X84470899Y-71344643D01*
X84774385Y-71436705D01*
X85010906Y-71460000D01*
X90773117Y-71460000D01*
X93640000Y-74326884D01*
X93640001Y-75419604D01*
X93517818Y-75648192D01*
X93435764Y-75918691D01*
X93408057Y-76200000D01*
X93435764Y-76481309D01*
X93517818Y-76751808D01*
X93651068Y-77001101D01*
X93830392Y-77219608D01*
X94048899Y-77398932D01*
X94176741Y-77467265D01*
X93947161Y-77617399D01*
X93745500Y-77815105D01*
X93586285Y-78048354D01*
X93475633Y-78308182D01*
X93458096Y-78390961D01*
X93580085Y-78613000D01*
X95123000Y-78613000D01*
X95123000Y-78593000D01*
X95377000Y-78593000D01*
X95377000Y-78613000D01*
X96919915Y-78613000D01*
X97041904Y-78390961D01*
X97024367Y-78308182D01*
X96913715Y-78048354D01*
X96754500Y-77815105D01*
X96749293Y-77810000D01*
X101679094Y-77810000D01*
X101915615Y-77786705D01*
X102219101Y-77694643D01*
X102498796Y-77545143D01*
X102743950Y-77343950D01*
X102945143Y-77098796D01*
X103094643Y-76819101D01*
X103186705Y-76515615D01*
X103217790Y-76200000D01*
X103792210Y-76200000D01*
X103823295Y-76515615D01*
X103915357Y-76819101D01*
X104064857Y-77098796D01*
X104266050Y-77343950D01*
X104511204Y-77545143D01*
X104790899Y-77694643D01*
X105094385Y-77786705D01*
X105330906Y-77810000D01*
X112950916Y-77810000D01*
X113030000Y-77817789D01*
X113109084Y-77810000D01*
X113109094Y-77810000D01*
X113345615Y-77786705D01*
X113649101Y-77694643D01*
X113928796Y-77545143D01*
X114173950Y-77343950D01*
X114224371Y-77282512D01*
X118649883Y-72857000D01*
X118902853Y-72857000D01*
X118797068Y-72985899D01*
X118663818Y-73235192D01*
X118581764Y-73505691D01*
X118554057Y-73787000D01*
X118581764Y-74068309D01*
X118663818Y-74338808D01*
X118797068Y-74588101D01*
X118976392Y-74806608D01*
X119194899Y-74985932D01*
X119322741Y-75054265D01*
X119093161Y-75204399D01*
X118891500Y-75402105D01*
X118732285Y-75635354D01*
X118621633Y-75895182D01*
X118604096Y-75977961D01*
X118726085Y-76200000D01*
X120269000Y-76200000D01*
X120269000Y-76180000D01*
X120523000Y-76180000D01*
X120523000Y-76200000D01*
X122065915Y-76200000D01*
X122187904Y-75977961D01*
X122170367Y-75895182D01*
X122059715Y-75635354D01*
X121900500Y-75402105D01*
X121698839Y-75204399D01*
X121469259Y-75054265D01*
X121597101Y-74985932D01*
X121815608Y-74806608D01*
X121994932Y-74588101D01*
X122128182Y-74338808D01*
X122210236Y-74068309D01*
X122237943Y-73787000D01*
X122210236Y-73505691D01*
X122128182Y-73235192D01*
X121994932Y-72985899D01*
X121815608Y-72767392D01*
X121597101Y-72588068D01*
X121464142Y-72517000D01*
X121597101Y-72445932D01*
X121815608Y-72266608D01*
X121994932Y-72048101D01*
X122128182Y-71798808D01*
X122210236Y-71528309D01*
X122237943Y-71247000D01*
X122210236Y-70965691D01*
X122128182Y-70695192D01*
X121994932Y-70445899D01*
X121815608Y-70227392D01*
X121597101Y-70048068D01*
X121464142Y-69977000D01*
X121597101Y-69905932D01*
X121815608Y-69726608D01*
X121994932Y-69508101D01*
X122128182Y-69258808D01*
X122210236Y-68988309D01*
X122237943Y-68707000D01*
X133794057Y-68707000D01*
X133821764Y-68988309D01*
X133903818Y-69258808D01*
X134037068Y-69508101D01*
X134216392Y-69726608D01*
X134434899Y-69905932D01*
X134562741Y-69974265D01*
X134333161Y-70124399D01*
X134131500Y-70322105D01*
X133972285Y-70555354D01*
X133861633Y-70815182D01*
X133844096Y-70897961D01*
X133966085Y-71120000D01*
X135509000Y-71120000D01*
X135509000Y-71100000D01*
X135763000Y-71100000D01*
X135763000Y-71120000D01*
X137305915Y-71120000D01*
X137427904Y-70897961D01*
X137410367Y-70815182D01*
X137376445Y-70735527D01*
X140264078Y-70735527D01*
X140317466Y-70964201D01*
X140547374Y-71070095D01*
X140793524Y-71129102D01*
X141046455Y-71138952D01*
X141296449Y-71099270D01*
X141533896Y-71011578D01*
X141622534Y-70964201D01*
X141675922Y-70735527D01*
X140970000Y-70029605D01*
X140264078Y-70735527D01*
X137376445Y-70735527D01*
X137299715Y-70555354D01*
X137140500Y-70322105D01*
X136938839Y-70124399D01*
X136709259Y-69974265D01*
X136798705Y-69926455D01*
X139681048Y-69926455D01*
X139720730Y-70176449D01*
X139808422Y-70413896D01*
X139855799Y-70502534D01*
X140084473Y-70555922D01*
X140790395Y-69850000D01*
X140084473Y-69144078D01*
X139855799Y-69197466D01*
X139749905Y-69427374D01*
X139690898Y-69673524D01*
X139681048Y-69926455D01*
X136798705Y-69926455D01*
X136837101Y-69905932D01*
X137055608Y-69726608D01*
X137234932Y-69508101D01*
X137368182Y-69258808D01*
X137450236Y-68988309D01*
X137477943Y-68707000D01*
X137450236Y-68425691D01*
X137368182Y-68155192D01*
X137234932Y-67905899D01*
X137055608Y-67687392D01*
X136837101Y-67508068D01*
X136587808Y-67374818D01*
X136317309Y-67292764D01*
X136106492Y-67272000D01*
X135165508Y-67272000D01*
X134954691Y-67292764D01*
X134684192Y-67374818D01*
X134434899Y-67508068D01*
X134216392Y-67687392D01*
X134037068Y-67905899D01*
X133903818Y-68155192D01*
X133821764Y-68425691D01*
X133794057Y-68707000D01*
X122237943Y-68707000D01*
X122210236Y-68425691D01*
X122128182Y-68155192D01*
X121994932Y-67905899D01*
X121815608Y-67687392D01*
X121597101Y-67508068D01*
X121347808Y-67374818D01*
X121281300Y-67354643D01*
X121015101Y-67212357D01*
X120711615Y-67120295D01*
X120475094Y-67097000D01*
X116792083Y-67097000D01*
X116712999Y-67089211D01*
X116633915Y-67097000D01*
X116633906Y-67097000D01*
X116397385Y-67120295D01*
X116093899Y-67212357D01*
X115982315Y-67272000D01*
X115814203Y-67361857D01*
X115630485Y-67512631D01*
X115630482Y-67512634D01*
X115569050Y-67563050D01*
X115518633Y-67624483D01*
X114487490Y-68655627D01*
X114487485Y-68655631D01*
X112363117Y-70780000D01*
X109140906Y-70780000D01*
X108904385Y-70803295D01*
X108600899Y-70895357D01*
X108321204Y-71044857D01*
X108076050Y-71246050D01*
X107874857Y-71491204D01*
X107725357Y-71770899D01*
X107633295Y-72074385D01*
X107602210Y-72390000D01*
X107633295Y-72705615D01*
X107725357Y-73009101D01*
X107874857Y-73288796D01*
X108076050Y-73533950D01*
X108321204Y-73735143D01*
X108600899Y-73884643D01*
X108904385Y-73976705D01*
X109140906Y-74000000D01*
X112950916Y-74000000D01*
X112952920Y-74000197D01*
X112363117Y-74590000D01*
X105330906Y-74590000D01*
X105094385Y-74613295D01*
X104790899Y-74705357D01*
X104511204Y-74854857D01*
X104266050Y-75056050D01*
X104064857Y-75301204D01*
X103915357Y-75580899D01*
X103823295Y-75884385D01*
X103792210Y-76200000D01*
X103217790Y-76200000D01*
X103186705Y-75884385D01*
X103094643Y-75580899D01*
X102945143Y-75301204D01*
X102743950Y-75056050D01*
X102498796Y-74854857D01*
X102219101Y-74705357D01*
X101915615Y-74613295D01*
X101679094Y-74590000D01*
X96860000Y-74590000D01*
X96860000Y-73739084D01*
X96867789Y-73660000D01*
X96860000Y-73580916D01*
X96860000Y-73580906D01*
X96836705Y-73344385D01*
X96744643Y-73040899D01*
X96595144Y-72761205D01*
X96595143Y-72761203D01*
X96444370Y-72577486D01*
X96444366Y-72577482D01*
X96393950Y-72516050D01*
X96332519Y-72465635D01*
X93716883Y-69850000D01*
X95062518Y-68504366D01*
X95123950Y-68453950D01*
X95174366Y-68392518D01*
X95174369Y-68392515D01*
X95325143Y-68208797D01*
X95474642Y-67929103D01*
X95481681Y-67905899D01*
X95566705Y-67625615D01*
X95590000Y-67389094D01*
X95590000Y-67389085D01*
X95597789Y-67310001D01*
X95590000Y-67230917D01*
X95590000Y-62896883D01*
X95916884Y-62570000D01*
X98393117Y-62570000D01*
X101675634Y-65852518D01*
X101726050Y-65913950D01*
X101787482Y-65964366D01*
X101787486Y-65964370D01*
X101971203Y-66115143D01*
X102066444Y-66166050D01*
X102250899Y-66264643D01*
X102554385Y-66356705D01*
X102790906Y-66380000D01*
X102790916Y-66380000D01*
X102870000Y-66387789D01*
X102949084Y-66380000D01*
X137763117Y-66380000D01*
X138505634Y-67122517D01*
X138556050Y-67183950D01*
X138617482Y-67234366D01*
X138617485Y-67234369D01*
X138617491Y-67234374D01*
X139695128Y-68312011D01*
X139745549Y-68373449D01*
X139806985Y-68423868D01*
X139990702Y-68574642D01*
X140270397Y-68724141D01*
X140316895Y-68738246D01*
X140264078Y-68964473D01*
X140970000Y-69670395D01*
X140984143Y-69656253D01*
X141163748Y-69835858D01*
X141149605Y-69850000D01*
X141855527Y-70555922D01*
X141900001Y-70545539D01*
X141900000Y-72631653D01*
X141899370Y-72631023D01*
X141783097Y-72747296D01*
X141711514Y-72503329D01*
X141456004Y-72382429D01*
X141181816Y-72313700D01*
X140899488Y-72299783D01*
X140619870Y-72341213D01*
X140353708Y-72436397D01*
X140228486Y-72503329D01*
X140156903Y-72747298D01*
X140970000Y-73560395D01*
X140984143Y-73546253D01*
X141163748Y-73725858D01*
X141149605Y-73740000D01*
X141163748Y-73754143D01*
X140984143Y-73933748D01*
X140970000Y-73919605D01*
X140955858Y-73933748D01*
X140776253Y-73754143D01*
X140790395Y-73740000D01*
X139977298Y-72926903D01*
X139733329Y-72998486D01*
X139612429Y-73253996D01*
X139543700Y-73528184D01*
X139529783Y-73810512D01*
X139571213Y-74090130D01*
X139666397Y-74356292D01*
X139733329Y-74481514D01*
X139977296Y-74553097D01*
X139861023Y-74669370D01*
X139908653Y-74717000D01*
X137129147Y-74717000D01*
X137234932Y-74588101D01*
X137368182Y-74338808D01*
X137450236Y-74068309D01*
X137477943Y-73787000D01*
X137450236Y-73505691D01*
X137368182Y-73235192D01*
X137234932Y-72985899D01*
X137055608Y-72767392D01*
X136837101Y-72588068D01*
X136709259Y-72519735D01*
X136938839Y-72369601D01*
X137140500Y-72171895D01*
X137299715Y-71938646D01*
X137410367Y-71678818D01*
X137427904Y-71596039D01*
X137305915Y-71374000D01*
X135763000Y-71374000D01*
X135763000Y-71394000D01*
X135509000Y-71394000D01*
X135509000Y-71374000D01*
X133966085Y-71374000D01*
X133844096Y-71596039D01*
X133861633Y-71678818D01*
X133972285Y-71938646D01*
X134131500Y-72171895D01*
X134333161Y-72369601D01*
X134562741Y-72519735D01*
X134434899Y-72588068D01*
X134216392Y-72767392D01*
X134037068Y-72985899D01*
X133903818Y-73235192D01*
X133821764Y-73505691D01*
X133794057Y-73787000D01*
X133821764Y-74068309D01*
X133903818Y-74338808D01*
X134037068Y-74588101D01*
X134142853Y-74717000D01*
X130762084Y-74717000D01*
X130683000Y-74709211D01*
X130603916Y-74717000D01*
X130603906Y-74717000D01*
X130367385Y-74740295D01*
X130157544Y-74803950D01*
X130063898Y-74832357D01*
X129784203Y-74981857D01*
X129600486Y-75132630D01*
X129600482Y-75132634D01*
X129539050Y-75183050D01*
X129488634Y-75244482D01*
X125917488Y-78815629D01*
X125856050Y-78866050D01*
X125805631Y-78927486D01*
X125654857Y-79111204D01*
X125607879Y-79199094D01*
X125505357Y-79390900D01*
X125413295Y-79694386D01*
X125390000Y-79930907D01*
X125390000Y-79930916D01*
X125382211Y-80010000D01*
X125390000Y-80089084D01*
X125390001Y-106013115D01*
X122523117Y-108880000D01*
X93376884Y-108880000D01*
X91780000Y-107283117D01*
X91780000Y-104363147D01*
X91908900Y-104468932D01*
X92158193Y-104602182D01*
X92428692Y-104684236D01*
X92710000Y-104711943D01*
X92991309Y-104684236D01*
X93261808Y-104602182D01*
X93511101Y-104468932D01*
X93729608Y-104289608D01*
X93908932Y-104071101D01*
X93980000Y-103938142D01*
X94051068Y-104071101D01*
X94230393Y-104289608D01*
X94448900Y-104468932D01*
X94698193Y-104602182D01*
X94968692Y-104684236D01*
X95250000Y-104711943D01*
X95531309Y-104684236D01*
X95801808Y-104602182D01*
X96051101Y-104468932D01*
X96269608Y-104289608D01*
X96448932Y-104071101D01*
X96517265Y-103943259D01*
X96667399Y-104172839D01*
X96865105Y-104374500D01*
X97098354Y-104533715D01*
X97358182Y-104644367D01*
X97440961Y-104661904D01*
X97663000Y-104539915D01*
X97663000Y-102997000D01*
X97917000Y-102997000D01*
X97917000Y-104539915D01*
X98139039Y-104661904D01*
X98221818Y-104644367D01*
X98481646Y-104533715D01*
X98714895Y-104374500D01*
X98912601Y-104172839D01*
X99067166Y-103936483D01*
X99172650Y-103674514D01*
X99225000Y-103397000D01*
X99225000Y-102997000D01*
X97917000Y-102997000D01*
X97663000Y-102997000D01*
X97643000Y-102997000D01*
X97643000Y-102743000D01*
X97663000Y-102743000D01*
X97663000Y-102723000D01*
X97917000Y-102723000D01*
X97917000Y-102743000D01*
X99225000Y-102743000D01*
X99225000Y-102343000D01*
X99172650Y-102065486D01*
X99067166Y-101803517D01*
X99052434Y-101780990D01*
X108981906Y-101780990D01*
X109060990Y-101788779D01*
X109140074Y-101780990D01*
X109140084Y-101780990D01*
X109376605Y-101757695D01*
X109680091Y-101665633D01*
X109959786Y-101516133D01*
X110204940Y-101314940D01*
X110255361Y-101253502D01*
X115918864Y-95590000D01*
X119021954Y-95590000D01*
X118976392Y-95627392D01*
X118797068Y-95845899D01*
X118663818Y-96095192D01*
X118581764Y-96365691D01*
X118554057Y-96647000D01*
X118581764Y-96928309D01*
X118663818Y-97198808D01*
X118797068Y-97448101D01*
X118976392Y-97666608D01*
X119194899Y-97845932D01*
X119327858Y-97917000D01*
X119194899Y-97988068D01*
X118976392Y-98167392D01*
X118797068Y-98385899D01*
X118663818Y-98635192D01*
X118581764Y-98905691D01*
X118554057Y-99187000D01*
X118581764Y-99468309D01*
X118663818Y-99738808D01*
X118797068Y-99988101D01*
X118976392Y-100206608D01*
X119194899Y-100385932D01*
X119327858Y-100457000D01*
X119194899Y-100528068D01*
X118976392Y-100707392D01*
X118797068Y-100925899D01*
X118663818Y-101175192D01*
X118581764Y-101445691D01*
X118554057Y-101727000D01*
X118581764Y-102008309D01*
X118663818Y-102278808D01*
X118797068Y-102528101D01*
X118976392Y-102746608D01*
X119194899Y-102925932D01*
X119327858Y-102997000D01*
X119194899Y-103068068D01*
X118976392Y-103247392D01*
X118797068Y-103465899D01*
X118663818Y-103715192D01*
X118581764Y-103985691D01*
X118554057Y-104267000D01*
X118581764Y-104548309D01*
X118663818Y-104818808D01*
X118797068Y-105068101D01*
X118976392Y-105286608D01*
X119194899Y-105465932D01*
X119444192Y-105599182D01*
X119714691Y-105681236D01*
X119925508Y-105702000D01*
X120866492Y-105702000D01*
X121077309Y-105681236D01*
X121347808Y-105599182D01*
X121597101Y-105465932D01*
X121815608Y-105286608D01*
X121994932Y-105068101D01*
X122128182Y-104818808D01*
X122210236Y-104548309D01*
X122237943Y-104267000D01*
X122210236Y-103985691D01*
X122128182Y-103715192D01*
X121994932Y-103465899D01*
X121815608Y-103247392D01*
X121597101Y-103068068D01*
X121464142Y-102997000D01*
X121597101Y-102925932D01*
X121815608Y-102746608D01*
X121994932Y-102528101D01*
X122128182Y-102278808D01*
X122210236Y-102008309D01*
X122237943Y-101727000D01*
X122210236Y-101445691D01*
X122128182Y-101175192D01*
X121994932Y-100925899D01*
X121815608Y-100707392D01*
X121597101Y-100528068D01*
X121464142Y-100457000D01*
X121597101Y-100385932D01*
X121815608Y-100206608D01*
X121994932Y-99988101D01*
X122128182Y-99738808D01*
X122210236Y-99468309D01*
X122237943Y-99187000D01*
X122210236Y-98905691D01*
X122128182Y-98635192D01*
X121994932Y-98385899D01*
X121815608Y-98167392D01*
X121597101Y-97988068D01*
X121464142Y-97917000D01*
X121597101Y-97845932D01*
X121815608Y-97666608D01*
X121994932Y-97448101D01*
X122128182Y-97198808D01*
X122210236Y-96928309D01*
X122237943Y-96647000D01*
X122210236Y-96365691D01*
X122128182Y-96095192D01*
X121994932Y-95845899D01*
X121815608Y-95627392D01*
X121597101Y-95448068D01*
X121464142Y-95377000D01*
X121597101Y-95305932D01*
X121815608Y-95126608D01*
X121994932Y-94908101D01*
X122128182Y-94658808D01*
X122210236Y-94388309D01*
X122237943Y-94107000D01*
X122210236Y-93825691D01*
X122128182Y-93555192D01*
X121994932Y-93305899D01*
X121815608Y-93087392D01*
X121597101Y-92908068D01*
X121464142Y-92837000D01*
X121597101Y-92765932D01*
X121815608Y-92586608D01*
X121994932Y-92368101D01*
X122128182Y-92118808D01*
X122210236Y-91848309D01*
X122237943Y-91567000D01*
X122210236Y-91285691D01*
X122128182Y-91015192D01*
X121994932Y-90765899D01*
X121815608Y-90547392D01*
X121597101Y-90368068D01*
X121464142Y-90297000D01*
X121597101Y-90225932D01*
X121815608Y-90046608D01*
X121994932Y-89828101D01*
X122128182Y-89578808D01*
X122210236Y-89308309D01*
X122237943Y-89027000D01*
X122210236Y-88745691D01*
X122128182Y-88475192D01*
X121994932Y-88225899D01*
X121815608Y-88007392D01*
X121597101Y-87828068D01*
X121464142Y-87757000D01*
X121597101Y-87685932D01*
X121815608Y-87506608D01*
X121994932Y-87288101D01*
X122128182Y-87038808D01*
X122210236Y-86768309D01*
X122237943Y-86487000D01*
X122210236Y-86205691D01*
X122128182Y-85935192D01*
X121994932Y-85685899D01*
X121815608Y-85467392D01*
X121597101Y-85288068D01*
X121464142Y-85217000D01*
X121597101Y-85145932D01*
X121815608Y-84966608D01*
X121994932Y-84748101D01*
X122128182Y-84498808D01*
X122210236Y-84228309D01*
X122237943Y-83947000D01*
X122210236Y-83665691D01*
X122128182Y-83395192D01*
X121994932Y-83145899D01*
X121815608Y-82927392D01*
X121597101Y-82748068D01*
X121464142Y-82677000D01*
X121597101Y-82605932D01*
X121815608Y-82426608D01*
X121994932Y-82208101D01*
X122128182Y-81958808D01*
X122210236Y-81688309D01*
X122237943Y-81407000D01*
X122210236Y-81125691D01*
X122128182Y-80855192D01*
X121994932Y-80605899D01*
X121815608Y-80387392D01*
X121597101Y-80208068D01*
X121464142Y-80137000D01*
X121597101Y-80065932D01*
X121815608Y-79886608D01*
X121994932Y-79668101D01*
X122128182Y-79418808D01*
X122210236Y-79148309D01*
X122237943Y-78867000D01*
X122210236Y-78585691D01*
X122128182Y-78315192D01*
X121994932Y-78065899D01*
X121815608Y-77847392D01*
X121597101Y-77668068D01*
X121469259Y-77599735D01*
X121698839Y-77449601D01*
X121900500Y-77251895D01*
X122059715Y-77018646D01*
X122170367Y-76758818D01*
X122187904Y-76676039D01*
X122065915Y-76454000D01*
X120523000Y-76454000D01*
X120523000Y-76474000D01*
X120269000Y-76474000D01*
X120269000Y-76454000D01*
X118726085Y-76454000D01*
X118604096Y-76676039D01*
X118621633Y-76758818D01*
X118732285Y-77018646D01*
X118891500Y-77251895D01*
X119093161Y-77449601D01*
X119322741Y-77599735D01*
X119194899Y-77668068D01*
X118976392Y-77847392D01*
X118797068Y-78065899D01*
X118663818Y-78315192D01*
X118581764Y-78585691D01*
X118554057Y-78867000D01*
X118581764Y-79148309D01*
X118663818Y-79418808D01*
X118797068Y-79668101D01*
X118976392Y-79886608D01*
X119194899Y-80065932D01*
X119327858Y-80137000D01*
X119194899Y-80208068D01*
X118976392Y-80387392D01*
X118797068Y-80605899D01*
X118663818Y-80855192D01*
X118581764Y-81125691D01*
X118554057Y-81407000D01*
X118581764Y-81688309D01*
X118663818Y-81958808D01*
X118797068Y-82208101D01*
X118976392Y-82426608D01*
X119194899Y-82605932D01*
X119327858Y-82677000D01*
X119194899Y-82748068D01*
X118976392Y-82927392D01*
X118797068Y-83145899D01*
X118663818Y-83395192D01*
X118581764Y-83665691D01*
X118554057Y-83947000D01*
X118581764Y-84228309D01*
X118663818Y-84498808D01*
X118797068Y-84748101D01*
X118976392Y-84966608D01*
X119194899Y-85145932D01*
X119327858Y-85217000D01*
X119194899Y-85288068D01*
X118976392Y-85467392D01*
X118797068Y-85685899D01*
X118663818Y-85935192D01*
X118581764Y-86205691D01*
X118554057Y-86487000D01*
X118581764Y-86768309D01*
X118663818Y-87038808D01*
X118797068Y-87288101D01*
X118976392Y-87506608D01*
X119194899Y-87685932D01*
X119327858Y-87757000D01*
X119194899Y-87828068D01*
X118976392Y-88007392D01*
X118797068Y-88225899D01*
X118663818Y-88475192D01*
X118581764Y-88745691D01*
X118554057Y-89027000D01*
X118581764Y-89308309D01*
X118663818Y-89578808D01*
X118797068Y-89828101D01*
X118902853Y-89957000D01*
X114252084Y-89957000D01*
X114173000Y-89949211D01*
X114093916Y-89957000D01*
X114093906Y-89957000D01*
X113857385Y-89980295D01*
X113553899Y-90072357D01*
X113442315Y-90132000D01*
X113274203Y-90221857D01*
X113090485Y-90372631D01*
X113090482Y-90372634D01*
X113029050Y-90423050D01*
X112978634Y-90484482D01*
X107283117Y-96180000D01*
X95329083Y-96180000D01*
X95249999Y-96172211D01*
X95170915Y-96180000D01*
X95170906Y-96180000D01*
X94934385Y-96203295D01*
X94630899Y-96295357D01*
X94630897Y-96295358D01*
X94351203Y-96444857D01*
X94322693Y-96468255D01*
X94320000Y-96440917D01*
X94320000Y-95318797D01*
X94568691Y-95394236D01*
X94779508Y-95415000D01*
X95720492Y-95415000D01*
X95931309Y-95394236D01*
X96201808Y-95312182D01*
X96451101Y-95178932D01*
X96669608Y-94999608D01*
X96848932Y-94781101D01*
X96982182Y-94531808D01*
X97064236Y-94261309D01*
X97091943Y-93980000D01*
X97064236Y-93698691D01*
X96982182Y-93428192D01*
X96848932Y-93178899D01*
X96669608Y-92960392D01*
X96451101Y-92781068D01*
X96318142Y-92710000D01*
X96451101Y-92638932D01*
X96669608Y-92459608D01*
X96848932Y-92241101D01*
X96982182Y-91991808D01*
X97064236Y-91721309D01*
X97091943Y-91440000D01*
X97064236Y-91158691D01*
X96982182Y-90888192D01*
X96848932Y-90638899D01*
X96743147Y-90510000D01*
X105330916Y-90510000D01*
X105410000Y-90517789D01*
X105489084Y-90510000D01*
X105489094Y-90510000D01*
X105725615Y-90486705D01*
X106029101Y-90394643D01*
X106308796Y-90245143D01*
X106553950Y-90043950D01*
X106604371Y-89982512D01*
X110302519Y-86284365D01*
X110363950Y-86233950D01*
X110414366Y-86172518D01*
X110414370Y-86172514D01*
X110565143Y-85988797D01*
X110661678Y-85808192D01*
X110714643Y-85709101D01*
X110806705Y-85405615D01*
X110830000Y-85169094D01*
X110830000Y-85169084D01*
X110837789Y-85090000D01*
X110830000Y-85010916D01*
X110830000Y-83740906D01*
X110806705Y-83504385D01*
X110714643Y-83200899D01*
X110565143Y-82921204D01*
X110363950Y-82676050D01*
X110118796Y-82474857D01*
X109839101Y-82325357D01*
X109535615Y-82233295D01*
X109220000Y-82202210D01*
X108904386Y-82233295D01*
X108600900Y-82325357D01*
X108321205Y-82474857D01*
X108076051Y-82676050D01*
X107874858Y-82921204D01*
X107725357Y-83200899D01*
X107633295Y-83504385D01*
X107610000Y-83740906D01*
X107610000Y-84423116D01*
X107020197Y-85012919D01*
X107020000Y-85010917D01*
X107020000Y-83740906D01*
X106996705Y-83504385D01*
X106904643Y-83200899D01*
X106848072Y-83095062D01*
X106848072Y-83020000D01*
X106835812Y-82895518D01*
X106799502Y-82775820D01*
X106740537Y-82665506D01*
X106661185Y-82568815D01*
X106564494Y-82489463D01*
X106454180Y-82430498D01*
X106334482Y-82394188D01*
X106210000Y-82381928D01*
X106134938Y-82381928D01*
X106029101Y-82325357D01*
X105725615Y-82233295D01*
X105410000Y-82202210D01*
X105094386Y-82233295D01*
X104790900Y-82325357D01*
X104685063Y-82381928D01*
X104610000Y-82381928D01*
X104485518Y-82394188D01*
X104365820Y-82430498D01*
X104255506Y-82489463D01*
X104158815Y-82568815D01*
X104079463Y-82665506D01*
X104020498Y-82775820D01*
X103984188Y-82895518D01*
X103971928Y-83020000D01*
X103971928Y-83095063D01*
X103915357Y-83200899D01*
X103823295Y-83504385D01*
X103800000Y-83740906D01*
X103800000Y-84423116D01*
X103473117Y-84750000D01*
X96743147Y-84750000D01*
X96848932Y-84621101D01*
X96982182Y-84371808D01*
X97064236Y-84101309D01*
X97091943Y-83820000D01*
X97064236Y-83538691D01*
X96982182Y-83268192D01*
X96848932Y-83018899D01*
X96669608Y-82800392D01*
X96451101Y-82621068D01*
X96318142Y-82550000D01*
X96451101Y-82478932D01*
X96669608Y-82299608D01*
X96757343Y-82192702D01*
X100786903Y-82192702D01*
X100858486Y-82436671D01*
X101113996Y-82557571D01*
X101388184Y-82626300D01*
X101670512Y-82640217D01*
X101950130Y-82598787D01*
X102216292Y-82503603D01*
X102341514Y-82436671D01*
X102413097Y-82192702D01*
X101600000Y-81379605D01*
X100786903Y-82192702D01*
X96757343Y-82192702D01*
X96848932Y-82081101D01*
X96982182Y-81831808D01*
X97064236Y-81561309D01*
X97091943Y-81280000D01*
X97091009Y-81270512D01*
X100159783Y-81270512D01*
X100201213Y-81550130D01*
X100296397Y-81816292D01*
X100363329Y-81941514D01*
X100607298Y-82013097D01*
X101420395Y-81200000D01*
X101779605Y-81200000D01*
X102592702Y-82013097D01*
X102836671Y-81941514D01*
X102957571Y-81686004D01*
X103026300Y-81411816D01*
X103040217Y-81129488D01*
X102998787Y-80849870D01*
X102903603Y-80583708D01*
X102836671Y-80458486D01*
X102592702Y-80386903D01*
X101779605Y-81200000D01*
X101420395Y-81200000D01*
X100607298Y-80386903D01*
X100363329Y-80458486D01*
X100242429Y-80713996D01*
X100173700Y-80988184D01*
X100159783Y-81270512D01*
X97091009Y-81270512D01*
X97064236Y-80998691D01*
X96982182Y-80728192D01*
X96848932Y-80478899D01*
X96669608Y-80260392D01*
X96604913Y-80207298D01*
X100786903Y-80207298D01*
X101600000Y-81020395D01*
X102413097Y-80207298D01*
X102341514Y-79963329D01*
X102086004Y-79842429D01*
X101811816Y-79773700D01*
X101529488Y-79759783D01*
X101249870Y-79801213D01*
X100983708Y-79896397D01*
X100858486Y-79963329D01*
X100786903Y-80207298D01*
X96604913Y-80207298D01*
X96451101Y-80081068D01*
X96323259Y-80012735D01*
X96552839Y-79862601D01*
X96754500Y-79664895D01*
X96913715Y-79431646D01*
X97024367Y-79171818D01*
X97041904Y-79089039D01*
X96919915Y-78867000D01*
X95377000Y-78867000D01*
X95377000Y-78887000D01*
X95123000Y-78887000D01*
X95123000Y-78867000D01*
X93580085Y-78867000D01*
X93458096Y-79089039D01*
X93475633Y-79171818D01*
X93586285Y-79431646D01*
X93745500Y-79664895D01*
X93750707Y-79670000D01*
X92789083Y-79670000D01*
X92709999Y-79662211D01*
X92630915Y-79670000D01*
X92630906Y-79670000D01*
X92394385Y-79693295D01*
X92090899Y-79785357D01*
X92090897Y-79785358D01*
X91811203Y-79934857D01*
X91627485Y-80085631D01*
X91627482Y-80085634D01*
X91566050Y-80136050D01*
X91515634Y-80197482D01*
X89087483Y-82625634D01*
X89026051Y-82676050D01*
X88975635Y-82737482D01*
X88975631Y-82737486D01*
X88974555Y-82738797D01*
X88831101Y-82621068D01*
X88698142Y-82550000D01*
X88831101Y-82478932D01*
X89049608Y-82299608D01*
X89228932Y-82081101D01*
X89362182Y-81831808D01*
X89444236Y-81561309D01*
X89471943Y-81280000D01*
X89444236Y-80998691D01*
X89362182Y-80728192D01*
X89228932Y-80478899D01*
X89049608Y-80260392D01*
X88831101Y-80081068D01*
X88698142Y-80010000D01*
X88831101Y-79938932D01*
X89049608Y-79759608D01*
X89228932Y-79541101D01*
X89362182Y-79291808D01*
X89444236Y-79021309D01*
X89471943Y-78740000D01*
X89444236Y-78458691D01*
X89362182Y-78188192D01*
X89228932Y-77938899D01*
X89049608Y-77720392D01*
X88936518Y-77627581D01*
X88954482Y-77625812D01*
X89074180Y-77589502D01*
X89184494Y-77530537D01*
X89281185Y-77451185D01*
X89360537Y-77354494D01*
X89419502Y-77244180D01*
X89455812Y-77124482D01*
X89468072Y-77000000D01*
X89468072Y-75400000D01*
X89455812Y-75275518D01*
X89419502Y-75155820D01*
X89360537Y-75045506D01*
X89281185Y-74948815D01*
X89184494Y-74869463D01*
X89074180Y-74810498D01*
X88954482Y-74774188D01*
X88830000Y-74761928D01*
X88354938Y-74761928D01*
X88249101Y-74705357D01*
X87945615Y-74613295D01*
X87709094Y-74590000D01*
X81200906Y-74590000D01*
X80964385Y-74613295D01*
X80660899Y-74705357D01*
X80381204Y-74854857D01*
X80136050Y-75056050D01*
X79934857Y-75301204D01*
X79867854Y-75426558D01*
X79732702Y-75386903D01*
X78919605Y-76200000D01*
X78933748Y-76214143D01*
X78754143Y-76393748D01*
X78740000Y-76379605D01*
X77926903Y-77192702D01*
X77998486Y-77436671D01*
X78253996Y-77557571D01*
X78528184Y-77626300D01*
X78810512Y-77640217D01*
X78832473Y-77636963D01*
X78815634Y-77657483D01*
X77657487Y-78815630D01*
X77596050Y-78866050D01*
X77545631Y-78927486D01*
X77394857Y-79111204D01*
X77347879Y-79199094D01*
X77245357Y-79390900D01*
X77153295Y-79694386D01*
X77130000Y-79930907D01*
X77130000Y-79930916D01*
X77122211Y-80010000D01*
X77130000Y-80089084D01*
X77130000Y-81279094D01*
X77153295Y-81515615D01*
X77245357Y-81819101D01*
X77394858Y-82098796D01*
X77596051Y-82343950D01*
X77841205Y-82545143D01*
X77986849Y-82622991D01*
X77926903Y-82827298D01*
X78740000Y-83640395D01*
X79553097Y-82827298D01*
X79493151Y-82622992D01*
X79638796Y-82545143D01*
X79883950Y-82343950D01*
X80010000Y-82190358D01*
X80136050Y-82343950D01*
X80338382Y-82510000D01*
X80136050Y-82676050D01*
X79934857Y-82921204D01*
X79867854Y-83046558D01*
X79732702Y-83006903D01*
X78919605Y-83820000D01*
X79732702Y-84633097D01*
X79867854Y-84593442D01*
X79934857Y-84718796D01*
X80136050Y-84963950D01*
X80381204Y-85165143D01*
X80660899Y-85314643D01*
X80964385Y-85406705D01*
X81200906Y-85430000D01*
X82393116Y-85430000D01*
X80085631Y-87737486D01*
X80010000Y-87829642D01*
X79883950Y-87676050D01*
X79638795Y-87474857D01*
X79359100Y-87325357D01*
X79055614Y-87233295D01*
X78740000Y-87202210D01*
X78424385Y-87233295D01*
X78120899Y-87325357D01*
X77841204Y-87474857D01*
X77596050Y-87676050D01*
X77394857Y-87921205D01*
X77245357Y-88200900D01*
X77153295Y-88504386D01*
X77130000Y-88740907D01*
X77130000Y-90090916D01*
X77122211Y-90170000D01*
X77130000Y-90249084D01*
X77130000Y-90249094D01*
X77153295Y-90485615D01*
X77208684Y-90668204D01*
X77245358Y-90789101D01*
X77394857Y-91068796D01*
X77545631Y-91252514D01*
X77545635Y-91252518D01*
X77596051Y-91313950D01*
X77657483Y-91364366D01*
X78815634Y-92522517D01*
X78866050Y-92583950D01*
X78927482Y-92634366D01*
X78927485Y-92634369D01*
X79111203Y-92785143D01*
X79206444Y-92836050D01*
X79390899Y-92934643D01*
X79694385Y-93026705D01*
X79930906Y-93050000D01*
X79930915Y-93050000D01*
X80009999Y-93057789D01*
X80089083Y-93050000D01*
X82470916Y-93050000D01*
X82550000Y-93057789D01*
X82629084Y-93050000D01*
X82629094Y-93050000D01*
X82865615Y-93026705D01*
X83169101Y-92934643D01*
X83448796Y-92785143D01*
X83693950Y-92583950D01*
X83744370Y-92522513D01*
X85756884Y-90510000D01*
X86136853Y-90510000D01*
X86031068Y-90638899D01*
X85897818Y-90888192D01*
X85815764Y-91158691D01*
X85788057Y-91440000D01*
X85815764Y-91721309D01*
X85897818Y-91991808D01*
X86031068Y-92241101D01*
X86210392Y-92459608D01*
X86428899Y-92638932D01*
X86561858Y-92710000D01*
X86428899Y-92781068D01*
X86210392Y-92960392D01*
X86031068Y-93178899D01*
X85897818Y-93428192D01*
X85815764Y-93698691D01*
X85788057Y-93980000D01*
X85815764Y-94261309D01*
X85897818Y-94531808D01*
X86031068Y-94781101D01*
X86136853Y-94910000D01*
X79406884Y-94910000D01*
X71683794Y-87186911D01*
X71662561Y-87080166D01*
X71520466Y-86737118D01*
X71314175Y-86428382D01*
X71051618Y-86165825D01*
X70742882Y-85959534D01*
X70399834Y-85817439D01*
X70035656Y-85745000D01*
X69664344Y-85745000D01*
X69300166Y-85817439D01*
X68957118Y-85959534D01*
X68648382Y-86165825D01*
X68385825Y-86428382D01*
X68179534Y-86737118D01*
X68037439Y-87080166D01*
X67965000Y-87444344D01*
X64185000Y-87444344D01*
X64185000Y-84812702D01*
X77926903Y-84812702D01*
X77998486Y-85056671D01*
X78253996Y-85177571D01*
X78528184Y-85246300D01*
X78810512Y-85260217D01*
X79090130Y-85218787D01*
X79356292Y-85123603D01*
X79481514Y-85056671D01*
X79553097Y-84812702D01*
X78740000Y-83999605D01*
X77926903Y-84812702D01*
X64185000Y-84812702D01*
X64185000Y-82364344D01*
X67965000Y-82364344D01*
X67965000Y-82735656D01*
X68037439Y-83099834D01*
X68179534Y-83442882D01*
X68385825Y-83751618D01*
X68648382Y-84014175D01*
X68957118Y-84220466D01*
X69300166Y-84362561D01*
X69664344Y-84435000D01*
X70035656Y-84435000D01*
X70399834Y-84362561D01*
X70742882Y-84220466D01*
X71051618Y-84014175D01*
X71175281Y-83890512D01*
X77299783Y-83890512D01*
X77341213Y-84170130D01*
X77436397Y-84436292D01*
X77503329Y-84561514D01*
X77747298Y-84633097D01*
X78560395Y-83820000D01*
X77747298Y-83006903D01*
X77503329Y-83078486D01*
X77382429Y-83333996D01*
X77313700Y-83608184D01*
X77299783Y-83890512D01*
X71175281Y-83890512D01*
X71314175Y-83751618D01*
X71520466Y-83442882D01*
X71662561Y-83099834D01*
X71735000Y-82735656D01*
X71735000Y-82364344D01*
X71662561Y-82000166D01*
X71520466Y-81657118D01*
X71314175Y-81348382D01*
X71051618Y-81085825D01*
X70742882Y-80879534D01*
X70399834Y-80737439D01*
X70035656Y-80665000D01*
X69664344Y-80665000D01*
X69300166Y-80737439D01*
X68957118Y-80879534D01*
X68648382Y-81085825D01*
X68385825Y-81348382D01*
X68179534Y-81657118D01*
X68037439Y-82000166D01*
X67965000Y-82364344D01*
X64185000Y-82364344D01*
X64185000Y-78783605D01*
X68716000Y-78783605D01*
X68841914Y-79073577D01*
X69174126Y-79239433D01*
X69532312Y-79337290D01*
X69902706Y-79363389D01*
X70271075Y-79316725D01*
X70623262Y-79199094D01*
X70858086Y-79073577D01*
X70984000Y-78783605D01*
X69850000Y-77649605D01*
X68716000Y-78783605D01*
X64185000Y-78783605D01*
X64185000Y-77522706D01*
X67956611Y-77522706D01*
X68003275Y-77891075D01*
X68120906Y-78243262D01*
X68246423Y-78478086D01*
X68536395Y-78604000D01*
X69670395Y-77470000D01*
X70029605Y-77470000D01*
X71163605Y-78604000D01*
X71453577Y-78478086D01*
X71619433Y-78145874D01*
X71717290Y-77787688D01*
X71743389Y-77417294D01*
X71696725Y-77048925D01*
X71579094Y-76696738D01*
X71453577Y-76461914D01*
X71163605Y-76336000D01*
X70029605Y-77470000D01*
X69670395Y-77470000D01*
X68536395Y-76336000D01*
X68246423Y-76461914D01*
X68080567Y-76794126D01*
X67982710Y-77152312D01*
X67956611Y-77522706D01*
X64185000Y-77522706D01*
X64185000Y-76156395D01*
X68716000Y-76156395D01*
X69850000Y-77290395D01*
X70869883Y-76270512D01*
X77299783Y-76270512D01*
X77341213Y-76550130D01*
X77436397Y-76816292D01*
X77503329Y-76941514D01*
X77747298Y-77013097D01*
X78560395Y-76200000D01*
X77747298Y-75386903D01*
X77503329Y-75458486D01*
X77382429Y-75713996D01*
X77313700Y-75988184D01*
X77299783Y-76270512D01*
X70869883Y-76270512D01*
X70984000Y-76156395D01*
X70858086Y-75866423D01*
X70525874Y-75700567D01*
X70167688Y-75602710D01*
X69797294Y-75576611D01*
X69428925Y-75623275D01*
X69076738Y-75740906D01*
X68841914Y-75866423D01*
X68716000Y-76156395D01*
X64185000Y-76156395D01*
X64185000Y-75207298D01*
X77926903Y-75207298D01*
X78740000Y-76020395D01*
X79553097Y-75207298D01*
X79481514Y-74963329D01*
X79226004Y-74842429D01*
X78951816Y-74773700D01*
X78669488Y-74759783D01*
X78389870Y-74801213D01*
X78123708Y-74896397D01*
X77998486Y-74963329D01*
X77926903Y-75207298D01*
X64185000Y-75207298D01*
X64185000Y-71140000D01*
X67961928Y-71140000D01*
X67961928Y-73640000D01*
X67974188Y-73764482D01*
X68010498Y-73884180D01*
X68069463Y-73994494D01*
X68148815Y-74091185D01*
X68245506Y-74170537D01*
X68355820Y-74229502D01*
X68475518Y-74265812D01*
X68600000Y-74278072D01*
X71100000Y-74278072D01*
X71224482Y-74265812D01*
X71344180Y-74229502D01*
X71454494Y-74170537D01*
X71551185Y-74091185D01*
X71630537Y-73994494D01*
X71689502Y-73884180D01*
X71725812Y-73764482D01*
X71738072Y-73640000D01*
X71738072Y-72778811D01*
X78135776Y-66381108D01*
X78137168Y-66380686D01*
X78438578Y-66219579D01*
X78702766Y-66002766D01*
X78834126Y-65842702D01*
X84276903Y-65842702D01*
X84348486Y-66086671D01*
X84603996Y-66207571D01*
X84878184Y-66276300D01*
X85160512Y-66290217D01*
X85440130Y-66248787D01*
X85706292Y-66153603D01*
X85831514Y-66086671D01*
X85903097Y-65842702D01*
X85090000Y-65029605D01*
X84276903Y-65842702D01*
X78834126Y-65842702D01*
X78919579Y-65738578D01*
X79080686Y-65437168D01*
X79179895Y-65110119D01*
X79198569Y-64920512D01*
X83649783Y-64920512D01*
X83691213Y-65200130D01*
X83786397Y-65466292D01*
X83853329Y-65591514D01*
X84097298Y-65663097D01*
X84910395Y-64850000D01*
X85269605Y-64850000D01*
X86082702Y-65663097D01*
X86326671Y-65591514D01*
X86447571Y-65336004D01*
X86516300Y-65061816D01*
X86523265Y-64920512D01*
X89999783Y-64920512D01*
X90041213Y-65200130D01*
X90136397Y-65466292D01*
X90203329Y-65591514D01*
X90447298Y-65663097D01*
X91260395Y-64850000D01*
X90447298Y-64036903D01*
X90203329Y-64108486D01*
X90082429Y-64363996D01*
X90013700Y-64638184D01*
X89999783Y-64920512D01*
X86523265Y-64920512D01*
X86530217Y-64779488D01*
X86488787Y-64499870D01*
X86393603Y-64233708D01*
X86326671Y-64108486D01*
X86082702Y-64036903D01*
X85269605Y-64850000D01*
X84910395Y-64850000D01*
X84097298Y-64036903D01*
X83853329Y-64108486D01*
X83732429Y-64363996D01*
X83663700Y-64638184D01*
X83649783Y-64920512D01*
X79198569Y-64920512D01*
X79213394Y-64770000D01*
X79179895Y-64429881D01*
X79080686Y-64102832D01*
X78949446Y-63857298D01*
X84276903Y-63857298D01*
X85090000Y-64670395D01*
X85903097Y-63857298D01*
X85831514Y-63613329D01*
X85576004Y-63492429D01*
X85301816Y-63423700D01*
X85019488Y-63409783D01*
X84739870Y-63451213D01*
X84473708Y-63546397D01*
X84348486Y-63613329D01*
X84276903Y-63857298D01*
X78949446Y-63857298D01*
X78919579Y-63801422D01*
X78702766Y-63537234D01*
X78438578Y-63320421D01*
X78137168Y-63159314D01*
X77810119Y-63060105D01*
X77555225Y-63035000D01*
X77384775Y-63035000D01*
X77129881Y-63060105D01*
X76802832Y-63159314D01*
X76501422Y-63320421D01*
X76237234Y-63537234D01*
X76020421Y-63801422D01*
X75859314Y-64102832D01*
X75858892Y-64104224D01*
X69461189Y-70501928D01*
X68600000Y-70501928D01*
X68475518Y-70514188D01*
X68355820Y-70550498D01*
X68245506Y-70609463D01*
X68148815Y-70688815D01*
X68069463Y-70785506D01*
X68010498Y-70895820D01*
X67974188Y-71015518D01*
X67961928Y-71140000D01*
X64185000Y-71140000D01*
X64185000Y-60602702D01*
X84276903Y-60602702D01*
X84348486Y-60846671D01*
X84603996Y-60967571D01*
X84878184Y-61036300D01*
X85160512Y-61050217D01*
X85440130Y-61008787D01*
X85706292Y-60913603D01*
X85831514Y-60846671D01*
X85903097Y-60602702D01*
X90626903Y-60602702D01*
X90698486Y-60846671D01*
X90953996Y-60967571D01*
X91228184Y-61036300D01*
X91510512Y-61050217D01*
X91790130Y-61008787D01*
X92056292Y-60913603D01*
X92181514Y-60846671D01*
X92253097Y-60602702D01*
X91440000Y-59789605D01*
X90626903Y-60602702D01*
X85903097Y-60602702D01*
X85090000Y-59789605D01*
X84276903Y-60602702D01*
X64185000Y-60602702D01*
X64185000Y-59680512D01*
X83649783Y-59680512D01*
X83691213Y-59960130D01*
X83786397Y-60226292D01*
X83853329Y-60351514D01*
X84097298Y-60423097D01*
X84910395Y-59610000D01*
X85269605Y-59610000D01*
X86082702Y-60423097D01*
X86326671Y-60351514D01*
X86447571Y-60096004D01*
X86516300Y-59821816D01*
X86523265Y-59680512D01*
X89999783Y-59680512D01*
X90041213Y-59960130D01*
X90136397Y-60226292D01*
X90203329Y-60351514D01*
X90447298Y-60423097D01*
X91260395Y-59610000D01*
X91619605Y-59610000D01*
X92432702Y-60423097D01*
X92676671Y-60351514D01*
X92797571Y-60096004D01*
X92866300Y-59821816D01*
X92880217Y-59539488D01*
X92838787Y-59259870D01*
X92743603Y-58993708D01*
X92676671Y-58868486D01*
X92432702Y-58796903D01*
X91619605Y-59610000D01*
X91260395Y-59610000D01*
X90447298Y-58796903D01*
X90203329Y-58868486D01*
X90082429Y-59123996D01*
X90013700Y-59398184D01*
X89999783Y-59680512D01*
X86523265Y-59680512D01*
X86530217Y-59539488D01*
X86488787Y-59259870D01*
X86393603Y-58993708D01*
X86326671Y-58868486D01*
X86082702Y-58796903D01*
X85269605Y-59610000D01*
X84910395Y-59610000D01*
X84097298Y-58796903D01*
X83853329Y-58868486D01*
X83732429Y-59123996D01*
X83663700Y-59398184D01*
X83649783Y-59680512D01*
X64185000Y-59680512D01*
X64185000Y-58617298D01*
X84276903Y-58617298D01*
X85090000Y-59430395D01*
X85903097Y-58617298D01*
X90626903Y-58617298D01*
X91440000Y-59430395D01*
X92253097Y-58617298D01*
X92195208Y-58420000D01*
X110783461Y-58420000D01*
X110829510Y-58887542D01*
X110965887Y-59337116D01*
X111187351Y-59751446D01*
X111485391Y-60114609D01*
X111848554Y-60412649D01*
X112262884Y-60634113D01*
X112712458Y-60770490D01*
X113062843Y-60805000D01*
X113297157Y-60805000D01*
X113647542Y-60770490D01*
X114097116Y-60634113D01*
X114511446Y-60412649D01*
X114874609Y-60114609D01*
X115172649Y-59751446D01*
X115394113Y-59337116D01*
X115530490Y-58887542D01*
X115576539Y-58420000D01*
X115530490Y-57952458D01*
X115394113Y-57502884D01*
X115172649Y-57088554D01*
X114874609Y-56725391D01*
X114511446Y-56427351D01*
X114097116Y-56205887D01*
X113647542Y-56069510D01*
X113297157Y-56035000D01*
X113062843Y-56035000D01*
X112712458Y-56069510D01*
X112262884Y-56205887D01*
X111848554Y-56427351D01*
X111485391Y-56725391D01*
X111187351Y-57088554D01*
X110965887Y-57502884D01*
X110829510Y-57952458D01*
X110783461Y-58420000D01*
X92195208Y-58420000D01*
X92181514Y-58373329D01*
X91926004Y-58252429D01*
X91651816Y-58183700D01*
X91369488Y-58169783D01*
X91089870Y-58211213D01*
X90823708Y-58306397D01*
X90698486Y-58373329D01*
X90626903Y-58617298D01*
X85903097Y-58617298D01*
X85831514Y-58373329D01*
X85576004Y-58252429D01*
X85301816Y-58183700D01*
X85019488Y-58169783D01*
X84739870Y-58211213D01*
X84473708Y-58306397D01*
X84348486Y-58373329D01*
X84276903Y-58617298D01*
X64185000Y-58617298D01*
X64185000Y-55659872D01*
X66345000Y-55659872D01*
X66345000Y-56100128D01*
X66430890Y-56531925D01*
X66599369Y-56938669D01*
X66843962Y-57304729D01*
X67155271Y-57616038D01*
X67521331Y-57860631D01*
X67928075Y-58029110D01*
X68359872Y-58115000D01*
X68800128Y-58115000D01*
X69231925Y-58029110D01*
X69638669Y-57860631D01*
X70004729Y-57616038D01*
X70316038Y-57304729D01*
X70560631Y-56938669D01*
X70729110Y-56531925D01*
X70815000Y-56100128D01*
X70815000Y-55659872D01*
X70729110Y-55228075D01*
X70560631Y-54821331D01*
X70316038Y-54455271D01*
X70004729Y-54143962D01*
X69638669Y-53899369D01*
X69231925Y-53730890D01*
X68800128Y-53645000D01*
X68359872Y-53645000D01*
X67928075Y-53730890D01*
X67521331Y-53899369D01*
X67155271Y-54143962D01*
X66843962Y-54455271D01*
X66599369Y-54821331D01*
X66430890Y-55228075D01*
X66345000Y-55659872D01*
X64185000Y-55659872D01*
X64185000Y-53510000D01*
X75731928Y-53510000D01*
X75731928Y-55710000D01*
X75744188Y-55834482D01*
X75780498Y-55954180D01*
X75839463Y-56064494D01*
X75918815Y-56161185D01*
X76015506Y-56240537D01*
X76125820Y-56299502D01*
X76245518Y-56335812D01*
X76370000Y-56348072D01*
X78570000Y-56348072D01*
X78694482Y-56335812D01*
X78814180Y-56299502D01*
X78924494Y-56240537D01*
X78949518Y-56220000D01*
X94583117Y-56220000D01*
X94881928Y-56518812D01*
X94881928Y-56832500D01*
X94894188Y-56956982D01*
X94930498Y-57076680D01*
X94989463Y-57186994D01*
X95068815Y-57283685D01*
X95165506Y-57363037D01*
X95257219Y-57412059D01*
X95144031Y-57553077D01*
X95000429Y-57828906D01*
X94929437Y-58047020D01*
X95049406Y-58293000D01*
X96393000Y-58293000D01*
X96393000Y-58273000D01*
X96647000Y-58273000D01*
X96647000Y-58293000D01*
X97990594Y-58293000D01*
X98110563Y-58047020D01*
X98039571Y-57828906D01*
X97895969Y-57553077D01*
X97782781Y-57412059D01*
X97874494Y-57363037D01*
X97971185Y-57283685D01*
X98050537Y-57186994D01*
X98109502Y-57076680D01*
X98145812Y-56956982D01*
X98158072Y-56832500D01*
X98158072Y-55659872D01*
X141275000Y-55659872D01*
X141275000Y-56100128D01*
X141360890Y-56531925D01*
X141529369Y-56938669D01*
X141773962Y-57304729D01*
X142085271Y-57616038D01*
X142451331Y-57860631D01*
X142858075Y-58029110D01*
X143289872Y-58115000D01*
X143730128Y-58115000D01*
X144161925Y-58029110D01*
X144568669Y-57860631D01*
X144934729Y-57616038D01*
X145246038Y-57304729D01*
X145490631Y-56938669D01*
X145659110Y-56531925D01*
X145745000Y-56100128D01*
X145745000Y-55659872D01*
X145659110Y-55228075D01*
X145490631Y-54821331D01*
X145246038Y-54455271D01*
X144934729Y-54143962D01*
X144568669Y-53899369D01*
X144161925Y-53730890D01*
X143730128Y-53645000D01*
X143289872Y-53645000D01*
X142858075Y-53730890D01*
X142451331Y-53899369D01*
X142085271Y-54143962D01*
X141773962Y-54455271D01*
X141529369Y-54821331D01*
X141360890Y-55228075D01*
X141275000Y-55659872D01*
X98158072Y-55659872D01*
X98158072Y-54927500D01*
X98145812Y-54803018D01*
X98109502Y-54683320D01*
X98050537Y-54573006D01*
X97971185Y-54476315D01*
X97874494Y-54396963D01*
X97764180Y-54337998D01*
X97644482Y-54301688D01*
X97520000Y-54289428D01*
X97206312Y-54289428D01*
X96444370Y-53527487D01*
X96393950Y-53466050D01*
X96148796Y-53264857D01*
X95869101Y-53115357D01*
X95565615Y-53023295D01*
X95329094Y-53000000D01*
X95329084Y-53000000D01*
X95250000Y-52992211D01*
X95170916Y-53000000D01*
X78949518Y-53000000D01*
X78924494Y-52979463D01*
X78814180Y-52920498D01*
X78694482Y-52884188D01*
X78570000Y-52871928D01*
X76370000Y-52871928D01*
X76245518Y-52884188D01*
X76125820Y-52920498D01*
X76015506Y-52979463D01*
X75918815Y-53058815D01*
X75839463Y-53155506D01*
X75780498Y-53265820D01*
X75744188Y-53385518D01*
X75731928Y-53510000D01*
X64185000Y-53510000D01*
X64185000Y-51485000D01*
X147905000Y-51485000D01*
X147905001Y-113615000D01*
M02*
