M48
; DRILL file {KiCad (5.1.4)-1} date 24/05/2020 19:31:18
; FORMAT={-:-/ absolute / inch / decimal}
; #@! TF.CreationDate,2020-05-24T19:31:18+02:00
; #@! TF.GenerationSoftware,Kicad,Pcbnew,(5.1.4)-1
; #@! TF.FileFunction,Plated,1,2,PTH
FMAT,2
INCH
T1C0.0315
T2C0.0394
T3C0.0433
T4C0.0512
%
G90
G05
T1
X4.3Y-2.85
X4.3Y-3.25
X3.25Y-2.95
X3.25Y-3.1469
X4.15Y-2.95
X4.15Y-3.25
X5.95Y-2.5031
X5.95Y-2.7
X3.8Y-2.15
X3.8Y-2.3469
X4.0Y-2.95
X4.0Y-3.1469
X3.55Y-2.5531
X3.55Y-2.75
X3.5Y-2.95
X3.5Y-3.05
X3.5Y-3.15
X3.5Y-3.25
X3.5Y-3.35
X3.5Y-3.45
X3.5Y-3.55
X3.5Y-3.65
X3.8Y-2.95
X3.8Y-3.05
X3.8Y-3.15
X3.8Y-3.25
X3.8Y-3.35
X3.8Y-3.45
X3.8Y-3.55
X3.8Y-3.65
X5.8Y-2.5
X5.8Y-2.6
X5.8Y-2.7
X3.35Y-2.95
X3.35Y-3.1469
X3.55Y-2.15
X3.55Y-2.3469
X3.9Y-3.8
X4.0Y-3.8
X4.1Y-3.8
X4.2Y-3.8
X3.8Y-2.5531
X3.8Y-2.75
X3.35Y-3.25
X3.35Y-3.4469
X3.25Y-3.25
X3.25Y-3.4469
T2
X5.0Y-2.4
X5.0Y-2.5
X5.0Y-2.6
X5.0Y-2.7
X5.0Y-2.8
X5.0Y-2.9
X5.0Y-3.0
X5.0Y-3.1
X5.0Y-3.2
X5.0Y-3.3
X5.0Y-3.4
X5.0Y-3.5
X5.0Y-3.6
X5.0Y-3.7
X5.0Y-3.8
X5.6Y-2.4
X5.6Y-2.5
X5.6Y-2.6
X5.6Y-2.7
X5.6Y-2.8
X5.6Y-2.9
X5.6Y-3.0
X5.6Y-3.1
X5.6Y-3.2
X5.6Y-3.3
X5.6Y-3.4
X5.6Y-3.5
X5.6Y-3.6
X5.6Y-3.7
X5.6Y-3.8
T3
X4.0Y-2.2
X4.0Y-2.3
X4.0Y-2.4
X3.25Y-2.15
X3.25Y-2.55
T4
X2.95Y-2.65
X2.95Y-2.85
X2.95Y-3.05
X2.95Y-3.25
X2.95Y-3.45
T0
M30
