M48
; DRILL file {KiCad 5.1.6} date Sat May 30 14:28:35 2020
; FORMAT={-:-/ absolute / metric / decimal}
; #@! TF.CreationDate,2020-05-30T14:28:35+02:00
; #@! TF.GenerationSoftware,Kicad,Pcbnew,5.1.6
FMAT,2
METRIC
T1C0.800
T2C1.000
T3C1.100
T4C1.300
T5C3.200
T6C3.500
%
G90
G05
T1
X40.64Y31.75
X40.64Y21.59
X27.94Y49.53
X27.94Y44.53
X27.94Y39.29
X27.94Y34.29
X21.59Y39.29
X21.59Y34.29
X16.51Y29.21
X16.51Y24.21
X30.48Y7.62
X33.02Y7.62
X35.56Y7.62
X38.1Y7.62
X21.59Y49.53
X21.59Y44.53
X16.51Y21.59
X16.51Y16.59
X20.32Y29.21
X20.32Y26.67
X20.32Y24.13
X20.32Y21.59
X20.32Y19.05
X20.32Y16.51
X20.32Y13.97
X20.32Y11.43
X27.94Y29.21
X27.94Y26.67
X27.94Y24.13
X27.94Y21.59
X27.94Y19.05
X27.94Y16.51
X27.94Y13.97
X27.94Y11.43
X78.74Y40.64
X78.74Y38.1
X78.74Y35.56
X36.83Y29.21
X36.83Y21.59
X82.55Y40.56
X82.55Y35.56
X13.97Y29.21
X13.97Y24.21
X13.97Y21.59
X13.97Y16.59
X33.02Y29.21
X33.02Y24.21
T2
X73.66Y43.18
X73.66Y40.64
X73.66Y38.1
X73.66Y35.56
X73.66Y33.02
X73.66Y30.48
X73.66Y27.94
X73.66Y25.4
X73.66Y22.86
X73.66Y20.32
X73.66Y17.78
X73.66Y15.24
X73.66Y12.7
X73.66Y10.16
X73.66Y7.62
X58.42Y43.18
X58.42Y40.64
X58.42Y38.1
X58.42Y35.56
X58.42Y33.02
X58.42Y30.48
X58.42Y27.94
X58.42Y25.4
X58.42Y22.86
X58.42Y20.32
X58.42Y17.78
X58.42Y15.24
X58.42Y12.7
X58.42Y10.16
X58.42Y7.62
T3
X13.97Y49.53
X13.97Y39.37
X33.02Y48.26
X33.02Y45.72
X33.02Y43.18
T4
X6.35Y36.83
X6.35Y31.75
X6.35Y26.67
X6.35Y21.59
X6.35Y16.51
T5
X5.08Y5.08
X5.08Y48.26
X80.01Y5.08
X80.01Y48.26
T6
X49.68Y45.72
T0
M30
