G04 #@! TF.GenerationSoftware,KiCad,Pcbnew,5.1.6*
G04 #@! TF.CreationDate,2020-05-30T14:27:56+02:00*
G04 #@! TF.ProjectId,transmitter,7472616e-736d-4697-9474-65722e6b6963,rev?*
G04 #@! TF.SameCoordinates,PX41672a0PY6350ce0*
G04 #@! TF.FileFunction,Legend,Top*
G04 #@! TF.FilePolarity,Positive*
%FSLAX46Y46*%
G04 Gerber Fmt 4.6, Leading zero omitted, Abs format (unit mm)*
G04 Created by KiCad (PCBNEW 5.1.6) date 2020-05-30 14:27:56*
%MOMM*%
%LPD*%
G01*
G04 APERTURE LIST*
%ADD10C,0.120000*%
%ADD11C,0.150000*%
G04 APERTURE END LIST*
D10*
X80440000Y36160000D02*
X80440000Y40010000D01*
X79852264Y40402383D02*
G75*
G02*
X80440000Y40010000I-1112264J-2302383D01*
G01*
X77641193Y40456400D02*
G75*
G03*
X76140000Y38100000I1098807J-2356400D01*
G01*
X77641193Y35743600D02*
G75*
G02*
X76140000Y38100000I1098807J2356400D01*
G01*
X79862045Y35777369D02*
G75*
G03*
X80440000Y36160000I-1122045J2322631D01*
G01*
D11*
X74930000Y41910000D02*
X74930000Y44450000D01*
X74930000Y44450000D02*
X72390000Y44450000D01*
X72390000Y44450000D02*
X72390000Y41910000D01*
X74930000Y41910000D02*
X74930000Y6350000D01*
X74930000Y6350000D02*
X72390000Y6350000D01*
X72390000Y6350000D02*
X72390000Y41910000D01*
X72390000Y41910000D02*
X74930000Y41910000D01*
X59690000Y41910000D02*
X59690000Y44450000D01*
X59690000Y44450000D02*
X57150000Y44450000D01*
X57150000Y44450000D02*
X57150000Y41910000D01*
X59690000Y41910000D02*
X59690000Y6350000D01*
X59690000Y6350000D02*
X57150000Y6350000D01*
X57150000Y6350000D02*
X57150000Y41910000D01*
X57150000Y41910000D02*
X59690000Y41910000D01*
D10*
X13970000Y5080000D02*
X20320000Y5080000D01*
X29210000Y5080000D02*
X29210000Y6350000D01*
X29210000Y6350000D02*
X39370000Y6350000D01*
X39370000Y6350000D02*
X39370000Y5080000D01*
X39370000Y5080000D02*
X45720000Y5080000D01*
X45720000Y5080000D02*
X45720000Y15240000D01*
X45720000Y15240000D02*
X53340000Y15240000D01*
X53340000Y15240000D02*
X53340000Y5080000D01*
X53340000Y5080000D02*
X54610000Y5080000D01*
X54610000Y5080000D02*
X54610000Y3810000D01*
X54610000Y3810000D02*
X38100000Y3810000D01*
X38100000Y3810000D02*
X38100000Y-3810000D01*
X38100000Y-3810000D02*
X30480000Y-3810000D01*
X30480000Y-3810000D02*
X30480000Y3810000D01*
X30480000Y3810000D02*
X13970000Y3810000D01*
X13970000Y3810000D02*
X13970000Y5080000D01*
X29210000Y5080000D02*
X22860000Y5080000D01*
X22860000Y5080000D02*
X22860000Y7620000D01*
X22860000Y7620000D02*
X20320000Y7620000D01*
X20320000Y7620000D02*
X20320000Y5080000D01*
X30480000Y7620000D02*
X30480000Y6350000D01*
X33020000Y7620000D02*
X33020000Y6350000D01*
X35560000Y7620000D02*
X35560000Y6350000D01*
X38100000Y7620000D02*
X38100000Y6350000D01*
X8030000Y31750000D02*
G75*
G03*
X8030000Y31750000I-1680000J0D01*
G01*
X8030000Y26670000D02*
G75*
G03*
X8030000Y26670000I-1680000J0D01*
G01*
X8030000Y21590000D02*
G75*
G03*
X8030000Y21590000I-1680000J0D01*
G01*
X8030000Y16510000D02*
G75*
G03*
X8030000Y16510000I-1680000J0D01*
G01*
X4350000Y39430000D02*
X4350000Y13910000D01*
X8350000Y39430000D02*
X8350000Y13910000D01*
X10410000Y39430000D02*
X10410000Y13910000D01*
X2290000Y39430000D02*
X2290000Y13910000D01*
X10410000Y39430000D02*
X2290000Y39430000D01*
X10410000Y13910000D02*
X2290000Y13910000D01*
X7419000Y30475000D02*
X7326000Y30569000D01*
X5134000Y32760000D02*
X5076000Y32819000D01*
X7625000Y30680000D02*
X7566000Y30739000D01*
X5374000Y32930000D02*
X5281000Y33024000D01*
X7419000Y25395000D02*
X7326000Y25489000D01*
X5134000Y27680000D02*
X5076000Y27739000D01*
X7625000Y25600000D02*
X7566000Y25659000D01*
X5374000Y27850000D02*
X5281000Y27944000D01*
X7419000Y20315000D02*
X7326000Y20409000D01*
X5134000Y22600000D02*
X5076000Y22659000D01*
X7625000Y20520000D02*
X7566000Y20579000D01*
X5374000Y22770000D02*
X5281000Y22864000D01*
X7419000Y15235000D02*
X7326000Y15329000D01*
X5134000Y17520000D02*
X5076000Y17579000D01*
X7625000Y15440000D02*
X7566000Y15499000D01*
X5374000Y17690000D02*
X5281000Y17784000D01*
X4290000Y39670000D02*
X2050000Y39670000D01*
X2050000Y39670000D02*
X2050000Y37670000D01*
X4669550Y36800617D02*
G75*
G02*
X4866000Y37619000I1680450J29383D01*
G01*
X5560912Y38313953D02*
G75*
G02*
X7139000Y38314000I789088J-1483953D01*
G01*
X7833953Y37619088D02*
G75*
G02*
X7834000Y36041000I-1483953J-789088D01*
G01*
X7139088Y35346047D02*
G75*
G02*
X5561000Y35346000I-789088J1483953D01*
G01*
X4866648Y36041288D02*
G75*
G02*
X4670000Y36830000I1483352J788712D01*
G01*
X23130000Y30540000D02*
X21880000Y30540000D01*
X21880000Y30540000D02*
X21880000Y10100000D01*
X21880000Y10100000D02*
X26380000Y10100000D01*
X26380000Y10100000D02*
X26380000Y30540000D01*
X26380000Y30540000D02*
X25130000Y30540000D01*
X25130000Y30540000D02*
G75*
G02*
X23130000Y30540000I-1000000J0D01*
G01*
X36710000Y50840000D02*
X36710000Y40600000D01*
X52600000Y50840000D02*
X52600000Y40600000D01*
X52600000Y50840000D02*
X36710000Y50840000D01*
X52600000Y40600000D02*
X36710000Y40600000D01*
X36710000Y48260000D02*
X34170000Y48260000D01*
X36710000Y45720000D02*
X34170000Y45720000D01*
X36710000Y43180000D02*
X34170000Y43180000D01*
X35710000Y23280000D02*
X37950000Y23280000D01*
X37950000Y23280000D02*
X37950000Y27520000D01*
X37950000Y27520000D02*
X35710000Y27520000D01*
X35710000Y27520000D02*
X35710000Y23280000D01*
X36830000Y22630000D02*
X36830000Y23280000D01*
X36830000Y28170000D02*
X36830000Y27520000D01*
X35710000Y24000000D02*
X37950000Y24000000D01*
X35710000Y24120000D02*
X37950000Y24120000D01*
X35710000Y23880000D02*
X37950000Y23880000D01*
X15440000Y47170000D02*
X12500000Y47170000D01*
X12500000Y47170000D02*
X12500000Y41730000D01*
X12500000Y41730000D02*
X15440000Y41730000D01*
X15440000Y41730000D02*
X15440000Y47170000D01*
X13970000Y48190000D02*
X13970000Y47170000D01*
X13970000Y40710000D02*
X13970000Y41730000D01*
X15440000Y46270000D02*
X12500000Y46270000D01*
X15440000Y46150000D02*
X12500000Y46150000D01*
X15440000Y46390000D02*
X12500000Y46390000D01*
X12850000Y15470000D02*
X12850000Y22710000D01*
X15090000Y15470000D02*
X15090000Y22710000D01*
X12850000Y15470000D02*
X15090000Y15470000D01*
X12850000Y22710000D02*
X15090000Y22710000D01*
X12850000Y23090000D02*
X12850000Y30330000D01*
X15090000Y23090000D02*
X15090000Y30330000D01*
X12850000Y23090000D02*
X15090000Y23090000D01*
X12850000Y30330000D02*
X15090000Y30330000D01*
X17630000Y30330000D02*
X17630000Y23090000D01*
X15390000Y30330000D02*
X15390000Y23090000D01*
X17630000Y30330000D02*
X15390000Y30330000D01*
X17630000Y23090000D02*
X15390000Y23090000D01*
X17630000Y22710000D02*
X17630000Y15470000D01*
X15390000Y22710000D02*
X15390000Y15470000D01*
X17630000Y22710000D02*
X15390000Y22710000D01*
X17630000Y15470000D02*
X15390000Y15470000D01*
X34140000Y30330000D02*
X34140000Y23090000D01*
X31900000Y30330000D02*
X31900000Y23090000D01*
X34140000Y30330000D02*
X31900000Y30330000D01*
X34140000Y23090000D02*
X31900000Y23090000D01*
X81430000Y34440000D02*
X81430000Y41680000D01*
X83670000Y34440000D02*
X83670000Y41680000D01*
X81430000Y34440000D02*
X83670000Y34440000D01*
X81430000Y41680000D02*
X83670000Y41680000D01*
X25710000Y36790000D02*
G75*
G03*
X25710000Y36790000I-4120000J0D01*
G01*
X17510000Y36790000D02*
X25670000Y36790000D01*
X17510000Y36830000D02*
X25670000Y36830000D01*
X17510000Y36870000D02*
X25670000Y36870000D01*
X17511000Y36910000D02*
X25669000Y36910000D01*
X17513000Y36950000D02*
X25667000Y36950000D01*
X17514000Y36990000D02*
X25666000Y36990000D01*
X17516000Y37030000D02*
X25664000Y37030000D01*
X17519000Y37070000D02*
X25661000Y37070000D01*
X17522000Y37110000D02*
X25658000Y37110000D01*
X17525000Y37150000D02*
X25655000Y37150000D01*
X17529000Y37190000D02*
X25651000Y37190000D01*
X17533000Y37230000D02*
X25647000Y37230000D01*
X17538000Y37270000D02*
X25642000Y37270000D01*
X17542000Y37310000D02*
X25638000Y37310000D01*
X17548000Y37350000D02*
X25632000Y37350000D01*
X17553000Y37390000D02*
X25627000Y37390000D01*
X17560000Y37430000D02*
X25620000Y37430000D01*
X17566000Y37470000D02*
X25614000Y37470000D01*
X17573000Y37511000D02*
X25607000Y37511000D01*
X17580000Y37551000D02*
X25600000Y37551000D01*
X17588000Y37591000D02*
X25592000Y37591000D01*
X17596000Y37631000D02*
X25584000Y37631000D01*
X17605000Y37671000D02*
X25575000Y37671000D01*
X17614000Y37711000D02*
X25566000Y37711000D01*
X17623000Y37751000D02*
X25557000Y37751000D01*
X17633000Y37791000D02*
X25547000Y37791000D01*
X17643000Y37831000D02*
X25537000Y37831000D01*
X17654000Y37871000D02*
X25526000Y37871000D01*
X17665000Y37911000D02*
X25515000Y37911000D01*
X17676000Y37951000D02*
X25504000Y37951000D01*
X17688000Y37991000D02*
X25492000Y37991000D01*
X17701000Y38031000D02*
X25479000Y38031000D01*
X17713000Y38071000D02*
X25467000Y38071000D01*
X17727000Y38111000D02*
X25453000Y38111000D01*
X17740000Y38151000D02*
X25440000Y38151000D01*
X17755000Y38191000D02*
X25425000Y38191000D01*
X17769000Y38231000D02*
X25411000Y38231000D01*
X17785000Y38271000D02*
X20550000Y38271000D01*
X22630000Y38271000D02*
X25395000Y38271000D01*
X17800000Y38311000D02*
X20550000Y38311000D01*
X22630000Y38311000D02*
X25380000Y38311000D01*
X17816000Y38351000D02*
X20550000Y38351000D01*
X22630000Y38351000D02*
X25364000Y38351000D01*
X17833000Y38391000D02*
X20550000Y38391000D01*
X22630000Y38391000D02*
X25347000Y38391000D01*
X17850000Y38431000D02*
X20550000Y38431000D01*
X22630000Y38431000D02*
X25330000Y38431000D01*
X17868000Y38471000D02*
X20550000Y38471000D01*
X22630000Y38471000D02*
X25312000Y38471000D01*
X17886000Y38511000D02*
X20550000Y38511000D01*
X22630000Y38511000D02*
X25294000Y38511000D01*
X17904000Y38551000D02*
X20550000Y38551000D01*
X22630000Y38551000D02*
X25276000Y38551000D01*
X17924000Y38591000D02*
X20550000Y38591000D01*
X22630000Y38591000D02*
X25256000Y38591000D01*
X17943000Y38631000D02*
X20550000Y38631000D01*
X22630000Y38631000D02*
X25237000Y38631000D01*
X17963000Y38671000D02*
X20550000Y38671000D01*
X22630000Y38671000D02*
X25217000Y38671000D01*
X17984000Y38711000D02*
X20550000Y38711000D01*
X22630000Y38711000D02*
X25196000Y38711000D01*
X18006000Y38751000D02*
X20550000Y38751000D01*
X22630000Y38751000D02*
X25174000Y38751000D01*
X18028000Y38791000D02*
X20550000Y38791000D01*
X22630000Y38791000D02*
X25152000Y38791000D01*
X18050000Y38831000D02*
X20550000Y38831000D01*
X22630000Y38831000D02*
X25130000Y38831000D01*
X18073000Y38871000D02*
X20550000Y38871000D01*
X22630000Y38871000D02*
X25107000Y38871000D01*
X18097000Y38911000D02*
X20550000Y38911000D01*
X22630000Y38911000D02*
X25083000Y38911000D01*
X18121000Y38951000D02*
X20550000Y38951000D01*
X22630000Y38951000D02*
X25059000Y38951000D01*
X18146000Y38991000D02*
X20550000Y38991000D01*
X22630000Y38991000D02*
X25034000Y38991000D01*
X18172000Y39031000D02*
X20550000Y39031000D01*
X22630000Y39031000D02*
X25008000Y39031000D01*
X18198000Y39071000D02*
X20550000Y39071000D01*
X22630000Y39071000D02*
X24982000Y39071000D01*
X18225000Y39111000D02*
X20550000Y39111000D01*
X22630000Y39111000D02*
X24955000Y39111000D01*
X18252000Y39151000D02*
X20550000Y39151000D01*
X22630000Y39151000D02*
X24928000Y39151000D01*
X18281000Y39191000D02*
X20550000Y39191000D01*
X22630000Y39191000D02*
X24899000Y39191000D01*
X18310000Y39231000D02*
X20550000Y39231000D01*
X22630000Y39231000D02*
X24870000Y39231000D01*
X18340000Y39271000D02*
X20550000Y39271000D01*
X22630000Y39271000D02*
X24840000Y39271000D01*
X18370000Y39311000D02*
X20550000Y39311000D01*
X22630000Y39311000D02*
X24810000Y39311000D01*
X18401000Y39351000D02*
X20550000Y39351000D01*
X22630000Y39351000D02*
X24779000Y39351000D01*
X18434000Y39391000D02*
X20550000Y39391000D01*
X22630000Y39391000D02*
X24746000Y39391000D01*
X18466000Y39431000D02*
X20550000Y39431000D01*
X22630000Y39431000D02*
X24714000Y39431000D01*
X18500000Y39471000D02*
X20550000Y39471000D01*
X22630000Y39471000D02*
X24680000Y39471000D01*
X18535000Y39511000D02*
X20550000Y39511000D01*
X22630000Y39511000D02*
X24645000Y39511000D01*
X18571000Y39551000D02*
X20550000Y39551000D01*
X22630000Y39551000D02*
X24609000Y39551000D01*
X18607000Y39591000D02*
X20550000Y39591000D01*
X22630000Y39591000D02*
X24573000Y39591000D01*
X18645000Y39631000D02*
X20550000Y39631000D01*
X22630000Y39631000D02*
X24535000Y39631000D01*
X18683000Y39671000D02*
X20550000Y39671000D01*
X22630000Y39671000D02*
X24497000Y39671000D01*
X18723000Y39711000D02*
X20550000Y39711000D01*
X22630000Y39711000D02*
X24457000Y39711000D01*
X18764000Y39751000D02*
X20550000Y39751000D01*
X22630000Y39751000D02*
X24416000Y39751000D01*
X18806000Y39791000D02*
X20550000Y39791000D01*
X22630000Y39791000D02*
X24374000Y39791000D01*
X18849000Y39831000D02*
X20550000Y39831000D01*
X22630000Y39831000D02*
X24331000Y39831000D01*
X18893000Y39871000D02*
X20550000Y39871000D01*
X22630000Y39871000D02*
X24287000Y39871000D01*
X18939000Y39911000D02*
X20550000Y39911000D01*
X22630000Y39911000D02*
X24241000Y39911000D01*
X18986000Y39951000D02*
X20550000Y39951000D01*
X22630000Y39951000D02*
X24194000Y39951000D01*
X19034000Y39991000D02*
X20550000Y39991000D01*
X22630000Y39991000D02*
X24146000Y39991000D01*
X19085000Y40031000D02*
X20550000Y40031000D01*
X22630000Y40031000D02*
X24095000Y40031000D01*
X19136000Y40071000D02*
X20550000Y40071000D01*
X22630000Y40071000D02*
X24044000Y40071000D01*
X19190000Y40111000D02*
X20550000Y40111000D01*
X22630000Y40111000D02*
X23990000Y40111000D01*
X19245000Y40151000D02*
X20550000Y40151000D01*
X22630000Y40151000D02*
X23935000Y40151000D01*
X19303000Y40191000D02*
X20550000Y40191000D01*
X22630000Y40191000D02*
X23877000Y40191000D01*
X19362000Y40231000D02*
X20550000Y40231000D01*
X22630000Y40231000D02*
X23818000Y40231000D01*
X19424000Y40271000D02*
X20550000Y40271000D01*
X22630000Y40271000D02*
X23756000Y40271000D01*
X19488000Y40311000D02*
X20550000Y40311000D01*
X22630000Y40311000D02*
X23692000Y40311000D01*
X19556000Y40351000D02*
X23624000Y40351000D01*
X19626000Y40391000D02*
X23554000Y40391000D01*
X19700000Y40431000D02*
X23480000Y40431000D01*
X19777000Y40471000D02*
X23403000Y40471000D01*
X19859000Y40511000D02*
X23321000Y40511000D01*
X19945000Y40551000D02*
X23235000Y40551000D01*
X20038000Y40591000D02*
X23142000Y40591000D01*
X20137000Y40631000D02*
X23043000Y40631000D01*
X20244000Y40671000D02*
X22936000Y40671000D01*
X20361000Y40711000D02*
X22819000Y40711000D01*
X20492000Y40751000D02*
X22688000Y40751000D01*
X20642000Y40791000D02*
X22538000Y40791000D01*
X20822000Y40831000D02*
X22358000Y40831000D01*
X21057000Y40871000D02*
X22123000Y40871000D01*
X19275000Y32380302D02*
X19275000Y33180302D01*
X18875000Y32780302D02*
X19675000Y32780302D01*
X26820000Y33170000D02*
X26820000Y40410000D01*
X29060000Y33170000D02*
X29060000Y40410000D01*
X26820000Y33170000D02*
X29060000Y33170000D01*
X26820000Y40410000D02*
X29060000Y40410000D01*
X29060000Y50650000D02*
X29060000Y43410000D01*
X26820000Y50650000D02*
X26820000Y43410000D01*
X29060000Y50650000D02*
X26820000Y50650000D01*
X29060000Y43410000D02*
X26820000Y43410000D01*
X25710000Y47030000D02*
G75*
G03*
X25710000Y47030000I-4120000J0D01*
G01*
X25670000Y47030000D02*
X17510000Y47030000D01*
X25670000Y46990000D02*
X17510000Y46990000D01*
X25670000Y46950000D02*
X17510000Y46950000D01*
X25669000Y46910000D02*
X17511000Y46910000D01*
X25667000Y46870000D02*
X17513000Y46870000D01*
X25666000Y46830000D02*
X17514000Y46830000D01*
X25664000Y46790000D02*
X17516000Y46790000D01*
X25661000Y46750000D02*
X17519000Y46750000D01*
X25658000Y46710000D02*
X17522000Y46710000D01*
X25655000Y46670000D02*
X17525000Y46670000D01*
X25651000Y46630000D02*
X17529000Y46630000D01*
X25647000Y46590000D02*
X17533000Y46590000D01*
X25642000Y46550000D02*
X17538000Y46550000D01*
X25638000Y46510000D02*
X17542000Y46510000D01*
X25632000Y46470000D02*
X17548000Y46470000D01*
X25627000Y46430000D02*
X17553000Y46430000D01*
X25620000Y46390000D02*
X17560000Y46390000D01*
X25614000Y46350000D02*
X17566000Y46350000D01*
X25607000Y46309000D02*
X17573000Y46309000D01*
X25600000Y46269000D02*
X17580000Y46269000D01*
X25592000Y46229000D02*
X17588000Y46229000D01*
X25584000Y46189000D02*
X17596000Y46189000D01*
X25575000Y46149000D02*
X17605000Y46149000D01*
X25566000Y46109000D02*
X17614000Y46109000D01*
X25557000Y46069000D02*
X17623000Y46069000D01*
X25547000Y46029000D02*
X17633000Y46029000D01*
X25537000Y45989000D02*
X17643000Y45989000D01*
X25526000Y45949000D02*
X17654000Y45949000D01*
X25515000Y45909000D02*
X17665000Y45909000D01*
X25504000Y45869000D02*
X17676000Y45869000D01*
X25492000Y45829000D02*
X17688000Y45829000D01*
X25479000Y45789000D02*
X17701000Y45789000D01*
X25467000Y45749000D02*
X17713000Y45749000D01*
X25453000Y45709000D02*
X17727000Y45709000D01*
X25440000Y45669000D02*
X17740000Y45669000D01*
X25425000Y45629000D02*
X17755000Y45629000D01*
X25411000Y45589000D02*
X17769000Y45589000D01*
X25395000Y45549000D02*
X22630000Y45549000D01*
X20550000Y45549000D02*
X17785000Y45549000D01*
X25380000Y45509000D02*
X22630000Y45509000D01*
X20550000Y45509000D02*
X17800000Y45509000D01*
X25364000Y45469000D02*
X22630000Y45469000D01*
X20550000Y45469000D02*
X17816000Y45469000D01*
X25347000Y45429000D02*
X22630000Y45429000D01*
X20550000Y45429000D02*
X17833000Y45429000D01*
X25330000Y45389000D02*
X22630000Y45389000D01*
X20550000Y45389000D02*
X17850000Y45389000D01*
X25312000Y45349000D02*
X22630000Y45349000D01*
X20550000Y45349000D02*
X17868000Y45349000D01*
X25294000Y45309000D02*
X22630000Y45309000D01*
X20550000Y45309000D02*
X17886000Y45309000D01*
X25276000Y45269000D02*
X22630000Y45269000D01*
X20550000Y45269000D02*
X17904000Y45269000D01*
X25256000Y45229000D02*
X22630000Y45229000D01*
X20550000Y45229000D02*
X17924000Y45229000D01*
X25237000Y45189000D02*
X22630000Y45189000D01*
X20550000Y45189000D02*
X17943000Y45189000D01*
X25217000Y45149000D02*
X22630000Y45149000D01*
X20550000Y45149000D02*
X17963000Y45149000D01*
X25196000Y45109000D02*
X22630000Y45109000D01*
X20550000Y45109000D02*
X17984000Y45109000D01*
X25174000Y45069000D02*
X22630000Y45069000D01*
X20550000Y45069000D02*
X18006000Y45069000D01*
X25152000Y45029000D02*
X22630000Y45029000D01*
X20550000Y45029000D02*
X18028000Y45029000D01*
X25130000Y44989000D02*
X22630000Y44989000D01*
X20550000Y44989000D02*
X18050000Y44989000D01*
X25107000Y44949000D02*
X22630000Y44949000D01*
X20550000Y44949000D02*
X18073000Y44949000D01*
X25083000Y44909000D02*
X22630000Y44909000D01*
X20550000Y44909000D02*
X18097000Y44909000D01*
X25059000Y44869000D02*
X22630000Y44869000D01*
X20550000Y44869000D02*
X18121000Y44869000D01*
X25034000Y44829000D02*
X22630000Y44829000D01*
X20550000Y44829000D02*
X18146000Y44829000D01*
X25008000Y44789000D02*
X22630000Y44789000D01*
X20550000Y44789000D02*
X18172000Y44789000D01*
X24982000Y44749000D02*
X22630000Y44749000D01*
X20550000Y44749000D02*
X18198000Y44749000D01*
X24955000Y44709000D02*
X22630000Y44709000D01*
X20550000Y44709000D02*
X18225000Y44709000D01*
X24928000Y44669000D02*
X22630000Y44669000D01*
X20550000Y44669000D02*
X18252000Y44669000D01*
X24899000Y44629000D02*
X22630000Y44629000D01*
X20550000Y44629000D02*
X18281000Y44629000D01*
X24870000Y44589000D02*
X22630000Y44589000D01*
X20550000Y44589000D02*
X18310000Y44589000D01*
X24840000Y44549000D02*
X22630000Y44549000D01*
X20550000Y44549000D02*
X18340000Y44549000D01*
X24810000Y44509000D02*
X22630000Y44509000D01*
X20550000Y44509000D02*
X18370000Y44509000D01*
X24779000Y44469000D02*
X22630000Y44469000D01*
X20550000Y44469000D02*
X18401000Y44469000D01*
X24746000Y44429000D02*
X22630000Y44429000D01*
X20550000Y44429000D02*
X18434000Y44429000D01*
X24714000Y44389000D02*
X22630000Y44389000D01*
X20550000Y44389000D02*
X18466000Y44389000D01*
X24680000Y44349000D02*
X22630000Y44349000D01*
X20550000Y44349000D02*
X18500000Y44349000D01*
X24645000Y44309000D02*
X22630000Y44309000D01*
X20550000Y44309000D02*
X18535000Y44309000D01*
X24609000Y44269000D02*
X22630000Y44269000D01*
X20550000Y44269000D02*
X18571000Y44269000D01*
X24573000Y44229000D02*
X22630000Y44229000D01*
X20550000Y44229000D02*
X18607000Y44229000D01*
X24535000Y44189000D02*
X22630000Y44189000D01*
X20550000Y44189000D02*
X18645000Y44189000D01*
X24497000Y44149000D02*
X22630000Y44149000D01*
X20550000Y44149000D02*
X18683000Y44149000D01*
X24457000Y44109000D02*
X22630000Y44109000D01*
X20550000Y44109000D02*
X18723000Y44109000D01*
X24416000Y44069000D02*
X22630000Y44069000D01*
X20550000Y44069000D02*
X18764000Y44069000D01*
X24374000Y44029000D02*
X22630000Y44029000D01*
X20550000Y44029000D02*
X18806000Y44029000D01*
X24331000Y43989000D02*
X22630000Y43989000D01*
X20550000Y43989000D02*
X18849000Y43989000D01*
X24287000Y43949000D02*
X22630000Y43949000D01*
X20550000Y43949000D02*
X18893000Y43949000D01*
X24241000Y43909000D02*
X22630000Y43909000D01*
X20550000Y43909000D02*
X18939000Y43909000D01*
X24194000Y43869000D02*
X22630000Y43869000D01*
X20550000Y43869000D02*
X18986000Y43869000D01*
X24146000Y43829000D02*
X22630000Y43829000D01*
X20550000Y43829000D02*
X19034000Y43829000D01*
X24095000Y43789000D02*
X22630000Y43789000D01*
X20550000Y43789000D02*
X19085000Y43789000D01*
X24044000Y43749000D02*
X22630000Y43749000D01*
X20550000Y43749000D02*
X19136000Y43749000D01*
X23990000Y43709000D02*
X22630000Y43709000D01*
X20550000Y43709000D02*
X19190000Y43709000D01*
X23935000Y43669000D02*
X22630000Y43669000D01*
X20550000Y43669000D02*
X19245000Y43669000D01*
X23877000Y43629000D02*
X22630000Y43629000D01*
X20550000Y43629000D02*
X19303000Y43629000D01*
X23818000Y43589000D02*
X22630000Y43589000D01*
X20550000Y43589000D02*
X19362000Y43589000D01*
X23756000Y43549000D02*
X22630000Y43549000D01*
X20550000Y43549000D02*
X19424000Y43549000D01*
X23692000Y43509000D02*
X22630000Y43509000D01*
X20550000Y43509000D02*
X19488000Y43509000D01*
X23624000Y43469000D02*
X19556000Y43469000D01*
X23554000Y43429000D02*
X19626000Y43429000D01*
X23480000Y43389000D02*
X19700000Y43389000D01*
X23403000Y43349000D02*
X19777000Y43349000D01*
X23321000Y43309000D02*
X19859000Y43309000D01*
X23235000Y43269000D02*
X19945000Y43269000D01*
X23142000Y43229000D02*
X20038000Y43229000D01*
X23043000Y43189000D02*
X20137000Y43189000D01*
X22936000Y43149000D02*
X20244000Y43149000D01*
X22819000Y43109000D02*
X20361000Y43109000D01*
X22688000Y43069000D02*
X20492000Y43069000D01*
X22538000Y43029000D02*
X20642000Y43029000D01*
X22358000Y42989000D02*
X20822000Y42989000D01*
X22123000Y42949000D02*
X21057000Y42949000D01*
X23905000Y51439698D02*
X23905000Y50639698D01*
X24305000Y51039698D02*
X23505000Y51039698D01*
D11*
X74632380Y36068096D02*
X75441904Y36068096D01*
X75537142Y36115715D01*
X75584761Y36163334D01*
X75632380Y36258572D01*
X75632380Y36449048D01*
X75584761Y36544286D01*
X75537142Y36591905D01*
X75441904Y36639524D01*
X74632380Y36639524D01*
X74727619Y37068096D02*
X74680000Y37115715D01*
X74632380Y37210953D01*
X74632380Y37449048D01*
X74680000Y37544286D01*
X74727619Y37591905D01*
X74822857Y37639524D01*
X74918095Y37639524D01*
X75060952Y37591905D01*
X75632380Y37020477D01*
X75632380Y37639524D01*
X79212380Y42441905D02*
X78212380Y42441905D01*
X78212380Y42822858D01*
X78260000Y42918096D01*
X78307619Y42965715D01*
X78402857Y43013334D01*
X78545714Y43013334D01*
X78640952Y42965715D01*
X78688571Y42918096D01*
X78736190Y42822858D01*
X78736190Y42441905D01*
X78212380Y43870477D02*
X78212380Y43680000D01*
X78260000Y43584762D01*
X78307619Y43537143D01*
X78450476Y43441905D01*
X78640952Y43394286D01*
X79021904Y43394286D01*
X79117142Y43441905D01*
X79164761Y43489524D01*
X79212380Y43584762D01*
X79212380Y43775239D01*
X79164761Y43870477D01*
X79117142Y43918096D01*
X79021904Y43965715D01*
X78783809Y43965715D01*
X78688571Y43918096D01*
X78640952Y43870477D01*
X78593333Y43775239D01*
X78593333Y43584762D01*
X78640952Y43489524D01*
X78688571Y43441905D01*
X78783809Y43394286D01*
X63972380Y42441905D02*
X62972380Y42441905D01*
X62972380Y42822858D01*
X63020000Y42918096D01*
X63067619Y42965715D01*
X63162857Y43013334D01*
X63305714Y43013334D01*
X63400952Y42965715D01*
X63448571Y42918096D01*
X63496190Y42822858D01*
X63496190Y42441905D01*
X62972380Y43918096D02*
X62972380Y43441905D01*
X63448571Y43394286D01*
X63400952Y43441905D01*
X63353333Y43537143D01*
X63353333Y43775239D01*
X63400952Y43870477D01*
X63448571Y43918096D01*
X63543809Y43965715D01*
X63781904Y43965715D01*
X63877142Y43918096D01*
X63924761Y43870477D01*
X63972380Y43775239D01*
X63972380Y43537143D01*
X63924761Y43441905D01*
X63877142Y43394286D01*
X33528095Y11477620D02*
X33528095Y10668096D01*
X33575714Y10572858D01*
X33623333Y10525239D01*
X33718571Y10477620D01*
X33909047Y10477620D01*
X34004285Y10525239D01*
X34051904Y10572858D01*
X34099523Y10668096D01*
X34099523Y11477620D01*
X34480476Y11477620D02*
X35099523Y11477620D01*
X34766190Y11096667D01*
X34909047Y11096667D01*
X35004285Y11049048D01*
X35051904Y11001429D01*
X35099523Y10906191D01*
X35099523Y10668096D01*
X35051904Y10572858D01*
X35004285Y10525239D01*
X34909047Y10477620D01*
X34623333Y10477620D01*
X34528095Y10525239D01*
X34480476Y10572858D01*
X10862380Y26336667D02*
X11576666Y26336667D01*
X11719523Y26289048D01*
X11814761Y26193810D01*
X11862380Y26050953D01*
X11862380Y25955715D01*
X11862380Y27336667D02*
X11862380Y26765239D01*
X11862380Y27050953D02*
X10862380Y27050953D01*
X11005238Y26955715D01*
X11100476Y26860477D01*
X11148095Y26765239D01*
X79248095Y8827620D02*
X79248095Y9827620D01*
X79248095Y9351429D02*
X79819523Y9351429D01*
X79819523Y8827620D02*
X79819523Y9827620D01*
X80724285Y9494286D02*
X80724285Y8827620D01*
X80486190Y9875239D02*
X80248095Y9160953D01*
X80867142Y9160953D01*
X79248095Y52007620D02*
X79248095Y53007620D01*
X79248095Y52531429D02*
X79819523Y52531429D01*
X79819523Y52007620D02*
X79819523Y53007620D01*
X80200476Y53007620D02*
X80819523Y53007620D01*
X80486190Y52626667D01*
X80629047Y52626667D01*
X80724285Y52579048D01*
X80771904Y52531429D01*
X80819523Y52436191D01*
X80819523Y52198096D01*
X80771904Y52102858D01*
X80724285Y52055239D01*
X80629047Y52007620D01*
X80343333Y52007620D01*
X80248095Y52055239D01*
X80200476Y52102858D01*
X4318095Y8827620D02*
X4318095Y9827620D01*
X4318095Y9351429D02*
X4889523Y9351429D01*
X4889523Y8827620D02*
X4889523Y9827620D01*
X5318095Y9732381D02*
X5365714Y9780000D01*
X5460952Y9827620D01*
X5699047Y9827620D01*
X5794285Y9780000D01*
X5841904Y9732381D01*
X5889523Y9637143D01*
X5889523Y9541905D01*
X5841904Y9399048D01*
X5270476Y8827620D01*
X5889523Y8827620D01*
X4318095Y52007620D02*
X4318095Y53007620D01*
X4318095Y52531429D02*
X4889523Y52531429D01*
X4889523Y52007620D02*
X4889523Y53007620D01*
X5889523Y52007620D02*
X5318095Y52007620D01*
X5603809Y52007620D02*
X5603809Y53007620D01*
X5508571Y52864762D01*
X5413333Y52769524D01*
X5318095Y52721905D01*
X23368095Y32087620D02*
X23368095Y31278096D01*
X23415714Y31182858D01*
X23463333Y31135239D01*
X23558571Y31087620D01*
X23749047Y31087620D01*
X23844285Y31135239D01*
X23891904Y31182858D01*
X23939523Y31278096D01*
X23939523Y32087620D01*
X24844285Y31754286D02*
X24844285Y31087620D01*
X24606190Y32135239D02*
X24368095Y31420953D01*
X24987142Y31420953D01*
X53052380Y44958096D02*
X53861904Y44958096D01*
X53957142Y45005715D01*
X54004761Y45053334D01*
X54052380Y45148572D01*
X54052380Y45339048D01*
X54004761Y45434286D01*
X53957142Y45481905D01*
X53861904Y45529524D01*
X53052380Y45529524D01*
X54052380Y46529524D02*
X54052380Y45958096D01*
X54052380Y46243810D02*
X53052380Y46243810D01*
X53195238Y46148572D01*
X53290476Y46053334D01*
X53338095Y45958096D01*
X35162380Y24661905D02*
X34162380Y24661905D01*
X34162380Y24900000D01*
X34210000Y25042858D01*
X34305238Y25138096D01*
X34400476Y25185715D01*
X34590952Y25233334D01*
X34733809Y25233334D01*
X34924285Y25185715D01*
X35019523Y25138096D01*
X35114761Y25042858D01*
X35162380Y24900000D01*
X35162380Y24661905D01*
X34257619Y25614286D02*
X34210000Y25661905D01*
X34162380Y25757143D01*
X34162380Y25995239D01*
X34210000Y26090477D01*
X34257619Y26138096D01*
X34352857Y26185715D01*
X34448095Y26185715D01*
X34590952Y26138096D01*
X35162380Y25566667D01*
X35162380Y26185715D01*
X35482380Y21328096D02*
X34482380Y21328096D01*
X35482380Y21899524D02*
X34910952Y21470953D01*
X34482380Y21899524D02*
X35053809Y21328096D01*
X16892380Y43711905D02*
X15892380Y43711905D01*
X15892380Y43950000D01*
X15940000Y44092858D01*
X16035238Y44188096D01*
X16130476Y44235715D01*
X16320952Y44283334D01*
X16463809Y44283334D01*
X16654285Y44235715D01*
X16749523Y44188096D01*
X16844761Y44092858D01*
X16892380Y43950000D01*
X16892380Y43711905D01*
X16892380Y45235715D02*
X16892380Y44664286D01*
X16892380Y44950000D02*
X15892380Y44950000D01*
X16035238Y44854762D01*
X16130476Y44759524D01*
X16178095Y44664286D01*
X16522380Y49268096D02*
X15522380Y49268096D01*
X16522380Y49839524D02*
X15950952Y49410953D01*
X15522380Y49839524D02*
X16093809Y49268096D01*
X11787142Y18407143D02*
X11834761Y18359524D01*
X11882380Y18216667D01*
X11882380Y18121429D01*
X11834761Y17978572D01*
X11739523Y17883334D01*
X11644285Y17835715D01*
X11453809Y17788096D01*
X11310952Y17788096D01*
X11120476Y17835715D01*
X11025238Y17883334D01*
X10930000Y17978572D01*
X10882380Y18121429D01*
X10882380Y18216667D01*
X10930000Y18359524D01*
X10977619Y18407143D01*
X11882380Y19359524D02*
X11882380Y18788096D01*
X11882380Y19073810D02*
X10882380Y19073810D01*
X11025238Y18978572D01*
X11120476Y18883334D01*
X11168095Y18788096D01*
X10882380Y19978572D02*
X10882380Y20073810D01*
X10930000Y20169048D01*
X10977619Y20216667D01*
X11072857Y20264286D01*
X11263333Y20311905D01*
X11501428Y20311905D01*
X11691904Y20264286D01*
X11787142Y20216667D01*
X11834761Y20169048D01*
X11882380Y20073810D01*
X11882380Y19978572D01*
X11834761Y19883334D01*
X11787142Y19835715D01*
X11691904Y19788096D01*
X11501428Y19740477D01*
X11263333Y19740477D01*
X11072857Y19788096D01*
X10977619Y19835715D01*
X10930000Y19883334D01*
X10882380Y19978572D01*
X12077142Y26543334D02*
X12124761Y26495715D01*
X12172380Y26352858D01*
X12172380Y26257620D01*
X12124761Y26114762D01*
X12029523Y26019524D01*
X11934285Y25971905D01*
X11743809Y25924286D01*
X11600952Y25924286D01*
X11410476Y25971905D01*
X11315238Y26019524D01*
X11220000Y26114762D01*
X11172380Y26257620D01*
X11172380Y26352858D01*
X11220000Y26495715D01*
X11267619Y26543334D01*
X12172380Y27019524D02*
X12172380Y27210000D01*
X12124761Y27305239D01*
X12077142Y27352858D01*
X11934285Y27448096D01*
X11743809Y27495715D01*
X11362857Y27495715D01*
X11267619Y27448096D01*
X11220000Y27400477D01*
X11172380Y27305239D01*
X11172380Y27114762D01*
X11220000Y27019524D01*
X11267619Y26971905D01*
X11362857Y26924286D01*
X11600952Y26924286D01*
X11696190Y26971905D01*
X11743809Y27019524D01*
X11791428Y27114762D01*
X11791428Y27305239D01*
X11743809Y27400477D01*
X11696190Y27448096D01*
X11600952Y27495715D01*
X19117142Y26543334D02*
X19164761Y26495715D01*
X19212380Y26352858D01*
X19212380Y26257620D01*
X19164761Y26114762D01*
X19069523Y26019524D01*
X18974285Y25971905D01*
X18783809Y25924286D01*
X18640952Y25924286D01*
X18450476Y25971905D01*
X18355238Y26019524D01*
X18260000Y26114762D01*
X18212380Y26257620D01*
X18212380Y26352858D01*
X18260000Y26495715D01*
X18307619Y26543334D01*
X18640952Y27114762D02*
X18593333Y27019524D01*
X18545714Y26971905D01*
X18450476Y26924286D01*
X18402857Y26924286D01*
X18307619Y26971905D01*
X18260000Y27019524D01*
X18212380Y27114762D01*
X18212380Y27305239D01*
X18260000Y27400477D01*
X18307619Y27448096D01*
X18402857Y27495715D01*
X18450476Y27495715D01*
X18545714Y27448096D01*
X18593333Y27400477D01*
X18640952Y27305239D01*
X18640952Y27114762D01*
X18688571Y27019524D01*
X18736190Y26971905D01*
X18831428Y26924286D01*
X19021904Y26924286D01*
X19117142Y26971905D01*
X19164761Y27019524D01*
X19212380Y27114762D01*
X19212380Y27305239D01*
X19164761Y27400477D01*
X19117142Y27448096D01*
X19021904Y27495715D01*
X18831428Y27495715D01*
X18736190Y27448096D01*
X18688571Y27400477D01*
X18640952Y27305239D01*
X19407142Y18923334D02*
X19454761Y18875715D01*
X19502380Y18732858D01*
X19502380Y18637620D01*
X19454761Y18494762D01*
X19359523Y18399524D01*
X19264285Y18351905D01*
X19073809Y18304286D01*
X18930952Y18304286D01*
X18740476Y18351905D01*
X18645238Y18399524D01*
X18550000Y18494762D01*
X18502380Y18637620D01*
X18502380Y18732858D01*
X18550000Y18875715D01*
X18597619Y18923334D01*
X18502380Y19256667D02*
X18502380Y19923334D01*
X19502380Y19494762D01*
X35627142Y26543334D02*
X35674761Y26495715D01*
X35722380Y26352858D01*
X35722380Y26257620D01*
X35674761Y26114762D01*
X35579523Y26019524D01*
X35484285Y25971905D01*
X35293809Y25924286D01*
X35150952Y25924286D01*
X34960476Y25971905D01*
X34865238Y26019524D01*
X34770000Y26114762D01*
X34722380Y26257620D01*
X34722380Y26352858D01*
X34770000Y26495715D01*
X34817619Y26543334D01*
X34722380Y27400477D02*
X34722380Y27210000D01*
X34770000Y27114762D01*
X34817619Y27067143D01*
X34960476Y26971905D01*
X35150952Y26924286D01*
X35531904Y26924286D01*
X35627142Y26971905D01*
X35674761Y27019524D01*
X35722380Y27114762D01*
X35722380Y27305239D01*
X35674761Y27400477D01*
X35627142Y27448096D01*
X35531904Y27495715D01*
X35293809Y27495715D01*
X35198571Y27448096D01*
X35150952Y27400477D01*
X35103333Y27305239D01*
X35103333Y27114762D01*
X35150952Y27019524D01*
X35198571Y26971905D01*
X35293809Y26924286D01*
X80657142Y37893334D02*
X80704761Y37845715D01*
X80752380Y37702858D01*
X80752380Y37607620D01*
X80704761Y37464762D01*
X80609523Y37369524D01*
X80514285Y37321905D01*
X80323809Y37274286D01*
X80180952Y37274286D01*
X79990476Y37321905D01*
X79895238Y37369524D01*
X79800000Y37464762D01*
X79752380Y37607620D01*
X79752380Y37702858D01*
X79800000Y37845715D01*
X79847619Y37893334D01*
X79752380Y38798096D02*
X79752380Y38321905D01*
X80228571Y38274286D01*
X80180952Y38321905D01*
X80133333Y38417143D01*
X80133333Y38655239D01*
X80180952Y38750477D01*
X80228571Y38798096D01*
X80323809Y38845715D01*
X80561904Y38845715D01*
X80657142Y38798096D01*
X80704761Y38750477D01*
X80752380Y38655239D01*
X80752380Y38417143D01*
X80704761Y38321905D01*
X80657142Y38274286D01*
X16697142Y36623334D02*
X16744761Y36575715D01*
X16792380Y36432858D01*
X16792380Y36337620D01*
X16744761Y36194762D01*
X16649523Y36099524D01*
X16554285Y36051905D01*
X16363809Y36004286D01*
X16220952Y36004286D01*
X16030476Y36051905D01*
X15935238Y36099524D01*
X15840000Y36194762D01*
X15792380Y36337620D01*
X15792380Y36432858D01*
X15840000Y36575715D01*
X15887619Y36623334D01*
X16125714Y37480477D02*
X16792380Y37480477D01*
X15744761Y37242381D02*
X16459047Y37004286D01*
X16459047Y37623334D01*
X26047142Y36623334D02*
X26094761Y36575715D01*
X26142380Y36432858D01*
X26142380Y36337620D01*
X26094761Y36194762D01*
X25999523Y36099524D01*
X25904285Y36051905D01*
X25713809Y36004286D01*
X25570952Y36004286D01*
X25380476Y36051905D01*
X25285238Y36099524D01*
X25190000Y36194762D01*
X25142380Y36337620D01*
X25142380Y36432858D01*
X25190000Y36575715D01*
X25237619Y36623334D01*
X25142380Y36956667D02*
X25142380Y37575715D01*
X25523333Y37242381D01*
X25523333Y37385239D01*
X25570952Y37480477D01*
X25618571Y37528096D01*
X25713809Y37575715D01*
X25951904Y37575715D01*
X26047142Y37528096D01*
X26094761Y37480477D01*
X26142380Y37385239D01*
X26142380Y37099524D01*
X26094761Y37004286D01*
X26047142Y36956667D01*
X30547142Y46863334D02*
X30594761Y46815715D01*
X30642380Y46672858D01*
X30642380Y46577620D01*
X30594761Y46434762D01*
X30499523Y46339524D01*
X30404285Y46291905D01*
X30213809Y46244286D01*
X30070952Y46244286D01*
X29880476Y46291905D01*
X29785238Y46339524D01*
X29690000Y46434762D01*
X29642380Y46577620D01*
X29642380Y46672858D01*
X29690000Y46815715D01*
X29737619Y46863334D01*
X29737619Y47244286D02*
X29690000Y47291905D01*
X29642380Y47387143D01*
X29642380Y47625239D01*
X29690000Y47720477D01*
X29737619Y47768096D01*
X29832857Y47815715D01*
X29928095Y47815715D01*
X30070952Y47768096D01*
X30642380Y47196667D01*
X30642380Y47815715D01*
X27197142Y46863334D02*
X27244761Y46815715D01*
X27292380Y46672858D01*
X27292380Y46577620D01*
X27244761Y46434762D01*
X27149523Y46339524D01*
X27054285Y46291905D01*
X26863809Y46244286D01*
X26720952Y46244286D01*
X26530476Y46291905D01*
X26435238Y46339524D01*
X26340000Y46434762D01*
X26292380Y46577620D01*
X26292380Y46672858D01*
X26340000Y46815715D01*
X26387619Y46863334D01*
X27292380Y47815715D02*
X27292380Y47244286D01*
X27292380Y47530000D02*
X26292380Y47530000D01*
X26435238Y47434762D01*
X26530476Y47339524D01*
X26578095Y47244286D01*
M02*
