G04 #@! TF.GenerationSoftware,KiCad,Pcbnew,(5.1.4)-1*
G04 #@! TF.CreationDate,2020-05-24T19:30:54+02:00*
G04 #@! TF.ProjectId,transmitter,7472616e-736d-4697-9474-65722e6b6963,rev?*
G04 #@! TF.SameCoordinates,Original*
G04 #@! TF.FileFunction,Legend,Top*
G04 #@! TF.FilePolarity,Positive*
%FSLAX46Y46*%
G04 Gerber Fmt 4.6, Leading zero omitted, Abs format (unit mm)*
G04 Created by KiCad (PCBNEW (5.1.4)-1) date 2020-05-24 19:30:54*
%MOMM*%
%LPD*%
G04 APERTURE LIST*
%ADD10C,0.120000*%
%ADD11C,0.150000*%
G04 APERTURE END LIST*
D10*
X148432264Y-63737617D02*
G75*
G02X149020000Y-64130000I-1112264J-2302383D01*
G01*
X146221193Y-63683600D02*
G75*
G03X144720000Y-66040000I1098807J-2356400D01*
G01*
X146221193Y-68396400D02*
G75*
G02X144720000Y-66040000I1098807J2356400D01*
G01*
X148442045Y-68362631D02*
G75*
G03X149020000Y-67980000I-1122045J2322631D01*
G01*
X149020000Y-67980000D02*
X149020000Y-64130000D01*
D11*
X140970000Y-62230000D02*
X143510000Y-62230000D01*
X140970000Y-97790000D02*
X140970000Y-62230000D01*
X143510000Y-97790000D02*
X140970000Y-97790000D01*
X143510000Y-62230000D02*
X143510000Y-97790000D01*
X140970000Y-59690000D02*
X140970000Y-62230000D01*
X143510000Y-59690000D02*
X140970000Y-59690000D01*
X143510000Y-62230000D02*
X143510000Y-59690000D01*
X125730000Y-62230000D02*
X128270000Y-62230000D01*
X125730000Y-97790000D02*
X125730000Y-62230000D01*
X128270000Y-97790000D02*
X125730000Y-97790000D01*
X128270000Y-62230000D02*
X128270000Y-97790000D01*
X125730000Y-59690000D02*
X125730000Y-62230000D01*
X128270000Y-59690000D02*
X125730000Y-59690000D01*
X128270000Y-62230000D02*
X128270000Y-59690000D01*
D10*
X106680000Y-96520000D02*
X106680000Y-97790000D01*
X104140000Y-96520000D02*
X104140000Y-97790000D01*
X101600000Y-96520000D02*
X101600000Y-97790000D01*
X99060000Y-96520000D02*
X99060000Y-97790000D01*
X88900000Y-96520000D02*
X88900000Y-99060000D01*
X91440000Y-96520000D02*
X88900000Y-96520000D01*
X91440000Y-99060000D02*
X91440000Y-96520000D01*
X97790000Y-99060000D02*
X91440000Y-99060000D01*
X82550000Y-100330000D02*
X82550000Y-99060000D01*
X99060000Y-100330000D02*
X82550000Y-100330000D01*
X99060000Y-107950000D02*
X99060000Y-100330000D01*
X106680000Y-107950000D02*
X99060000Y-107950000D01*
X106680000Y-100330000D02*
X106680000Y-107950000D01*
X123190000Y-100330000D02*
X106680000Y-100330000D01*
X123190000Y-99060000D02*
X123190000Y-100330000D01*
X121920000Y-99060000D02*
X123190000Y-99060000D01*
X121920000Y-88900000D02*
X121920000Y-99060000D01*
X114300000Y-88900000D02*
X121920000Y-88900000D01*
X114300000Y-99060000D02*
X114300000Y-88900000D01*
X107950000Y-99060000D02*
X114300000Y-99060000D01*
X107950000Y-97790000D02*
X107950000Y-99060000D01*
X97790000Y-97790000D02*
X107950000Y-97790000D01*
X97790000Y-99060000D02*
X97790000Y-97790000D01*
X82550000Y-99060000D02*
X88900000Y-99060000D01*
X70630000Y-64470000D02*
X70630000Y-66470000D01*
X72870000Y-64470000D02*
X70630000Y-64470000D01*
X73954000Y-86450000D02*
X73861000Y-86356000D01*
X76205000Y-88700000D02*
X76146000Y-88641000D01*
X73714000Y-86620000D02*
X73656000Y-86561000D01*
X75999000Y-88905000D02*
X75906000Y-88811000D01*
X73954000Y-81370000D02*
X73861000Y-81276000D01*
X76205000Y-83620000D02*
X76146000Y-83561000D01*
X73714000Y-81540000D02*
X73656000Y-81481000D01*
X75999000Y-83825000D02*
X75906000Y-83731000D01*
X73954000Y-76290000D02*
X73861000Y-76196000D01*
X76205000Y-78540000D02*
X76146000Y-78481000D01*
X73714000Y-76460000D02*
X73656000Y-76401000D01*
X75999000Y-78745000D02*
X75906000Y-78651000D01*
X73954000Y-71210000D02*
X73861000Y-71116000D01*
X76205000Y-73460000D02*
X76146000Y-73401000D01*
X73714000Y-71380000D02*
X73656000Y-71321000D01*
X75999000Y-73665000D02*
X75906000Y-73571000D01*
X78990000Y-90230000D02*
X70870000Y-90230000D01*
X78990000Y-64710000D02*
X70870000Y-64710000D01*
X70870000Y-64710000D02*
X70870000Y-90230000D01*
X78990000Y-64710000D02*
X78990000Y-90230000D01*
X76930000Y-64710000D02*
X76930000Y-90230000D01*
X72930000Y-64710000D02*
X72930000Y-90230000D01*
X76610000Y-87630000D02*
G75*
G03X76610000Y-87630000I-1680000J0D01*
G01*
X76610000Y-82550000D02*
G75*
G03X76610000Y-82550000I-1680000J0D01*
G01*
X76610000Y-77470000D02*
G75*
G03X76610000Y-77470000I-1680000J0D01*
G01*
X76610000Y-72390000D02*
G75*
G03X76610000Y-72390000I-1680000J0D01*
G01*
X73249550Y-67339383D02*
G75*
G02X73446000Y-66521000I1680450J29383D01*
G01*
X74140912Y-65826047D02*
G75*
G02X75719000Y-65826000I789088J-1483953D01*
G01*
X76413953Y-66520912D02*
G75*
G02X76414000Y-68099000I-1483953J-789088D01*
G01*
X75719088Y-68793953D02*
G75*
G02X74141000Y-68794000I-789088J1483953D01*
G01*
X73446648Y-68098712D02*
G75*
G02X73250000Y-67310000I1483352J788712D01*
G01*
X94960000Y-73600000D02*
X93710000Y-73600000D01*
X94960000Y-94040000D02*
X94960000Y-73600000D01*
X90460000Y-94040000D02*
X94960000Y-94040000D01*
X90460000Y-73600000D02*
X90460000Y-94040000D01*
X91710000Y-73600000D02*
X90460000Y-73600000D01*
X93710000Y-73600000D02*
G75*
G02X91710000Y-73600000I-1000000J0D01*
G01*
X105290000Y-60960000D02*
X102750000Y-60960000D01*
X105290000Y-58420000D02*
X102750000Y-58420000D01*
X105290000Y-55880000D02*
X102750000Y-55880000D01*
X121180000Y-63540000D02*
X105290000Y-63540000D01*
X121180000Y-53300000D02*
X105290000Y-53300000D01*
X121180000Y-53300000D02*
X121180000Y-63540000D01*
X105290000Y-53300000D02*
X105290000Y-63540000D01*
X104290000Y-80260000D02*
X106530000Y-80260000D01*
X104290000Y-80020000D02*
X106530000Y-80020000D01*
X104290000Y-80140000D02*
X106530000Y-80140000D01*
X105410000Y-75970000D02*
X105410000Y-76620000D01*
X105410000Y-81510000D02*
X105410000Y-80860000D01*
X104290000Y-76620000D02*
X104290000Y-80860000D01*
X106530000Y-76620000D02*
X104290000Y-76620000D01*
X106530000Y-80860000D02*
X106530000Y-76620000D01*
X104290000Y-80860000D02*
X106530000Y-80860000D01*
X84020000Y-57750000D02*
X81080000Y-57750000D01*
X84020000Y-57990000D02*
X81080000Y-57990000D01*
X84020000Y-57870000D02*
X81080000Y-57870000D01*
X82550000Y-63430000D02*
X82550000Y-62410000D01*
X82550000Y-55950000D02*
X82550000Y-56970000D01*
X84020000Y-62410000D02*
X84020000Y-56970000D01*
X81080000Y-62410000D02*
X84020000Y-62410000D01*
X81080000Y-56970000D02*
X81080000Y-62410000D01*
X84020000Y-56970000D02*
X81080000Y-56970000D01*
X81430000Y-81430000D02*
X83670000Y-81430000D01*
X81430000Y-88670000D02*
X83670000Y-88670000D01*
X83670000Y-88670000D02*
X83670000Y-81430000D01*
X81430000Y-88670000D02*
X81430000Y-81430000D01*
X81430000Y-73810000D02*
X83670000Y-73810000D01*
X81430000Y-81050000D02*
X83670000Y-81050000D01*
X83670000Y-81050000D02*
X83670000Y-73810000D01*
X81430000Y-81050000D02*
X81430000Y-73810000D01*
X86210000Y-81050000D02*
X83970000Y-81050000D01*
X86210000Y-73810000D02*
X83970000Y-73810000D01*
X83970000Y-73810000D02*
X83970000Y-81050000D01*
X86210000Y-73810000D02*
X86210000Y-81050000D01*
X86210000Y-88670000D02*
X83970000Y-88670000D01*
X86210000Y-81430000D02*
X83970000Y-81430000D01*
X83970000Y-81430000D02*
X83970000Y-88670000D01*
X86210000Y-81430000D02*
X86210000Y-88670000D01*
X102720000Y-81050000D02*
X100480000Y-81050000D01*
X102720000Y-73810000D02*
X100480000Y-73810000D01*
X100480000Y-73810000D02*
X100480000Y-81050000D01*
X102720000Y-73810000D02*
X102720000Y-81050000D01*
X150010000Y-62460000D02*
X152250000Y-62460000D01*
X150010000Y-69700000D02*
X152250000Y-69700000D01*
X152250000Y-69700000D02*
X152250000Y-62460000D01*
X150010000Y-69700000D02*
X150010000Y-62460000D01*
X87455000Y-71359698D02*
X88255000Y-71359698D01*
X87855000Y-71759698D02*
X87855000Y-70959698D01*
X89637000Y-63269000D02*
X90703000Y-63269000D01*
X89402000Y-63309000D02*
X90938000Y-63309000D01*
X89222000Y-63349000D02*
X91118000Y-63349000D01*
X89072000Y-63389000D02*
X91268000Y-63389000D01*
X88941000Y-63429000D02*
X91399000Y-63429000D01*
X88824000Y-63469000D02*
X91516000Y-63469000D01*
X88717000Y-63509000D02*
X91623000Y-63509000D01*
X88618000Y-63549000D02*
X91722000Y-63549000D01*
X88525000Y-63589000D02*
X91815000Y-63589000D01*
X88439000Y-63629000D02*
X91901000Y-63629000D01*
X88357000Y-63669000D02*
X91983000Y-63669000D01*
X88280000Y-63709000D02*
X92060000Y-63709000D01*
X88206000Y-63749000D02*
X92134000Y-63749000D01*
X88136000Y-63789000D02*
X92204000Y-63789000D01*
X91210000Y-63829000D02*
X92272000Y-63829000D01*
X88068000Y-63829000D02*
X89130000Y-63829000D01*
X91210000Y-63869000D02*
X92336000Y-63869000D01*
X88004000Y-63869000D02*
X89130000Y-63869000D01*
X91210000Y-63909000D02*
X92398000Y-63909000D01*
X87942000Y-63909000D02*
X89130000Y-63909000D01*
X91210000Y-63949000D02*
X92457000Y-63949000D01*
X87883000Y-63949000D02*
X89130000Y-63949000D01*
X91210000Y-63989000D02*
X92515000Y-63989000D01*
X87825000Y-63989000D02*
X89130000Y-63989000D01*
X91210000Y-64029000D02*
X92570000Y-64029000D01*
X87770000Y-64029000D02*
X89130000Y-64029000D01*
X91210000Y-64069000D02*
X92624000Y-64069000D01*
X87716000Y-64069000D02*
X89130000Y-64069000D01*
X91210000Y-64109000D02*
X92675000Y-64109000D01*
X87665000Y-64109000D02*
X89130000Y-64109000D01*
X91210000Y-64149000D02*
X92726000Y-64149000D01*
X87614000Y-64149000D02*
X89130000Y-64149000D01*
X91210000Y-64189000D02*
X92774000Y-64189000D01*
X87566000Y-64189000D02*
X89130000Y-64189000D01*
X91210000Y-64229000D02*
X92821000Y-64229000D01*
X87519000Y-64229000D02*
X89130000Y-64229000D01*
X91210000Y-64269000D02*
X92867000Y-64269000D01*
X87473000Y-64269000D02*
X89130000Y-64269000D01*
X91210000Y-64309000D02*
X92911000Y-64309000D01*
X87429000Y-64309000D02*
X89130000Y-64309000D01*
X91210000Y-64349000D02*
X92954000Y-64349000D01*
X87386000Y-64349000D02*
X89130000Y-64349000D01*
X91210000Y-64389000D02*
X92996000Y-64389000D01*
X87344000Y-64389000D02*
X89130000Y-64389000D01*
X91210000Y-64429000D02*
X93037000Y-64429000D01*
X87303000Y-64429000D02*
X89130000Y-64429000D01*
X91210000Y-64469000D02*
X93077000Y-64469000D01*
X87263000Y-64469000D02*
X89130000Y-64469000D01*
X91210000Y-64509000D02*
X93115000Y-64509000D01*
X87225000Y-64509000D02*
X89130000Y-64509000D01*
X91210000Y-64549000D02*
X93153000Y-64549000D01*
X87187000Y-64549000D02*
X89130000Y-64549000D01*
X91210000Y-64589000D02*
X93189000Y-64589000D01*
X87151000Y-64589000D02*
X89130000Y-64589000D01*
X91210000Y-64629000D02*
X93225000Y-64629000D01*
X87115000Y-64629000D02*
X89130000Y-64629000D01*
X91210000Y-64669000D02*
X93260000Y-64669000D01*
X87080000Y-64669000D02*
X89130000Y-64669000D01*
X91210000Y-64709000D02*
X93294000Y-64709000D01*
X87046000Y-64709000D02*
X89130000Y-64709000D01*
X91210000Y-64749000D02*
X93326000Y-64749000D01*
X87014000Y-64749000D02*
X89130000Y-64749000D01*
X91210000Y-64789000D02*
X93359000Y-64789000D01*
X86981000Y-64789000D02*
X89130000Y-64789000D01*
X91210000Y-64829000D02*
X93390000Y-64829000D01*
X86950000Y-64829000D02*
X89130000Y-64829000D01*
X91210000Y-64869000D02*
X93420000Y-64869000D01*
X86920000Y-64869000D02*
X89130000Y-64869000D01*
X91210000Y-64909000D02*
X93450000Y-64909000D01*
X86890000Y-64909000D02*
X89130000Y-64909000D01*
X91210000Y-64949000D02*
X93479000Y-64949000D01*
X86861000Y-64949000D02*
X89130000Y-64949000D01*
X91210000Y-64989000D02*
X93508000Y-64989000D01*
X86832000Y-64989000D02*
X89130000Y-64989000D01*
X91210000Y-65029000D02*
X93535000Y-65029000D01*
X86805000Y-65029000D02*
X89130000Y-65029000D01*
X91210000Y-65069000D02*
X93562000Y-65069000D01*
X86778000Y-65069000D02*
X89130000Y-65069000D01*
X91210000Y-65109000D02*
X93588000Y-65109000D01*
X86752000Y-65109000D02*
X89130000Y-65109000D01*
X91210000Y-65149000D02*
X93614000Y-65149000D01*
X86726000Y-65149000D02*
X89130000Y-65149000D01*
X91210000Y-65189000D02*
X93639000Y-65189000D01*
X86701000Y-65189000D02*
X89130000Y-65189000D01*
X91210000Y-65229000D02*
X93663000Y-65229000D01*
X86677000Y-65229000D02*
X89130000Y-65229000D01*
X91210000Y-65269000D02*
X93687000Y-65269000D01*
X86653000Y-65269000D02*
X89130000Y-65269000D01*
X91210000Y-65309000D02*
X93710000Y-65309000D01*
X86630000Y-65309000D02*
X89130000Y-65309000D01*
X91210000Y-65349000D02*
X93732000Y-65349000D01*
X86608000Y-65349000D02*
X89130000Y-65349000D01*
X91210000Y-65389000D02*
X93754000Y-65389000D01*
X86586000Y-65389000D02*
X89130000Y-65389000D01*
X91210000Y-65429000D02*
X93776000Y-65429000D01*
X86564000Y-65429000D02*
X89130000Y-65429000D01*
X91210000Y-65469000D02*
X93797000Y-65469000D01*
X86543000Y-65469000D02*
X89130000Y-65469000D01*
X91210000Y-65509000D02*
X93817000Y-65509000D01*
X86523000Y-65509000D02*
X89130000Y-65509000D01*
X91210000Y-65549000D02*
X93836000Y-65549000D01*
X86504000Y-65549000D02*
X89130000Y-65549000D01*
X91210000Y-65589000D02*
X93856000Y-65589000D01*
X86484000Y-65589000D02*
X89130000Y-65589000D01*
X91210000Y-65629000D02*
X93874000Y-65629000D01*
X86466000Y-65629000D02*
X89130000Y-65629000D01*
X91210000Y-65669000D02*
X93892000Y-65669000D01*
X86448000Y-65669000D02*
X89130000Y-65669000D01*
X91210000Y-65709000D02*
X93910000Y-65709000D01*
X86430000Y-65709000D02*
X89130000Y-65709000D01*
X91210000Y-65749000D02*
X93927000Y-65749000D01*
X86413000Y-65749000D02*
X89130000Y-65749000D01*
X91210000Y-65789000D02*
X93944000Y-65789000D01*
X86396000Y-65789000D02*
X89130000Y-65789000D01*
X91210000Y-65829000D02*
X93960000Y-65829000D01*
X86380000Y-65829000D02*
X89130000Y-65829000D01*
X91210000Y-65869000D02*
X93975000Y-65869000D01*
X86365000Y-65869000D02*
X89130000Y-65869000D01*
X86349000Y-65909000D02*
X93991000Y-65909000D01*
X86335000Y-65949000D02*
X94005000Y-65949000D01*
X86320000Y-65989000D02*
X94020000Y-65989000D01*
X86307000Y-66029000D02*
X94033000Y-66029000D01*
X86293000Y-66069000D02*
X94047000Y-66069000D01*
X86281000Y-66109000D02*
X94059000Y-66109000D01*
X86268000Y-66149000D02*
X94072000Y-66149000D01*
X86256000Y-66189000D02*
X94084000Y-66189000D01*
X86245000Y-66229000D02*
X94095000Y-66229000D01*
X86234000Y-66269000D02*
X94106000Y-66269000D01*
X86223000Y-66309000D02*
X94117000Y-66309000D01*
X86213000Y-66349000D02*
X94127000Y-66349000D01*
X86203000Y-66389000D02*
X94137000Y-66389000D01*
X86194000Y-66429000D02*
X94146000Y-66429000D01*
X86185000Y-66469000D02*
X94155000Y-66469000D01*
X86176000Y-66509000D02*
X94164000Y-66509000D01*
X86168000Y-66549000D02*
X94172000Y-66549000D01*
X86160000Y-66589000D02*
X94180000Y-66589000D01*
X86153000Y-66629000D02*
X94187000Y-66629000D01*
X86146000Y-66670000D02*
X94194000Y-66670000D01*
X86140000Y-66710000D02*
X94200000Y-66710000D01*
X86133000Y-66750000D02*
X94207000Y-66750000D01*
X86128000Y-66790000D02*
X94212000Y-66790000D01*
X86122000Y-66830000D02*
X94218000Y-66830000D01*
X86118000Y-66870000D02*
X94222000Y-66870000D01*
X86113000Y-66910000D02*
X94227000Y-66910000D01*
X86109000Y-66950000D02*
X94231000Y-66950000D01*
X86105000Y-66990000D02*
X94235000Y-66990000D01*
X86102000Y-67030000D02*
X94238000Y-67030000D01*
X86099000Y-67070000D02*
X94241000Y-67070000D01*
X86096000Y-67110000D02*
X94244000Y-67110000D01*
X86094000Y-67150000D02*
X94246000Y-67150000D01*
X86093000Y-67190000D02*
X94247000Y-67190000D01*
X86091000Y-67230000D02*
X94249000Y-67230000D01*
X86090000Y-67270000D02*
X94250000Y-67270000D01*
X86090000Y-67310000D02*
X94250000Y-67310000D01*
X86090000Y-67350000D02*
X94250000Y-67350000D01*
X94290000Y-67350000D02*
G75*
G03X94290000Y-67350000I-4120000J0D01*
G01*
X95400000Y-63730000D02*
X97640000Y-63730000D01*
X95400000Y-70970000D02*
X97640000Y-70970000D01*
X97640000Y-70970000D02*
X97640000Y-63730000D01*
X95400000Y-70970000D02*
X95400000Y-63730000D01*
X97640000Y-60730000D02*
X95400000Y-60730000D01*
X97640000Y-53490000D02*
X95400000Y-53490000D01*
X95400000Y-53490000D02*
X95400000Y-60730000D01*
X97640000Y-53490000D02*
X97640000Y-60730000D01*
X92885000Y-53100302D02*
X92085000Y-53100302D01*
X92485000Y-52700302D02*
X92485000Y-53500302D01*
X90703000Y-61191000D02*
X89637000Y-61191000D01*
X90938000Y-61151000D02*
X89402000Y-61151000D01*
X91118000Y-61111000D02*
X89222000Y-61111000D01*
X91268000Y-61071000D02*
X89072000Y-61071000D01*
X91399000Y-61031000D02*
X88941000Y-61031000D01*
X91516000Y-60991000D02*
X88824000Y-60991000D01*
X91623000Y-60951000D02*
X88717000Y-60951000D01*
X91722000Y-60911000D02*
X88618000Y-60911000D01*
X91815000Y-60871000D02*
X88525000Y-60871000D01*
X91901000Y-60831000D02*
X88439000Y-60831000D01*
X91983000Y-60791000D02*
X88357000Y-60791000D01*
X92060000Y-60751000D02*
X88280000Y-60751000D01*
X92134000Y-60711000D02*
X88206000Y-60711000D01*
X92204000Y-60671000D02*
X88136000Y-60671000D01*
X89130000Y-60631000D02*
X88068000Y-60631000D01*
X92272000Y-60631000D02*
X91210000Y-60631000D01*
X89130000Y-60591000D02*
X88004000Y-60591000D01*
X92336000Y-60591000D02*
X91210000Y-60591000D01*
X89130000Y-60551000D02*
X87942000Y-60551000D01*
X92398000Y-60551000D02*
X91210000Y-60551000D01*
X89130000Y-60511000D02*
X87883000Y-60511000D01*
X92457000Y-60511000D02*
X91210000Y-60511000D01*
X89130000Y-60471000D02*
X87825000Y-60471000D01*
X92515000Y-60471000D02*
X91210000Y-60471000D01*
X89130000Y-60431000D02*
X87770000Y-60431000D01*
X92570000Y-60431000D02*
X91210000Y-60431000D01*
X89130000Y-60391000D02*
X87716000Y-60391000D01*
X92624000Y-60391000D02*
X91210000Y-60391000D01*
X89130000Y-60351000D02*
X87665000Y-60351000D01*
X92675000Y-60351000D02*
X91210000Y-60351000D01*
X89130000Y-60311000D02*
X87614000Y-60311000D01*
X92726000Y-60311000D02*
X91210000Y-60311000D01*
X89130000Y-60271000D02*
X87566000Y-60271000D01*
X92774000Y-60271000D02*
X91210000Y-60271000D01*
X89130000Y-60231000D02*
X87519000Y-60231000D01*
X92821000Y-60231000D02*
X91210000Y-60231000D01*
X89130000Y-60191000D02*
X87473000Y-60191000D01*
X92867000Y-60191000D02*
X91210000Y-60191000D01*
X89130000Y-60151000D02*
X87429000Y-60151000D01*
X92911000Y-60151000D02*
X91210000Y-60151000D01*
X89130000Y-60111000D02*
X87386000Y-60111000D01*
X92954000Y-60111000D02*
X91210000Y-60111000D01*
X89130000Y-60071000D02*
X87344000Y-60071000D01*
X92996000Y-60071000D02*
X91210000Y-60071000D01*
X89130000Y-60031000D02*
X87303000Y-60031000D01*
X93037000Y-60031000D02*
X91210000Y-60031000D01*
X89130000Y-59991000D02*
X87263000Y-59991000D01*
X93077000Y-59991000D02*
X91210000Y-59991000D01*
X89130000Y-59951000D02*
X87225000Y-59951000D01*
X93115000Y-59951000D02*
X91210000Y-59951000D01*
X89130000Y-59911000D02*
X87187000Y-59911000D01*
X93153000Y-59911000D02*
X91210000Y-59911000D01*
X89130000Y-59871000D02*
X87151000Y-59871000D01*
X93189000Y-59871000D02*
X91210000Y-59871000D01*
X89130000Y-59831000D02*
X87115000Y-59831000D01*
X93225000Y-59831000D02*
X91210000Y-59831000D01*
X89130000Y-59791000D02*
X87080000Y-59791000D01*
X93260000Y-59791000D02*
X91210000Y-59791000D01*
X89130000Y-59751000D02*
X87046000Y-59751000D01*
X93294000Y-59751000D02*
X91210000Y-59751000D01*
X89130000Y-59711000D02*
X87014000Y-59711000D01*
X93326000Y-59711000D02*
X91210000Y-59711000D01*
X89130000Y-59671000D02*
X86981000Y-59671000D01*
X93359000Y-59671000D02*
X91210000Y-59671000D01*
X89130000Y-59631000D02*
X86950000Y-59631000D01*
X93390000Y-59631000D02*
X91210000Y-59631000D01*
X89130000Y-59591000D02*
X86920000Y-59591000D01*
X93420000Y-59591000D02*
X91210000Y-59591000D01*
X89130000Y-59551000D02*
X86890000Y-59551000D01*
X93450000Y-59551000D02*
X91210000Y-59551000D01*
X89130000Y-59511000D02*
X86861000Y-59511000D01*
X93479000Y-59511000D02*
X91210000Y-59511000D01*
X89130000Y-59471000D02*
X86832000Y-59471000D01*
X93508000Y-59471000D02*
X91210000Y-59471000D01*
X89130000Y-59431000D02*
X86805000Y-59431000D01*
X93535000Y-59431000D02*
X91210000Y-59431000D01*
X89130000Y-59391000D02*
X86778000Y-59391000D01*
X93562000Y-59391000D02*
X91210000Y-59391000D01*
X89130000Y-59351000D02*
X86752000Y-59351000D01*
X93588000Y-59351000D02*
X91210000Y-59351000D01*
X89130000Y-59311000D02*
X86726000Y-59311000D01*
X93614000Y-59311000D02*
X91210000Y-59311000D01*
X89130000Y-59271000D02*
X86701000Y-59271000D01*
X93639000Y-59271000D02*
X91210000Y-59271000D01*
X89130000Y-59231000D02*
X86677000Y-59231000D01*
X93663000Y-59231000D02*
X91210000Y-59231000D01*
X89130000Y-59191000D02*
X86653000Y-59191000D01*
X93687000Y-59191000D02*
X91210000Y-59191000D01*
X89130000Y-59151000D02*
X86630000Y-59151000D01*
X93710000Y-59151000D02*
X91210000Y-59151000D01*
X89130000Y-59111000D02*
X86608000Y-59111000D01*
X93732000Y-59111000D02*
X91210000Y-59111000D01*
X89130000Y-59071000D02*
X86586000Y-59071000D01*
X93754000Y-59071000D02*
X91210000Y-59071000D01*
X89130000Y-59031000D02*
X86564000Y-59031000D01*
X93776000Y-59031000D02*
X91210000Y-59031000D01*
X89130000Y-58991000D02*
X86543000Y-58991000D01*
X93797000Y-58991000D02*
X91210000Y-58991000D01*
X89130000Y-58951000D02*
X86523000Y-58951000D01*
X93817000Y-58951000D02*
X91210000Y-58951000D01*
X89130000Y-58911000D02*
X86504000Y-58911000D01*
X93836000Y-58911000D02*
X91210000Y-58911000D01*
X89130000Y-58871000D02*
X86484000Y-58871000D01*
X93856000Y-58871000D02*
X91210000Y-58871000D01*
X89130000Y-58831000D02*
X86466000Y-58831000D01*
X93874000Y-58831000D02*
X91210000Y-58831000D01*
X89130000Y-58791000D02*
X86448000Y-58791000D01*
X93892000Y-58791000D02*
X91210000Y-58791000D01*
X89130000Y-58751000D02*
X86430000Y-58751000D01*
X93910000Y-58751000D02*
X91210000Y-58751000D01*
X89130000Y-58711000D02*
X86413000Y-58711000D01*
X93927000Y-58711000D02*
X91210000Y-58711000D01*
X89130000Y-58671000D02*
X86396000Y-58671000D01*
X93944000Y-58671000D02*
X91210000Y-58671000D01*
X89130000Y-58631000D02*
X86380000Y-58631000D01*
X93960000Y-58631000D02*
X91210000Y-58631000D01*
X89130000Y-58591000D02*
X86365000Y-58591000D01*
X93975000Y-58591000D02*
X91210000Y-58591000D01*
X93991000Y-58551000D02*
X86349000Y-58551000D01*
X94005000Y-58511000D02*
X86335000Y-58511000D01*
X94020000Y-58471000D02*
X86320000Y-58471000D01*
X94033000Y-58431000D02*
X86307000Y-58431000D01*
X94047000Y-58391000D02*
X86293000Y-58391000D01*
X94059000Y-58351000D02*
X86281000Y-58351000D01*
X94072000Y-58311000D02*
X86268000Y-58311000D01*
X94084000Y-58271000D02*
X86256000Y-58271000D01*
X94095000Y-58231000D02*
X86245000Y-58231000D01*
X94106000Y-58191000D02*
X86234000Y-58191000D01*
X94117000Y-58151000D02*
X86223000Y-58151000D01*
X94127000Y-58111000D02*
X86213000Y-58111000D01*
X94137000Y-58071000D02*
X86203000Y-58071000D01*
X94146000Y-58031000D02*
X86194000Y-58031000D01*
X94155000Y-57991000D02*
X86185000Y-57991000D01*
X94164000Y-57951000D02*
X86176000Y-57951000D01*
X94172000Y-57911000D02*
X86168000Y-57911000D01*
X94180000Y-57871000D02*
X86160000Y-57871000D01*
X94187000Y-57831000D02*
X86153000Y-57831000D01*
X94194000Y-57790000D02*
X86146000Y-57790000D01*
X94200000Y-57750000D02*
X86140000Y-57750000D01*
X94207000Y-57710000D02*
X86133000Y-57710000D01*
X94212000Y-57670000D02*
X86128000Y-57670000D01*
X94218000Y-57630000D02*
X86122000Y-57630000D01*
X94222000Y-57590000D02*
X86118000Y-57590000D01*
X94227000Y-57550000D02*
X86113000Y-57550000D01*
X94231000Y-57510000D02*
X86109000Y-57510000D01*
X94235000Y-57470000D02*
X86105000Y-57470000D01*
X94238000Y-57430000D02*
X86102000Y-57430000D01*
X94241000Y-57390000D02*
X86099000Y-57390000D01*
X94244000Y-57350000D02*
X86096000Y-57350000D01*
X94246000Y-57310000D02*
X86094000Y-57310000D01*
X94247000Y-57270000D02*
X86093000Y-57270000D01*
X94249000Y-57230000D02*
X86091000Y-57230000D01*
X94250000Y-57190000D02*
X86090000Y-57190000D01*
X94250000Y-57150000D02*
X86090000Y-57150000D01*
X94250000Y-57110000D02*
X86090000Y-57110000D01*
X94290000Y-57110000D02*
G75*
G03X94290000Y-57110000I-4120000J0D01*
G01*
D11*
X143212380Y-68071904D02*
X144021904Y-68071904D01*
X144117142Y-68024285D01*
X144164761Y-67976666D01*
X144212380Y-67881428D01*
X144212380Y-67690952D01*
X144164761Y-67595714D01*
X144117142Y-67548095D01*
X144021904Y-67500476D01*
X143212380Y-67500476D01*
X143307619Y-67071904D02*
X143260000Y-67024285D01*
X143212380Y-66929047D01*
X143212380Y-66690952D01*
X143260000Y-66595714D01*
X143307619Y-66548095D01*
X143402857Y-66500476D01*
X143498095Y-66500476D01*
X143640952Y-66548095D01*
X144212380Y-67119523D01*
X144212380Y-66500476D01*
X147792380Y-61698095D02*
X146792380Y-61698095D01*
X146792380Y-61317142D01*
X146840000Y-61221904D01*
X146887619Y-61174285D01*
X146982857Y-61126666D01*
X147125714Y-61126666D01*
X147220952Y-61174285D01*
X147268571Y-61221904D01*
X147316190Y-61317142D01*
X147316190Y-61698095D01*
X146792380Y-60269523D02*
X146792380Y-60460000D01*
X146840000Y-60555238D01*
X146887619Y-60602857D01*
X147030476Y-60698095D01*
X147220952Y-60745714D01*
X147601904Y-60745714D01*
X147697142Y-60698095D01*
X147744761Y-60650476D01*
X147792380Y-60555238D01*
X147792380Y-60364761D01*
X147744761Y-60269523D01*
X147697142Y-60221904D01*
X147601904Y-60174285D01*
X147363809Y-60174285D01*
X147268571Y-60221904D01*
X147220952Y-60269523D01*
X147173333Y-60364761D01*
X147173333Y-60555238D01*
X147220952Y-60650476D01*
X147268571Y-60698095D01*
X147363809Y-60745714D01*
X132552380Y-61698095D02*
X131552380Y-61698095D01*
X131552380Y-61317142D01*
X131600000Y-61221904D01*
X131647619Y-61174285D01*
X131742857Y-61126666D01*
X131885714Y-61126666D01*
X131980952Y-61174285D01*
X132028571Y-61221904D01*
X132076190Y-61317142D01*
X132076190Y-61698095D01*
X131552380Y-60221904D02*
X131552380Y-60698095D01*
X132028571Y-60745714D01*
X131980952Y-60698095D01*
X131933333Y-60602857D01*
X131933333Y-60364761D01*
X131980952Y-60269523D01*
X132028571Y-60221904D01*
X132123809Y-60174285D01*
X132361904Y-60174285D01*
X132457142Y-60221904D01*
X132504761Y-60269523D01*
X132552380Y-60364761D01*
X132552380Y-60602857D01*
X132504761Y-60698095D01*
X132457142Y-60745714D01*
X102108095Y-92662380D02*
X102108095Y-93471904D01*
X102155714Y-93567142D01*
X102203333Y-93614761D01*
X102298571Y-93662380D01*
X102489047Y-93662380D01*
X102584285Y-93614761D01*
X102631904Y-93567142D01*
X102679523Y-93471904D01*
X102679523Y-92662380D01*
X103060476Y-92662380D02*
X103679523Y-92662380D01*
X103346190Y-93043333D01*
X103489047Y-93043333D01*
X103584285Y-93090952D01*
X103631904Y-93138571D01*
X103679523Y-93233809D01*
X103679523Y-93471904D01*
X103631904Y-93567142D01*
X103584285Y-93614761D01*
X103489047Y-93662380D01*
X103203333Y-93662380D01*
X103108095Y-93614761D01*
X103060476Y-93567142D01*
X79442380Y-77803333D02*
X80156666Y-77803333D01*
X80299523Y-77850952D01*
X80394761Y-77946190D01*
X80442380Y-78089047D01*
X80442380Y-78184285D01*
X80442380Y-76803333D02*
X80442380Y-77374761D01*
X80442380Y-77089047D02*
X79442380Y-77089047D01*
X79585238Y-77184285D01*
X79680476Y-77279523D01*
X79728095Y-77374761D01*
X147828095Y-95312380D02*
X147828095Y-94312380D01*
X147828095Y-94788571D02*
X148399523Y-94788571D01*
X148399523Y-95312380D02*
X148399523Y-94312380D01*
X149304285Y-94645714D02*
X149304285Y-95312380D01*
X149066190Y-94264761D02*
X148828095Y-94979047D01*
X149447142Y-94979047D01*
X147828095Y-52132380D02*
X147828095Y-51132380D01*
X147828095Y-51608571D02*
X148399523Y-51608571D01*
X148399523Y-52132380D02*
X148399523Y-51132380D01*
X148780476Y-51132380D02*
X149399523Y-51132380D01*
X149066190Y-51513333D01*
X149209047Y-51513333D01*
X149304285Y-51560952D01*
X149351904Y-51608571D01*
X149399523Y-51703809D01*
X149399523Y-51941904D01*
X149351904Y-52037142D01*
X149304285Y-52084761D01*
X149209047Y-52132380D01*
X148923333Y-52132380D01*
X148828095Y-52084761D01*
X148780476Y-52037142D01*
X72898095Y-95312380D02*
X72898095Y-94312380D01*
X72898095Y-94788571D02*
X73469523Y-94788571D01*
X73469523Y-95312380D02*
X73469523Y-94312380D01*
X73898095Y-94407619D02*
X73945714Y-94360000D01*
X74040952Y-94312380D01*
X74279047Y-94312380D01*
X74374285Y-94360000D01*
X74421904Y-94407619D01*
X74469523Y-94502857D01*
X74469523Y-94598095D01*
X74421904Y-94740952D01*
X73850476Y-95312380D01*
X74469523Y-95312380D01*
X72898095Y-52132380D02*
X72898095Y-51132380D01*
X72898095Y-51608571D02*
X73469523Y-51608571D01*
X73469523Y-52132380D02*
X73469523Y-51132380D01*
X74469523Y-52132380D02*
X73898095Y-52132380D01*
X74183809Y-52132380D02*
X74183809Y-51132380D01*
X74088571Y-51275238D01*
X73993333Y-51370476D01*
X73898095Y-51418095D01*
X91948095Y-72052380D02*
X91948095Y-72861904D01*
X91995714Y-72957142D01*
X92043333Y-73004761D01*
X92138571Y-73052380D01*
X92329047Y-73052380D01*
X92424285Y-73004761D01*
X92471904Y-72957142D01*
X92519523Y-72861904D01*
X92519523Y-72052380D01*
X93424285Y-72385714D02*
X93424285Y-73052380D01*
X93186190Y-72004761D02*
X92948095Y-72719047D01*
X93567142Y-72719047D01*
X121632380Y-59181904D02*
X122441904Y-59181904D01*
X122537142Y-59134285D01*
X122584761Y-59086666D01*
X122632380Y-58991428D01*
X122632380Y-58800952D01*
X122584761Y-58705714D01*
X122537142Y-58658095D01*
X122441904Y-58610476D01*
X121632380Y-58610476D01*
X122632380Y-57610476D02*
X122632380Y-58181904D01*
X122632380Y-57896190D02*
X121632380Y-57896190D01*
X121775238Y-57991428D01*
X121870476Y-58086666D01*
X121918095Y-58181904D01*
X103742380Y-79478095D02*
X102742380Y-79478095D01*
X102742380Y-79240000D01*
X102790000Y-79097142D01*
X102885238Y-79001904D01*
X102980476Y-78954285D01*
X103170952Y-78906666D01*
X103313809Y-78906666D01*
X103504285Y-78954285D01*
X103599523Y-79001904D01*
X103694761Y-79097142D01*
X103742380Y-79240000D01*
X103742380Y-79478095D01*
X102837619Y-78525714D02*
X102790000Y-78478095D01*
X102742380Y-78382857D01*
X102742380Y-78144761D01*
X102790000Y-78049523D01*
X102837619Y-78001904D01*
X102932857Y-77954285D01*
X103028095Y-77954285D01*
X103170952Y-78001904D01*
X103742380Y-78573333D01*
X103742380Y-77954285D01*
X104062380Y-82811904D02*
X103062380Y-82811904D01*
X104062380Y-82240476D02*
X103490952Y-82669047D01*
X103062380Y-82240476D02*
X103633809Y-82811904D01*
X85472380Y-60428095D02*
X84472380Y-60428095D01*
X84472380Y-60190000D01*
X84520000Y-60047142D01*
X84615238Y-59951904D01*
X84710476Y-59904285D01*
X84900952Y-59856666D01*
X85043809Y-59856666D01*
X85234285Y-59904285D01*
X85329523Y-59951904D01*
X85424761Y-60047142D01*
X85472380Y-60190000D01*
X85472380Y-60428095D01*
X85472380Y-58904285D02*
X85472380Y-59475714D01*
X85472380Y-59190000D02*
X84472380Y-59190000D01*
X84615238Y-59285238D01*
X84710476Y-59380476D01*
X84758095Y-59475714D01*
X85102380Y-54871904D02*
X84102380Y-54871904D01*
X85102380Y-54300476D02*
X84530952Y-54729047D01*
X84102380Y-54300476D02*
X84673809Y-54871904D01*
X80367142Y-85732857D02*
X80414761Y-85780476D01*
X80462380Y-85923333D01*
X80462380Y-86018571D01*
X80414761Y-86161428D01*
X80319523Y-86256666D01*
X80224285Y-86304285D01*
X80033809Y-86351904D01*
X79890952Y-86351904D01*
X79700476Y-86304285D01*
X79605238Y-86256666D01*
X79510000Y-86161428D01*
X79462380Y-86018571D01*
X79462380Y-85923333D01*
X79510000Y-85780476D01*
X79557619Y-85732857D01*
X80462380Y-84780476D02*
X80462380Y-85351904D01*
X80462380Y-85066190D02*
X79462380Y-85066190D01*
X79605238Y-85161428D01*
X79700476Y-85256666D01*
X79748095Y-85351904D01*
X79462380Y-84161428D02*
X79462380Y-84066190D01*
X79510000Y-83970952D01*
X79557619Y-83923333D01*
X79652857Y-83875714D01*
X79843333Y-83828095D01*
X80081428Y-83828095D01*
X80271904Y-83875714D01*
X80367142Y-83923333D01*
X80414761Y-83970952D01*
X80462380Y-84066190D01*
X80462380Y-84161428D01*
X80414761Y-84256666D01*
X80367142Y-84304285D01*
X80271904Y-84351904D01*
X80081428Y-84399523D01*
X79843333Y-84399523D01*
X79652857Y-84351904D01*
X79557619Y-84304285D01*
X79510000Y-84256666D01*
X79462380Y-84161428D01*
X80657142Y-77596666D02*
X80704761Y-77644285D01*
X80752380Y-77787142D01*
X80752380Y-77882380D01*
X80704761Y-78025238D01*
X80609523Y-78120476D01*
X80514285Y-78168095D01*
X80323809Y-78215714D01*
X80180952Y-78215714D01*
X79990476Y-78168095D01*
X79895238Y-78120476D01*
X79800000Y-78025238D01*
X79752380Y-77882380D01*
X79752380Y-77787142D01*
X79800000Y-77644285D01*
X79847619Y-77596666D01*
X80752380Y-77120476D02*
X80752380Y-76930000D01*
X80704761Y-76834761D01*
X80657142Y-76787142D01*
X80514285Y-76691904D01*
X80323809Y-76644285D01*
X79942857Y-76644285D01*
X79847619Y-76691904D01*
X79800000Y-76739523D01*
X79752380Y-76834761D01*
X79752380Y-77025238D01*
X79800000Y-77120476D01*
X79847619Y-77168095D01*
X79942857Y-77215714D01*
X80180952Y-77215714D01*
X80276190Y-77168095D01*
X80323809Y-77120476D01*
X80371428Y-77025238D01*
X80371428Y-76834761D01*
X80323809Y-76739523D01*
X80276190Y-76691904D01*
X80180952Y-76644285D01*
X87697142Y-77596666D02*
X87744761Y-77644285D01*
X87792380Y-77787142D01*
X87792380Y-77882380D01*
X87744761Y-78025238D01*
X87649523Y-78120476D01*
X87554285Y-78168095D01*
X87363809Y-78215714D01*
X87220952Y-78215714D01*
X87030476Y-78168095D01*
X86935238Y-78120476D01*
X86840000Y-78025238D01*
X86792380Y-77882380D01*
X86792380Y-77787142D01*
X86840000Y-77644285D01*
X86887619Y-77596666D01*
X87220952Y-77025238D02*
X87173333Y-77120476D01*
X87125714Y-77168095D01*
X87030476Y-77215714D01*
X86982857Y-77215714D01*
X86887619Y-77168095D01*
X86840000Y-77120476D01*
X86792380Y-77025238D01*
X86792380Y-76834761D01*
X86840000Y-76739523D01*
X86887619Y-76691904D01*
X86982857Y-76644285D01*
X87030476Y-76644285D01*
X87125714Y-76691904D01*
X87173333Y-76739523D01*
X87220952Y-76834761D01*
X87220952Y-77025238D01*
X87268571Y-77120476D01*
X87316190Y-77168095D01*
X87411428Y-77215714D01*
X87601904Y-77215714D01*
X87697142Y-77168095D01*
X87744761Y-77120476D01*
X87792380Y-77025238D01*
X87792380Y-76834761D01*
X87744761Y-76739523D01*
X87697142Y-76691904D01*
X87601904Y-76644285D01*
X87411428Y-76644285D01*
X87316190Y-76691904D01*
X87268571Y-76739523D01*
X87220952Y-76834761D01*
X87987142Y-85216666D02*
X88034761Y-85264285D01*
X88082380Y-85407142D01*
X88082380Y-85502380D01*
X88034761Y-85645238D01*
X87939523Y-85740476D01*
X87844285Y-85788095D01*
X87653809Y-85835714D01*
X87510952Y-85835714D01*
X87320476Y-85788095D01*
X87225238Y-85740476D01*
X87130000Y-85645238D01*
X87082380Y-85502380D01*
X87082380Y-85407142D01*
X87130000Y-85264285D01*
X87177619Y-85216666D01*
X87082380Y-84883333D02*
X87082380Y-84216666D01*
X88082380Y-84645238D01*
X104207142Y-77596666D02*
X104254761Y-77644285D01*
X104302380Y-77787142D01*
X104302380Y-77882380D01*
X104254761Y-78025238D01*
X104159523Y-78120476D01*
X104064285Y-78168095D01*
X103873809Y-78215714D01*
X103730952Y-78215714D01*
X103540476Y-78168095D01*
X103445238Y-78120476D01*
X103350000Y-78025238D01*
X103302380Y-77882380D01*
X103302380Y-77787142D01*
X103350000Y-77644285D01*
X103397619Y-77596666D01*
X103302380Y-76739523D02*
X103302380Y-76930000D01*
X103350000Y-77025238D01*
X103397619Y-77072857D01*
X103540476Y-77168095D01*
X103730952Y-77215714D01*
X104111904Y-77215714D01*
X104207142Y-77168095D01*
X104254761Y-77120476D01*
X104302380Y-77025238D01*
X104302380Y-76834761D01*
X104254761Y-76739523D01*
X104207142Y-76691904D01*
X104111904Y-76644285D01*
X103873809Y-76644285D01*
X103778571Y-76691904D01*
X103730952Y-76739523D01*
X103683333Y-76834761D01*
X103683333Y-77025238D01*
X103730952Y-77120476D01*
X103778571Y-77168095D01*
X103873809Y-77215714D01*
X149237142Y-66246666D02*
X149284761Y-66294285D01*
X149332380Y-66437142D01*
X149332380Y-66532380D01*
X149284761Y-66675238D01*
X149189523Y-66770476D01*
X149094285Y-66818095D01*
X148903809Y-66865714D01*
X148760952Y-66865714D01*
X148570476Y-66818095D01*
X148475238Y-66770476D01*
X148380000Y-66675238D01*
X148332380Y-66532380D01*
X148332380Y-66437142D01*
X148380000Y-66294285D01*
X148427619Y-66246666D01*
X148332380Y-65341904D02*
X148332380Y-65818095D01*
X148808571Y-65865714D01*
X148760952Y-65818095D01*
X148713333Y-65722857D01*
X148713333Y-65484761D01*
X148760952Y-65389523D01*
X148808571Y-65341904D01*
X148903809Y-65294285D01*
X149141904Y-65294285D01*
X149237142Y-65341904D01*
X149284761Y-65389523D01*
X149332380Y-65484761D01*
X149332380Y-65722857D01*
X149284761Y-65818095D01*
X149237142Y-65865714D01*
X85277142Y-67516666D02*
X85324761Y-67564285D01*
X85372380Y-67707142D01*
X85372380Y-67802380D01*
X85324761Y-67945238D01*
X85229523Y-68040476D01*
X85134285Y-68088095D01*
X84943809Y-68135714D01*
X84800952Y-68135714D01*
X84610476Y-68088095D01*
X84515238Y-68040476D01*
X84420000Y-67945238D01*
X84372380Y-67802380D01*
X84372380Y-67707142D01*
X84420000Y-67564285D01*
X84467619Y-67516666D01*
X84705714Y-66659523D02*
X85372380Y-66659523D01*
X84324761Y-66897619D02*
X85039047Y-67135714D01*
X85039047Y-66516666D01*
X94627142Y-67516666D02*
X94674761Y-67564285D01*
X94722380Y-67707142D01*
X94722380Y-67802380D01*
X94674761Y-67945238D01*
X94579523Y-68040476D01*
X94484285Y-68088095D01*
X94293809Y-68135714D01*
X94150952Y-68135714D01*
X93960476Y-68088095D01*
X93865238Y-68040476D01*
X93770000Y-67945238D01*
X93722380Y-67802380D01*
X93722380Y-67707142D01*
X93770000Y-67564285D01*
X93817619Y-67516666D01*
X93722380Y-67183333D02*
X93722380Y-66564285D01*
X94103333Y-66897619D01*
X94103333Y-66754761D01*
X94150952Y-66659523D01*
X94198571Y-66611904D01*
X94293809Y-66564285D01*
X94531904Y-66564285D01*
X94627142Y-66611904D01*
X94674761Y-66659523D01*
X94722380Y-66754761D01*
X94722380Y-67040476D01*
X94674761Y-67135714D01*
X94627142Y-67183333D01*
X99127142Y-57276666D02*
X99174761Y-57324285D01*
X99222380Y-57467142D01*
X99222380Y-57562380D01*
X99174761Y-57705238D01*
X99079523Y-57800476D01*
X98984285Y-57848095D01*
X98793809Y-57895714D01*
X98650952Y-57895714D01*
X98460476Y-57848095D01*
X98365238Y-57800476D01*
X98270000Y-57705238D01*
X98222380Y-57562380D01*
X98222380Y-57467142D01*
X98270000Y-57324285D01*
X98317619Y-57276666D01*
X98317619Y-56895714D02*
X98270000Y-56848095D01*
X98222380Y-56752857D01*
X98222380Y-56514761D01*
X98270000Y-56419523D01*
X98317619Y-56371904D01*
X98412857Y-56324285D01*
X98508095Y-56324285D01*
X98650952Y-56371904D01*
X99222380Y-56943333D01*
X99222380Y-56324285D01*
X95777142Y-57276666D02*
X95824761Y-57324285D01*
X95872380Y-57467142D01*
X95872380Y-57562380D01*
X95824761Y-57705238D01*
X95729523Y-57800476D01*
X95634285Y-57848095D01*
X95443809Y-57895714D01*
X95300952Y-57895714D01*
X95110476Y-57848095D01*
X95015238Y-57800476D01*
X94920000Y-57705238D01*
X94872380Y-57562380D01*
X94872380Y-57467142D01*
X94920000Y-57324285D01*
X94967619Y-57276666D01*
X95872380Y-56324285D02*
X95872380Y-56895714D01*
X95872380Y-56610000D02*
X94872380Y-56610000D01*
X95015238Y-56705238D01*
X95110476Y-56800476D01*
X95158095Y-56895714D01*
M02*
