G04 #@! TF.GenerationSoftware,KiCad,Pcbnew,5.1.6*
G04 #@! TF.CreationDate,2020-05-30T14:27:56+02:00*
G04 #@! TF.ProjectId,transmitter,7472616e-736d-4697-9474-65722e6b6963,rev?*
G04 #@! TF.SameCoordinates,PX41672a0PY6350ce0*
G04 #@! TF.FileFunction,Copper,L1,Top*
G04 #@! TF.FilePolarity,Positive*
%FSLAX46Y46*%
G04 Gerber Fmt 4.6, Leading zero omitted, Abs format (unit mm)*
G04 Created by KiCad (PCBNEW 5.1.6) date 2020-05-30 14:27:56*
%MOMM*%
%LPD*%
G01*
G04 APERTURE LIST*
G04 #@! TA.AperFunction,ComponentPad*
%ADD10R,1.500000X1.500000*%
G04 #@! TD*
G04 #@! TA.AperFunction,ComponentPad*
%ADD11C,1.500000*%
G04 #@! TD*
G04 #@! TA.AperFunction,ComponentPad*
%ADD12O,2.400000X1.600000*%
G04 #@! TD*
G04 #@! TA.AperFunction,ComponentPad*
%ADD13O,1.600000X2.400000*%
G04 #@! TD*
G04 #@! TA.AperFunction,ComponentPad*
%ADD14C,2.500000*%
G04 #@! TD*
G04 #@! TA.AperFunction,ComponentPad*
%ADD15R,2.500000X2.500000*%
G04 #@! TD*
G04 #@! TA.AperFunction,ComponentPad*
%ADD16R,2.400000X1.600000*%
G04 #@! TD*
G04 #@! TA.AperFunction,ComponentPad*
%ADD17O,2.000000X1.905000*%
G04 #@! TD*
G04 #@! TA.AperFunction,ComponentPad*
%ADD18R,2.000000X1.905000*%
G04 #@! TD*
G04 #@! TA.AperFunction,ComponentPad*
%ADD19O,1.600000X1.600000*%
G04 #@! TD*
G04 #@! TA.AperFunction,ComponentPad*
%ADD20R,1.600000X1.600000*%
G04 #@! TD*
G04 #@! TA.AperFunction,ComponentPad*
%ADD21O,2.200000X2.200000*%
G04 #@! TD*
G04 #@! TA.AperFunction,ComponentPad*
%ADD22R,2.200000X2.200000*%
G04 #@! TD*
G04 #@! TA.AperFunction,ComponentPad*
%ADD23C,1.600000*%
G04 #@! TD*
G04 #@! TA.AperFunction,ViaPad*
%ADD24C,1.600000*%
G04 #@! TD*
G04 #@! TA.AperFunction,Conductor*
%ADD25C,1.950000*%
G04 #@! TD*
G04 APERTURE END LIST*
D10*
X78740000Y35560000D03*
D11*
X78740000Y40640000D03*
X78740000Y38100000D03*
D12*
X73660000Y7620000D03*
X73660000Y10160000D03*
X73660000Y12700000D03*
X73660000Y15240000D03*
X73660000Y17780000D03*
X73660000Y20320000D03*
X73660000Y22860000D03*
X73660000Y25400000D03*
X73660000Y27940000D03*
X73660000Y30480000D03*
X73660000Y33020000D03*
X73660000Y35560000D03*
X73660000Y38100000D03*
X73660000Y40640000D03*
X73660000Y43180000D03*
X58420000Y7620000D03*
X58420000Y10160000D03*
X58420000Y12700000D03*
X58420000Y15240000D03*
X58420000Y17780000D03*
X58420000Y20320000D03*
X58420000Y22860000D03*
X58420000Y25400000D03*
X58420000Y27940000D03*
X58420000Y30480000D03*
X58420000Y33020000D03*
X58420000Y35560000D03*
X58420000Y38100000D03*
X58420000Y40640000D03*
X58420000Y43180000D03*
D13*
X38100000Y7620000D03*
X35560000Y7620000D03*
X33020000Y7620000D03*
X30480000Y7620000D03*
D14*
X6350000Y16510000D03*
X6350000Y21590000D03*
X6350000Y26670000D03*
X6350000Y31750000D03*
D15*
X6350000Y36830000D03*
D12*
X27940000Y29210000D03*
X20320000Y11430000D03*
X27940000Y26670000D03*
X20320000Y13970000D03*
X27940000Y24130000D03*
X20320000Y16510000D03*
X27940000Y21590000D03*
X20320000Y19050000D03*
X27940000Y19050000D03*
X20320000Y21590000D03*
X27940000Y16510000D03*
X20320000Y24130000D03*
X27940000Y13970000D03*
X20320000Y26670000D03*
X27940000Y11430000D03*
D16*
X20320000Y29210000D03*
D17*
X33020000Y43180000D03*
X33020000Y45720000D03*
D18*
X33020000Y48260000D03*
D19*
X36830000Y29210000D03*
D20*
X36830000Y21590000D03*
D21*
X13970000Y39370000D03*
D22*
X13970000Y49530000D03*
D23*
X13970000Y21590000D03*
X13970000Y16590000D03*
X13970000Y29210000D03*
X13970000Y24210000D03*
X16510000Y24210000D03*
X16510000Y29210000D03*
X16510000Y16590000D03*
X16510000Y21590000D03*
X33020000Y24210000D03*
X33020000Y29210000D03*
X82550000Y40560000D03*
X82550000Y35560000D03*
X21590000Y39290000D03*
D20*
X21590000Y34290000D03*
D23*
X27940000Y39290000D03*
X27940000Y34290000D03*
X27940000Y44530000D03*
X27940000Y49530000D03*
X21590000Y44530000D03*
D20*
X21590000Y49530000D03*
D24*
X40640000Y21590000D03*
X40640000Y31750000D03*
D25*
X40640000Y21590000D02*
X40640000Y31750000D01*
M02*
