M48
; DRILL file {KiCad (5.1.4)-1} date 9/03/2020 20:38:49
; FORMAT={-:-/ absolute / inch / decimal}
; #@! TF.CreationDate,2020-03-09T20:38:49+01:00
; #@! TF.GenerationSoftware,Kicad,Pcbnew,(5.1.4)-1
; #@! TF.FileFunction,Plated,1,2,PTH
FMAT,2
INCH
T1C0.0295
T2C0.0315
T3C0.0394
T4C0.0433
T5C0.0512
%
G90
G05
T1
X5.55Y-2.65
X5.55Y-2.75
X5.6Y-2.7
T2
X4.3Y-2.85
X4.3Y-3.3
X5.65Y-2.9
X5.65Y-3.1
X3.55Y-4.05
X3.65Y-4.05
X3.75Y-4.05
X3.85Y-4.05
X3.35Y-2.5531
X3.35Y-2.75
X3.6Y-2.15
X3.6Y-2.3469
X4.0Y-3.0
X4.0Y-3.1969
X3.1Y-3.0
X3.1Y-3.1969
X3.45Y-3.0
X3.45Y-3.1
X3.45Y-3.2
X3.45Y-3.3
X3.45Y-3.4
X3.45Y-3.5
X3.45Y-3.6
X3.45Y-3.7
X3.75Y-3.0
X3.75Y-3.1
X3.75Y-3.2
X3.75Y-3.3
X3.75Y-3.4
X3.75Y-3.5
X3.75Y-3.6
X3.75Y-3.7
X3.2Y-3.0
X3.2Y-3.1969
X3.6Y-2.5531
X3.6Y-2.75
X3.1Y-3.3
X3.1Y-3.4969
X3.2Y-3.3
X3.2Y-3.4969
X5.55Y-2.9031
X5.55Y-3.1
X3.35Y-2.15
X3.35Y-2.3469
X4.15Y-3.0
X4.15Y-3.3
T3
X5.34Y-2.705
X5.34Y-2.805
X5.34Y-2.905
X5.34Y-3.005
X5.34Y-3.105
X5.34Y-3.205
X5.34Y-3.305
X5.34Y-3.405
X5.34Y-3.505
X5.34Y-3.605
X5.34Y-3.705
X5.34Y-3.805
X5.34Y-3.905
X5.34Y-4.005
X5.34Y-4.105
X4.74Y-2.705
X4.74Y-2.805
X4.74Y-2.905
X4.74Y-3.005
X4.74Y-3.105
X4.74Y-3.205
X4.74Y-3.305
X4.74Y-3.405
X4.74Y-3.505
X4.74Y-3.605
X4.74Y-3.705
X4.74Y-3.805
X4.74Y-3.905
X4.74Y-4.005
X4.74Y-4.105
T4
X3.05Y-2.15
X3.05Y-2.55
X3.8Y-2.2
X3.8Y-2.3
X3.8Y-2.4
T5
X2.75Y-2.85
X2.75Y-3.05
X2.75Y-3.25
X2.75Y-3.45
X2.75Y-3.65
T0
M30
