G04 #@! TF.GenerationSoftware,KiCad,Pcbnew,5.1.6*
G04 #@! TF.CreationDate,2020-05-30T14:28:26+02:00*
G04 #@! TF.ProjectId,transmitter,7472616e-736d-4697-9474-65722e6b6963,rev?*
G04 #@! TF.SameCoordinates,PX41672a0PY6350ce0*
G04 #@! TF.FileFunction,Copper,L2,Bot*
G04 #@! TF.FilePolarity,Positive*
%FSLAX46Y46*%
G04 Gerber Fmt 4.6, Leading zero omitted, Abs format (unit mm)*
G04 Created by KiCad (PCBNEW 5.1.6) date 2020-05-30 14:28:26*
%MOMM*%
%LPD*%
G01*
G04 APERTURE LIST*
G04 #@! TA.AperFunction,ComponentPad*
%ADD10R,1.500000X1.500000*%
G04 #@! TD*
G04 #@! TA.AperFunction,ComponentPad*
%ADD11C,1.500000*%
G04 #@! TD*
G04 #@! TA.AperFunction,ComponentPad*
%ADD12O,2.400000X1.600000*%
G04 #@! TD*
G04 #@! TA.AperFunction,ComponentPad*
%ADD13O,1.600000X2.400000*%
G04 #@! TD*
G04 #@! TA.AperFunction,ComponentPad*
%ADD14C,2.500000*%
G04 #@! TD*
G04 #@! TA.AperFunction,ComponentPad*
%ADD15R,2.500000X2.500000*%
G04 #@! TD*
G04 #@! TA.AperFunction,ComponentPad*
%ADD16R,2.400000X1.600000*%
G04 #@! TD*
G04 #@! TA.AperFunction,ComponentPad*
%ADD17O,2.000000X1.905000*%
G04 #@! TD*
G04 #@! TA.AperFunction,ComponentPad*
%ADD18R,2.000000X1.905000*%
G04 #@! TD*
G04 #@! TA.AperFunction,ComponentPad*
%ADD19O,1.600000X1.600000*%
G04 #@! TD*
G04 #@! TA.AperFunction,ComponentPad*
%ADD20R,1.600000X1.600000*%
G04 #@! TD*
G04 #@! TA.AperFunction,ComponentPad*
%ADD21O,2.200000X2.200000*%
G04 #@! TD*
G04 #@! TA.AperFunction,ComponentPad*
%ADD22R,2.200000X2.200000*%
G04 #@! TD*
G04 #@! TA.AperFunction,ComponentPad*
%ADD23C,1.600000*%
G04 #@! TD*
G04 #@! TA.AperFunction,ViaPad*
%ADD24C,1.600000*%
G04 #@! TD*
G04 #@! TA.AperFunction,Conductor*
%ADD25C,1.950000*%
G04 #@! TD*
G04 #@! TA.AperFunction,Conductor*
%ADD26C,0.254000*%
G04 #@! TD*
G04 APERTURE END LIST*
D10*
X78740000Y35560000D03*
D11*
X78740000Y40640000D03*
X78740000Y38100000D03*
D12*
X73660000Y7620000D03*
X73660000Y10160000D03*
X73660000Y12700000D03*
X73660000Y15240000D03*
X73660000Y17780000D03*
X73660000Y20320000D03*
X73660000Y22860000D03*
X73660000Y25400000D03*
X73660000Y27940000D03*
X73660000Y30480000D03*
X73660000Y33020000D03*
X73660000Y35560000D03*
X73660000Y38100000D03*
X73660000Y40640000D03*
X73660000Y43180000D03*
X58420000Y7620000D03*
X58420000Y10160000D03*
X58420000Y12700000D03*
X58420000Y15240000D03*
X58420000Y17780000D03*
X58420000Y20320000D03*
X58420000Y22860000D03*
X58420000Y25400000D03*
X58420000Y27940000D03*
X58420000Y30480000D03*
X58420000Y33020000D03*
X58420000Y35560000D03*
X58420000Y38100000D03*
X58420000Y40640000D03*
X58420000Y43180000D03*
D13*
X38100000Y7620000D03*
X35560000Y7620000D03*
X33020000Y7620000D03*
X30480000Y7620000D03*
D14*
X6350000Y16510000D03*
X6350000Y21590000D03*
X6350000Y26670000D03*
X6350000Y31750000D03*
D15*
X6350000Y36830000D03*
D12*
X27940000Y29210000D03*
X20320000Y11430000D03*
X27940000Y26670000D03*
X20320000Y13970000D03*
X27940000Y24130000D03*
X20320000Y16510000D03*
X27940000Y21590000D03*
X20320000Y19050000D03*
X27940000Y19050000D03*
X20320000Y21590000D03*
X27940000Y16510000D03*
X20320000Y24130000D03*
X27940000Y13970000D03*
X20320000Y26670000D03*
X27940000Y11430000D03*
D16*
X20320000Y29210000D03*
D17*
X33020000Y43180000D03*
X33020000Y45720000D03*
D18*
X33020000Y48260000D03*
D19*
X36830000Y29210000D03*
D20*
X36830000Y21590000D03*
D21*
X13970000Y39370000D03*
D22*
X13970000Y49530000D03*
D23*
X13970000Y21590000D03*
X13970000Y16590000D03*
X13970000Y29210000D03*
X13970000Y24210000D03*
X16510000Y24210000D03*
X16510000Y29210000D03*
X16510000Y16590000D03*
X16510000Y21590000D03*
X33020000Y24210000D03*
X33020000Y29210000D03*
X82550000Y40560000D03*
X82550000Y35560000D03*
X21590000Y39290000D03*
D20*
X21590000Y34290000D03*
D23*
X27940000Y39290000D03*
X27940000Y34290000D03*
X27940000Y44530000D03*
X27940000Y49530000D03*
X21590000Y44530000D03*
D20*
X21590000Y49530000D03*
D24*
X40640000Y21590000D03*
X40640000Y31750000D03*
D25*
X40640000Y21590000D02*
X40640000Y20320000D01*
X40640000Y20320000D02*
X39370000Y19050000D01*
X39370000Y19050000D02*
X34290000Y19050000D01*
X34290000Y19050000D02*
X31750000Y16510000D01*
X31750000Y16510000D02*
X27940000Y16510000D01*
X58420000Y43180000D02*
X54610000Y43180000D01*
X54610000Y43180000D02*
X43180000Y31750000D01*
X43180000Y31750000D02*
X40640000Y31750000D01*
X58420000Y40640000D02*
X55880000Y40640000D01*
X36830000Y29210000D02*
X44450000Y29210000D01*
X44450000Y29210000D02*
X55880000Y40640000D01*
X29130000Y45720000D02*
X27940000Y44530000D01*
X33020000Y45720000D02*
X29130000Y45720000D01*
X20240000Y39290000D02*
X21590000Y39290000D01*
X17780000Y36830000D02*
X20240000Y39290000D01*
X12780000Y44530000D02*
X10160000Y41910000D01*
X21590000Y44530000D02*
X12780000Y44530000D01*
X10160000Y41910000D02*
X3810000Y41910000D01*
X3810000Y41910000D02*
X2540000Y40640000D01*
X17780000Y36830000D02*
X17780000Y34290000D01*
X26590000Y44530000D02*
X27940000Y43180000D01*
X25480000Y44530000D02*
X26590000Y44530000D01*
X27940000Y44530000D02*
X27940000Y43180000D01*
X25480000Y44530000D02*
X21590000Y44530000D01*
X27940000Y44530000D02*
X25480000Y44530000D01*
X27940000Y40640000D02*
X26590000Y39290000D01*
X26590000Y39290000D02*
X21590000Y39290000D01*
X27940000Y39290000D02*
X26590000Y39290000D01*
X27940000Y40640000D02*
X27940000Y39290000D01*
X27940000Y43180000D02*
X27940000Y40640000D01*
X16510000Y31750000D02*
X15240000Y31750000D01*
X15240000Y31750000D02*
X13970000Y30480000D01*
X13970000Y30480000D02*
X13970000Y29210000D01*
X12700000Y29210000D02*
X13970000Y29210000D01*
X11430000Y22860000D02*
X11430000Y27940000D01*
X11430000Y27940000D02*
X12700000Y29210000D01*
X11430000Y22860000D02*
X12700000Y21590000D01*
X12700000Y21590000D02*
X13970000Y21590000D01*
X17780000Y34290000D02*
X17780000Y31750000D01*
X16510000Y31750000D02*
X17780000Y31750000D01*
X17780000Y31750000D02*
X22860000Y31750000D01*
X22860000Y31750000D02*
X24130000Y30480000D01*
X24130000Y30480000D02*
X24130000Y27940000D01*
X24130000Y27940000D02*
X25400000Y26670000D01*
X25400000Y26670000D02*
X27940000Y26670000D01*
X30560000Y26670000D02*
X33020000Y24210000D01*
X27940000Y26670000D02*
X30560000Y26670000D01*
X63500000Y50800000D02*
X64770000Y49530000D01*
X41910000Y50800000D02*
X63500000Y50800000D01*
X33020000Y45720000D02*
X36830000Y45720000D01*
X36830000Y45720000D02*
X41910000Y50800000D01*
X64770000Y49530000D02*
X64770000Y41910000D01*
X58420000Y35560000D02*
X64770000Y35560000D01*
X73660000Y40640000D02*
X64770000Y40640000D01*
X64770000Y41910000D02*
X64770000Y40640000D01*
X64770000Y40640000D02*
X64770000Y35560000D01*
X78740000Y40640000D02*
X73660000Y40640000D01*
X64770000Y7620000D02*
X64770000Y35560000D01*
X62230000Y5080000D02*
X64770000Y7620000D01*
X38100000Y7620000D02*
X40640000Y5080000D01*
X40640000Y5080000D02*
X62230000Y5080000D01*
X2540000Y40640000D02*
X2540000Y33020000D01*
X2540000Y33020000D02*
X3810000Y31750000D01*
X3810000Y31750000D02*
X6350000Y31750000D01*
X82470000Y40640000D02*
X82550000Y40560000D01*
X78740000Y40640000D02*
X82470000Y40640000D01*
X33020000Y10770000D02*
X33020000Y10160000D01*
X33020000Y10160000D02*
X33020000Y7620000D01*
X58420000Y20320000D02*
X48260000Y20320000D01*
X48260000Y20320000D02*
X41910000Y13970000D01*
X41910000Y13970000D02*
X36830000Y13970000D01*
X36830000Y13970000D02*
X34290000Y11430000D01*
X34290000Y11430000D02*
X33680000Y11430000D01*
X33680000Y11430000D02*
X33020000Y10770000D01*
X35560000Y7620000D02*
X35560000Y8890000D01*
X35560000Y8890000D02*
X38100000Y11430000D01*
X38100000Y11430000D02*
X43180000Y11430000D01*
X43180000Y11430000D02*
X49530000Y17780000D01*
X49530000Y17780000D02*
X58420000Y17780000D01*
X27940000Y34290000D02*
X21590000Y34290000D01*
X31750000Y43180000D02*
X33020000Y43180000D01*
X30480000Y41910000D02*
X31750000Y43180000D01*
X27940000Y34290000D02*
X30480000Y36830000D01*
X30480000Y36830000D02*
X30480000Y41910000D01*
X27940000Y34290000D02*
X27940000Y29210000D01*
X27940000Y29210000D02*
X33020000Y29210000D01*
X36830000Y25400000D02*
X33020000Y29210000D01*
X41910000Y25400000D02*
X36830000Y25400000D01*
X30480000Y7620000D02*
X30480000Y11430000D01*
X35560000Y16510000D02*
X40640000Y16510000D01*
X40640000Y16510000D02*
X44450000Y20320000D01*
X44450000Y20320000D02*
X44450000Y22860000D01*
X44450000Y22860000D02*
X41910000Y25400000D01*
X73660000Y35560000D02*
X68580000Y35560000D01*
X68580000Y35560000D02*
X67310000Y34290000D01*
X67310000Y34290000D02*
X67310000Y6350000D01*
X78740000Y35560000D02*
X73660000Y35560000D01*
X67310000Y6350000D02*
X63500000Y2540000D01*
X63500000Y2540000D02*
X33020000Y2540000D01*
X33020000Y2540000D02*
X30480000Y5080000D01*
X30480000Y5080000D02*
X30480000Y7620000D01*
X35560000Y16510000D02*
X33020000Y13970000D01*
X33020000Y13970000D02*
X31750000Y13970000D01*
X31750000Y13970000D02*
X30480000Y12700000D01*
X30480000Y12700000D02*
X30480000Y11430000D01*
X73660000Y33020000D02*
X78740000Y33020000D01*
X78740000Y38100000D02*
X81280000Y38100000D01*
X81280000Y38100000D02*
X82550000Y36830000D01*
X82550000Y36830000D02*
X82550000Y35560000D01*
X82550000Y35560000D02*
X82550000Y34290000D01*
X82550000Y34290000D02*
X81280000Y33020000D01*
X81280000Y33020000D02*
X78740000Y33020000D01*
X13970000Y49530000D02*
X21590000Y49530000D01*
X21590000Y49530000D02*
X27940000Y49530000D01*
X31750000Y49530000D02*
X33020000Y48260000D01*
X27940000Y49530000D02*
X31750000Y49530000D01*
X20320000Y19050000D02*
X17780000Y19050000D01*
X17780000Y19050000D02*
X16510000Y17780000D01*
X16510000Y17780000D02*
X16510000Y16590000D01*
X20320000Y21590000D02*
X16510000Y21590000D01*
X20320000Y24130000D02*
X17780000Y24130000D01*
X17700000Y24210000D02*
X16510000Y24210000D01*
X17780000Y24130000D02*
X17700000Y24210000D01*
X20320000Y29210000D02*
X16510000Y29210000D01*
X15240000Y26670000D02*
X13970000Y25400000D01*
X13970000Y25400000D02*
X13970000Y24210000D01*
X15240000Y26670000D02*
X20320000Y26670000D01*
X13970000Y16590000D02*
X13970000Y15240000D01*
X13970000Y15240000D02*
X15240000Y13970000D01*
X20320000Y16510000D02*
X19470572Y16510000D01*
X19470572Y16510000D02*
X16930572Y13970000D01*
X16930572Y13970000D02*
X15240000Y13970000D01*
X13970000Y39370000D02*
X11430000Y36830000D01*
X11430000Y36830000D02*
X6350000Y36830000D01*
X36830000Y21590000D02*
X33020000Y21590000D01*
X33020000Y21590000D02*
X30480000Y19050000D01*
X30480000Y19050000D02*
X27940000Y19050000D01*
X26670000Y21590000D02*
X25400000Y20320000D01*
X27940000Y21590000D02*
X26670000Y21590000D01*
X25400000Y8890000D02*
X22860000Y6350000D01*
X25400000Y20320000D02*
X25400000Y8890000D01*
X6350000Y16510000D02*
X7620000Y16510000D01*
X7620000Y16510000D02*
X8890000Y15240000D01*
X8890000Y15240000D02*
X8890000Y12700000D01*
X22860000Y6350000D02*
X17780000Y6350000D01*
X17780000Y6350000D02*
X15240000Y8890000D01*
X15240000Y8890000D02*
X12700000Y8890000D01*
X12700000Y8890000D02*
X8890000Y12700000D01*
X8890000Y21590000D02*
X6350000Y21590000D01*
X11430000Y19050000D02*
X8890000Y21590000D01*
X11430000Y13970000D02*
X11430000Y19050000D01*
X13970000Y11430000D02*
X11430000Y13970000D01*
X16510000Y11430000D02*
X13970000Y11430000D01*
X27940000Y24130000D02*
X25400000Y24130000D01*
X22860000Y21590000D02*
X22860000Y10160000D01*
X25400000Y24130000D02*
X22860000Y21590000D01*
X22860000Y10160000D02*
X21590000Y8890000D01*
X21590000Y8890000D02*
X19050000Y8890000D01*
X19050000Y8890000D02*
X16510000Y11430000D01*
D26*
G36*
X84363001Y727000D02*
G01*
X727000Y727000D01*
X727000Y5304265D01*
X2803000Y5304265D01*
X2803000Y4855735D01*
X2890504Y4415824D01*
X3062149Y4001436D01*
X3311339Y3628497D01*
X3628497Y3311339D01*
X4001436Y3062149D01*
X4415824Y2890504D01*
X4855735Y2803000D01*
X5304265Y2803000D01*
X5744176Y2890504D01*
X6158564Y3062149D01*
X6531503Y3311339D01*
X6848661Y3628497D01*
X7097851Y4001436D01*
X7269496Y4415824D01*
X7357000Y4855735D01*
X7357000Y5304265D01*
X7269496Y5744176D01*
X7097851Y6158564D01*
X6848661Y6531503D01*
X6531503Y6848661D01*
X6158564Y7097851D01*
X5744176Y7269496D01*
X5304265Y7357000D01*
X4855735Y7357000D01*
X4415824Y7269496D01*
X4001436Y7097851D01*
X3628497Y6848661D01*
X3311339Y6531503D01*
X3062149Y6158564D01*
X2890504Y5744176D01*
X2803000Y5304265D01*
X727000Y5304265D01*
X727000Y21779793D01*
X4423000Y21779793D01*
X4423000Y21400207D01*
X4497053Y21027915D01*
X4642315Y20677223D01*
X4853201Y20361609D01*
X5121609Y20093201D01*
X5437223Y19882315D01*
X5787915Y19737053D01*
X6160207Y19663000D01*
X6539793Y19663000D01*
X6912085Y19737053D01*
X7262777Y19882315D01*
X7346116Y19938000D01*
X8205720Y19938000D01*
X9778001Y18365718D01*
X9778001Y16688280D01*
X8845525Y17620755D01*
X8793792Y17683792D01*
X8542243Y17890234D01*
X8255252Y18043634D01*
X7943849Y18138097D01*
X7701155Y18162000D01*
X7701147Y18162000D01*
X7620000Y18169992D01*
X7538853Y18162000D01*
X7346116Y18162000D01*
X7262777Y18217685D01*
X6912085Y18362947D01*
X6539793Y18437000D01*
X6160207Y18437000D01*
X5787915Y18362947D01*
X5437223Y18217685D01*
X5121609Y18006799D01*
X4853201Y17738391D01*
X4642315Y17422777D01*
X4497053Y17072085D01*
X4423000Y16699793D01*
X4423000Y16320207D01*
X4497053Y15947915D01*
X4642315Y15597223D01*
X4853201Y15281609D01*
X5121609Y15013201D01*
X5437223Y14802315D01*
X5787915Y14657053D01*
X6160207Y14583000D01*
X6539793Y14583000D01*
X6912085Y14657053D01*
X7070888Y14722832D01*
X7238000Y14555719D01*
X7238001Y12781157D01*
X7230008Y12700000D01*
X7261903Y12376152D01*
X7356367Y12064748D01*
X7509766Y11777758D01*
X7664475Y11589245D01*
X7664478Y11589242D01*
X7716209Y11526208D01*
X7779243Y11474477D01*
X11474473Y7779247D01*
X11526208Y7716208D01*
X11777757Y7509766D01*
X12064748Y7356366D01*
X12376151Y7261903D01*
X12618845Y7238000D01*
X12618852Y7238000D01*
X12700000Y7230008D01*
X12781147Y7238000D01*
X14555720Y7238000D01*
X16554477Y5239242D01*
X16606208Y5176208D01*
X16669242Y5124477D01*
X16669244Y5124475D01*
X16723437Y5080000D01*
X16857757Y4969766D01*
X17144748Y4816366D01*
X17456151Y4721903D01*
X17698845Y4698000D01*
X17698854Y4698000D01*
X17779999Y4690008D01*
X17861144Y4698000D01*
X22778853Y4698000D01*
X22860000Y4690008D01*
X22941147Y4698000D01*
X22941155Y4698000D01*
X23183849Y4721903D01*
X23495252Y4816366D01*
X23782243Y4969766D01*
X24033792Y5176208D01*
X24085527Y5239247D01*
X26510758Y7664477D01*
X26573792Y7716208D01*
X26625526Y7779245D01*
X26671544Y7835318D01*
X26780234Y7967757D01*
X26933634Y8254748D01*
X27028097Y8566151D01*
X27052000Y8808845D01*
X27052000Y8808854D01*
X27059992Y8889999D01*
X27052000Y8971144D01*
X27052000Y10034573D01*
X27250457Y9974371D01*
X27467444Y9953000D01*
X28412556Y9953000D01*
X28629543Y9974371D01*
X28828001Y10034573D01*
X28828000Y7538846D01*
X28828001Y7538836D01*
X28828000Y5161148D01*
X28820008Y5080000D01*
X28828000Y4998853D01*
X28828000Y4998846D01*
X28851903Y4756152D01*
X28946366Y4444749D01*
X29099766Y4157758D01*
X29306208Y3906208D01*
X29369247Y3854473D01*
X31794477Y1429242D01*
X31846208Y1366208D01*
X31909242Y1314477D01*
X31909244Y1314475D01*
X31965318Y1268456D01*
X32097757Y1159766D01*
X32384748Y1006366D01*
X32696151Y911903D01*
X32938845Y888000D01*
X32938854Y888000D01*
X33019999Y880008D01*
X33101144Y888000D01*
X63418853Y888000D01*
X63500000Y880008D01*
X63581147Y888000D01*
X63581155Y888000D01*
X63823849Y911903D01*
X64135252Y1006366D01*
X64422243Y1159766D01*
X64673792Y1366208D01*
X64725527Y1429247D01*
X68420755Y5124475D01*
X68483792Y5176208D01*
X68588886Y5304265D01*
X77733000Y5304265D01*
X77733000Y4855735D01*
X77820504Y4415824D01*
X77992149Y4001436D01*
X78241339Y3628497D01*
X78558497Y3311339D01*
X78931436Y3062149D01*
X79345824Y2890504D01*
X79785735Y2803000D01*
X80234265Y2803000D01*
X80674176Y2890504D01*
X81088564Y3062149D01*
X81461503Y3311339D01*
X81778661Y3628497D01*
X82027851Y4001436D01*
X82199496Y4415824D01*
X82287000Y4855735D01*
X82287000Y5304265D01*
X82199496Y5744176D01*
X82027851Y6158564D01*
X81778661Y6531503D01*
X81461503Y6848661D01*
X81088564Y7097851D01*
X80674176Y7269496D01*
X80234265Y7357000D01*
X79785735Y7357000D01*
X79345824Y7269496D01*
X78931436Y7097851D01*
X78558497Y6848661D01*
X78241339Y6531503D01*
X77992149Y6158564D01*
X77820504Y5744176D01*
X77733000Y5304265D01*
X68588886Y5304265D01*
X68690234Y5427757D01*
X68843634Y5714748D01*
X68938097Y6026151D01*
X68962000Y6268845D01*
X68962000Y6268852D01*
X68969992Y6350000D01*
X68962000Y6431147D01*
X68962000Y33605720D01*
X69264281Y33908000D01*
X72078052Y33908000D01*
X72025978Y33844547D01*
X71888828Y33587958D01*
X71804371Y33309543D01*
X71775854Y33020000D01*
X71804371Y32730457D01*
X71888828Y32452042D01*
X72025978Y32195453D01*
X72210550Y31970550D01*
X72435453Y31785978D01*
X72502763Y31750000D01*
X72435453Y31714022D01*
X72210550Y31529450D01*
X72025978Y31304547D01*
X71888828Y31047958D01*
X71804371Y30769543D01*
X71775854Y30480000D01*
X71804371Y30190457D01*
X71888828Y29912042D01*
X72025978Y29655453D01*
X72210550Y29430550D01*
X72435453Y29245978D01*
X72502763Y29210000D01*
X72435453Y29174022D01*
X72210550Y28989450D01*
X72025978Y28764547D01*
X71888828Y28507958D01*
X71804371Y28229543D01*
X71775854Y27940000D01*
X71804371Y27650457D01*
X71888828Y27372042D01*
X72025978Y27115453D01*
X72210550Y26890550D01*
X72435453Y26705978D01*
X72502763Y26670000D01*
X72435453Y26634022D01*
X72210550Y26449450D01*
X72025978Y26224547D01*
X71888828Y25967958D01*
X71804371Y25689543D01*
X71775854Y25400000D01*
X71804371Y25110457D01*
X71888828Y24832042D01*
X72025978Y24575453D01*
X72210550Y24350550D01*
X72435453Y24165978D01*
X72502763Y24130000D01*
X72435453Y24094022D01*
X72210550Y23909450D01*
X72025978Y23684547D01*
X71888828Y23427958D01*
X71804371Y23149543D01*
X71775854Y22860000D01*
X71804371Y22570457D01*
X71888828Y22292042D01*
X72025978Y22035453D01*
X72210550Y21810550D01*
X72435453Y21625978D01*
X72502763Y21590000D01*
X72435453Y21554022D01*
X72210550Y21369450D01*
X72025978Y21144547D01*
X71888828Y20887958D01*
X71804371Y20609543D01*
X71775854Y20320000D01*
X71804371Y20030457D01*
X71888828Y19752042D01*
X72025978Y19495453D01*
X72210550Y19270550D01*
X72435453Y19085978D01*
X72502763Y19050000D01*
X72435453Y19014022D01*
X72210550Y18829450D01*
X72025978Y18604547D01*
X71888828Y18347958D01*
X71804371Y18069543D01*
X71775854Y17780000D01*
X71804371Y17490457D01*
X71888828Y17212042D01*
X72025978Y16955453D01*
X72210550Y16730550D01*
X72435453Y16545978D01*
X72502763Y16510000D01*
X72435453Y16474022D01*
X72210550Y16289450D01*
X72025978Y16064547D01*
X71888828Y15807958D01*
X71804371Y15529543D01*
X71775854Y15240000D01*
X71804371Y14950457D01*
X71888828Y14672042D01*
X72025978Y14415453D01*
X72210550Y14190550D01*
X72435453Y14005978D01*
X72502763Y13970000D01*
X72435453Y13934022D01*
X72210550Y13749450D01*
X72025978Y13524547D01*
X71888828Y13267958D01*
X71804371Y12989543D01*
X71775854Y12700000D01*
X71804371Y12410457D01*
X71888828Y12132042D01*
X72025978Y11875453D01*
X72210550Y11650550D01*
X72435453Y11465978D01*
X72502763Y11430000D01*
X72435453Y11394022D01*
X72210550Y11209450D01*
X72025978Y10984547D01*
X71888828Y10727958D01*
X71804371Y10449543D01*
X71775854Y10160000D01*
X71804371Y9870457D01*
X71888828Y9592042D01*
X72025978Y9335453D01*
X72210550Y9110550D01*
X72435453Y8925978D01*
X72502763Y8890000D01*
X72435453Y8854022D01*
X72210550Y8669450D01*
X72025978Y8444547D01*
X71888828Y8187958D01*
X71804371Y7909543D01*
X71775854Y7620000D01*
X71804371Y7330457D01*
X71888828Y7052042D01*
X72025978Y6795453D01*
X72210550Y6570550D01*
X72435453Y6385978D01*
X72692042Y6248828D01*
X72970457Y6164371D01*
X73187444Y6143000D01*
X74132556Y6143000D01*
X74349543Y6164371D01*
X74627958Y6248828D01*
X74884547Y6385978D01*
X75109450Y6570550D01*
X75294022Y6795453D01*
X75431172Y7052042D01*
X75515629Y7330457D01*
X75544146Y7620000D01*
X75515629Y7909543D01*
X75431172Y8187958D01*
X75294022Y8444547D01*
X75109450Y8669450D01*
X74884547Y8854022D01*
X74817237Y8890000D01*
X74884547Y8925978D01*
X75109450Y9110550D01*
X75294022Y9335453D01*
X75431172Y9592042D01*
X75515629Y9870457D01*
X75544146Y10160000D01*
X75515629Y10449543D01*
X75431172Y10727958D01*
X75294022Y10984547D01*
X75109450Y11209450D01*
X74884547Y11394022D01*
X74817237Y11430000D01*
X74884547Y11465978D01*
X75109450Y11650550D01*
X75294022Y11875453D01*
X75431172Y12132042D01*
X75515629Y12410457D01*
X75544146Y12700000D01*
X75515629Y12989543D01*
X75431172Y13267958D01*
X75294022Y13524547D01*
X75109450Y13749450D01*
X74884547Y13934022D01*
X74817237Y13970000D01*
X74884547Y14005978D01*
X75109450Y14190550D01*
X75294022Y14415453D01*
X75431172Y14672042D01*
X75515629Y14950457D01*
X75544146Y15240000D01*
X75515629Y15529543D01*
X75431172Y15807958D01*
X75294022Y16064547D01*
X75109450Y16289450D01*
X74884547Y16474022D01*
X74817237Y16510000D01*
X74884547Y16545978D01*
X75109450Y16730550D01*
X75294022Y16955453D01*
X75431172Y17212042D01*
X75515629Y17490457D01*
X75544146Y17780000D01*
X75515629Y18069543D01*
X75431172Y18347958D01*
X75294022Y18604547D01*
X75109450Y18829450D01*
X74884547Y19014022D01*
X74817237Y19050000D01*
X74884547Y19085978D01*
X75109450Y19270550D01*
X75294022Y19495453D01*
X75431172Y19752042D01*
X75515629Y20030457D01*
X75544146Y20320000D01*
X75515629Y20609543D01*
X75431172Y20887958D01*
X75294022Y21144547D01*
X75109450Y21369450D01*
X74884547Y21554022D01*
X74817237Y21590000D01*
X74884547Y21625978D01*
X75109450Y21810550D01*
X75294022Y22035453D01*
X75431172Y22292042D01*
X75515629Y22570457D01*
X75544146Y22860000D01*
X75515629Y23149543D01*
X75431172Y23427958D01*
X75294022Y23684547D01*
X75109450Y23909450D01*
X74884547Y24094022D01*
X74817237Y24130000D01*
X74884547Y24165978D01*
X75109450Y24350550D01*
X75294022Y24575453D01*
X75431172Y24832042D01*
X75515629Y25110457D01*
X75544146Y25400000D01*
X75515629Y25689543D01*
X75431172Y25967958D01*
X75294022Y26224547D01*
X75109450Y26449450D01*
X74884547Y26634022D01*
X74817237Y26670000D01*
X74884547Y26705978D01*
X75109450Y26890550D01*
X75294022Y27115453D01*
X75431172Y27372042D01*
X75515629Y27650457D01*
X75544146Y27940000D01*
X75515629Y28229543D01*
X75431172Y28507958D01*
X75294022Y28764547D01*
X75109450Y28989450D01*
X74884547Y29174022D01*
X74817237Y29210000D01*
X74884547Y29245978D01*
X75109450Y29430550D01*
X75294022Y29655453D01*
X75431172Y29912042D01*
X75515629Y30190457D01*
X75544146Y30480000D01*
X75515629Y30769543D01*
X75431172Y31047958D01*
X75294022Y31304547D01*
X75241948Y31368000D01*
X81198853Y31368000D01*
X81280000Y31360008D01*
X81361147Y31368000D01*
X81361155Y31368000D01*
X81603849Y31391903D01*
X81915252Y31486366D01*
X82202243Y31639766D01*
X82453792Y31846208D01*
X82505527Y31909247D01*
X83660758Y33064477D01*
X83723792Y33116208D01*
X83816909Y33229670D01*
X83930234Y33367757D01*
X84083633Y33654747D01*
X84083634Y33654748D01*
X84178097Y33966151D01*
X84202000Y34208845D01*
X84202000Y34208854D01*
X84209992Y34289999D01*
X84202000Y34371144D01*
X84202000Y36748856D01*
X84209992Y36830001D01*
X84202000Y36911146D01*
X84202000Y36911155D01*
X84178097Y37153849D01*
X84083634Y37465252D01*
X83930234Y37752243D01*
X83882459Y37810457D01*
X83775525Y37940756D01*
X83775523Y37940758D01*
X83723792Y38003792D01*
X83660759Y38055522D01*
X82505527Y39210753D01*
X82453792Y39273792D01*
X82202243Y39480234D01*
X81915252Y39633634D01*
X81603849Y39728097D01*
X81361155Y39752000D01*
X81361147Y39752000D01*
X81280000Y39759992D01*
X81198853Y39752000D01*
X78658845Y39752000D01*
X78416151Y39728097D01*
X78104748Y39633634D01*
X77817757Y39480234D01*
X77566208Y39273792D01*
X77359766Y39022243D01*
X77206366Y38735252D01*
X77111903Y38423849D01*
X77080007Y38100000D01*
X77111903Y37776151D01*
X77206366Y37464748D01*
X77341463Y37212000D01*
X75241948Y37212000D01*
X75294022Y37275453D01*
X75431172Y37532042D01*
X75515629Y37810457D01*
X75544146Y38100000D01*
X75515629Y38389543D01*
X75431172Y38667958D01*
X75294022Y38924547D01*
X75109450Y39149450D01*
X74884547Y39334022D01*
X74627958Y39471172D01*
X74349543Y39555629D01*
X74132556Y39577000D01*
X73187444Y39577000D01*
X72970457Y39555629D01*
X72692042Y39471172D01*
X72435453Y39334022D01*
X72210550Y39149450D01*
X72025978Y38924547D01*
X71888828Y38667958D01*
X71804371Y38389543D01*
X71775854Y38100000D01*
X71804371Y37810457D01*
X71888828Y37532042D01*
X72025978Y37275453D01*
X72078052Y37212000D01*
X68661144Y37212000D01*
X68579999Y37219992D01*
X68498854Y37212000D01*
X68498845Y37212000D01*
X68256151Y37188097D01*
X67944748Y37093634D01*
X67798811Y37015629D01*
X67657757Y36940234D01*
X67469244Y36785525D01*
X67469242Y36785523D01*
X67406208Y36733792D01*
X67354477Y36670758D01*
X66199247Y35515527D01*
X66136208Y35463792D01*
X65929766Y35212242D01*
X65776366Y34925251D01*
X65681903Y34613848D01*
X65658000Y34371154D01*
X65658000Y34371147D01*
X65650008Y34290000D01*
X65658000Y34208853D01*
X65658001Y7034281D01*
X62815720Y4192000D01*
X33704281Y4192000D01*
X32132000Y5764280D01*
X32132000Y6038053D01*
X32195454Y5985978D01*
X32452043Y5848828D01*
X32730458Y5764371D01*
X33020000Y5735854D01*
X33309543Y5764371D01*
X33587958Y5848828D01*
X33844547Y5985978D01*
X34069450Y6170550D01*
X34254022Y6395453D01*
X34290000Y6462763D01*
X34325978Y6395453D01*
X34510550Y6170550D01*
X34735454Y5985978D01*
X34992043Y5848828D01*
X35270458Y5764371D01*
X35560000Y5735854D01*
X35849543Y5764371D01*
X36127958Y5848828D01*
X36384547Y5985978D01*
X36609450Y6170550D01*
X36794022Y6395453D01*
X36931172Y6652042D01*
X36951346Y6718546D01*
X37093634Y6984748D01*
X37188097Y7296151D01*
X37212000Y7538845D01*
X37212000Y8205720D01*
X38784281Y9778000D01*
X43098853Y9778000D01*
X43180000Y9770008D01*
X43261147Y9778000D01*
X43261155Y9778000D01*
X43503849Y9801903D01*
X43815252Y9896366D01*
X44102243Y10049766D01*
X44353792Y10256208D01*
X44405527Y10319247D01*
X50214281Y16128000D01*
X56838052Y16128000D01*
X56785978Y16064547D01*
X56648828Y15807958D01*
X56564371Y15529543D01*
X56535854Y15240000D01*
X56564371Y14950457D01*
X56648828Y14672042D01*
X56785978Y14415453D01*
X56970550Y14190550D01*
X57195453Y14005978D01*
X57262763Y13970000D01*
X57195453Y13934022D01*
X56970550Y13749450D01*
X56785978Y13524547D01*
X56648828Y13267958D01*
X56564371Y12989543D01*
X56535854Y12700000D01*
X56564371Y12410457D01*
X56648828Y12132042D01*
X56785978Y11875453D01*
X56970550Y11650550D01*
X57195453Y11465978D01*
X57262763Y11430000D01*
X57195453Y11394022D01*
X56970550Y11209450D01*
X56785978Y10984547D01*
X56648828Y10727958D01*
X56564371Y10449543D01*
X56535854Y10160000D01*
X56564371Y9870457D01*
X56648828Y9592042D01*
X56785978Y9335453D01*
X56970550Y9110550D01*
X57195453Y8925978D01*
X57262763Y8890000D01*
X57195453Y8854022D01*
X56970550Y8669450D01*
X56785978Y8444547D01*
X56648828Y8187958D01*
X56564371Y7909543D01*
X56535854Y7620000D01*
X56564371Y7330457D01*
X56648828Y7052042D01*
X56785978Y6795453D01*
X56970550Y6570550D01*
X57195453Y6385978D01*
X57452042Y6248828D01*
X57730457Y6164371D01*
X57947444Y6143000D01*
X58892556Y6143000D01*
X59109543Y6164371D01*
X59387958Y6248828D01*
X59644547Y6385978D01*
X59869450Y6570550D01*
X60054022Y6795453D01*
X60191172Y7052042D01*
X60275629Y7330457D01*
X60304146Y7620000D01*
X60275629Y7909543D01*
X60191172Y8187958D01*
X60054022Y8444547D01*
X59869450Y8669450D01*
X59644547Y8854022D01*
X59577237Y8890000D01*
X59644547Y8925978D01*
X59869450Y9110550D01*
X60054022Y9335453D01*
X60191172Y9592042D01*
X60275629Y9870457D01*
X60304146Y10160000D01*
X60275629Y10449543D01*
X60191172Y10727958D01*
X60054022Y10984547D01*
X59869450Y11209450D01*
X59644547Y11394022D01*
X59577237Y11430000D01*
X59644547Y11465978D01*
X59869450Y11650550D01*
X60054022Y11875453D01*
X60191172Y12132042D01*
X60275629Y12410457D01*
X60304146Y12700000D01*
X60275629Y12989543D01*
X60191172Y13267958D01*
X60054022Y13524547D01*
X59869450Y13749450D01*
X59644547Y13934022D01*
X59577237Y13970000D01*
X59644547Y14005978D01*
X59869450Y14190550D01*
X60054022Y14415453D01*
X60191172Y14672042D01*
X60275629Y14950457D01*
X60304146Y15240000D01*
X60275629Y15529543D01*
X60191172Y15807958D01*
X60054022Y16064547D01*
X59869450Y16289450D01*
X59644547Y16474022D01*
X59577237Y16510000D01*
X59644547Y16545978D01*
X59869450Y16730550D01*
X60054022Y16955453D01*
X60191172Y17212042D01*
X60275629Y17490457D01*
X60304146Y17780000D01*
X60275629Y18069543D01*
X60191172Y18347958D01*
X60054022Y18604547D01*
X59869450Y18829450D01*
X59644547Y19014022D01*
X59577237Y19050000D01*
X59644547Y19085978D01*
X59869450Y19270550D01*
X60054022Y19495453D01*
X60191172Y19752042D01*
X60275629Y20030457D01*
X60304146Y20320000D01*
X60275629Y20609543D01*
X60191172Y20887958D01*
X60054022Y21144547D01*
X59869450Y21369450D01*
X59644547Y21554022D01*
X59577237Y21590000D01*
X59644547Y21625978D01*
X59869450Y21810550D01*
X60054022Y22035453D01*
X60191172Y22292042D01*
X60275629Y22570457D01*
X60304146Y22860000D01*
X60275629Y23149543D01*
X60191172Y23427958D01*
X60054022Y23684547D01*
X59869450Y23909450D01*
X59644547Y24094022D01*
X59577237Y24130000D01*
X59644547Y24165978D01*
X59869450Y24350550D01*
X60054022Y24575453D01*
X60191172Y24832042D01*
X60275629Y25110457D01*
X60304146Y25400000D01*
X60275629Y25689543D01*
X60191172Y25967958D01*
X60054022Y26224547D01*
X59869450Y26449450D01*
X59644547Y26634022D01*
X59577237Y26670000D01*
X59644547Y26705978D01*
X59869450Y26890550D01*
X60054022Y27115453D01*
X60191172Y27372042D01*
X60275629Y27650457D01*
X60304146Y27940000D01*
X60275629Y28229543D01*
X60191172Y28507958D01*
X60054022Y28764547D01*
X59869450Y28989450D01*
X59644547Y29174022D01*
X59577237Y29210000D01*
X59644547Y29245978D01*
X59869450Y29430550D01*
X60054022Y29655453D01*
X60191172Y29912042D01*
X60275629Y30190457D01*
X60304146Y30480000D01*
X60275629Y30769543D01*
X60191172Y31047958D01*
X60054022Y31304547D01*
X59869450Y31529450D01*
X59644547Y31714022D01*
X59577237Y31750000D01*
X59644547Y31785978D01*
X59869450Y31970550D01*
X60054022Y32195453D01*
X60191172Y32452042D01*
X60275629Y32730457D01*
X60304146Y33020000D01*
X60275629Y33309543D01*
X60191172Y33587958D01*
X60054022Y33844547D01*
X59869450Y34069450D01*
X59644547Y34254022D01*
X59387958Y34391172D01*
X59109543Y34475629D01*
X58892556Y34497000D01*
X57947444Y34497000D01*
X57730457Y34475629D01*
X57452042Y34391172D01*
X57195453Y34254022D01*
X56970550Y34069450D01*
X56785978Y33844547D01*
X56648828Y33587958D01*
X56564371Y33309543D01*
X56535854Y33020000D01*
X56564371Y32730457D01*
X56648828Y32452042D01*
X56785978Y32195453D01*
X56970550Y31970550D01*
X57195453Y31785978D01*
X57262763Y31750000D01*
X57195453Y31714022D01*
X56970550Y31529450D01*
X56785978Y31304547D01*
X56648828Y31047958D01*
X56564371Y30769543D01*
X56535854Y30480000D01*
X56564371Y30190457D01*
X56648828Y29912042D01*
X56785978Y29655453D01*
X56970550Y29430550D01*
X57195453Y29245978D01*
X57262763Y29210000D01*
X57195453Y29174022D01*
X56970550Y28989450D01*
X56785978Y28764547D01*
X56648828Y28507958D01*
X56564371Y28229543D01*
X56535854Y27940000D01*
X56564371Y27650457D01*
X56648828Y27372042D01*
X56785978Y27115453D01*
X56970550Y26890550D01*
X57195453Y26705978D01*
X57262763Y26670000D01*
X57195453Y26634022D01*
X56970550Y26449450D01*
X56785978Y26224547D01*
X56648828Y25967958D01*
X56564371Y25689543D01*
X56535854Y25400000D01*
X56564371Y25110457D01*
X56648828Y24832042D01*
X56785978Y24575453D01*
X56970550Y24350550D01*
X57195453Y24165978D01*
X57262763Y24130000D01*
X57195453Y24094022D01*
X56970550Y23909450D01*
X56785978Y23684547D01*
X56648828Y23427958D01*
X56564371Y23149543D01*
X56535854Y22860000D01*
X56564371Y22570457D01*
X56648828Y22292042D01*
X56785978Y22035453D01*
X56838052Y21972000D01*
X48341147Y21972000D01*
X48259999Y21979992D01*
X48178852Y21972000D01*
X48178845Y21972000D01*
X47936151Y21948097D01*
X47624748Y21853634D01*
X47478811Y21775629D01*
X47337757Y21700234D01*
X47149244Y21545525D01*
X47149242Y21545523D01*
X47086208Y21493792D01*
X47034477Y21430758D01*
X46102000Y20498281D01*
X46102000Y22778856D01*
X46109992Y22860001D01*
X46102000Y22941146D01*
X46102000Y22941155D01*
X46078097Y23183849D01*
X45983634Y23495252D01*
X45830234Y23782243D01*
X45714717Y23923000D01*
X45675525Y23970756D01*
X45675523Y23970758D01*
X45623792Y24033792D01*
X45560758Y24085523D01*
X43135525Y26510755D01*
X43083792Y26573792D01*
X42832243Y26780234D01*
X42545252Y26933634D01*
X42233849Y27028097D01*
X41991155Y27052000D01*
X41991147Y27052000D01*
X41910000Y27059992D01*
X41828853Y27052000D01*
X37514280Y27052000D01*
X37008280Y27558000D01*
X44368853Y27558000D01*
X44450000Y27550008D01*
X44531147Y27558000D01*
X44531155Y27558000D01*
X44773849Y27581903D01*
X45085252Y27676366D01*
X45372243Y27829766D01*
X45623792Y28036208D01*
X45675527Y28099247D01*
X56564281Y38988000D01*
X56838052Y38988000D01*
X56785978Y38924547D01*
X56648828Y38667958D01*
X56564371Y38389543D01*
X56535854Y38100000D01*
X56564371Y37810457D01*
X56648828Y37532042D01*
X56785978Y37275453D01*
X56970550Y37050550D01*
X57195453Y36865978D01*
X57452042Y36728828D01*
X57730457Y36644371D01*
X57947444Y36623000D01*
X58892556Y36623000D01*
X59109543Y36644371D01*
X59387958Y36728828D01*
X59644547Y36865978D01*
X59869450Y37050550D01*
X60054022Y37275453D01*
X60191172Y37532042D01*
X60275629Y37810457D01*
X60304146Y38100000D01*
X60275629Y38389543D01*
X60191172Y38667958D01*
X60054022Y38924547D01*
X59869450Y39149450D01*
X59644547Y39334022D01*
X59577237Y39370000D01*
X59644547Y39405978D01*
X59869450Y39590550D01*
X60054022Y39815453D01*
X60191172Y40072042D01*
X60275629Y40350457D01*
X60304146Y40640000D01*
X60275629Y40929543D01*
X60191172Y41207958D01*
X60054022Y41464547D01*
X59869450Y41689450D01*
X59644547Y41874022D01*
X59577237Y41910000D01*
X59644547Y41945978D01*
X59869450Y42130550D01*
X60054022Y42355453D01*
X60191172Y42612042D01*
X60275629Y42890457D01*
X60304146Y43180000D01*
X71775854Y43180000D01*
X71804371Y42890457D01*
X71888828Y42612042D01*
X72025978Y42355453D01*
X72210550Y42130550D01*
X72435453Y41945978D01*
X72692042Y41808828D01*
X72970457Y41724371D01*
X73187444Y41703000D01*
X74132556Y41703000D01*
X74349543Y41724371D01*
X74627958Y41808828D01*
X74884547Y41945978D01*
X75109450Y42130550D01*
X75294022Y42355453D01*
X75431172Y42612042D01*
X75515629Y42890457D01*
X75544146Y43180000D01*
X75515629Y43469543D01*
X75431172Y43747958D01*
X75294022Y44004547D01*
X75109450Y44229450D01*
X74884547Y44414022D01*
X74627958Y44551172D01*
X74349543Y44635629D01*
X74132556Y44657000D01*
X73187444Y44657000D01*
X72970457Y44635629D01*
X72692042Y44551172D01*
X72435453Y44414022D01*
X72210550Y44229450D01*
X72025978Y44004547D01*
X71888828Y43747958D01*
X71804371Y43469543D01*
X71775854Y43180000D01*
X60304146Y43180000D01*
X60275629Y43469543D01*
X60191172Y43747958D01*
X60054022Y44004547D01*
X59869450Y44229450D01*
X59644547Y44414022D01*
X59387958Y44551172D01*
X59321454Y44571346D01*
X59055252Y44713634D01*
X58743849Y44808097D01*
X58501155Y44832000D01*
X54691147Y44832000D01*
X54609999Y44839992D01*
X54528852Y44832000D01*
X54528845Y44832000D01*
X54286151Y44808097D01*
X53974748Y44713634D01*
X53828811Y44635629D01*
X53687757Y44560234D01*
X53499244Y44405525D01*
X53499242Y44405523D01*
X53436208Y44353792D01*
X53384477Y44290758D01*
X42495720Y33402000D01*
X40558845Y33402000D01*
X40316151Y33378097D01*
X40004748Y33283634D01*
X39717757Y33130234D01*
X39466208Y32923792D01*
X39259766Y32672243D01*
X39106366Y32385252D01*
X39011903Y32073849D01*
X38980007Y31750000D01*
X39011903Y31426151D01*
X39106366Y31114748D01*
X39241463Y30862000D01*
X36748845Y30862000D01*
X36506151Y30838097D01*
X36194748Y30743634D01*
X35907757Y30590234D01*
X35656208Y30383792D01*
X35449766Y30132243D01*
X35296366Y29845252D01*
X35201903Y29533849D01*
X35186708Y29379572D01*
X34245525Y30320755D01*
X34193792Y30383792D01*
X33942243Y30590234D01*
X33655252Y30743634D01*
X33343849Y30838097D01*
X33101155Y30862000D01*
X33101147Y30862000D01*
X33020000Y30869992D01*
X32938853Y30862000D01*
X29592000Y30862000D01*
X29592000Y33605720D01*
X31590759Y35604478D01*
X31653792Y35656208D01*
X31860234Y35907757D01*
X32013634Y36194748D01*
X32108097Y36506151D01*
X32132000Y36748845D01*
X32132000Y36748854D01*
X32139992Y36829999D01*
X32132000Y36911144D01*
X32132000Y41225720D01*
X32434281Y41528000D01*
X33101155Y41528000D01*
X33343849Y41551903D01*
X33655252Y41646366D01*
X33942243Y41799766D01*
X33942675Y41800121D01*
X33977182Y41818565D01*
X34225305Y42022195D01*
X34428935Y42270318D01*
X34580246Y42553400D01*
X34673422Y42860562D01*
X34704884Y43180000D01*
X34673422Y43499438D01*
X34580246Y43806600D01*
X34428935Y44089682D01*
X34225305Y44337805D01*
X33977182Y44541435D01*
X33942675Y44559879D01*
X33942243Y44560234D01*
X33655252Y44713634D01*
X33343849Y44808097D01*
X33101155Y44832000D01*
X31831144Y44832000D01*
X31749999Y44839992D01*
X31668854Y44832000D01*
X31668845Y44832000D01*
X31426151Y44808097D01*
X31114748Y44713634D01*
X30968811Y44635629D01*
X30827757Y44560234D01*
X30639244Y44405525D01*
X30639242Y44405523D01*
X30576208Y44353792D01*
X30524477Y44290758D01*
X29369242Y43135522D01*
X29306209Y43083792D01*
X29254478Y43020758D01*
X29254475Y43020755D01*
X29099766Y42832242D01*
X28946367Y42545252D01*
X28851903Y42233848D01*
X28820008Y41910000D01*
X28828001Y41828843D01*
X28828000Y37514281D01*
X27255720Y35942000D01*
X21508845Y35942000D01*
X21266151Y35918097D01*
X20954748Y35823634D01*
X20854920Y35770275D01*
X20790000Y35770275D01*
X20657285Y35757204D01*
X20529670Y35718492D01*
X20412059Y35655628D01*
X20308973Y35571027D01*
X20224372Y35467941D01*
X20161508Y35350330D01*
X20122796Y35222715D01*
X20109725Y35090000D01*
X20109725Y35025080D01*
X20056366Y34925252D01*
X19961903Y34613849D01*
X19930007Y34290000D01*
X19961903Y33966151D01*
X20056366Y33654748D01*
X20109725Y33554920D01*
X20109725Y33490000D01*
X20122796Y33357285D01*
X20161508Y33229670D01*
X20224372Y33112059D01*
X20308973Y33008973D01*
X20412059Y32924372D01*
X20529670Y32861508D01*
X20657285Y32822796D01*
X20790000Y32809725D01*
X20854920Y32809725D01*
X20954748Y32756366D01*
X21266151Y32661903D01*
X21508845Y32638000D01*
X26288000Y32638000D01*
X26288001Y30000914D01*
X26168828Y29777958D01*
X26084371Y29499543D01*
X26055854Y29210000D01*
X26084371Y28920457D01*
X26168828Y28642042D01*
X26305978Y28385453D01*
X26490550Y28160550D01*
X26715453Y27975978D01*
X26972042Y27838828D01*
X27038546Y27818654D01*
X27304748Y27676366D01*
X27616151Y27581903D01*
X27858845Y27558000D01*
X27940000Y27550007D01*
X28021155Y27558000D01*
X32335720Y27558000D01*
X35604473Y24289247D01*
X35656208Y24226208D01*
X35907757Y24019766D01*
X36194748Y23866366D01*
X36506151Y23771903D01*
X36748845Y23748000D01*
X36748852Y23748000D01*
X36830000Y23740008D01*
X36911147Y23748000D01*
X41225720Y23748000D01*
X42798001Y22175718D01*
X42798000Y21004280D01*
X42292000Y20498280D01*
X42292000Y21671155D01*
X42268097Y21913849D01*
X42173634Y22225252D01*
X42020234Y22512243D01*
X41813792Y22763792D01*
X41562242Y22970234D01*
X41275251Y23123634D01*
X40963848Y23218097D01*
X40640000Y23249993D01*
X40316151Y23218097D01*
X40004748Y23123634D01*
X39717757Y22970234D01*
X39466208Y22763792D01*
X39259766Y22512242D01*
X39106366Y22225251D01*
X39011903Y21913848D01*
X38988000Y21671154D01*
X38988000Y21004281D01*
X38685720Y20702000D01*
X38301608Y20702000D01*
X38310275Y20790000D01*
X38310275Y20854920D01*
X38363634Y20954748D01*
X38458097Y21266151D01*
X38489993Y21590000D01*
X38458097Y21913849D01*
X38363634Y22225252D01*
X38310275Y22325080D01*
X38310275Y22390000D01*
X38297204Y22522715D01*
X38258492Y22650330D01*
X38195628Y22767941D01*
X38111027Y22871027D01*
X38007941Y22955628D01*
X37890330Y23018492D01*
X37762715Y23057204D01*
X37630000Y23070275D01*
X37565080Y23070275D01*
X37465252Y23123634D01*
X37153849Y23218097D01*
X36911155Y23242000D01*
X33101144Y23242000D01*
X33019999Y23249992D01*
X32938854Y23242000D01*
X32938845Y23242000D01*
X32696151Y23218097D01*
X32384748Y23123634D01*
X32097757Y22970234D01*
X31976874Y22871027D01*
X31909244Y22815525D01*
X31909242Y22815523D01*
X31846208Y22763792D01*
X31794477Y22700758D01*
X29795720Y20702000D01*
X29521948Y20702000D01*
X29574022Y20765453D01*
X29711172Y21022042D01*
X29795629Y21300457D01*
X29824146Y21590000D01*
X29795629Y21879543D01*
X29711172Y22157958D01*
X29574022Y22414547D01*
X29389450Y22639450D01*
X29164547Y22824022D01*
X29097237Y22860000D01*
X29164547Y22895978D01*
X29389450Y23080550D01*
X29574022Y23305453D01*
X29711172Y23562042D01*
X29795629Y23840457D01*
X29824146Y24130000D01*
X29795629Y24419543D01*
X29711172Y24697958D01*
X29574022Y24954547D01*
X29389450Y25179450D01*
X29164547Y25364022D01*
X28907958Y25501172D01*
X28841454Y25521346D01*
X28575252Y25663634D01*
X28263849Y25758097D01*
X28021155Y25782000D01*
X25481144Y25782000D01*
X25399999Y25789992D01*
X25318854Y25782000D01*
X25318845Y25782000D01*
X25076151Y25758097D01*
X24764748Y25663634D01*
X24477757Y25510234D01*
X24345318Y25401544D01*
X24289244Y25355525D01*
X24289242Y25355523D01*
X24226208Y25303792D01*
X24174477Y25240758D01*
X21749247Y22815527D01*
X21686208Y22763792D01*
X21658732Y22730313D01*
X21544547Y22824022D01*
X21477237Y22860000D01*
X21544547Y22895978D01*
X21769450Y23080550D01*
X21954022Y23305453D01*
X22091172Y23562042D01*
X22175629Y23840457D01*
X22204146Y24130000D01*
X22175629Y24419543D01*
X22091172Y24697958D01*
X21954022Y24954547D01*
X21769450Y25179450D01*
X21544547Y25364022D01*
X21477237Y25400000D01*
X21544547Y25435978D01*
X21769450Y25620550D01*
X21954022Y25845453D01*
X22091172Y26102042D01*
X22175629Y26380457D01*
X22204146Y26670000D01*
X22175629Y26959543D01*
X22091172Y27237958D01*
X21954022Y27494547D01*
X21769450Y27719450D01*
X21717176Y27762350D01*
X21780330Y27781508D01*
X21897941Y27844372D01*
X22001027Y27928973D01*
X22085628Y28032059D01*
X22148492Y28149670D01*
X22187204Y28277285D01*
X22200275Y28410000D01*
X22200275Y30010000D01*
X22187204Y30142715D01*
X22148492Y30270330D01*
X22085628Y30387941D01*
X22001027Y30491027D01*
X21897941Y30575628D01*
X21780330Y30638492D01*
X21652715Y30677204D01*
X21520000Y30690275D01*
X21055080Y30690275D01*
X20955252Y30743634D01*
X20643849Y30838097D01*
X20401155Y30862000D01*
X16428845Y30862000D01*
X16186151Y30838097D01*
X15874748Y30743634D01*
X15587757Y30590234D01*
X15336208Y30383792D01*
X15129766Y30132243D01*
X14976366Y29845252D01*
X14881903Y29533849D01*
X14850007Y29210000D01*
X14881903Y28886151D01*
X14976366Y28574748D01*
X15113832Y28317567D01*
X14916151Y28298097D01*
X14604748Y28203634D01*
X14458811Y28125629D01*
X14317757Y28050234D01*
X14129244Y27895525D01*
X14129242Y27895523D01*
X14066208Y27843792D01*
X14014477Y27780758D01*
X12859247Y26625527D01*
X12796208Y26573792D01*
X12589766Y26322242D01*
X12436366Y26035251D01*
X12341903Y25723848D01*
X12318000Y25481154D01*
X12318000Y25481147D01*
X12310008Y25400000D01*
X12318000Y25318853D01*
X12318000Y24128845D01*
X12341903Y23886151D01*
X12436366Y23574748D01*
X12589767Y23287757D01*
X12796209Y23036208D01*
X13047758Y22829766D01*
X13334749Y22676366D01*
X13646152Y22581903D01*
X13970000Y22550007D01*
X14293849Y22581903D01*
X14605252Y22676366D01*
X14892243Y22829766D01*
X15143792Y23036208D01*
X15240000Y23153437D01*
X15336208Y23036208D01*
X15502177Y22900000D01*
X15336208Y22763792D01*
X15129766Y22512243D01*
X14976366Y22225252D01*
X14881903Y21913849D01*
X14850007Y21590000D01*
X14881903Y21266151D01*
X14976366Y20954748D01*
X15129766Y20667757D01*
X15336208Y20416208D01*
X15587757Y20209766D01*
X15874748Y20056366D01*
X16186151Y19961903D01*
X16340428Y19946708D01*
X15399247Y19005527D01*
X15336208Y18953792D01*
X15129766Y18702242D01*
X14976366Y18415251D01*
X14881903Y18103848D01*
X14869919Y17982166D01*
X14605251Y18123634D01*
X14293848Y18218097D01*
X13970000Y18249993D01*
X13646151Y18218097D01*
X13334748Y18123634D01*
X13082000Y17988537D01*
X13082000Y18968856D01*
X13089992Y19050001D01*
X13082000Y19131146D01*
X13082000Y19131155D01*
X13058097Y19373849D01*
X12963634Y19685252D01*
X12810234Y19972243D01*
X12686678Y20122796D01*
X12655525Y20160756D01*
X12655523Y20160758D01*
X12603792Y20223792D01*
X12540758Y20275523D01*
X10115525Y22700755D01*
X10063792Y22763792D01*
X9812243Y22970234D01*
X9525252Y23123634D01*
X9213849Y23218097D01*
X8971155Y23242000D01*
X8971147Y23242000D01*
X8890000Y23249992D01*
X8808853Y23242000D01*
X7346116Y23242000D01*
X7262777Y23297685D01*
X6912085Y23442947D01*
X6539793Y23517000D01*
X6160207Y23517000D01*
X5787915Y23442947D01*
X5437223Y23297685D01*
X5121609Y23086799D01*
X4853201Y22818391D01*
X4642315Y22502777D01*
X4497053Y22152085D01*
X4423000Y21779793D01*
X727000Y21779793D01*
X727000Y26859793D01*
X4423000Y26859793D01*
X4423000Y26480207D01*
X4497053Y26107915D01*
X4642315Y25757223D01*
X4853201Y25441609D01*
X5121609Y25173201D01*
X5437223Y24962315D01*
X5787915Y24817053D01*
X6160207Y24743000D01*
X6539793Y24743000D01*
X6912085Y24817053D01*
X7262777Y24962315D01*
X7578391Y25173201D01*
X7846799Y25441609D01*
X8057685Y25757223D01*
X8202947Y26107915D01*
X8277000Y26480207D01*
X8277000Y26859793D01*
X8202947Y27232085D01*
X8057685Y27582777D01*
X7846799Y27898391D01*
X7578391Y28166799D01*
X7262777Y28377685D01*
X6912085Y28522947D01*
X6539793Y28597000D01*
X6160207Y28597000D01*
X5787915Y28522947D01*
X5437223Y28377685D01*
X5121609Y28166799D01*
X4853201Y27898391D01*
X4642315Y27582777D01*
X4497053Y27232085D01*
X4423000Y26859793D01*
X727000Y26859793D01*
X727000Y38080000D01*
X4419725Y38080000D01*
X4419725Y35580000D01*
X4432796Y35447285D01*
X4471508Y35319670D01*
X4534372Y35202059D01*
X4618973Y35098973D01*
X4722059Y35014372D01*
X4839670Y34951508D01*
X4967285Y34912796D01*
X5100000Y34899725D01*
X7600000Y34899725D01*
X7732715Y34912796D01*
X7860330Y34951508D01*
X7977941Y35014372D01*
X8081027Y35098973D01*
X8145883Y35178000D01*
X11348853Y35178000D01*
X11430000Y35170008D01*
X11511147Y35178000D01*
X11511155Y35178000D01*
X11753849Y35201903D01*
X12065252Y35296366D01*
X12352243Y35449766D01*
X12603792Y35656208D01*
X12655527Y35719247D01*
X14674813Y37738532D01*
X14811725Y37795243D01*
X15102771Y37989714D01*
X15350286Y38237229D01*
X15544757Y38528275D01*
X15678711Y38851668D01*
X15747000Y39194981D01*
X15747000Y39545019D01*
X15678711Y39888332D01*
X15544757Y40211725D01*
X15350286Y40502771D01*
X15102771Y40750286D01*
X14811725Y40944757D01*
X14488332Y41078711D01*
X14145019Y41147000D01*
X13794981Y41147000D01*
X13451668Y41078711D01*
X13128275Y40944757D01*
X12837229Y40750286D01*
X12589714Y40502771D01*
X12395243Y40211725D01*
X12338532Y40074813D01*
X10745720Y38482000D01*
X8145883Y38482000D01*
X8081027Y38561027D01*
X7977941Y38645628D01*
X7860330Y38708492D01*
X7732715Y38747204D01*
X7600000Y38760275D01*
X5100000Y38760275D01*
X4967285Y38747204D01*
X4839670Y38708492D01*
X4722059Y38645628D01*
X4618973Y38561027D01*
X4534372Y38457941D01*
X4471508Y38340330D01*
X4432796Y38212715D01*
X4419725Y38080000D01*
X727000Y38080000D01*
X727000Y45959039D01*
X47253000Y45959039D01*
X47253000Y45480961D01*
X47346268Y45012070D01*
X47529221Y44570385D01*
X47794826Y44172878D01*
X48132878Y43834826D01*
X48530385Y43569221D01*
X48972070Y43386268D01*
X49440961Y43293000D01*
X49919039Y43293000D01*
X50387930Y43386268D01*
X50829615Y43569221D01*
X51227122Y43834826D01*
X51565174Y44172878D01*
X51830779Y44570385D01*
X52013732Y45012070D01*
X52107000Y45480961D01*
X52107000Y45959039D01*
X52013732Y46427930D01*
X51830779Y46869615D01*
X51565174Y47267122D01*
X51227122Y47605174D01*
X50829615Y47870779D01*
X50387930Y48053732D01*
X49919039Y48147000D01*
X49440961Y48147000D01*
X48972070Y48053732D01*
X48530385Y47870779D01*
X48132878Y47605174D01*
X47794826Y47267122D01*
X47529221Y46869615D01*
X47346268Y46427930D01*
X47253000Y45959039D01*
X727000Y45959039D01*
X727000Y48484265D01*
X2803000Y48484265D01*
X2803000Y48035735D01*
X2890504Y47595824D01*
X3062149Y47181436D01*
X3311339Y46808497D01*
X3628497Y46491339D01*
X4001436Y46242149D01*
X4415824Y46070504D01*
X4855735Y45983000D01*
X5304265Y45983000D01*
X5744176Y46070504D01*
X6158564Y46242149D01*
X6531503Y46491339D01*
X6848661Y46808497D01*
X7097851Y47181436D01*
X7269496Y47595824D01*
X7357000Y48035735D01*
X7357000Y48484265D01*
X7269496Y48924176D01*
X7097851Y49338564D01*
X6848661Y49711503D01*
X6531503Y50028661D01*
X6158564Y50277851D01*
X5744176Y50449496D01*
X5304265Y50537000D01*
X4855735Y50537000D01*
X4415824Y50449496D01*
X4001436Y50277851D01*
X3628497Y50028661D01*
X3311339Y49711503D01*
X3062149Y49338564D01*
X2890504Y48924176D01*
X2803000Y48484265D01*
X727000Y48484265D01*
X727000Y50630000D01*
X12189725Y50630000D01*
X12189725Y48430000D01*
X12202796Y48297285D01*
X12241508Y48169670D01*
X12304372Y48052059D01*
X12388973Y47948973D01*
X12492059Y47864372D01*
X12609670Y47801508D01*
X12737285Y47762796D01*
X12870000Y47749725D01*
X15070000Y47749725D01*
X15202715Y47762796D01*
X15330330Y47801508D01*
X15447941Y47864372D01*
X15464547Y47878000D01*
X31065720Y47878000D01*
X31339725Y47603994D01*
X31339725Y47307500D01*
X31352796Y47174785D01*
X31391508Y47047170D01*
X31454372Y46929559D01*
X31538973Y46826473D01*
X31642059Y46741872D01*
X31759670Y46679008D01*
X31887285Y46640296D01*
X32020000Y46627225D01*
X32743658Y46627225D01*
X33019999Y46600008D01*
X33296341Y46627225D01*
X34020000Y46627225D01*
X34152715Y46640296D01*
X34280330Y46679008D01*
X34397941Y46741872D01*
X34501027Y46826473D01*
X34585628Y46929559D01*
X34648492Y47047170D01*
X34687204Y47174785D01*
X34700275Y47307500D01*
X34700275Y48484265D01*
X77733000Y48484265D01*
X77733000Y48035735D01*
X77820504Y47595824D01*
X77992149Y47181436D01*
X78241339Y46808497D01*
X78558497Y46491339D01*
X78931436Y46242149D01*
X79345824Y46070504D01*
X79785735Y45983000D01*
X80234265Y45983000D01*
X80674176Y46070504D01*
X81088564Y46242149D01*
X81461503Y46491339D01*
X81778661Y46808497D01*
X82027851Y47181436D01*
X82199496Y47595824D01*
X82287000Y48035735D01*
X82287000Y48484265D01*
X82199496Y48924176D01*
X82027851Y49338564D01*
X81778661Y49711503D01*
X81461503Y50028661D01*
X81088564Y50277851D01*
X80674176Y50449496D01*
X80234265Y50537000D01*
X79785735Y50537000D01*
X79345824Y50449496D01*
X78931436Y50277851D01*
X78558497Y50028661D01*
X78241339Y49711503D01*
X77992149Y49338564D01*
X77820504Y48924176D01*
X77733000Y48484265D01*
X34700275Y48484265D01*
X34700275Y49212500D01*
X34687204Y49345215D01*
X34648492Y49472830D01*
X34585628Y49590441D01*
X34501027Y49693527D01*
X34397941Y49778128D01*
X34280330Y49840992D01*
X34152715Y49879704D01*
X34020000Y49892775D01*
X33723506Y49892775D01*
X32975527Y50640753D01*
X32923792Y50703792D01*
X32672243Y50910234D01*
X32385252Y51063634D01*
X32073849Y51158097D01*
X31831155Y51182000D01*
X31831147Y51182000D01*
X31750000Y51189992D01*
X31668853Y51182000D01*
X15464547Y51182000D01*
X15447941Y51195628D01*
X15330330Y51258492D01*
X15202715Y51297204D01*
X15070000Y51310275D01*
X12870000Y51310275D01*
X12737285Y51297204D01*
X12609670Y51258492D01*
X12492059Y51195628D01*
X12388973Y51111027D01*
X12304372Y51007941D01*
X12241508Y50890330D01*
X12202796Y50762715D01*
X12189725Y50630000D01*
X727000Y50630000D01*
X727000Y52613000D01*
X84363000Y52613000D01*
X84363001Y727000D01*
G37*
X84363001Y727000D02*
X727000Y727000D01*
X727000Y5304265D01*
X2803000Y5304265D01*
X2803000Y4855735D01*
X2890504Y4415824D01*
X3062149Y4001436D01*
X3311339Y3628497D01*
X3628497Y3311339D01*
X4001436Y3062149D01*
X4415824Y2890504D01*
X4855735Y2803000D01*
X5304265Y2803000D01*
X5744176Y2890504D01*
X6158564Y3062149D01*
X6531503Y3311339D01*
X6848661Y3628497D01*
X7097851Y4001436D01*
X7269496Y4415824D01*
X7357000Y4855735D01*
X7357000Y5304265D01*
X7269496Y5744176D01*
X7097851Y6158564D01*
X6848661Y6531503D01*
X6531503Y6848661D01*
X6158564Y7097851D01*
X5744176Y7269496D01*
X5304265Y7357000D01*
X4855735Y7357000D01*
X4415824Y7269496D01*
X4001436Y7097851D01*
X3628497Y6848661D01*
X3311339Y6531503D01*
X3062149Y6158564D01*
X2890504Y5744176D01*
X2803000Y5304265D01*
X727000Y5304265D01*
X727000Y21779793D01*
X4423000Y21779793D01*
X4423000Y21400207D01*
X4497053Y21027915D01*
X4642315Y20677223D01*
X4853201Y20361609D01*
X5121609Y20093201D01*
X5437223Y19882315D01*
X5787915Y19737053D01*
X6160207Y19663000D01*
X6539793Y19663000D01*
X6912085Y19737053D01*
X7262777Y19882315D01*
X7346116Y19938000D01*
X8205720Y19938000D01*
X9778001Y18365718D01*
X9778001Y16688280D01*
X8845525Y17620755D01*
X8793792Y17683792D01*
X8542243Y17890234D01*
X8255252Y18043634D01*
X7943849Y18138097D01*
X7701155Y18162000D01*
X7701147Y18162000D01*
X7620000Y18169992D01*
X7538853Y18162000D01*
X7346116Y18162000D01*
X7262777Y18217685D01*
X6912085Y18362947D01*
X6539793Y18437000D01*
X6160207Y18437000D01*
X5787915Y18362947D01*
X5437223Y18217685D01*
X5121609Y18006799D01*
X4853201Y17738391D01*
X4642315Y17422777D01*
X4497053Y17072085D01*
X4423000Y16699793D01*
X4423000Y16320207D01*
X4497053Y15947915D01*
X4642315Y15597223D01*
X4853201Y15281609D01*
X5121609Y15013201D01*
X5437223Y14802315D01*
X5787915Y14657053D01*
X6160207Y14583000D01*
X6539793Y14583000D01*
X6912085Y14657053D01*
X7070888Y14722832D01*
X7238000Y14555719D01*
X7238001Y12781157D01*
X7230008Y12700000D01*
X7261903Y12376152D01*
X7356367Y12064748D01*
X7509766Y11777758D01*
X7664475Y11589245D01*
X7664478Y11589242D01*
X7716209Y11526208D01*
X7779243Y11474477D01*
X11474473Y7779247D01*
X11526208Y7716208D01*
X11777757Y7509766D01*
X12064748Y7356366D01*
X12376151Y7261903D01*
X12618845Y7238000D01*
X12618852Y7238000D01*
X12700000Y7230008D01*
X12781147Y7238000D01*
X14555720Y7238000D01*
X16554477Y5239242D01*
X16606208Y5176208D01*
X16669242Y5124477D01*
X16669244Y5124475D01*
X16723437Y5080000D01*
X16857757Y4969766D01*
X17144748Y4816366D01*
X17456151Y4721903D01*
X17698845Y4698000D01*
X17698854Y4698000D01*
X17779999Y4690008D01*
X17861144Y4698000D01*
X22778853Y4698000D01*
X22860000Y4690008D01*
X22941147Y4698000D01*
X22941155Y4698000D01*
X23183849Y4721903D01*
X23495252Y4816366D01*
X23782243Y4969766D01*
X24033792Y5176208D01*
X24085527Y5239247D01*
X26510758Y7664477D01*
X26573792Y7716208D01*
X26625526Y7779245D01*
X26671544Y7835318D01*
X26780234Y7967757D01*
X26933634Y8254748D01*
X27028097Y8566151D01*
X27052000Y8808845D01*
X27052000Y8808854D01*
X27059992Y8889999D01*
X27052000Y8971144D01*
X27052000Y10034573D01*
X27250457Y9974371D01*
X27467444Y9953000D01*
X28412556Y9953000D01*
X28629543Y9974371D01*
X28828001Y10034573D01*
X28828000Y7538846D01*
X28828001Y7538836D01*
X28828000Y5161148D01*
X28820008Y5080000D01*
X28828000Y4998853D01*
X28828000Y4998846D01*
X28851903Y4756152D01*
X28946366Y4444749D01*
X29099766Y4157758D01*
X29306208Y3906208D01*
X29369247Y3854473D01*
X31794477Y1429242D01*
X31846208Y1366208D01*
X31909242Y1314477D01*
X31909244Y1314475D01*
X31965318Y1268456D01*
X32097757Y1159766D01*
X32384748Y1006366D01*
X32696151Y911903D01*
X32938845Y888000D01*
X32938854Y888000D01*
X33019999Y880008D01*
X33101144Y888000D01*
X63418853Y888000D01*
X63500000Y880008D01*
X63581147Y888000D01*
X63581155Y888000D01*
X63823849Y911903D01*
X64135252Y1006366D01*
X64422243Y1159766D01*
X64673792Y1366208D01*
X64725527Y1429247D01*
X68420755Y5124475D01*
X68483792Y5176208D01*
X68588886Y5304265D01*
X77733000Y5304265D01*
X77733000Y4855735D01*
X77820504Y4415824D01*
X77992149Y4001436D01*
X78241339Y3628497D01*
X78558497Y3311339D01*
X78931436Y3062149D01*
X79345824Y2890504D01*
X79785735Y2803000D01*
X80234265Y2803000D01*
X80674176Y2890504D01*
X81088564Y3062149D01*
X81461503Y3311339D01*
X81778661Y3628497D01*
X82027851Y4001436D01*
X82199496Y4415824D01*
X82287000Y4855735D01*
X82287000Y5304265D01*
X82199496Y5744176D01*
X82027851Y6158564D01*
X81778661Y6531503D01*
X81461503Y6848661D01*
X81088564Y7097851D01*
X80674176Y7269496D01*
X80234265Y7357000D01*
X79785735Y7357000D01*
X79345824Y7269496D01*
X78931436Y7097851D01*
X78558497Y6848661D01*
X78241339Y6531503D01*
X77992149Y6158564D01*
X77820504Y5744176D01*
X77733000Y5304265D01*
X68588886Y5304265D01*
X68690234Y5427757D01*
X68843634Y5714748D01*
X68938097Y6026151D01*
X68962000Y6268845D01*
X68962000Y6268852D01*
X68969992Y6350000D01*
X68962000Y6431147D01*
X68962000Y33605720D01*
X69264281Y33908000D01*
X72078052Y33908000D01*
X72025978Y33844547D01*
X71888828Y33587958D01*
X71804371Y33309543D01*
X71775854Y33020000D01*
X71804371Y32730457D01*
X71888828Y32452042D01*
X72025978Y32195453D01*
X72210550Y31970550D01*
X72435453Y31785978D01*
X72502763Y31750000D01*
X72435453Y31714022D01*
X72210550Y31529450D01*
X72025978Y31304547D01*
X71888828Y31047958D01*
X71804371Y30769543D01*
X71775854Y30480000D01*
X71804371Y30190457D01*
X71888828Y29912042D01*
X72025978Y29655453D01*
X72210550Y29430550D01*
X72435453Y29245978D01*
X72502763Y29210000D01*
X72435453Y29174022D01*
X72210550Y28989450D01*
X72025978Y28764547D01*
X71888828Y28507958D01*
X71804371Y28229543D01*
X71775854Y27940000D01*
X71804371Y27650457D01*
X71888828Y27372042D01*
X72025978Y27115453D01*
X72210550Y26890550D01*
X72435453Y26705978D01*
X72502763Y26670000D01*
X72435453Y26634022D01*
X72210550Y26449450D01*
X72025978Y26224547D01*
X71888828Y25967958D01*
X71804371Y25689543D01*
X71775854Y25400000D01*
X71804371Y25110457D01*
X71888828Y24832042D01*
X72025978Y24575453D01*
X72210550Y24350550D01*
X72435453Y24165978D01*
X72502763Y24130000D01*
X72435453Y24094022D01*
X72210550Y23909450D01*
X72025978Y23684547D01*
X71888828Y23427958D01*
X71804371Y23149543D01*
X71775854Y22860000D01*
X71804371Y22570457D01*
X71888828Y22292042D01*
X72025978Y22035453D01*
X72210550Y21810550D01*
X72435453Y21625978D01*
X72502763Y21590000D01*
X72435453Y21554022D01*
X72210550Y21369450D01*
X72025978Y21144547D01*
X71888828Y20887958D01*
X71804371Y20609543D01*
X71775854Y20320000D01*
X71804371Y20030457D01*
X71888828Y19752042D01*
X72025978Y19495453D01*
X72210550Y19270550D01*
X72435453Y19085978D01*
X72502763Y19050000D01*
X72435453Y19014022D01*
X72210550Y18829450D01*
X72025978Y18604547D01*
X71888828Y18347958D01*
X71804371Y18069543D01*
X71775854Y17780000D01*
X71804371Y17490457D01*
X71888828Y17212042D01*
X72025978Y16955453D01*
X72210550Y16730550D01*
X72435453Y16545978D01*
X72502763Y16510000D01*
X72435453Y16474022D01*
X72210550Y16289450D01*
X72025978Y16064547D01*
X71888828Y15807958D01*
X71804371Y15529543D01*
X71775854Y15240000D01*
X71804371Y14950457D01*
X71888828Y14672042D01*
X72025978Y14415453D01*
X72210550Y14190550D01*
X72435453Y14005978D01*
X72502763Y13970000D01*
X72435453Y13934022D01*
X72210550Y13749450D01*
X72025978Y13524547D01*
X71888828Y13267958D01*
X71804371Y12989543D01*
X71775854Y12700000D01*
X71804371Y12410457D01*
X71888828Y12132042D01*
X72025978Y11875453D01*
X72210550Y11650550D01*
X72435453Y11465978D01*
X72502763Y11430000D01*
X72435453Y11394022D01*
X72210550Y11209450D01*
X72025978Y10984547D01*
X71888828Y10727958D01*
X71804371Y10449543D01*
X71775854Y10160000D01*
X71804371Y9870457D01*
X71888828Y9592042D01*
X72025978Y9335453D01*
X72210550Y9110550D01*
X72435453Y8925978D01*
X72502763Y8890000D01*
X72435453Y8854022D01*
X72210550Y8669450D01*
X72025978Y8444547D01*
X71888828Y8187958D01*
X71804371Y7909543D01*
X71775854Y7620000D01*
X71804371Y7330457D01*
X71888828Y7052042D01*
X72025978Y6795453D01*
X72210550Y6570550D01*
X72435453Y6385978D01*
X72692042Y6248828D01*
X72970457Y6164371D01*
X73187444Y6143000D01*
X74132556Y6143000D01*
X74349543Y6164371D01*
X74627958Y6248828D01*
X74884547Y6385978D01*
X75109450Y6570550D01*
X75294022Y6795453D01*
X75431172Y7052042D01*
X75515629Y7330457D01*
X75544146Y7620000D01*
X75515629Y7909543D01*
X75431172Y8187958D01*
X75294022Y8444547D01*
X75109450Y8669450D01*
X74884547Y8854022D01*
X74817237Y8890000D01*
X74884547Y8925978D01*
X75109450Y9110550D01*
X75294022Y9335453D01*
X75431172Y9592042D01*
X75515629Y9870457D01*
X75544146Y10160000D01*
X75515629Y10449543D01*
X75431172Y10727958D01*
X75294022Y10984547D01*
X75109450Y11209450D01*
X74884547Y11394022D01*
X74817237Y11430000D01*
X74884547Y11465978D01*
X75109450Y11650550D01*
X75294022Y11875453D01*
X75431172Y12132042D01*
X75515629Y12410457D01*
X75544146Y12700000D01*
X75515629Y12989543D01*
X75431172Y13267958D01*
X75294022Y13524547D01*
X75109450Y13749450D01*
X74884547Y13934022D01*
X74817237Y13970000D01*
X74884547Y14005978D01*
X75109450Y14190550D01*
X75294022Y14415453D01*
X75431172Y14672042D01*
X75515629Y14950457D01*
X75544146Y15240000D01*
X75515629Y15529543D01*
X75431172Y15807958D01*
X75294022Y16064547D01*
X75109450Y16289450D01*
X74884547Y16474022D01*
X74817237Y16510000D01*
X74884547Y16545978D01*
X75109450Y16730550D01*
X75294022Y16955453D01*
X75431172Y17212042D01*
X75515629Y17490457D01*
X75544146Y17780000D01*
X75515629Y18069543D01*
X75431172Y18347958D01*
X75294022Y18604547D01*
X75109450Y18829450D01*
X74884547Y19014022D01*
X74817237Y19050000D01*
X74884547Y19085978D01*
X75109450Y19270550D01*
X75294022Y19495453D01*
X75431172Y19752042D01*
X75515629Y20030457D01*
X75544146Y20320000D01*
X75515629Y20609543D01*
X75431172Y20887958D01*
X75294022Y21144547D01*
X75109450Y21369450D01*
X74884547Y21554022D01*
X74817237Y21590000D01*
X74884547Y21625978D01*
X75109450Y21810550D01*
X75294022Y22035453D01*
X75431172Y22292042D01*
X75515629Y22570457D01*
X75544146Y22860000D01*
X75515629Y23149543D01*
X75431172Y23427958D01*
X75294022Y23684547D01*
X75109450Y23909450D01*
X74884547Y24094022D01*
X74817237Y24130000D01*
X74884547Y24165978D01*
X75109450Y24350550D01*
X75294022Y24575453D01*
X75431172Y24832042D01*
X75515629Y25110457D01*
X75544146Y25400000D01*
X75515629Y25689543D01*
X75431172Y25967958D01*
X75294022Y26224547D01*
X75109450Y26449450D01*
X74884547Y26634022D01*
X74817237Y26670000D01*
X74884547Y26705978D01*
X75109450Y26890550D01*
X75294022Y27115453D01*
X75431172Y27372042D01*
X75515629Y27650457D01*
X75544146Y27940000D01*
X75515629Y28229543D01*
X75431172Y28507958D01*
X75294022Y28764547D01*
X75109450Y28989450D01*
X74884547Y29174022D01*
X74817237Y29210000D01*
X74884547Y29245978D01*
X75109450Y29430550D01*
X75294022Y29655453D01*
X75431172Y29912042D01*
X75515629Y30190457D01*
X75544146Y30480000D01*
X75515629Y30769543D01*
X75431172Y31047958D01*
X75294022Y31304547D01*
X75241948Y31368000D01*
X81198853Y31368000D01*
X81280000Y31360008D01*
X81361147Y31368000D01*
X81361155Y31368000D01*
X81603849Y31391903D01*
X81915252Y31486366D01*
X82202243Y31639766D01*
X82453792Y31846208D01*
X82505527Y31909247D01*
X83660758Y33064477D01*
X83723792Y33116208D01*
X83816909Y33229670D01*
X83930234Y33367757D01*
X84083633Y33654747D01*
X84083634Y33654748D01*
X84178097Y33966151D01*
X84202000Y34208845D01*
X84202000Y34208854D01*
X84209992Y34289999D01*
X84202000Y34371144D01*
X84202000Y36748856D01*
X84209992Y36830001D01*
X84202000Y36911146D01*
X84202000Y36911155D01*
X84178097Y37153849D01*
X84083634Y37465252D01*
X83930234Y37752243D01*
X83882459Y37810457D01*
X83775525Y37940756D01*
X83775523Y37940758D01*
X83723792Y38003792D01*
X83660759Y38055522D01*
X82505527Y39210753D01*
X82453792Y39273792D01*
X82202243Y39480234D01*
X81915252Y39633634D01*
X81603849Y39728097D01*
X81361155Y39752000D01*
X81361147Y39752000D01*
X81280000Y39759992D01*
X81198853Y39752000D01*
X78658845Y39752000D01*
X78416151Y39728097D01*
X78104748Y39633634D01*
X77817757Y39480234D01*
X77566208Y39273792D01*
X77359766Y39022243D01*
X77206366Y38735252D01*
X77111903Y38423849D01*
X77080007Y38100000D01*
X77111903Y37776151D01*
X77206366Y37464748D01*
X77341463Y37212000D01*
X75241948Y37212000D01*
X75294022Y37275453D01*
X75431172Y37532042D01*
X75515629Y37810457D01*
X75544146Y38100000D01*
X75515629Y38389543D01*
X75431172Y38667958D01*
X75294022Y38924547D01*
X75109450Y39149450D01*
X74884547Y39334022D01*
X74627958Y39471172D01*
X74349543Y39555629D01*
X74132556Y39577000D01*
X73187444Y39577000D01*
X72970457Y39555629D01*
X72692042Y39471172D01*
X72435453Y39334022D01*
X72210550Y39149450D01*
X72025978Y38924547D01*
X71888828Y38667958D01*
X71804371Y38389543D01*
X71775854Y38100000D01*
X71804371Y37810457D01*
X71888828Y37532042D01*
X72025978Y37275453D01*
X72078052Y37212000D01*
X68661144Y37212000D01*
X68579999Y37219992D01*
X68498854Y37212000D01*
X68498845Y37212000D01*
X68256151Y37188097D01*
X67944748Y37093634D01*
X67798811Y37015629D01*
X67657757Y36940234D01*
X67469244Y36785525D01*
X67469242Y36785523D01*
X67406208Y36733792D01*
X67354477Y36670758D01*
X66199247Y35515527D01*
X66136208Y35463792D01*
X65929766Y35212242D01*
X65776366Y34925251D01*
X65681903Y34613848D01*
X65658000Y34371154D01*
X65658000Y34371147D01*
X65650008Y34290000D01*
X65658000Y34208853D01*
X65658001Y7034281D01*
X62815720Y4192000D01*
X33704281Y4192000D01*
X32132000Y5764280D01*
X32132000Y6038053D01*
X32195454Y5985978D01*
X32452043Y5848828D01*
X32730458Y5764371D01*
X33020000Y5735854D01*
X33309543Y5764371D01*
X33587958Y5848828D01*
X33844547Y5985978D01*
X34069450Y6170550D01*
X34254022Y6395453D01*
X34290000Y6462763D01*
X34325978Y6395453D01*
X34510550Y6170550D01*
X34735454Y5985978D01*
X34992043Y5848828D01*
X35270458Y5764371D01*
X35560000Y5735854D01*
X35849543Y5764371D01*
X36127958Y5848828D01*
X36384547Y5985978D01*
X36609450Y6170550D01*
X36794022Y6395453D01*
X36931172Y6652042D01*
X36951346Y6718546D01*
X37093634Y6984748D01*
X37188097Y7296151D01*
X37212000Y7538845D01*
X37212000Y8205720D01*
X38784281Y9778000D01*
X43098853Y9778000D01*
X43180000Y9770008D01*
X43261147Y9778000D01*
X43261155Y9778000D01*
X43503849Y9801903D01*
X43815252Y9896366D01*
X44102243Y10049766D01*
X44353792Y10256208D01*
X44405527Y10319247D01*
X50214281Y16128000D01*
X56838052Y16128000D01*
X56785978Y16064547D01*
X56648828Y15807958D01*
X56564371Y15529543D01*
X56535854Y15240000D01*
X56564371Y14950457D01*
X56648828Y14672042D01*
X56785978Y14415453D01*
X56970550Y14190550D01*
X57195453Y14005978D01*
X57262763Y13970000D01*
X57195453Y13934022D01*
X56970550Y13749450D01*
X56785978Y13524547D01*
X56648828Y13267958D01*
X56564371Y12989543D01*
X56535854Y12700000D01*
X56564371Y12410457D01*
X56648828Y12132042D01*
X56785978Y11875453D01*
X56970550Y11650550D01*
X57195453Y11465978D01*
X57262763Y11430000D01*
X57195453Y11394022D01*
X56970550Y11209450D01*
X56785978Y10984547D01*
X56648828Y10727958D01*
X56564371Y10449543D01*
X56535854Y10160000D01*
X56564371Y9870457D01*
X56648828Y9592042D01*
X56785978Y9335453D01*
X56970550Y9110550D01*
X57195453Y8925978D01*
X57262763Y8890000D01*
X57195453Y8854022D01*
X56970550Y8669450D01*
X56785978Y8444547D01*
X56648828Y8187958D01*
X56564371Y7909543D01*
X56535854Y7620000D01*
X56564371Y7330457D01*
X56648828Y7052042D01*
X56785978Y6795453D01*
X56970550Y6570550D01*
X57195453Y6385978D01*
X57452042Y6248828D01*
X57730457Y6164371D01*
X57947444Y6143000D01*
X58892556Y6143000D01*
X59109543Y6164371D01*
X59387958Y6248828D01*
X59644547Y6385978D01*
X59869450Y6570550D01*
X60054022Y6795453D01*
X60191172Y7052042D01*
X60275629Y7330457D01*
X60304146Y7620000D01*
X60275629Y7909543D01*
X60191172Y8187958D01*
X60054022Y8444547D01*
X59869450Y8669450D01*
X59644547Y8854022D01*
X59577237Y8890000D01*
X59644547Y8925978D01*
X59869450Y9110550D01*
X60054022Y9335453D01*
X60191172Y9592042D01*
X60275629Y9870457D01*
X60304146Y10160000D01*
X60275629Y10449543D01*
X60191172Y10727958D01*
X60054022Y10984547D01*
X59869450Y11209450D01*
X59644547Y11394022D01*
X59577237Y11430000D01*
X59644547Y11465978D01*
X59869450Y11650550D01*
X60054022Y11875453D01*
X60191172Y12132042D01*
X60275629Y12410457D01*
X60304146Y12700000D01*
X60275629Y12989543D01*
X60191172Y13267958D01*
X60054022Y13524547D01*
X59869450Y13749450D01*
X59644547Y13934022D01*
X59577237Y13970000D01*
X59644547Y14005978D01*
X59869450Y14190550D01*
X60054022Y14415453D01*
X60191172Y14672042D01*
X60275629Y14950457D01*
X60304146Y15240000D01*
X60275629Y15529543D01*
X60191172Y15807958D01*
X60054022Y16064547D01*
X59869450Y16289450D01*
X59644547Y16474022D01*
X59577237Y16510000D01*
X59644547Y16545978D01*
X59869450Y16730550D01*
X60054022Y16955453D01*
X60191172Y17212042D01*
X60275629Y17490457D01*
X60304146Y17780000D01*
X60275629Y18069543D01*
X60191172Y18347958D01*
X60054022Y18604547D01*
X59869450Y18829450D01*
X59644547Y19014022D01*
X59577237Y19050000D01*
X59644547Y19085978D01*
X59869450Y19270550D01*
X60054022Y19495453D01*
X60191172Y19752042D01*
X60275629Y20030457D01*
X60304146Y20320000D01*
X60275629Y20609543D01*
X60191172Y20887958D01*
X60054022Y21144547D01*
X59869450Y21369450D01*
X59644547Y21554022D01*
X59577237Y21590000D01*
X59644547Y21625978D01*
X59869450Y21810550D01*
X60054022Y22035453D01*
X60191172Y22292042D01*
X60275629Y22570457D01*
X60304146Y22860000D01*
X60275629Y23149543D01*
X60191172Y23427958D01*
X60054022Y23684547D01*
X59869450Y23909450D01*
X59644547Y24094022D01*
X59577237Y24130000D01*
X59644547Y24165978D01*
X59869450Y24350550D01*
X60054022Y24575453D01*
X60191172Y24832042D01*
X60275629Y25110457D01*
X60304146Y25400000D01*
X60275629Y25689543D01*
X60191172Y25967958D01*
X60054022Y26224547D01*
X59869450Y26449450D01*
X59644547Y26634022D01*
X59577237Y26670000D01*
X59644547Y26705978D01*
X59869450Y26890550D01*
X60054022Y27115453D01*
X60191172Y27372042D01*
X60275629Y27650457D01*
X60304146Y27940000D01*
X60275629Y28229543D01*
X60191172Y28507958D01*
X60054022Y28764547D01*
X59869450Y28989450D01*
X59644547Y29174022D01*
X59577237Y29210000D01*
X59644547Y29245978D01*
X59869450Y29430550D01*
X60054022Y29655453D01*
X60191172Y29912042D01*
X60275629Y30190457D01*
X60304146Y30480000D01*
X60275629Y30769543D01*
X60191172Y31047958D01*
X60054022Y31304547D01*
X59869450Y31529450D01*
X59644547Y31714022D01*
X59577237Y31750000D01*
X59644547Y31785978D01*
X59869450Y31970550D01*
X60054022Y32195453D01*
X60191172Y32452042D01*
X60275629Y32730457D01*
X60304146Y33020000D01*
X60275629Y33309543D01*
X60191172Y33587958D01*
X60054022Y33844547D01*
X59869450Y34069450D01*
X59644547Y34254022D01*
X59387958Y34391172D01*
X59109543Y34475629D01*
X58892556Y34497000D01*
X57947444Y34497000D01*
X57730457Y34475629D01*
X57452042Y34391172D01*
X57195453Y34254022D01*
X56970550Y34069450D01*
X56785978Y33844547D01*
X56648828Y33587958D01*
X56564371Y33309543D01*
X56535854Y33020000D01*
X56564371Y32730457D01*
X56648828Y32452042D01*
X56785978Y32195453D01*
X56970550Y31970550D01*
X57195453Y31785978D01*
X57262763Y31750000D01*
X57195453Y31714022D01*
X56970550Y31529450D01*
X56785978Y31304547D01*
X56648828Y31047958D01*
X56564371Y30769543D01*
X56535854Y30480000D01*
X56564371Y30190457D01*
X56648828Y29912042D01*
X56785978Y29655453D01*
X56970550Y29430550D01*
X57195453Y29245978D01*
X57262763Y29210000D01*
X57195453Y29174022D01*
X56970550Y28989450D01*
X56785978Y28764547D01*
X56648828Y28507958D01*
X56564371Y28229543D01*
X56535854Y27940000D01*
X56564371Y27650457D01*
X56648828Y27372042D01*
X56785978Y27115453D01*
X56970550Y26890550D01*
X57195453Y26705978D01*
X57262763Y26670000D01*
X57195453Y26634022D01*
X56970550Y26449450D01*
X56785978Y26224547D01*
X56648828Y25967958D01*
X56564371Y25689543D01*
X56535854Y25400000D01*
X56564371Y25110457D01*
X56648828Y24832042D01*
X56785978Y24575453D01*
X56970550Y24350550D01*
X57195453Y24165978D01*
X57262763Y24130000D01*
X57195453Y24094022D01*
X56970550Y23909450D01*
X56785978Y23684547D01*
X56648828Y23427958D01*
X56564371Y23149543D01*
X56535854Y22860000D01*
X56564371Y22570457D01*
X56648828Y22292042D01*
X56785978Y22035453D01*
X56838052Y21972000D01*
X48341147Y21972000D01*
X48259999Y21979992D01*
X48178852Y21972000D01*
X48178845Y21972000D01*
X47936151Y21948097D01*
X47624748Y21853634D01*
X47478811Y21775629D01*
X47337757Y21700234D01*
X47149244Y21545525D01*
X47149242Y21545523D01*
X47086208Y21493792D01*
X47034477Y21430758D01*
X46102000Y20498281D01*
X46102000Y22778856D01*
X46109992Y22860001D01*
X46102000Y22941146D01*
X46102000Y22941155D01*
X46078097Y23183849D01*
X45983634Y23495252D01*
X45830234Y23782243D01*
X45714717Y23923000D01*
X45675525Y23970756D01*
X45675523Y23970758D01*
X45623792Y24033792D01*
X45560758Y24085523D01*
X43135525Y26510755D01*
X43083792Y26573792D01*
X42832243Y26780234D01*
X42545252Y26933634D01*
X42233849Y27028097D01*
X41991155Y27052000D01*
X41991147Y27052000D01*
X41910000Y27059992D01*
X41828853Y27052000D01*
X37514280Y27052000D01*
X37008280Y27558000D01*
X44368853Y27558000D01*
X44450000Y27550008D01*
X44531147Y27558000D01*
X44531155Y27558000D01*
X44773849Y27581903D01*
X45085252Y27676366D01*
X45372243Y27829766D01*
X45623792Y28036208D01*
X45675527Y28099247D01*
X56564281Y38988000D01*
X56838052Y38988000D01*
X56785978Y38924547D01*
X56648828Y38667958D01*
X56564371Y38389543D01*
X56535854Y38100000D01*
X56564371Y37810457D01*
X56648828Y37532042D01*
X56785978Y37275453D01*
X56970550Y37050550D01*
X57195453Y36865978D01*
X57452042Y36728828D01*
X57730457Y36644371D01*
X57947444Y36623000D01*
X58892556Y36623000D01*
X59109543Y36644371D01*
X59387958Y36728828D01*
X59644547Y36865978D01*
X59869450Y37050550D01*
X60054022Y37275453D01*
X60191172Y37532042D01*
X60275629Y37810457D01*
X60304146Y38100000D01*
X60275629Y38389543D01*
X60191172Y38667958D01*
X60054022Y38924547D01*
X59869450Y39149450D01*
X59644547Y39334022D01*
X59577237Y39370000D01*
X59644547Y39405978D01*
X59869450Y39590550D01*
X60054022Y39815453D01*
X60191172Y40072042D01*
X60275629Y40350457D01*
X60304146Y40640000D01*
X60275629Y40929543D01*
X60191172Y41207958D01*
X60054022Y41464547D01*
X59869450Y41689450D01*
X59644547Y41874022D01*
X59577237Y41910000D01*
X59644547Y41945978D01*
X59869450Y42130550D01*
X60054022Y42355453D01*
X60191172Y42612042D01*
X60275629Y42890457D01*
X60304146Y43180000D01*
X71775854Y43180000D01*
X71804371Y42890457D01*
X71888828Y42612042D01*
X72025978Y42355453D01*
X72210550Y42130550D01*
X72435453Y41945978D01*
X72692042Y41808828D01*
X72970457Y41724371D01*
X73187444Y41703000D01*
X74132556Y41703000D01*
X74349543Y41724371D01*
X74627958Y41808828D01*
X74884547Y41945978D01*
X75109450Y42130550D01*
X75294022Y42355453D01*
X75431172Y42612042D01*
X75515629Y42890457D01*
X75544146Y43180000D01*
X75515629Y43469543D01*
X75431172Y43747958D01*
X75294022Y44004547D01*
X75109450Y44229450D01*
X74884547Y44414022D01*
X74627958Y44551172D01*
X74349543Y44635629D01*
X74132556Y44657000D01*
X73187444Y44657000D01*
X72970457Y44635629D01*
X72692042Y44551172D01*
X72435453Y44414022D01*
X72210550Y44229450D01*
X72025978Y44004547D01*
X71888828Y43747958D01*
X71804371Y43469543D01*
X71775854Y43180000D01*
X60304146Y43180000D01*
X60275629Y43469543D01*
X60191172Y43747958D01*
X60054022Y44004547D01*
X59869450Y44229450D01*
X59644547Y44414022D01*
X59387958Y44551172D01*
X59321454Y44571346D01*
X59055252Y44713634D01*
X58743849Y44808097D01*
X58501155Y44832000D01*
X54691147Y44832000D01*
X54609999Y44839992D01*
X54528852Y44832000D01*
X54528845Y44832000D01*
X54286151Y44808097D01*
X53974748Y44713634D01*
X53828811Y44635629D01*
X53687757Y44560234D01*
X53499244Y44405525D01*
X53499242Y44405523D01*
X53436208Y44353792D01*
X53384477Y44290758D01*
X42495720Y33402000D01*
X40558845Y33402000D01*
X40316151Y33378097D01*
X40004748Y33283634D01*
X39717757Y33130234D01*
X39466208Y32923792D01*
X39259766Y32672243D01*
X39106366Y32385252D01*
X39011903Y32073849D01*
X38980007Y31750000D01*
X39011903Y31426151D01*
X39106366Y31114748D01*
X39241463Y30862000D01*
X36748845Y30862000D01*
X36506151Y30838097D01*
X36194748Y30743634D01*
X35907757Y30590234D01*
X35656208Y30383792D01*
X35449766Y30132243D01*
X35296366Y29845252D01*
X35201903Y29533849D01*
X35186708Y29379572D01*
X34245525Y30320755D01*
X34193792Y30383792D01*
X33942243Y30590234D01*
X33655252Y30743634D01*
X33343849Y30838097D01*
X33101155Y30862000D01*
X33101147Y30862000D01*
X33020000Y30869992D01*
X32938853Y30862000D01*
X29592000Y30862000D01*
X29592000Y33605720D01*
X31590759Y35604478D01*
X31653792Y35656208D01*
X31860234Y35907757D01*
X32013634Y36194748D01*
X32108097Y36506151D01*
X32132000Y36748845D01*
X32132000Y36748854D01*
X32139992Y36829999D01*
X32132000Y36911144D01*
X32132000Y41225720D01*
X32434281Y41528000D01*
X33101155Y41528000D01*
X33343849Y41551903D01*
X33655252Y41646366D01*
X33942243Y41799766D01*
X33942675Y41800121D01*
X33977182Y41818565D01*
X34225305Y42022195D01*
X34428935Y42270318D01*
X34580246Y42553400D01*
X34673422Y42860562D01*
X34704884Y43180000D01*
X34673422Y43499438D01*
X34580246Y43806600D01*
X34428935Y44089682D01*
X34225305Y44337805D01*
X33977182Y44541435D01*
X33942675Y44559879D01*
X33942243Y44560234D01*
X33655252Y44713634D01*
X33343849Y44808097D01*
X33101155Y44832000D01*
X31831144Y44832000D01*
X31749999Y44839992D01*
X31668854Y44832000D01*
X31668845Y44832000D01*
X31426151Y44808097D01*
X31114748Y44713634D01*
X30968811Y44635629D01*
X30827757Y44560234D01*
X30639244Y44405525D01*
X30639242Y44405523D01*
X30576208Y44353792D01*
X30524477Y44290758D01*
X29369242Y43135522D01*
X29306209Y43083792D01*
X29254478Y43020758D01*
X29254475Y43020755D01*
X29099766Y42832242D01*
X28946367Y42545252D01*
X28851903Y42233848D01*
X28820008Y41910000D01*
X28828001Y41828843D01*
X28828000Y37514281D01*
X27255720Y35942000D01*
X21508845Y35942000D01*
X21266151Y35918097D01*
X20954748Y35823634D01*
X20854920Y35770275D01*
X20790000Y35770275D01*
X20657285Y35757204D01*
X20529670Y35718492D01*
X20412059Y35655628D01*
X20308973Y35571027D01*
X20224372Y35467941D01*
X20161508Y35350330D01*
X20122796Y35222715D01*
X20109725Y35090000D01*
X20109725Y35025080D01*
X20056366Y34925252D01*
X19961903Y34613849D01*
X19930007Y34290000D01*
X19961903Y33966151D01*
X20056366Y33654748D01*
X20109725Y33554920D01*
X20109725Y33490000D01*
X20122796Y33357285D01*
X20161508Y33229670D01*
X20224372Y33112059D01*
X20308973Y33008973D01*
X20412059Y32924372D01*
X20529670Y32861508D01*
X20657285Y32822796D01*
X20790000Y32809725D01*
X20854920Y32809725D01*
X20954748Y32756366D01*
X21266151Y32661903D01*
X21508845Y32638000D01*
X26288000Y32638000D01*
X26288001Y30000914D01*
X26168828Y29777958D01*
X26084371Y29499543D01*
X26055854Y29210000D01*
X26084371Y28920457D01*
X26168828Y28642042D01*
X26305978Y28385453D01*
X26490550Y28160550D01*
X26715453Y27975978D01*
X26972042Y27838828D01*
X27038546Y27818654D01*
X27304748Y27676366D01*
X27616151Y27581903D01*
X27858845Y27558000D01*
X27940000Y27550007D01*
X28021155Y27558000D01*
X32335720Y27558000D01*
X35604473Y24289247D01*
X35656208Y24226208D01*
X35907757Y24019766D01*
X36194748Y23866366D01*
X36506151Y23771903D01*
X36748845Y23748000D01*
X36748852Y23748000D01*
X36830000Y23740008D01*
X36911147Y23748000D01*
X41225720Y23748000D01*
X42798001Y22175718D01*
X42798000Y21004280D01*
X42292000Y20498280D01*
X42292000Y21671155D01*
X42268097Y21913849D01*
X42173634Y22225252D01*
X42020234Y22512243D01*
X41813792Y22763792D01*
X41562242Y22970234D01*
X41275251Y23123634D01*
X40963848Y23218097D01*
X40640000Y23249993D01*
X40316151Y23218097D01*
X40004748Y23123634D01*
X39717757Y22970234D01*
X39466208Y22763792D01*
X39259766Y22512242D01*
X39106366Y22225251D01*
X39011903Y21913848D01*
X38988000Y21671154D01*
X38988000Y21004281D01*
X38685720Y20702000D01*
X38301608Y20702000D01*
X38310275Y20790000D01*
X38310275Y20854920D01*
X38363634Y20954748D01*
X38458097Y21266151D01*
X38489993Y21590000D01*
X38458097Y21913849D01*
X38363634Y22225252D01*
X38310275Y22325080D01*
X38310275Y22390000D01*
X38297204Y22522715D01*
X38258492Y22650330D01*
X38195628Y22767941D01*
X38111027Y22871027D01*
X38007941Y22955628D01*
X37890330Y23018492D01*
X37762715Y23057204D01*
X37630000Y23070275D01*
X37565080Y23070275D01*
X37465252Y23123634D01*
X37153849Y23218097D01*
X36911155Y23242000D01*
X33101144Y23242000D01*
X33019999Y23249992D01*
X32938854Y23242000D01*
X32938845Y23242000D01*
X32696151Y23218097D01*
X32384748Y23123634D01*
X32097757Y22970234D01*
X31976874Y22871027D01*
X31909244Y22815525D01*
X31909242Y22815523D01*
X31846208Y22763792D01*
X31794477Y22700758D01*
X29795720Y20702000D01*
X29521948Y20702000D01*
X29574022Y20765453D01*
X29711172Y21022042D01*
X29795629Y21300457D01*
X29824146Y21590000D01*
X29795629Y21879543D01*
X29711172Y22157958D01*
X29574022Y22414547D01*
X29389450Y22639450D01*
X29164547Y22824022D01*
X29097237Y22860000D01*
X29164547Y22895978D01*
X29389450Y23080550D01*
X29574022Y23305453D01*
X29711172Y23562042D01*
X29795629Y23840457D01*
X29824146Y24130000D01*
X29795629Y24419543D01*
X29711172Y24697958D01*
X29574022Y24954547D01*
X29389450Y25179450D01*
X29164547Y25364022D01*
X28907958Y25501172D01*
X28841454Y25521346D01*
X28575252Y25663634D01*
X28263849Y25758097D01*
X28021155Y25782000D01*
X25481144Y25782000D01*
X25399999Y25789992D01*
X25318854Y25782000D01*
X25318845Y25782000D01*
X25076151Y25758097D01*
X24764748Y25663634D01*
X24477757Y25510234D01*
X24345318Y25401544D01*
X24289244Y25355525D01*
X24289242Y25355523D01*
X24226208Y25303792D01*
X24174477Y25240758D01*
X21749247Y22815527D01*
X21686208Y22763792D01*
X21658732Y22730313D01*
X21544547Y22824022D01*
X21477237Y22860000D01*
X21544547Y22895978D01*
X21769450Y23080550D01*
X21954022Y23305453D01*
X22091172Y23562042D01*
X22175629Y23840457D01*
X22204146Y24130000D01*
X22175629Y24419543D01*
X22091172Y24697958D01*
X21954022Y24954547D01*
X21769450Y25179450D01*
X21544547Y25364022D01*
X21477237Y25400000D01*
X21544547Y25435978D01*
X21769450Y25620550D01*
X21954022Y25845453D01*
X22091172Y26102042D01*
X22175629Y26380457D01*
X22204146Y26670000D01*
X22175629Y26959543D01*
X22091172Y27237958D01*
X21954022Y27494547D01*
X21769450Y27719450D01*
X21717176Y27762350D01*
X21780330Y27781508D01*
X21897941Y27844372D01*
X22001027Y27928973D01*
X22085628Y28032059D01*
X22148492Y28149670D01*
X22187204Y28277285D01*
X22200275Y28410000D01*
X22200275Y30010000D01*
X22187204Y30142715D01*
X22148492Y30270330D01*
X22085628Y30387941D01*
X22001027Y30491027D01*
X21897941Y30575628D01*
X21780330Y30638492D01*
X21652715Y30677204D01*
X21520000Y30690275D01*
X21055080Y30690275D01*
X20955252Y30743634D01*
X20643849Y30838097D01*
X20401155Y30862000D01*
X16428845Y30862000D01*
X16186151Y30838097D01*
X15874748Y30743634D01*
X15587757Y30590234D01*
X15336208Y30383792D01*
X15129766Y30132243D01*
X14976366Y29845252D01*
X14881903Y29533849D01*
X14850007Y29210000D01*
X14881903Y28886151D01*
X14976366Y28574748D01*
X15113832Y28317567D01*
X14916151Y28298097D01*
X14604748Y28203634D01*
X14458811Y28125629D01*
X14317757Y28050234D01*
X14129244Y27895525D01*
X14129242Y27895523D01*
X14066208Y27843792D01*
X14014477Y27780758D01*
X12859247Y26625527D01*
X12796208Y26573792D01*
X12589766Y26322242D01*
X12436366Y26035251D01*
X12341903Y25723848D01*
X12318000Y25481154D01*
X12318000Y25481147D01*
X12310008Y25400000D01*
X12318000Y25318853D01*
X12318000Y24128845D01*
X12341903Y23886151D01*
X12436366Y23574748D01*
X12589767Y23287757D01*
X12796209Y23036208D01*
X13047758Y22829766D01*
X13334749Y22676366D01*
X13646152Y22581903D01*
X13970000Y22550007D01*
X14293849Y22581903D01*
X14605252Y22676366D01*
X14892243Y22829766D01*
X15143792Y23036208D01*
X15240000Y23153437D01*
X15336208Y23036208D01*
X15502177Y22900000D01*
X15336208Y22763792D01*
X15129766Y22512243D01*
X14976366Y22225252D01*
X14881903Y21913849D01*
X14850007Y21590000D01*
X14881903Y21266151D01*
X14976366Y20954748D01*
X15129766Y20667757D01*
X15336208Y20416208D01*
X15587757Y20209766D01*
X15874748Y20056366D01*
X16186151Y19961903D01*
X16340428Y19946708D01*
X15399247Y19005527D01*
X15336208Y18953792D01*
X15129766Y18702242D01*
X14976366Y18415251D01*
X14881903Y18103848D01*
X14869919Y17982166D01*
X14605251Y18123634D01*
X14293848Y18218097D01*
X13970000Y18249993D01*
X13646151Y18218097D01*
X13334748Y18123634D01*
X13082000Y17988537D01*
X13082000Y18968856D01*
X13089992Y19050001D01*
X13082000Y19131146D01*
X13082000Y19131155D01*
X13058097Y19373849D01*
X12963634Y19685252D01*
X12810234Y19972243D01*
X12686678Y20122796D01*
X12655525Y20160756D01*
X12655523Y20160758D01*
X12603792Y20223792D01*
X12540758Y20275523D01*
X10115525Y22700755D01*
X10063792Y22763792D01*
X9812243Y22970234D01*
X9525252Y23123634D01*
X9213849Y23218097D01*
X8971155Y23242000D01*
X8971147Y23242000D01*
X8890000Y23249992D01*
X8808853Y23242000D01*
X7346116Y23242000D01*
X7262777Y23297685D01*
X6912085Y23442947D01*
X6539793Y23517000D01*
X6160207Y23517000D01*
X5787915Y23442947D01*
X5437223Y23297685D01*
X5121609Y23086799D01*
X4853201Y22818391D01*
X4642315Y22502777D01*
X4497053Y22152085D01*
X4423000Y21779793D01*
X727000Y21779793D01*
X727000Y26859793D01*
X4423000Y26859793D01*
X4423000Y26480207D01*
X4497053Y26107915D01*
X4642315Y25757223D01*
X4853201Y25441609D01*
X5121609Y25173201D01*
X5437223Y24962315D01*
X5787915Y24817053D01*
X6160207Y24743000D01*
X6539793Y24743000D01*
X6912085Y24817053D01*
X7262777Y24962315D01*
X7578391Y25173201D01*
X7846799Y25441609D01*
X8057685Y25757223D01*
X8202947Y26107915D01*
X8277000Y26480207D01*
X8277000Y26859793D01*
X8202947Y27232085D01*
X8057685Y27582777D01*
X7846799Y27898391D01*
X7578391Y28166799D01*
X7262777Y28377685D01*
X6912085Y28522947D01*
X6539793Y28597000D01*
X6160207Y28597000D01*
X5787915Y28522947D01*
X5437223Y28377685D01*
X5121609Y28166799D01*
X4853201Y27898391D01*
X4642315Y27582777D01*
X4497053Y27232085D01*
X4423000Y26859793D01*
X727000Y26859793D01*
X727000Y38080000D01*
X4419725Y38080000D01*
X4419725Y35580000D01*
X4432796Y35447285D01*
X4471508Y35319670D01*
X4534372Y35202059D01*
X4618973Y35098973D01*
X4722059Y35014372D01*
X4839670Y34951508D01*
X4967285Y34912796D01*
X5100000Y34899725D01*
X7600000Y34899725D01*
X7732715Y34912796D01*
X7860330Y34951508D01*
X7977941Y35014372D01*
X8081027Y35098973D01*
X8145883Y35178000D01*
X11348853Y35178000D01*
X11430000Y35170008D01*
X11511147Y35178000D01*
X11511155Y35178000D01*
X11753849Y35201903D01*
X12065252Y35296366D01*
X12352243Y35449766D01*
X12603792Y35656208D01*
X12655527Y35719247D01*
X14674813Y37738532D01*
X14811725Y37795243D01*
X15102771Y37989714D01*
X15350286Y38237229D01*
X15544757Y38528275D01*
X15678711Y38851668D01*
X15747000Y39194981D01*
X15747000Y39545019D01*
X15678711Y39888332D01*
X15544757Y40211725D01*
X15350286Y40502771D01*
X15102771Y40750286D01*
X14811725Y40944757D01*
X14488332Y41078711D01*
X14145019Y41147000D01*
X13794981Y41147000D01*
X13451668Y41078711D01*
X13128275Y40944757D01*
X12837229Y40750286D01*
X12589714Y40502771D01*
X12395243Y40211725D01*
X12338532Y40074813D01*
X10745720Y38482000D01*
X8145883Y38482000D01*
X8081027Y38561027D01*
X7977941Y38645628D01*
X7860330Y38708492D01*
X7732715Y38747204D01*
X7600000Y38760275D01*
X5100000Y38760275D01*
X4967285Y38747204D01*
X4839670Y38708492D01*
X4722059Y38645628D01*
X4618973Y38561027D01*
X4534372Y38457941D01*
X4471508Y38340330D01*
X4432796Y38212715D01*
X4419725Y38080000D01*
X727000Y38080000D01*
X727000Y45959039D01*
X47253000Y45959039D01*
X47253000Y45480961D01*
X47346268Y45012070D01*
X47529221Y44570385D01*
X47794826Y44172878D01*
X48132878Y43834826D01*
X48530385Y43569221D01*
X48972070Y43386268D01*
X49440961Y43293000D01*
X49919039Y43293000D01*
X50387930Y43386268D01*
X50829615Y43569221D01*
X51227122Y43834826D01*
X51565174Y44172878D01*
X51830779Y44570385D01*
X52013732Y45012070D01*
X52107000Y45480961D01*
X52107000Y45959039D01*
X52013732Y46427930D01*
X51830779Y46869615D01*
X51565174Y47267122D01*
X51227122Y47605174D01*
X50829615Y47870779D01*
X50387930Y48053732D01*
X49919039Y48147000D01*
X49440961Y48147000D01*
X48972070Y48053732D01*
X48530385Y47870779D01*
X48132878Y47605174D01*
X47794826Y47267122D01*
X47529221Y46869615D01*
X47346268Y46427930D01*
X47253000Y45959039D01*
X727000Y45959039D01*
X727000Y48484265D01*
X2803000Y48484265D01*
X2803000Y48035735D01*
X2890504Y47595824D01*
X3062149Y47181436D01*
X3311339Y46808497D01*
X3628497Y46491339D01*
X4001436Y46242149D01*
X4415824Y46070504D01*
X4855735Y45983000D01*
X5304265Y45983000D01*
X5744176Y46070504D01*
X6158564Y46242149D01*
X6531503Y46491339D01*
X6848661Y46808497D01*
X7097851Y47181436D01*
X7269496Y47595824D01*
X7357000Y48035735D01*
X7357000Y48484265D01*
X7269496Y48924176D01*
X7097851Y49338564D01*
X6848661Y49711503D01*
X6531503Y50028661D01*
X6158564Y50277851D01*
X5744176Y50449496D01*
X5304265Y50537000D01*
X4855735Y50537000D01*
X4415824Y50449496D01*
X4001436Y50277851D01*
X3628497Y50028661D01*
X3311339Y49711503D01*
X3062149Y49338564D01*
X2890504Y48924176D01*
X2803000Y48484265D01*
X727000Y48484265D01*
X727000Y50630000D01*
X12189725Y50630000D01*
X12189725Y48430000D01*
X12202796Y48297285D01*
X12241508Y48169670D01*
X12304372Y48052059D01*
X12388973Y47948973D01*
X12492059Y47864372D01*
X12609670Y47801508D01*
X12737285Y47762796D01*
X12870000Y47749725D01*
X15070000Y47749725D01*
X15202715Y47762796D01*
X15330330Y47801508D01*
X15447941Y47864372D01*
X15464547Y47878000D01*
X31065720Y47878000D01*
X31339725Y47603994D01*
X31339725Y47307500D01*
X31352796Y47174785D01*
X31391508Y47047170D01*
X31454372Y46929559D01*
X31538973Y46826473D01*
X31642059Y46741872D01*
X31759670Y46679008D01*
X31887285Y46640296D01*
X32020000Y46627225D01*
X32743658Y46627225D01*
X33019999Y46600008D01*
X33296341Y46627225D01*
X34020000Y46627225D01*
X34152715Y46640296D01*
X34280330Y46679008D01*
X34397941Y46741872D01*
X34501027Y46826473D01*
X34585628Y46929559D01*
X34648492Y47047170D01*
X34687204Y47174785D01*
X34700275Y47307500D01*
X34700275Y48484265D01*
X77733000Y48484265D01*
X77733000Y48035735D01*
X77820504Y47595824D01*
X77992149Y47181436D01*
X78241339Y46808497D01*
X78558497Y46491339D01*
X78931436Y46242149D01*
X79345824Y46070504D01*
X79785735Y45983000D01*
X80234265Y45983000D01*
X80674176Y46070504D01*
X81088564Y46242149D01*
X81461503Y46491339D01*
X81778661Y46808497D01*
X82027851Y47181436D01*
X82199496Y47595824D01*
X82287000Y48035735D01*
X82287000Y48484265D01*
X82199496Y48924176D01*
X82027851Y49338564D01*
X81778661Y49711503D01*
X81461503Y50028661D01*
X81088564Y50277851D01*
X80674176Y50449496D01*
X80234265Y50537000D01*
X79785735Y50537000D01*
X79345824Y50449496D01*
X78931436Y50277851D01*
X78558497Y50028661D01*
X78241339Y49711503D01*
X77992149Y49338564D01*
X77820504Y48924176D01*
X77733000Y48484265D01*
X34700275Y48484265D01*
X34700275Y49212500D01*
X34687204Y49345215D01*
X34648492Y49472830D01*
X34585628Y49590441D01*
X34501027Y49693527D01*
X34397941Y49778128D01*
X34280330Y49840992D01*
X34152715Y49879704D01*
X34020000Y49892775D01*
X33723506Y49892775D01*
X32975527Y50640753D01*
X32923792Y50703792D01*
X32672243Y50910234D01*
X32385252Y51063634D01*
X32073849Y51158097D01*
X31831155Y51182000D01*
X31831147Y51182000D01*
X31750000Y51189992D01*
X31668853Y51182000D01*
X15464547Y51182000D01*
X15447941Y51195628D01*
X15330330Y51258492D01*
X15202715Y51297204D01*
X15070000Y51310275D01*
X12870000Y51310275D01*
X12737285Y51297204D01*
X12609670Y51258492D01*
X12492059Y51195628D01*
X12388973Y51111027D01*
X12304372Y51007941D01*
X12241508Y50890330D01*
X12202796Y50762715D01*
X12189725Y50630000D01*
X727000Y50630000D01*
X727000Y52613000D01*
X84363000Y52613000D01*
X84363001Y727000D01*
M02*
